G04 #@! TF.FileFunction,Other,User*
%FSLAX46Y46*%
G04 Gerber Fmt 4.6, Leading zero omitted, Abs format (unit mm)*
G04 Created by KiCad (PCBNEW 4.0.6) date Fri Sep  8 15:32:28 2017*
%MOMM*%
%LPD*%
G01*
G04 APERTURE LIST*
%ADD10C,0.100000*%
%ADD11C,0.050000*%
G04 APERTURE END LIST*
D10*
D11*
X64890000Y-86501000D02*
X64890000Y-81901000D01*
X67190000Y-86501000D02*
X67190000Y-81901000D01*
X64890000Y-86501000D02*
X67190000Y-86501000D01*
X64890000Y-81901000D02*
X67190000Y-81901000D01*
X62117000Y-72143000D02*
X57517000Y-72143000D01*
X62117000Y-69843000D02*
X57517000Y-69843000D01*
X62117000Y-72143000D02*
X62117000Y-69843000D01*
X57517000Y-72143000D02*
X57517000Y-69843000D01*
X63126000Y-81901000D02*
X63126000Y-86501000D01*
X60826000Y-81901000D02*
X60826000Y-86501000D01*
X63126000Y-81901000D02*
X60826000Y-81901000D01*
X63126000Y-86501000D02*
X60826000Y-86501000D01*
X60826000Y-79643000D02*
X60826000Y-75043000D01*
X63126000Y-79643000D02*
X63126000Y-75043000D01*
X60826000Y-79643000D02*
X63126000Y-79643000D01*
X60826000Y-75043000D02*
X63126000Y-75043000D01*
X88766000Y-83834000D02*
X88766000Y-79234000D01*
X91066000Y-83834000D02*
X91066000Y-79234000D01*
X88766000Y-83834000D02*
X91066000Y-83834000D01*
X88766000Y-79234000D02*
X91066000Y-79234000D01*
X91066000Y-72630000D02*
X91066000Y-77230000D01*
X88766000Y-72630000D02*
X88766000Y-77230000D01*
X91066000Y-72630000D02*
X88766000Y-72630000D01*
X91066000Y-77230000D02*
X88766000Y-77230000D01*
X70880000Y-55760000D02*
X66280000Y-55760000D01*
X70880000Y-53460000D02*
X66280000Y-53460000D01*
X70880000Y-55760000D02*
X70880000Y-53460000D01*
X66280000Y-55760000D02*
X66280000Y-53460000D01*
X70880000Y-58554000D02*
X66280000Y-58554000D01*
X70880000Y-56254000D02*
X66280000Y-56254000D01*
X70880000Y-58554000D02*
X70880000Y-56254000D01*
X66280000Y-58554000D02*
X66280000Y-56254000D01*
X64890000Y-79643000D02*
X64890000Y-75043000D01*
X67190000Y-79643000D02*
X67190000Y-75043000D01*
X64890000Y-79643000D02*
X67190000Y-79643000D01*
X64890000Y-75043000D02*
X67190000Y-75043000D01*
X110514000Y-59530000D02*
X100814000Y-59530000D01*
X100814000Y-59530000D02*
X100814000Y-52230000D01*
X100814000Y-52230000D02*
X110514000Y-52230000D01*
X110514000Y-52230000D02*
X110514000Y-59530000D01*
X87146000Y-59530000D02*
X77446000Y-59530000D01*
X77446000Y-59530000D02*
X77446000Y-52230000D01*
X77446000Y-52230000D02*
X87146000Y-52230000D01*
X87146000Y-52230000D02*
X87146000Y-59530000D01*
X43728000Y-75164000D02*
X48728000Y-75164000D01*
X48728000Y-75164000D02*
X48728000Y-72664000D01*
X48728000Y-72664000D02*
X43728000Y-72664000D01*
X43728000Y-72664000D02*
X43728000Y-75164000D01*
X43728000Y-71100000D02*
X48728000Y-71100000D01*
X48728000Y-71100000D02*
X48728000Y-68600000D01*
X48728000Y-68600000D02*
X43728000Y-68600000D01*
X43728000Y-68600000D02*
X43728000Y-71100000D01*
X80230000Y-90136000D02*
X80230000Y-79536000D01*
X69630000Y-90136000D02*
X69630000Y-79536000D01*
X80230000Y-90136000D02*
X69630000Y-90136000D01*
X80230000Y-79536000D02*
X69630000Y-79536000D01*
X70386000Y-77188000D02*
X78986000Y-77188000D01*
X70386000Y-71138000D02*
X78986000Y-71138000D01*
X70386000Y-77188000D02*
X70386000Y-71138000D01*
X78986000Y-77188000D02*
X78986000Y-71138000D01*
X121130000Y-60170000D02*
X121130000Y-51570000D01*
X115080000Y-60170000D02*
X115080000Y-51570000D01*
X121130000Y-60170000D02*
X115080000Y-60170000D01*
X121130000Y-51570000D02*
X115080000Y-51570000D01*
X97000000Y-60170000D02*
X97000000Y-51570000D01*
X90950000Y-60170000D02*
X90950000Y-51570000D01*
X97000000Y-60170000D02*
X90950000Y-60170000D01*
X97000000Y-51570000D02*
X90950000Y-51570000D01*
X56458000Y-86528000D02*
X56458000Y-82128000D01*
X58858000Y-86528000D02*
X58858000Y-82128000D01*
X56458000Y-86528000D02*
X58858000Y-86528000D01*
X56458000Y-82128000D02*
X58858000Y-82128000D01*
X63049000Y-88097000D02*
X63049000Y-92497000D01*
X60649000Y-88097000D02*
X60649000Y-92497000D01*
X63049000Y-88097000D02*
X60649000Y-88097000D01*
X63049000Y-92497000D02*
X60649000Y-92497000D01*
X58858000Y-88097000D02*
X58858000Y-92497000D01*
X56458000Y-88097000D02*
X56458000Y-92497000D01*
X58858000Y-88097000D02*
X56458000Y-88097000D01*
X58858000Y-92497000D02*
X56458000Y-92497000D01*
X49870000Y-72714000D02*
X54270000Y-72714000D01*
X49870000Y-75114000D02*
X54270000Y-75114000D01*
X49870000Y-72714000D02*
X49870000Y-75114000D01*
X54270000Y-72714000D02*
X54270000Y-75114000D01*
X49870000Y-68650000D02*
X54270000Y-68650000D01*
X49870000Y-71050000D02*
X54270000Y-71050000D01*
X49870000Y-68650000D02*
X49870000Y-71050000D01*
X54270000Y-68650000D02*
X54270000Y-71050000D01*
X66380000Y-62808000D02*
X70780000Y-62808000D01*
X66380000Y-65208000D02*
X70780000Y-65208000D01*
X66380000Y-62808000D02*
X66380000Y-65208000D01*
X70780000Y-62808000D02*
X70780000Y-65208000D01*
X66380000Y-59760000D02*
X70780000Y-59760000D01*
X66380000Y-62160000D02*
X70780000Y-62160000D01*
X66380000Y-59760000D02*
X66380000Y-62160000D01*
X70780000Y-59760000D02*
X70780000Y-62160000D01*
X68240000Y-72193000D02*
X63840000Y-72193000D01*
X68240000Y-69793000D02*
X63840000Y-69793000D01*
X68240000Y-72193000D02*
X68240000Y-69793000D01*
X63840000Y-72193000D02*
X63840000Y-69793000D01*
X111788000Y-71148000D02*
X111788000Y-79748000D01*
X117838000Y-71148000D02*
X117838000Y-79748000D01*
X111788000Y-71148000D02*
X117838000Y-71148000D01*
X111788000Y-79748000D02*
X117838000Y-79748000D01*
X54072000Y-83410000D02*
X54072000Y-76610000D01*
X43972000Y-76610000D02*
X43972000Y-83410000D01*
X43972000Y-83410000D02*
X54072000Y-83410000D01*
X43972000Y-76610000D02*
X54072000Y-76610000D01*
X62040000Y-51696000D02*
X57340000Y-51696000D01*
X57340000Y-51696000D02*
X57340000Y-49396000D01*
X57340000Y-49396000D02*
X62040000Y-49396000D01*
X62040000Y-51696000D02*
X62040000Y-49396000D01*
X34750000Y-50600000D02*
X52300000Y-50600000D01*
X52300000Y-50600000D02*
X52300000Y-65850000D01*
X52300000Y-65850000D02*
X34750000Y-65850000D01*
X34750000Y-65850000D02*
X34750000Y-50600000D01*
X136550000Y-40000000D02*
G75*
G03X136550000Y-40000000I-4550000J0D01*
G01*
X49550000Y-40000000D02*
G75*
G03X49550000Y-40000000I-4550000J0D01*
G01*
X49550000Y-94000000D02*
G75*
G03X49550000Y-94000000I-4550000J0D01*
G01*
X136550000Y-94000000D02*
G75*
G03X136550000Y-94000000I-4550000J0D01*
G01*
X113244000Y-98714000D02*
X96244000Y-98714000D01*
X96244000Y-98714000D02*
X96244000Y-87214000D01*
X96244000Y-87214000D02*
X113244000Y-87214000D01*
X113244000Y-87214000D02*
X113244000Y-98714000D01*
X136850000Y-76830000D02*
X129800000Y-76830000D01*
X129800000Y-76830000D02*
X129800000Y-62880000D01*
X129800000Y-62880000D02*
X136850000Y-62880000D01*
X136850000Y-62880000D02*
X136850000Y-76830000D01*
X136850000Y-59304000D02*
X129800000Y-59304000D01*
X129800000Y-59304000D02*
X129800000Y-50404000D01*
X129800000Y-50404000D02*
X136850000Y-50404000D01*
X136850000Y-50404000D02*
X136850000Y-59304000D01*
X114422000Y-35108000D02*
X114422000Y-42158000D01*
X114422000Y-42158000D02*
X103022000Y-42158000D01*
X103022000Y-42158000D02*
X103022000Y-35108000D01*
X103022000Y-35108000D02*
X114422000Y-35108000D01*
X96896000Y-35108000D02*
X96896000Y-42158000D01*
X96896000Y-42158000D02*
X85496000Y-42158000D01*
X85496000Y-42158000D02*
X85496000Y-35108000D01*
X85496000Y-35108000D02*
X96896000Y-35108000D01*
X58144000Y-44472000D02*
X69344000Y-44472000D01*
X69344000Y-44472000D02*
X69344000Y-38322000D01*
X69344000Y-38322000D02*
X58144000Y-38322000D01*
X58144000Y-38322000D02*
X58144000Y-44472000D01*
M02*
