G04 #@! TF.FileFunction,Soldermask,Top*
%FSLAX46Y46*%
G04 Gerber Fmt 4.6, Leading zero omitted, Abs format (unit mm)*
G04 Created by KiCad (PCBNEW 4.0.6) date Fri Sep  8 15:32:28 2017*
%MOMM*%
%LPD*%
G01*
G04 APERTURE LIST*
%ADD10C,0.100000*%
%ADD11R,1.600000X1.000000*%
%ADD12R,1.000000X1.600000*%
%ADD13R,3.599180X1.600200*%
%ADD14R,1.597660X1.800860*%
%ADD15R,1.600000X0.550000*%
%ADD16R,0.550000X1.600000*%
%ADD17R,1.727200X1.727200*%
%ADD18O,1.727200X1.727200*%
%ADD19R,1.700000X0.900000*%
%ADD20R,0.900000X1.700000*%
%ADD21R,1.270000X0.406400*%
%ADD22R,2.100580X5.600700*%
%ADD23R,1.550000X1.300000*%
%ADD24R,2.032000X3.657600*%
%ADD25R,2.032000X1.016000*%
%ADD26R,0.900000X1.200000*%
%ADD27C,1.520000*%
%ADD28C,2.700000*%
%ADD29C,1.600000*%
%ADD30C,8.600000*%
%ADD31C,0.700000*%
%ADD32R,3.000000X4.000000*%
%ADD33O,3.000000X4.000000*%
%ADD34R,2.600000X2.000000*%
%ADD35O,2.600000X2.000000*%
%ADD36R,2.000000X2.600000*%
%ADD37O,2.000000X2.600000*%
%ADD38R,1.700000X1.700000*%
%ADD39O,1.700000X1.700000*%
G04 APERTURE END LIST*
D10*
D11*
X66040000Y-85701000D03*
X66040000Y-82701000D03*
D12*
X61317000Y-70993000D03*
X58317000Y-70993000D03*
D11*
X61976000Y-82701000D03*
X61976000Y-85701000D03*
X61976000Y-78843000D03*
X61976000Y-75843000D03*
X89916000Y-83034000D03*
X89916000Y-80034000D03*
X89916000Y-73430000D03*
X89916000Y-76430000D03*
D12*
X70080000Y-54610000D03*
X67080000Y-54610000D03*
X70080000Y-57404000D03*
X67080000Y-57404000D03*
D11*
X66040000Y-78843000D03*
X66040000Y-75843000D03*
D13*
X102913180Y-55880000D03*
X108414820Y-55880000D03*
X79545180Y-55880000D03*
X85046820Y-55880000D03*
D14*
X44808140Y-73914000D03*
X47647860Y-73914000D03*
X44808140Y-69850000D03*
X47647860Y-69850000D03*
D15*
X79180000Y-87636000D03*
X79180000Y-86836000D03*
X79180000Y-86036000D03*
X79180000Y-85236000D03*
X79180000Y-84436000D03*
X79180000Y-83636000D03*
X79180000Y-82836000D03*
X79180000Y-82036000D03*
D16*
X77730000Y-80586000D03*
X76930000Y-80586000D03*
X76130000Y-80586000D03*
X75330000Y-80586000D03*
X74530000Y-80586000D03*
X73730000Y-80586000D03*
X72930000Y-80586000D03*
X72130000Y-80586000D03*
D15*
X70680000Y-82036000D03*
X70680000Y-82836000D03*
X70680000Y-83636000D03*
X70680000Y-84436000D03*
X70680000Y-85236000D03*
X70680000Y-86036000D03*
X70680000Y-86836000D03*
X70680000Y-87636000D03*
D16*
X72130000Y-89086000D03*
X72930000Y-89086000D03*
X73730000Y-89086000D03*
X74530000Y-89086000D03*
X75330000Y-89086000D03*
X76130000Y-89086000D03*
X76930000Y-89086000D03*
X77730000Y-89086000D03*
D17*
X72136000Y-75438000D03*
D18*
X72136000Y-72898000D03*
X74676000Y-75438000D03*
X74676000Y-72898000D03*
X77216000Y-75438000D03*
X77216000Y-72898000D03*
D17*
X119380000Y-58420000D03*
D18*
X116840000Y-58420000D03*
X119380000Y-55880000D03*
X116840000Y-55880000D03*
X119380000Y-53340000D03*
X116840000Y-53340000D03*
D17*
X95250000Y-58420000D03*
D18*
X92710000Y-58420000D03*
X95250000Y-55880000D03*
X92710000Y-55880000D03*
X95250000Y-53340000D03*
X92710000Y-53340000D03*
D19*
X57658000Y-85778000D03*
X57658000Y-82878000D03*
X61849000Y-88847000D03*
X61849000Y-91747000D03*
X57658000Y-88847000D03*
X57658000Y-91747000D03*
D20*
X50620000Y-73914000D03*
X53520000Y-73914000D03*
X50620000Y-69850000D03*
X53520000Y-69850000D03*
X67130000Y-64008000D03*
X70030000Y-64008000D03*
X67130000Y-60960000D03*
X70030000Y-60960000D03*
X67490000Y-70993000D03*
X64590000Y-70993000D03*
D17*
X113538000Y-72898000D03*
D18*
X116078000Y-72898000D03*
X113538000Y-75438000D03*
X116078000Y-75438000D03*
X113538000Y-77978000D03*
X116078000Y-77978000D03*
D21*
X57023000Y-55499000D03*
X57023000Y-56134000D03*
X57023000Y-56794400D03*
X57023000Y-57454800D03*
X57023000Y-58089800D03*
X57023000Y-58750200D03*
X57023000Y-59410600D03*
X57023000Y-60045600D03*
X57023000Y-60706000D03*
X57023000Y-61341000D03*
X62357000Y-61341000D03*
X62357000Y-60706000D03*
X62357000Y-60045600D03*
X62357000Y-59410600D03*
X62357000Y-58750200D03*
X62357000Y-58089800D03*
X62357000Y-57454800D03*
X62357000Y-56794400D03*
X62357000Y-56134000D03*
X62357000Y-55499000D03*
D22*
X85344000Y-73383140D03*
X85344000Y-83080860D03*
D23*
X45047000Y-82260000D03*
X45047000Y-77760000D03*
X52997000Y-77760000D03*
X52997000Y-82260000D03*
D24*
X103378000Y-70866000D03*
D25*
X96774000Y-70866000D03*
X96774000Y-73152000D03*
X96774000Y-68580000D03*
D26*
X61340000Y-50546000D03*
X58040000Y-50546000D03*
D27*
X50000000Y-56960000D03*
X50000000Y-59500000D03*
X48000000Y-59500000D03*
X48000000Y-56960000D03*
D28*
X45300000Y-52230000D03*
X45300000Y-64230000D03*
D29*
X119888000Y-49530000D03*
X117348000Y-49530000D03*
X114808000Y-49530000D03*
X112268000Y-49530000D03*
X109728000Y-49530000D03*
X107188000Y-49530000D03*
X104648000Y-49530000D03*
X102108000Y-49530000D03*
X102108000Y-62230000D03*
X104648000Y-62230000D03*
X107188000Y-62230000D03*
X109728000Y-62230000D03*
X112268000Y-62230000D03*
X114808000Y-62230000D03*
X117348000Y-62230000D03*
X119888000Y-62230000D03*
X95758000Y-49530000D03*
X93218000Y-49530000D03*
X90678000Y-49530000D03*
X88138000Y-49530000D03*
X85598000Y-49530000D03*
X83058000Y-49530000D03*
X80518000Y-49530000D03*
X77978000Y-49530000D03*
X77978000Y-62230000D03*
X80518000Y-62230000D03*
X83058000Y-62230000D03*
X85598000Y-62230000D03*
X88138000Y-62230000D03*
X90678000Y-62230000D03*
X93218000Y-62230000D03*
X95758000Y-62230000D03*
D30*
X132000000Y-40000000D03*
D31*
X135225000Y-40000000D03*
X134280419Y-42280419D03*
X132000000Y-43225000D03*
X129719581Y-42280419D03*
X128775000Y-40000000D03*
X129719581Y-37719581D03*
X132000000Y-36775000D03*
X134280419Y-37719581D03*
D30*
X45000000Y-40000000D03*
D31*
X48225000Y-40000000D03*
X47280419Y-42280419D03*
X45000000Y-43225000D03*
X42719581Y-42280419D03*
X41775000Y-40000000D03*
X42719581Y-37719581D03*
X45000000Y-36775000D03*
X47280419Y-37719581D03*
D30*
X45000000Y-94000000D03*
D31*
X48225000Y-94000000D03*
X47280419Y-96280419D03*
X45000000Y-97225000D03*
X42719581Y-96280419D03*
X41775000Y-94000000D03*
X42719581Y-91719581D03*
X45000000Y-90775000D03*
X47280419Y-91719581D03*
D30*
X132000000Y-94000000D03*
D31*
X135225000Y-94000000D03*
X134280419Y-96280419D03*
X132000000Y-97225000D03*
X129719581Y-96280419D03*
X128775000Y-94000000D03*
X129719581Y-91719581D03*
X132000000Y-90775000D03*
X134280419Y-91719581D03*
D32*
X110744000Y-92964000D03*
D33*
X106781600Y-92964000D03*
X102819200Y-92964000D03*
X98856800Y-92964000D03*
D34*
X133350000Y-74930000D03*
D35*
X133350000Y-72390000D03*
X133350000Y-69850000D03*
X133350000Y-67310000D03*
X133350000Y-64770000D03*
D34*
X133350000Y-57404000D03*
D35*
X133350000Y-54864000D03*
X133350000Y-52324000D03*
D36*
X112522000Y-38608000D03*
D37*
X109982000Y-38608000D03*
X107442000Y-38608000D03*
X104902000Y-38608000D03*
D36*
X94996000Y-38608000D03*
D37*
X92456000Y-38608000D03*
X89916000Y-38608000D03*
X87376000Y-38608000D03*
D38*
X59944000Y-42672000D03*
D39*
X59944000Y-40132000D03*
X62484000Y-42672000D03*
X62484000Y-40132000D03*
X65024000Y-42672000D03*
X65024000Y-40132000D03*
X67564000Y-42672000D03*
X67564000Y-40132000D03*
M02*
