M48
;DRILL file {KiCad 4.0.6} date Fri Sep  8 15:32:30 2017
;FORMAT={-:-/ absolute / inch / decimal}
FMAT,2
INCH,TZ
T1C0.016
T2C0.024
T3C0.032
T4C0.039
T5C0.040
T6C0.047
T7C0.067
T8C0.091
T9C0.169
%
G90
G05
M72
T1
X2.2318Y-2.1526
X2.2901Y-2.196
X2.3673Y-2.3313
X2.4048Y-2.415
X2.4099Y-2.185
X2.4135Y-2.926
X2.4277Y-3.6508
X2.4777Y-3.5757
X2.4934Y-2.9065
X2.581Y-2.795
X2.6224Y-3.1917
X2.718Y-3.3243
X2.7806Y-3.051
X2.8334Y-3.121
X2.8713Y-3.1213
X2.9028Y-3.2247
X2.9392Y-3.4548
X2.9697Y-3.1214
X2.9718Y-3.4495
X2.9806Y-2.6572
X3.0046Y-3.4035
X3.0249Y-3.4532
X3.0375Y-3.3777
X3.23Y-2.9272
X3.8191Y-3.0519
X3.9318Y-2.6998
X3.9726Y-3.0974
T2
X1.6447Y-1.5748
X1.6447Y-3.7008
X1.6819Y-1.485
X1.6819Y-1.6646
X1.6819Y-3.611
X1.6819Y-3.7906
X1.7717Y-1.4478
X1.7717Y-1.7018
X1.7717Y-3.5738
X1.7717Y-3.8278
X1.8614Y-1.485
X1.8614Y-1.6646
X1.8614Y-3.611
X1.8614Y-3.7906
X1.8986Y-1.5748
X1.8986Y-3.7008
X5.0699Y-1.5748
X5.0699Y-3.7008
X5.1071Y-1.485
X5.1071Y-1.6646
X5.1071Y-3.611
X5.1071Y-3.7906
X5.1969Y-1.4478
X5.1969Y-1.7018
X5.1969Y-3.5738
X5.1969Y-3.8278
X5.2866Y-1.485
X5.2866Y-1.6646
X5.2866Y-3.611
X5.2866Y-3.7906
X5.3238Y-1.5748
X5.3238Y-3.7008
T3
X1.8898Y-2.2425
X1.8898Y-2.3425
X1.9685Y-2.2425
X1.9685Y-2.3425
T4
X2.36Y-1.58
X2.36Y-1.68
X2.46Y-1.58
X2.46Y-1.68
X2.56Y-1.58
X2.56Y-1.68
X2.66Y-1.58
X2.66Y-1.68
X3.07Y-1.95
X3.07Y-2.45
X3.17Y-1.95
X3.17Y-2.45
X3.27Y-1.95
X3.27Y-2.45
X3.37Y-1.95
X3.37Y-2.45
X3.47Y-1.95
X3.47Y-2.45
X3.57Y-1.95
X3.57Y-2.45
X3.67Y-1.95
X3.67Y-2.45
X3.77Y-1.95
X3.77Y-2.45
X4.02Y-1.95
X4.02Y-2.45
X4.12Y-1.95
X4.12Y-2.45
X4.22Y-1.95
X4.22Y-2.45
X4.32Y-1.95
X4.32Y-2.45
X4.42Y-1.95
X4.42Y-2.45
X4.52Y-1.95
X4.52Y-2.45
X4.62Y-1.95
X4.62Y-2.45
X4.72Y-1.95
X4.72Y-2.45
T5
X2.84Y-2.87
X2.84Y-2.97
X2.94Y-2.87
X2.94Y-2.97
X3.04Y-2.87
X3.04Y-2.97
X3.65Y-2.1
X3.65Y-2.2
X3.65Y-2.3
X3.75Y-2.1
X3.75Y-2.2
X3.75Y-2.3
X4.47Y-2.87
X4.47Y-2.97
X4.47Y-3.07
X4.57Y-2.87
X4.57Y-2.97
X4.57Y-3.07
X4.6Y-2.1
X4.6Y-2.2
X4.6Y-2.3
X4.7Y-2.1
X4.7Y-2.2
X4.7Y-2.3
T6
X3.44Y-1.52
X3.54Y-1.52
X3.64Y-1.52
X3.74Y-1.52
X4.13Y-1.52
X4.23Y-1.52
X4.33Y-1.52
X4.43Y-1.52
X5.25Y-2.06
X5.25Y-2.16
X5.25Y-2.26
X5.25Y-2.55
X5.25Y-2.65
X5.25Y-2.75
X5.25Y-2.85
X5.25Y-2.95
T7
X3.892Y-3.66
X4.048Y-3.66
X4.204Y-3.66
X4.36Y-3.66
T8
X1.7835Y-2.0563
X1.7835Y-2.5287
T9
X1.7717Y-1.5748
X1.7717Y-3.7008
X5.1969Y-1.5748
X5.1969Y-3.7008
T0
M30
