G04 #@! TF.FileFunction,Copper,L2,Bot,Signal*
%FSLAX46Y46*%
G04 Gerber Fmt 4.6, Leading zero omitted, Abs format (unit mm)*
G04 Created by KiCad (PCBNEW 4.0.6) date Fri Sep  8 15:32:28 2017*
%MOMM*%
%LPD*%
G01*
G04 APERTURE LIST*
%ADD10C,0.100000*%
%ADD11R,1.727200X1.727200*%
%ADD12O,1.727200X1.727200*%
%ADD13C,1.520000*%
%ADD14C,2.700000*%
%ADD15C,1.600000*%
%ADD16C,8.600000*%
%ADD17C,0.700000*%
%ADD18R,3.000000X4.000000*%
%ADD19O,3.000000X4.000000*%
%ADD20R,2.600000X2.000000*%
%ADD21O,2.600000X2.000000*%
%ADD22R,2.000000X2.600000*%
%ADD23O,2.000000X2.600000*%
%ADD24R,1.700000X1.700000*%
%ADD25O,1.700000X1.700000*%
%ADD26C,0.600000*%
%ADD27C,1.200000*%
%ADD28C,0.300000*%
%ADD29C,0.800000*%
%ADD30C,0.254000*%
G04 APERTURE END LIST*
D10*
D11*
X72136000Y-75438000D03*
D12*
X72136000Y-72898000D03*
X74676000Y-75438000D03*
X74676000Y-72898000D03*
X77216000Y-75438000D03*
X77216000Y-72898000D03*
D11*
X119380000Y-58420000D03*
D12*
X116840000Y-58420000D03*
X119380000Y-55880000D03*
X116840000Y-55880000D03*
X119380000Y-53340000D03*
X116840000Y-53340000D03*
D11*
X95250000Y-58420000D03*
D12*
X92710000Y-58420000D03*
X95250000Y-55880000D03*
X92710000Y-55880000D03*
X95250000Y-53340000D03*
X92710000Y-53340000D03*
D11*
X113538000Y-72898000D03*
D12*
X116078000Y-72898000D03*
X113538000Y-75438000D03*
X116078000Y-75438000D03*
X113538000Y-77978000D03*
X116078000Y-77978000D03*
D13*
X50000000Y-56960000D03*
X50000000Y-59500000D03*
X48000000Y-59500000D03*
X48000000Y-56960000D03*
D14*
X45300000Y-52230000D03*
X45300000Y-64230000D03*
D15*
X119888000Y-49530000D03*
X117348000Y-49530000D03*
X114808000Y-49530000D03*
X112268000Y-49530000D03*
X109728000Y-49530000D03*
X107188000Y-49530000D03*
X104648000Y-49530000D03*
X102108000Y-49530000D03*
X102108000Y-62230000D03*
X104648000Y-62230000D03*
X107188000Y-62230000D03*
X109728000Y-62230000D03*
X112268000Y-62230000D03*
X114808000Y-62230000D03*
X117348000Y-62230000D03*
X119888000Y-62230000D03*
X95758000Y-49530000D03*
X93218000Y-49530000D03*
X90678000Y-49530000D03*
X88138000Y-49530000D03*
X85598000Y-49530000D03*
X83058000Y-49530000D03*
X80518000Y-49530000D03*
X77978000Y-49530000D03*
X77978000Y-62230000D03*
X80518000Y-62230000D03*
X83058000Y-62230000D03*
X85598000Y-62230000D03*
X88138000Y-62230000D03*
X90678000Y-62230000D03*
X93218000Y-62230000D03*
X95758000Y-62230000D03*
D16*
X132000000Y-40000000D03*
D17*
X135225000Y-40000000D03*
X134280419Y-42280419D03*
X132000000Y-43225000D03*
X129719581Y-42280419D03*
X128775000Y-40000000D03*
X129719581Y-37719581D03*
X132000000Y-36775000D03*
X134280419Y-37719581D03*
D16*
X45000000Y-40000000D03*
D17*
X48225000Y-40000000D03*
X47280419Y-42280419D03*
X45000000Y-43225000D03*
X42719581Y-42280419D03*
X41775000Y-40000000D03*
X42719581Y-37719581D03*
X45000000Y-36775000D03*
X47280419Y-37719581D03*
D16*
X45000000Y-94000000D03*
D17*
X48225000Y-94000000D03*
X47280419Y-96280419D03*
X45000000Y-97225000D03*
X42719581Y-96280419D03*
X41775000Y-94000000D03*
X42719581Y-91719581D03*
X45000000Y-90775000D03*
X47280419Y-91719581D03*
D16*
X132000000Y-94000000D03*
D17*
X135225000Y-94000000D03*
X134280419Y-96280419D03*
X132000000Y-97225000D03*
X129719581Y-96280419D03*
X128775000Y-94000000D03*
X129719581Y-91719581D03*
X132000000Y-90775000D03*
X134280419Y-91719581D03*
D18*
X110744000Y-92964000D03*
D19*
X106781600Y-92964000D03*
X102819200Y-92964000D03*
X98856800Y-92964000D03*
D20*
X133350000Y-74930000D03*
D21*
X133350000Y-72390000D03*
X133350000Y-69850000D03*
X133350000Y-67310000D03*
X133350000Y-64770000D03*
D20*
X133350000Y-57404000D03*
D21*
X133350000Y-54864000D03*
X133350000Y-52324000D03*
D22*
X112522000Y-38608000D03*
D23*
X109982000Y-38608000D03*
X107442000Y-38608000D03*
X104902000Y-38608000D03*
D22*
X94996000Y-38608000D03*
D23*
X92456000Y-38608000D03*
X89916000Y-38608000D03*
X87376000Y-38608000D03*
D24*
X59944000Y-42672000D03*
D25*
X59944000Y-40132000D03*
X62484000Y-42672000D03*
X62484000Y-40132000D03*
X65024000Y-42672000D03*
X65024000Y-40132000D03*
X67564000Y-42672000D03*
X67564000Y-40132000D03*
D26*
X69036200Y-84436000D03*
X63331500Y-73824400D03*
D27*
X99868400Y-68575400D03*
D26*
X75483900Y-87617800D03*
X58168200Y-55777500D03*
X61303200Y-74319900D03*
X71967100Y-79272800D03*
X73730000Y-81906500D03*
X70628000Y-77494500D03*
X66608600Y-81068300D03*
X77153300Y-85792800D03*
X82042900Y-74350000D03*
X65557600Y-70993000D03*
X75430900Y-79284700D03*
X100905100Y-78672900D03*
X61081500Y-61341000D03*
X60128200Y-59214500D03*
X61664200Y-92730300D03*
X97004600Y-77518900D03*
X76315700Y-86448900D03*
X76831800Y-87711000D03*
X56688100Y-54676900D03*
X61211500Y-55499000D03*
X72930000Y-79281800D03*
X75706600Y-67493100D03*
X74656000Y-87752200D03*
X62934000Y-90822000D03*
D28*
X59944000Y-40132000D02*
X59944000Y-42672000D01*
X116078000Y-77978000D02*
X116078000Y-75438000D01*
X116078000Y-75438000D02*
X116078000Y-72898000D01*
X135000400Y-68960400D02*
X133350000Y-67310000D01*
X135000400Y-73279600D02*
X135000400Y-68960400D01*
X133350000Y-74930000D02*
X135000400Y-73279600D01*
X131699700Y-65659700D02*
X133350000Y-67310000D01*
X131699700Y-60404600D02*
X131699700Y-65659700D01*
X133350000Y-58754300D02*
X131699700Y-60404600D01*
X133350000Y-57404000D02*
X133350000Y-58754300D01*
X45300000Y-62200000D02*
X45300000Y-64230000D01*
X48000000Y-59500000D02*
X45300000Y-62200000D01*
D29*
X97672000Y-51444000D02*
X95758000Y-49530000D01*
X98041300Y-51444000D02*
X97672000Y-51444000D01*
X98041300Y-84223700D02*
X98041300Y-51444000D01*
X106781600Y-92964000D02*
X98041300Y-84223700D01*
X103144400Y-48026400D02*
X104648000Y-49530000D01*
X101458900Y-48026400D02*
X103144400Y-48026400D01*
X98041300Y-51444000D02*
X101458900Y-48026400D01*
D28*
X63331500Y-78731300D02*
X69036200Y-84436000D01*
X63331500Y-73824400D02*
X63331500Y-78731300D01*
D29*
X99868400Y-51769600D02*
X99868400Y-68575400D01*
X102108000Y-49530000D02*
X99868400Y-51769600D01*
X99868400Y-82088400D02*
X110744000Y-92964000D01*
X99868400Y-68575400D02*
X99868400Y-82088400D01*
D28*
X75483900Y-82499800D02*
X75483900Y-87617800D01*
X77216000Y-80767700D02*
X75483900Y-82499800D01*
X77216000Y-75438000D02*
X77216000Y-80767700D01*
X77719000Y-74224100D02*
X77216000Y-74224100D01*
X79129400Y-72813700D02*
X77719000Y-74224100D01*
X79129400Y-55437700D02*
X79129400Y-72813700D01*
X67564000Y-43872300D02*
X79129400Y-55437700D01*
X67564000Y-42672000D02*
X67564000Y-43872300D01*
X77216000Y-75438000D02*
X77216000Y-74224100D01*
X58168200Y-71184900D02*
X58168200Y-55777500D01*
X61303200Y-74319900D02*
X58168200Y-71184900D01*
X72136000Y-75438000D02*
X72136000Y-76651900D01*
X71967100Y-76820800D02*
X71967100Y-79272800D01*
X72136000Y-76651900D02*
X71967100Y-76820800D01*
X133350000Y-72390000D02*
X131699700Y-72390000D01*
X131699700Y-77574400D02*
X131699700Y-72390000D01*
X112853000Y-96421100D02*
X131699700Y-77574400D01*
X82405300Y-96421100D02*
X112853000Y-96421100D01*
X73730000Y-87745800D02*
X82405300Y-96421100D01*
X73730000Y-81906500D02*
X73730000Y-87745800D01*
X95250000Y-53340000D02*
X95250000Y-55880000D01*
X95250000Y-55880000D02*
X95250000Y-58420000D01*
X119380000Y-53340000D02*
X119380000Y-55880000D01*
X119380000Y-55880000D02*
X119380000Y-58420000D01*
X117348000Y-50094100D02*
X119380000Y-52126100D01*
X117348000Y-49530000D02*
X117348000Y-50094100D01*
X119380000Y-53340000D02*
X119380000Y-52126100D01*
X72136000Y-72898000D02*
X72136000Y-74111900D01*
X93218000Y-50094100D02*
X95250000Y-52126100D01*
X93218000Y-49530000D02*
X93218000Y-50094100D01*
X95250000Y-53340000D02*
X95250000Y-52126100D01*
X70628000Y-74709500D02*
X70628000Y-77494500D01*
X71225600Y-74111900D02*
X70628000Y-74709500D01*
X72136000Y-74111900D02*
X71225600Y-74111900D01*
X70182400Y-77494500D02*
X66608600Y-81068300D01*
X70628000Y-77494500D02*
X70182400Y-77494500D01*
X80778700Y-82167400D02*
X77153300Y-85792800D01*
X80778700Y-74669300D02*
X80778700Y-82167400D01*
X93218000Y-62230000D02*
X80778700Y-74669300D01*
X83638000Y-74350000D02*
X82042900Y-74350000D01*
X95758000Y-62230000D02*
X83638000Y-74350000D01*
X76311600Y-63896400D02*
X76311600Y-66625200D01*
X77978000Y-62230000D02*
X76311600Y-63896400D01*
X69925400Y-66625200D02*
X65557600Y-70993000D01*
X76311600Y-66625200D02*
X69925400Y-66625200D01*
X76377000Y-66690600D02*
X76311600Y-66625200D01*
X76377000Y-67942800D02*
X76377000Y-66690600D01*
X76002000Y-68317800D02*
X76377000Y-67942800D01*
X76002000Y-78713600D02*
X76002000Y-68317800D01*
X75430900Y-79284700D02*
X76002000Y-78713600D01*
X117348000Y-62230000D02*
X100905100Y-78672900D01*
X51458600Y-53501400D02*
X48000000Y-56960000D01*
X57541600Y-53501400D02*
X51458600Y-53501400D01*
X61081500Y-57041300D02*
X57541600Y-53501400D01*
X61081500Y-61341000D02*
X61081500Y-57041300D01*
X60128200Y-56806600D02*
X60128200Y-59214500D01*
X57323400Y-54001800D02*
X60128200Y-56806600D01*
X52958200Y-54001800D02*
X57323400Y-54001800D01*
X50000000Y-56960000D02*
X52958200Y-54001800D01*
X113538000Y-55880000D02*
X116840000Y-55880000D01*
X107188000Y-62230000D02*
X113538000Y-55880000D01*
X89408000Y-58420000D02*
X92710000Y-58420000D01*
X85598000Y-62230000D02*
X89408000Y-58420000D01*
X89408000Y-55880000D02*
X92710000Y-55880000D01*
X83058000Y-62230000D02*
X89408000Y-55880000D01*
X89408000Y-53340000D02*
X92710000Y-53340000D01*
X80518000Y-62230000D02*
X89408000Y-53340000D01*
D29*
X107442000Y-47244000D02*
X109728000Y-49530000D01*
X107442000Y-38608000D02*
X107442000Y-47244000D01*
X104902000Y-47244000D02*
X107188000Y-49530000D01*
X104902000Y-38608000D02*
X104902000Y-47244000D01*
X109982000Y-47244000D02*
X112268000Y-49530000D01*
X109982000Y-38608000D02*
X109982000Y-47244000D01*
X112522000Y-47244000D02*
X114808000Y-49530000D01*
X112522000Y-38608000D02*
X112522000Y-47244000D01*
X89916000Y-45212000D02*
X85598000Y-49530000D01*
X89916000Y-38608000D02*
X89916000Y-45212000D01*
X87376000Y-45212000D02*
X83058000Y-49530000D01*
X87376000Y-38608000D02*
X87376000Y-45212000D01*
X92456000Y-45212000D02*
X88138000Y-49530000D01*
X92456000Y-38608000D02*
X92456000Y-45212000D01*
X94996000Y-45212000D02*
X90678000Y-49530000D01*
X94996000Y-38608000D02*
X94996000Y-45212000D01*
D28*
X62484000Y-42672000D02*
X62484000Y-43872300D01*
X61999800Y-44356500D02*
X62484000Y-43872300D01*
X61999800Y-92394700D02*
X61999800Y-44356500D01*
X61664200Y-92730300D02*
X61999800Y-92394700D01*
X88074600Y-86448900D02*
X76315700Y-86448900D01*
X97004600Y-77518900D02*
X88074600Y-86448900D01*
X84541300Y-95420500D02*
X76831800Y-87711000D01*
X112438600Y-95420500D02*
X84541300Y-95420500D01*
X113538000Y-94321100D02*
X112438600Y-95420500D01*
X113538000Y-77978000D02*
X113538000Y-94321100D01*
X54823100Y-54676900D02*
X56688100Y-54676900D01*
X50000000Y-59500000D02*
X54823100Y-54676900D01*
X62484000Y-40132000D02*
X62484000Y-41332300D01*
X61211500Y-42229700D02*
X61211500Y-55499000D01*
X62108900Y-41332300D02*
X61211500Y-42229700D01*
X62484000Y-41332300D02*
X62108900Y-41332300D01*
X73462100Y-78749700D02*
X72930000Y-79281800D01*
X73462100Y-74870500D02*
X73462100Y-78749700D01*
X74220700Y-74111900D02*
X73462100Y-74870500D01*
X74676000Y-74111900D02*
X74220700Y-74111900D01*
X74676000Y-72898000D02*
X74676000Y-74111900D01*
X74676000Y-68523700D02*
X74676000Y-72898000D01*
X75706600Y-67493100D02*
X74676000Y-68523700D01*
X133350000Y-54864000D02*
X131699700Y-54864000D01*
X122913400Y-63650300D02*
X131699700Y-54864000D01*
X122913400Y-85653200D02*
X122913400Y-63650300D01*
X112645800Y-95920800D02*
X122913400Y-85653200D01*
X82824600Y-95920800D02*
X112645800Y-95920800D01*
X74656000Y-87752200D02*
X82824600Y-95920800D01*
X62641700Y-90529700D02*
X62934000Y-90822000D01*
X62641700Y-46254600D02*
X62641700Y-90529700D01*
X65024000Y-43872300D02*
X62641700Y-46254600D01*
X65024000Y-42672000D02*
X65024000Y-43872300D01*
D30*
G36*
X129208199Y-35813871D02*
X127818750Y-37200897D01*
X127065859Y-39014061D01*
X127064146Y-40977325D01*
X127813871Y-42791801D01*
X129200897Y-44181250D01*
X131014061Y-44934141D01*
X132977325Y-44935854D01*
X134791801Y-44186129D01*
X136181250Y-42799103D01*
X136315000Y-42476997D01*
X136315000Y-91520091D01*
X136186129Y-91208199D01*
X134799103Y-89818750D01*
X132985939Y-89065859D01*
X131022675Y-89064146D01*
X129208199Y-89813871D01*
X127818750Y-91200897D01*
X127065859Y-93014061D01*
X127064146Y-94977325D01*
X127813871Y-96791801D01*
X129200897Y-98181250D01*
X129523003Y-98315000D01*
X47479909Y-98315000D01*
X47791801Y-98186129D01*
X49181250Y-96799103D01*
X49934141Y-94985939D01*
X49935854Y-93022675D01*
X49186129Y-91208199D01*
X47799103Y-89818750D01*
X45985939Y-89065859D01*
X44022675Y-89064146D01*
X42208199Y-89813871D01*
X40818750Y-91200897D01*
X40685000Y-91523003D01*
X40685000Y-65635593D01*
X44074012Y-65635593D01*
X44215478Y-65938782D01*
X44951955Y-66223737D01*
X45741418Y-66205164D01*
X46384522Y-65938782D01*
X46525988Y-65635593D01*
X45300000Y-64409605D01*
X44074012Y-65635593D01*
X40685000Y-65635593D01*
X40685000Y-63881955D01*
X43306263Y-63881955D01*
X43324836Y-64671418D01*
X43591218Y-65314522D01*
X43894407Y-65455988D01*
X45120395Y-64230000D01*
X45479605Y-64230000D01*
X46705593Y-65455988D01*
X47008782Y-65314522D01*
X47293737Y-64578045D01*
X47275164Y-63788582D01*
X47008782Y-63145478D01*
X46705593Y-63004012D01*
X45479605Y-64230000D01*
X45120395Y-64230000D01*
X43894407Y-63004012D01*
X43591218Y-63145478D01*
X43306263Y-63881955D01*
X40685000Y-63881955D01*
X40685000Y-62824407D01*
X44074012Y-62824407D01*
X45300000Y-64050395D01*
X46525988Y-62824407D01*
X46384522Y-62521218D01*
X45648045Y-62236263D01*
X44858582Y-62254836D01*
X44215478Y-62521218D01*
X44074012Y-62824407D01*
X40685000Y-62824407D01*
X40685000Y-60478764D01*
X47200841Y-60478764D01*
X47270059Y-60720742D01*
X47792780Y-60907155D01*
X48347049Y-60879341D01*
X48729941Y-60720742D01*
X48799159Y-60478764D01*
X48000000Y-59679605D01*
X47200841Y-60478764D01*
X40685000Y-60478764D01*
X40685000Y-59292780D01*
X46592845Y-59292780D01*
X46620659Y-59847049D01*
X46779258Y-60229941D01*
X47021236Y-60299159D01*
X47820395Y-59500000D01*
X47021236Y-58700841D01*
X46779258Y-58770059D01*
X46592845Y-59292780D01*
X40685000Y-59292780D01*
X40685000Y-57236265D01*
X46604758Y-57236265D01*
X46816687Y-57749172D01*
X47208764Y-58141934D01*
X47404934Y-58223391D01*
X47270059Y-58279258D01*
X47200841Y-58521236D01*
X48000000Y-59320395D01*
X48799159Y-58521236D01*
X48729941Y-58279258D01*
X48585138Y-58227618D01*
X48789172Y-58143313D01*
X49000024Y-57932829D01*
X49208764Y-58141934D01*
X49420738Y-58229954D01*
X49210828Y-58316687D01*
X48818066Y-58708764D01*
X48709581Y-58970024D01*
X48179605Y-59500000D01*
X48709595Y-60029990D01*
X48816687Y-60289172D01*
X49208764Y-60681934D01*
X49721300Y-60894758D01*
X50276265Y-60895242D01*
X50789172Y-60683313D01*
X51181934Y-60291236D01*
X51394758Y-59778700D01*
X51395242Y-59223735D01*
X51392663Y-59217495D01*
X55148258Y-55461900D01*
X56150594Y-55461900D01*
X56157773Y-55469092D01*
X56501301Y-55611738D01*
X56873267Y-55612062D01*
X57217043Y-55470017D01*
X57330507Y-55356751D01*
X57233362Y-55590701D01*
X57233038Y-55962667D01*
X57375083Y-56306443D01*
X57383200Y-56314574D01*
X57383200Y-71184900D01*
X57442955Y-71485307D01*
X57613121Y-71739979D01*
X60368047Y-74494904D01*
X60368038Y-74505067D01*
X60510083Y-74848843D01*
X60772873Y-75112092D01*
X61116401Y-75254738D01*
X61214800Y-75254824D01*
X61214800Y-91904317D01*
X61135257Y-91937183D01*
X60872008Y-92199973D01*
X60729362Y-92543501D01*
X60729038Y-92915467D01*
X60871083Y-93259243D01*
X61133873Y-93522492D01*
X61477401Y-93665138D01*
X61849367Y-93665462D01*
X62193143Y-93523417D01*
X62456392Y-93260627D01*
X62599038Y-92917099D01*
X62599067Y-92883647D01*
X62725045Y-92695107D01*
X62784800Y-92394700D01*
X62784800Y-91756871D01*
X63119167Y-91757162D01*
X63462943Y-91615117D01*
X63726192Y-91352327D01*
X63868838Y-91008799D01*
X63869162Y-90636833D01*
X63727117Y-90293057D01*
X63464327Y-90029808D01*
X63426700Y-90014184D01*
X63426700Y-79936658D01*
X68101047Y-84611005D01*
X68101038Y-84621167D01*
X68243083Y-84964943D01*
X68505873Y-85228192D01*
X68849401Y-85370838D01*
X69221367Y-85371162D01*
X69565143Y-85229117D01*
X69828392Y-84966327D01*
X69971038Y-84622799D01*
X69971362Y-84250833D01*
X69829317Y-83907057D01*
X69566527Y-83643808D01*
X69222999Y-83501162D01*
X69211510Y-83501152D01*
X67354848Y-81644490D01*
X67400792Y-81598627D01*
X67543438Y-81255099D01*
X67543448Y-81243610D01*
X70382214Y-78404844D01*
X70441201Y-78429338D01*
X70813167Y-78429662D01*
X71156943Y-78287617D01*
X71182100Y-78262504D01*
X71182100Y-78735294D01*
X71174908Y-78742473D01*
X71032262Y-79086001D01*
X71031938Y-79457967D01*
X71173983Y-79801743D01*
X71436773Y-80064992D01*
X71780301Y-80207638D01*
X72152267Y-80207962D01*
X72437992Y-80089903D01*
X72743201Y-80216638D01*
X73115167Y-80216962D01*
X73458943Y-80074917D01*
X73722192Y-79812127D01*
X73864838Y-79468599D01*
X73864848Y-79457110D01*
X74017179Y-79304779D01*
X74187345Y-79050107D01*
X74247100Y-78749700D01*
X74247100Y-76880646D01*
X74676000Y-76965959D01*
X75217000Y-76858347D01*
X75217000Y-78361410D01*
X74901957Y-78491583D01*
X74638708Y-78754373D01*
X74496062Y-79097901D01*
X74495738Y-79469867D01*
X74637783Y-79813643D01*
X74900573Y-80076892D01*
X75244101Y-80219538D01*
X75616067Y-80219862D01*
X75959843Y-80077817D01*
X76223092Y-79815027D01*
X76365738Y-79471499D01*
X76365748Y-79460010D01*
X76431000Y-79394758D01*
X76431000Y-80442542D01*
X74928821Y-81944721D01*
X74758655Y-82199393D01*
X74711426Y-82436827D01*
X74698900Y-82499800D01*
X74698900Y-86817237D01*
X74515000Y-86817076D01*
X74515000Y-82444006D01*
X74522192Y-82436827D01*
X74664838Y-82093299D01*
X74665162Y-81721333D01*
X74523117Y-81377557D01*
X74260327Y-81114308D01*
X73916799Y-80971662D01*
X73544833Y-80971338D01*
X73201057Y-81113383D01*
X72937808Y-81376173D01*
X72795162Y-81719701D01*
X72794838Y-82091667D01*
X72936883Y-82435443D01*
X72945000Y-82443574D01*
X72945000Y-87745800D01*
X73004755Y-88046207D01*
X73174921Y-88300879D01*
X81850221Y-96976179D01*
X82104894Y-97146345D01*
X82405300Y-97206100D01*
X112853000Y-97206100D01*
X113153407Y-97146345D01*
X113408079Y-96976179D01*
X132254779Y-78129479D01*
X132424945Y-77874806D01*
X132484700Y-77574400D01*
X132484700Y-76565000D01*
X133064250Y-76565000D01*
X133223000Y-76406250D01*
X133223000Y-75057000D01*
X133477000Y-75057000D01*
X133477000Y-76406250D01*
X133635750Y-76565000D01*
X134776310Y-76565000D01*
X135009699Y-76468327D01*
X135188327Y-76289698D01*
X135285000Y-76056309D01*
X135285000Y-75215750D01*
X135126250Y-75057000D01*
X133477000Y-75057000D01*
X133223000Y-75057000D01*
X133203000Y-75057000D01*
X133203000Y-74803000D01*
X133223000Y-74803000D01*
X133223000Y-74783000D01*
X133477000Y-74783000D01*
X133477000Y-74803000D01*
X135126250Y-74803000D01*
X135285000Y-74644250D01*
X135285000Y-73803691D01*
X135188327Y-73570302D01*
X135009699Y-73391673D01*
X134960769Y-73371406D01*
X135198452Y-73015687D01*
X135322909Y-72390000D01*
X135198452Y-71764313D01*
X134844029Y-71233880D01*
X134673595Y-71120000D01*
X134844029Y-71006120D01*
X135198452Y-70475687D01*
X135322909Y-69850000D01*
X135198452Y-69224313D01*
X134844029Y-68693880D01*
X134653812Y-68566781D01*
X134895922Y-68376317D01*
X135209144Y-67818355D01*
X135240124Y-67690434D01*
X135120777Y-67437000D01*
X133477000Y-67437000D01*
X133477000Y-67457000D01*
X133223000Y-67457000D01*
X133223000Y-67437000D01*
X131579223Y-67437000D01*
X131459876Y-67690434D01*
X131490856Y-67818355D01*
X131804078Y-68376317D01*
X132046188Y-68566781D01*
X131855971Y-68693880D01*
X131501548Y-69224313D01*
X131377091Y-69850000D01*
X131501548Y-70475687D01*
X131855971Y-71006120D01*
X132026405Y-71120000D01*
X131855971Y-71233880D01*
X131593941Y-71626037D01*
X131399294Y-71664755D01*
X131144621Y-71834921D01*
X130974455Y-72089594D01*
X130914700Y-72390000D01*
X130914700Y-77249242D01*
X123698400Y-84465542D01*
X123698400Y-64770000D01*
X131377091Y-64770000D01*
X131501548Y-65395687D01*
X131855971Y-65926120D01*
X132046188Y-66053219D01*
X131804078Y-66243683D01*
X131490856Y-66801645D01*
X131459876Y-66929566D01*
X131579223Y-67183000D01*
X133223000Y-67183000D01*
X133223000Y-67163000D01*
X133477000Y-67163000D01*
X133477000Y-67183000D01*
X135120777Y-67183000D01*
X135240124Y-66929566D01*
X135209144Y-66801645D01*
X134895922Y-66243683D01*
X134653812Y-66053219D01*
X134844029Y-65926120D01*
X135198452Y-65395687D01*
X135322909Y-64770000D01*
X135198452Y-64144313D01*
X134844029Y-63613880D01*
X134313596Y-63259457D01*
X133687909Y-63135000D01*
X133012091Y-63135000D01*
X132386404Y-63259457D01*
X131855971Y-63613880D01*
X131501548Y-64144313D01*
X131377091Y-64770000D01*
X123698400Y-64770000D01*
X123698400Y-63975458D01*
X129984108Y-57689750D01*
X131415000Y-57689750D01*
X131415000Y-58530309D01*
X131511673Y-58763698D01*
X131690301Y-58942327D01*
X131923690Y-59039000D01*
X133064250Y-59039000D01*
X133223000Y-58880250D01*
X133223000Y-57531000D01*
X133477000Y-57531000D01*
X133477000Y-58880250D01*
X133635750Y-59039000D01*
X134776310Y-59039000D01*
X135009699Y-58942327D01*
X135188327Y-58763698D01*
X135285000Y-58530309D01*
X135285000Y-57689750D01*
X135126250Y-57531000D01*
X133477000Y-57531000D01*
X133223000Y-57531000D01*
X131573750Y-57531000D01*
X131415000Y-57689750D01*
X129984108Y-57689750D01*
X131428317Y-56245541D01*
X131415000Y-56277691D01*
X131415000Y-57118250D01*
X131573750Y-57277000D01*
X133223000Y-57277000D01*
X133223000Y-57257000D01*
X133477000Y-57257000D01*
X133477000Y-57277000D01*
X135126250Y-57277000D01*
X135285000Y-57118250D01*
X135285000Y-56277691D01*
X135188327Y-56044302D01*
X135009699Y-55865673D01*
X134960769Y-55845406D01*
X135198452Y-55489687D01*
X135322909Y-54864000D01*
X135198452Y-54238313D01*
X134844029Y-53707880D01*
X134673595Y-53594000D01*
X134844029Y-53480120D01*
X135198452Y-52949687D01*
X135322909Y-52324000D01*
X135198452Y-51698313D01*
X134844029Y-51167880D01*
X134313596Y-50813457D01*
X133687909Y-50689000D01*
X133012091Y-50689000D01*
X132386404Y-50813457D01*
X131855971Y-51167880D01*
X131501548Y-51698313D01*
X131377091Y-52324000D01*
X131501548Y-52949687D01*
X131855971Y-53480120D01*
X132026405Y-53594000D01*
X131855971Y-53707880D01*
X131593941Y-54100036D01*
X131399294Y-54138755D01*
X131144621Y-54308921D01*
X122358321Y-63095221D01*
X122188155Y-63349893D01*
X122188155Y-63349894D01*
X122128400Y-63650300D01*
X122128400Y-85328042D01*
X114323000Y-93133442D01*
X114323000Y-79240816D01*
X114627029Y-79037670D01*
X114807992Y-78766839D01*
X115189510Y-79184821D01*
X115718973Y-79432968D01*
X115951000Y-79312469D01*
X115951000Y-78105000D01*
X116205000Y-78105000D01*
X116205000Y-79312469D01*
X116437027Y-79432968D01*
X116966490Y-79184821D01*
X117360688Y-78752947D01*
X117532958Y-78337026D01*
X117411817Y-78105000D01*
X116205000Y-78105000D01*
X115951000Y-78105000D01*
X115931000Y-78105000D01*
X115931000Y-77851000D01*
X115951000Y-77851000D01*
X115951000Y-75565000D01*
X116205000Y-75565000D01*
X116205000Y-77851000D01*
X117411817Y-77851000D01*
X117532958Y-77618974D01*
X117360688Y-77203053D01*
X116966490Y-76771179D01*
X116831687Y-76708000D01*
X116966490Y-76644821D01*
X117360688Y-76212947D01*
X117532958Y-75797026D01*
X117411817Y-75565000D01*
X116205000Y-75565000D01*
X115951000Y-75565000D01*
X115931000Y-75565000D01*
X115931000Y-75311000D01*
X115951000Y-75311000D01*
X115951000Y-73025000D01*
X116205000Y-73025000D01*
X116205000Y-75311000D01*
X117411817Y-75311000D01*
X117532958Y-75078974D01*
X117360688Y-74663053D01*
X116966490Y-74231179D01*
X116831687Y-74168000D01*
X116966490Y-74104821D01*
X117360688Y-73672947D01*
X117532958Y-73257026D01*
X117411817Y-73025000D01*
X116205000Y-73025000D01*
X115951000Y-73025000D01*
X115931000Y-73025000D01*
X115931000Y-72771000D01*
X115951000Y-72771000D01*
X115951000Y-71563531D01*
X116205000Y-71563531D01*
X116205000Y-72771000D01*
X117411817Y-72771000D01*
X117532958Y-72538974D01*
X117360688Y-72123053D01*
X116966490Y-71691179D01*
X116437027Y-71443032D01*
X116205000Y-71563531D01*
X115951000Y-71563531D01*
X115718973Y-71443032D01*
X115189510Y-71691179D01*
X115019505Y-71877433D01*
X115004762Y-71799083D01*
X114865690Y-71582959D01*
X114653490Y-71437969D01*
X114401600Y-71386960D01*
X112674400Y-71386960D01*
X112439083Y-71431238D01*
X112222959Y-71570310D01*
X112077969Y-71782510D01*
X112026960Y-72034400D01*
X112026960Y-73761600D01*
X112071238Y-73996917D01*
X112210310Y-74213041D01*
X112422510Y-74358031D01*
X112466131Y-74366864D01*
X112448971Y-74378330D01*
X112124115Y-74864511D01*
X112010041Y-75438000D01*
X112124115Y-76011489D01*
X112448971Y-76497670D01*
X112763752Y-76708000D01*
X112448971Y-76918330D01*
X112124115Y-77404511D01*
X112010041Y-77978000D01*
X112124115Y-78551489D01*
X112448971Y-79037670D01*
X112753000Y-79240816D01*
X112753000Y-90582351D01*
X112708090Y-90512559D01*
X112495890Y-90367569D01*
X112244000Y-90316560D01*
X109560272Y-90316560D01*
X100903400Y-81659688D01*
X100903400Y-79607899D01*
X101090267Y-79608062D01*
X101434043Y-79466017D01*
X101697292Y-79203227D01*
X101839938Y-78859699D01*
X101839948Y-78848210D01*
X117034528Y-63653630D01*
X117061309Y-63664750D01*
X117632187Y-63665248D01*
X118159800Y-63447243D01*
X118563824Y-63043923D01*
X118617862Y-62913785D01*
X118670757Y-63041800D01*
X119074077Y-63445824D01*
X119601309Y-63664750D01*
X120172187Y-63665248D01*
X120699800Y-63447243D01*
X121103824Y-63043923D01*
X121322750Y-62516691D01*
X121323248Y-61945813D01*
X121105243Y-61418200D01*
X120701923Y-61014176D01*
X120174691Y-60795250D01*
X119603813Y-60794752D01*
X119076200Y-61012757D01*
X118672176Y-61416077D01*
X118618138Y-61546215D01*
X118565243Y-61418200D01*
X118161923Y-61014176D01*
X117634691Y-60795250D01*
X117063813Y-60794752D01*
X116536200Y-61012757D01*
X116132176Y-61416077D01*
X116078138Y-61546215D01*
X116025243Y-61418200D01*
X115621923Y-61014176D01*
X115094691Y-60795250D01*
X114523813Y-60794752D01*
X113996200Y-61012757D01*
X113592176Y-61416077D01*
X113538138Y-61546215D01*
X113485243Y-61418200D01*
X113081923Y-61014176D01*
X112554691Y-60795250D01*
X111983813Y-60794752D01*
X111456200Y-61012757D01*
X111052176Y-61416077D01*
X110998138Y-61546215D01*
X110945243Y-61418200D01*
X110541923Y-61014176D01*
X110014691Y-60795250D01*
X109733154Y-60795004D01*
X113863158Y-56665000D01*
X115567442Y-56665000D01*
X115750971Y-56939670D01*
X116065752Y-57150000D01*
X115750971Y-57360330D01*
X115426115Y-57846511D01*
X115312041Y-58420000D01*
X115426115Y-58993489D01*
X115750971Y-59479670D01*
X116237152Y-59804526D01*
X116810641Y-59918600D01*
X116869359Y-59918600D01*
X117442848Y-59804526D01*
X117908442Y-59493426D01*
X117913238Y-59518917D01*
X118052310Y-59735041D01*
X118264510Y-59880031D01*
X118516400Y-59931040D01*
X120243600Y-59931040D01*
X120478917Y-59886762D01*
X120695041Y-59747690D01*
X120840031Y-59535490D01*
X120891040Y-59283600D01*
X120891040Y-57556400D01*
X120846762Y-57321083D01*
X120707690Y-57104959D01*
X120495490Y-56959969D01*
X120451869Y-56951136D01*
X120469029Y-56939670D01*
X120793885Y-56453489D01*
X120907959Y-55880000D01*
X120793885Y-55306511D01*
X120469029Y-54820330D01*
X120165000Y-54617184D01*
X120165000Y-54602816D01*
X120469029Y-54399670D01*
X120793885Y-53913489D01*
X120907959Y-53340000D01*
X120793885Y-52766511D01*
X120469029Y-52280330D01*
X120153778Y-52069686D01*
X120105245Y-51825694D01*
X120105245Y-51825693D01*
X119935079Y-51571021D01*
X119155737Y-50791679D01*
X119671223Y-50976965D01*
X120241454Y-50949778D01*
X120642005Y-50783864D01*
X120716139Y-50537745D01*
X119888000Y-49709605D01*
X119873858Y-49723748D01*
X119694252Y-49544142D01*
X119708395Y-49530000D01*
X120067605Y-49530000D01*
X120895745Y-50358139D01*
X121141864Y-50284005D01*
X121334965Y-49746777D01*
X121307778Y-49176546D01*
X121141864Y-48775995D01*
X120895745Y-48701861D01*
X120067605Y-49530000D01*
X119708395Y-49530000D01*
X118880255Y-48701861D01*
X118634136Y-48775995D01*
X118613195Y-48834254D01*
X118565243Y-48718200D01*
X118369640Y-48522255D01*
X119059861Y-48522255D01*
X119888000Y-49350395D01*
X120716139Y-48522255D01*
X120642005Y-48276136D01*
X120104777Y-48083035D01*
X119534546Y-48110222D01*
X119133995Y-48276136D01*
X119059861Y-48522255D01*
X118369640Y-48522255D01*
X118161923Y-48314176D01*
X117634691Y-48095250D01*
X117063813Y-48094752D01*
X116536200Y-48312757D01*
X116132176Y-48716077D01*
X116078138Y-48846215D01*
X116025243Y-48718200D01*
X115621923Y-48314176D01*
X115094691Y-48095250D01*
X114836736Y-48095025D01*
X113557000Y-46815288D01*
X113557000Y-40548854D01*
X113757317Y-40511162D01*
X113973441Y-40372090D01*
X114118431Y-40159890D01*
X114169440Y-39908000D01*
X114169440Y-37308000D01*
X114125162Y-37072683D01*
X113986090Y-36856559D01*
X113773890Y-36711569D01*
X113522000Y-36660560D01*
X111522000Y-36660560D01*
X111286683Y-36704838D01*
X111070559Y-36843910D01*
X110965049Y-36998329D01*
X110607687Y-36759548D01*
X109982000Y-36635091D01*
X109356313Y-36759548D01*
X108825880Y-37113971D01*
X108712000Y-37284405D01*
X108598120Y-37113971D01*
X108067687Y-36759548D01*
X107442000Y-36635091D01*
X106816313Y-36759548D01*
X106285880Y-37113971D01*
X106172000Y-37284405D01*
X106058120Y-37113971D01*
X105527687Y-36759548D01*
X104902000Y-36635091D01*
X104276313Y-36759548D01*
X103745880Y-37113971D01*
X103391457Y-37644404D01*
X103267000Y-38270091D01*
X103267000Y-38945909D01*
X103391457Y-39571596D01*
X103745880Y-40102029D01*
X103867000Y-40182959D01*
X103867000Y-47243995D01*
X103866999Y-47244000D01*
X103945785Y-47640077D01*
X104170144Y-47975856D01*
X104304057Y-48109769D01*
X104294546Y-48110222D01*
X103893995Y-48276136D01*
X103819861Y-48522255D01*
X104648000Y-49350395D01*
X104662142Y-49336252D01*
X104841748Y-49515858D01*
X104827605Y-49530000D01*
X105655745Y-50358139D01*
X105901864Y-50284005D01*
X105922805Y-50225746D01*
X105970757Y-50341800D01*
X106374077Y-50745824D01*
X106901309Y-50964750D01*
X107472187Y-50965248D01*
X107999800Y-50747243D01*
X108403824Y-50343923D01*
X108457862Y-50213785D01*
X108510757Y-50341800D01*
X108914077Y-50745824D01*
X109441309Y-50964750D01*
X110012187Y-50965248D01*
X110539800Y-50747243D01*
X110943824Y-50343923D01*
X110997862Y-50213785D01*
X111050757Y-50341800D01*
X111454077Y-50745824D01*
X111981309Y-50964750D01*
X112552187Y-50965248D01*
X113079800Y-50747243D01*
X113483824Y-50343923D01*
X113537862Y-50213785D01*
X113590757Y-50341800D01*
X113994077Y-50745824D01*
X114521309Y-50964750D01*
X115092187Y-50965248D01*
X115619800Y-50747243D01*
X116023824Y-50343923D01*
X116077862Y-50213785D01*
X116130757Y-50341800D01*
X116534077Y-50745824D01*
X117061309Y-50964750D01*
X117108533Y-50964791D01*
X118370759Y-52227017D01*
X118290971Y-52280330D01*
X118110000Y-52551172D01*
X117929029Y-52280330D01*
X117442848Y-51955474D01*
X116869359Y-51841400D01*
X116810641Y-51841400D01*
X116237152Y-51955474D01*
X115750971Y-52280330D01*
X115426115Y-52766511D01*
X115312041Y-53340000D01*
X115426115Y-53913489D01*
X115750971Y-54399670D01*
X116065752Y-54610000D01*
X115750971Y-54820330D01*
X115567442Y-55095000D01*
X113538000Y-55095000D01*
X113237593Y-55154755D01*
X112982921Y-55324921D01*
X107501472Y-60806370D01*
X107474691Y-60795250D01*
X106903813Y-60794752D01*
X106376200Y-61012757D01*
X105972176Y-61416077D01*
X105918138Y-61546215D01*
X105865243Y-61418200D01*
X105461923Y-61014176D01*
X104934691Y-60795250D01*
X104363813Y-60794752D01*
X103836200Y-61012757D01*
X103432176Y-61416077D01*
X103378138Y-61546215D01*
X103325243Y-61418200D01*
X102921923Y-61014176D01*
X102394691Y-60795250D01*
X101823813Y-60794752D01*
X101296200Y-61012757D01*
X100903400Y-61404873D01*
X100903400Y-52198312D01*
X102136686Y-50965025D01*
X102392187Y-50965248D01*
X102919800Y-50747243D01*
X103129663Y-50537745D01*
X103819861Y-50537745D01*
X103893995Y-50783864D01*
X104431223Y-50976965D01*
X105001454Y-50949778D01*
X105402005Y-50783864D01*
X105476139Y-50537745D01*
X104648000Y-49709605D01*
X103819861Y-50537745D01*
X103129663Y-50537745D01*
X103323824Y-50343923D01*
X103371448Y-50229232D01*
X103394136Y-50284005D01*
X103640255Y-50358139D01*
X104468395Y-49530000D01*
X103640255Y-48701861D01*
X103394136Y-48775995D01*
X103373195Y-48834254D01*
X103325243Y-48718200D01*
X102921923Y-48314176D01*
X102394691Y-48095250D01*
X101823813Y-48094752D01*
X101296200Y-48312757D01*
X100892176Y-48716077D01*
X100673250Y-49243309D01*
X100673025Y-49501264D01*
X99136544Y-51037744D01*
X98912185Y-51373523D01*
X98833399Y-51769600D01*
X98833400Y-51769605D01*
X98833400Y-67863564D01*
X98822029Y-67874915D01*
X98633615Y-68328666D01*
X98633186Y-68819979D01*
X98820808Y-69274057D01*
X98833400Y-69286671D01*
X98833400Y-82088395D01*
X98833399Y-82088400D01*
X98912185Y-82484477D01*
X99136544Y-82820256D01*
X106654598Y-90338310D01*
X106654598Y-90491834D01*
X106322767Y-90378887D01*
X106081904Y-90442916D01*
X105361730Y-90864524D01*
X104857718Y-91529638D01*
X104812789Y-91701456D01*
X104791683Y-91595348D01*
X104328873Y-90902704D01*
X103636229Y-90439894D01*
X102819200Y-90277377D01*
X102002171Y-90439894D01*
X101309527Y-90902704D01*
X100846717Y-91595348D01*
X100838000Y-91639171D01*
X100829283Y-91595348D01*
X100366473Y-90902704D01*
X99673829Y-90439894D01*
X98856800Y-90277377D01*
X98039771Y-90439894D01*
X97347127Y-90902704D01*
X96884317Y-91595348D01*
X96721800Y-92412377D01*
X96721800Y-93515623D01*
X96884317Y-94332652D01*
X97086674Y-94635500D01*
X84866457Y-94635500D01*
X77766953Y-87535995D01*
X77766962Y-87525833D01*
X77646338Y-87233900D01*
X88074600Y-87233900D01*
X88375007Y-87174145D01*
X88629679Y-87003979D01*
X97179605Y-78454053D01*
X97189767Y-78454062D01*
X97533543Y-78312017D01*
X97796792Y-78049227D01*
X97939438Y-77705699D01*
X97939762Y-77333733D01*
X97797717Y-76989957D01*
X97534927Y-76726708D01*
X97191399Y-76584062D01*
X96819433Y-76583738D01*
X96475657Y-76725783D01*
X96212408Y-76988573D01*
X96069762Y-77332101D01*
X96069752Y-77343590D01*
X87749442Y-85663900D01*
X78392358Y-85663900D01*
X81333779Y-82722479D01*
X81503945Y-82467806D01*
X81563700Y-82167400D01*
X81563700Y-75163422D01*
X81856101Y-75284838D01*
X82228067Y-75285162D01*
X82571843Y-75143117D01*
X82579974Y-75135000D01*
X83638000Y-75135000D01*
X83938407Y-75075245D01*
X84193079Y-74905079D01*
X95444528Y-63653630D01*
X95471309Y-63664750D01*
X96042187Y-63665248D01*
X96569800Y-63447243D01*
X96973824Y-63043923D01*
X97192750Y-62516691D01*
X97193248Y-61945813D01*
X96975243Y-61418200D01*
X96571923Y-61014176D01*
X96044691Y-60795250D01*
X95473813Y-60794752D01*
X94946200Y-61012757D01*
X94542176Y-61416077D01*
X94488138Y-61546215D01*
X94435243Y-61418200D01*
X94031923Y-61014176D01*
X93504691Y-60795250D01*
X92933813Y-60794752D01*
X92406200Y-61012757D01*
X92002176Y-61416077D01*
X91948138Y-61546215D01*
X91895243Y-61418200D01*
X91491923Y-61014176D01*
X90964691Y-60795250D01*
X90393813Y-60794752D01*
X89866200Y-61012757D01*
X89462176Y-61416077D01*
X89408138Y-61546215D01*
X89355243Y-61418200D01*
X88951923Y-61014176D01*
X88424691Y-60795250D01*
X88143154Y-60795004D01*
X89733158Y-59205000D01*
X91437442Y-59205000D01*
X91620971Y-59479670D01*
X92107152Y-59804526D01*
X92680641Y-59918600D01*
X92739359Y-59918600D01*
X93312848Y-59804526D01*
X93778442Y-59493426D01*
X93783238Y-59518917D01*
X93922310Y-59735041D01*
X94134510Y-59880031D01*
X94386400Y-59931040D01*
X96113600Y-59931040D01*
X96348917Y-59886762D01*
X96565041Y-59747690D01*
X96710031Y-59535490D01*
X96761040Y-59283600D01*
X96761040Y-57556400D01*
X96716762Y-57321083D01*
X96577690Y-57104959D01*
X96365490Y-56959969D01*
X96321869Y-56951136D01*
X96339029Y-56939670D01*
X96663885Y-56453489D01*
X96777959Y-55880000D01*
X96663885Y-55306511D01*
X96339029Y-54820330D01*
X96035000Y-54617184D01*
X96035000Y-54602816D01*
X96339029Y-54399670D01*
X96663885Y-53913489D01*
X96777959Y-53340000D01*
X96663885Y-52766511D01*
X96339029Y-52280330D01*
X96023778Y-52069686D01*
X95975245Y-51825694D01*
X95975245Y-51825693D01*
X95805079Y-51571021D01*
X95025737Y-50791679D01*
X95541223Y-50976965D01*
X96111454Y-50949778D01*
X96512005Y-50783864D01*
X96586139Y-50537745D01*
X95758000Y-49709605D01*
X95743858Y-49723748D01*
X95564252Y-49544142D01*
X95578395Y-49530000D01*
X95937605Y-49530000D01*
X96765745Y-50358139D01*
X97011864Y-50284005D01*
X97204965Y-49746777D01*
X97177778Y-49176546D01*
X97011864Y-48775995D01*
X96765745Y-48701861D01*
X95937605Y-49530000D01*
X95578395Y-49530000D01*
X94750255Y-48701861D01*
X94504136Y-48775995D01*
X94483195Y-48834254D01*
X94435243Y-48718200D01*
X94239640Y-48522255D01*
X94929861Y-48522255D01*
X95758000Y-49350395D01*
X96586139Y-48522255D01*
X96512005Y-48276136D01*
X95974777Y-48083035D01*
X95404546Y-48110222D01*
X95003995Y-48276136D01*
X94929861Y-48522255D01*
X94239640Y-48522255D01*
X94031923Y-48314176D01*
X93555404Y-48116308D01*
X95727853Y-45943858D01*
X95727856Y-45943856D01*
X95952215Y-45608077D01*
X95979760Y-45469600D01*
X96031001Y-45212000D01*
X96031000Y-45211995D01*
X96031000Y-40548854D01*
X96231317Y-40511162D01*
X96447441Y-40372090D01*
X96592431Y-40159890D01*
X96643440Y-39908000D01*
X96643440Y-37308000D01*
X96599162Y-37072683D01*
X96460090Y-36856559D01*
X96247890Y-36711569D01*
X95996000Y-36660560D01*
X93996000Y-36660560D01*
X93760683Y-36704838D01*
X93544559Y-36843910D01*
X93439049Y-36998329D01*
X93081687Y-36759548D01*
X92456000Y-36635091D01*
X91830313Y-36759548D01*
X91299880Y-37113971D01*
X91186000Y-37284405D01*
X91072120Y-37113971D01*
X90541687Y-36759548D01*
X89916000Y-36635091D01*
X89290313Y-36759548D01*
X88759880Y-37113971D01*
X88646000Y-37284405D01*
X88532120Y-37113971D01*
X88001687Y-36759548D01*
X87376000Y-36635091D01*
X86750313Y-36759548D01*
X86219880Y-37113971D01*
X85865457Y-37644404D01*
X85741000Y-38270091D01*
X85741000Y-38945909D01*
X85865457Y-39571596D01*
X86219880Y-40102029D01*
X86341000Y-40182959D01*
X86341000Y-44783289D01*
X83029313Y-48094975D01*
X82773813Y-48094752D01*
X82246200Y-48312757D01*
X81842176Y-48716077D01*
X81794552Y-48830768D01*
X81771864Y-48775995D01*
X81525745Y-48701861D01*
X80697605Y-49530000D01*
X81525745Y-50358139D01*
X81771864Y-50284005D01*
X81792805Y-50225746D01*
X81840757Y-50341800D01*
X82244077Y-50745824D01*
X82771309Y-50964750D01*
X83342187Y-50965248D01*
X83869800Y-50747243D01*
X84273824Y-50343923D01*
X84327862Y-50213785D01*
X84380757Y-50341800D01*
X84784077Y-50745824D01*
X85311309Y-50964750D01*
X85882187Y-50965248D01*
X86409800Y-50747243D01*
X86813824Y-50343923D01*
X86867862Y-50213785D01*
X86920757Y-50341800D01*
X87324077Y-50745824D01*
X87851309Y-50964750D01*
X88422187Y-50965248D01*
X88949800Y-50747243D01*
X89353824Y-50343923D01*
X89407862Y-50213785D01*
X89460757Y-50341800D01*
X89864077Y-50745824D01*
X90391309Y-50964750D01*
X90962187Y-50965248D01*
X91489800Y-50747243D01*
X91893824Y-50343923D01*
X91947862Y-50213785D01*
X92000757Y-50341800D01*
X92404077Y-50745824D01*
X92931309Y-50964750D01*
X92978533Y-50964791D01*
X94240759Y-52227017D01*
X94160971Y-52280330D01*
X93980000Y-52551172D01*
X93799029Y-52280330D01*
X93312848Y-51955474D01*
X92739359Y-51841400D01*
X92680641Y-51841400D01*
X92107152Y-51955474D01*
X91620971Y-52280330D01*
X91437442Y-52555000D01*
X89408005Y-52555000D01*
X89408000Y-52554999D01*
X89107594Y-52614755D01*
X88852921Y-52784921D01*
X80831472Y-60806370D01*
X80804691Y-60795250D01*
X80233813Y-60794752D01*
X79914400Y-60926731D01*
X79914400Y-55437705D01*
X79914401Y-55437700D01*
X79854645Y-55137294D01*
X79757897Y-54992500D01*
X79684479Y-54882621D01*
X79684476Y-54882619D01*
X74616045Y-49814187D01*
X76542752Y-49814187D01*
X76760757Y-50341800D01*
X77164077Y-50745824D01*
X77691309Y-50964750D01*
X78262187Y-50965248D01*
X78789800Y-50747243D01*
X78999663Y-50537745D01*
X79689861Y-50537745D01*
X79763995Y-50783864D01*
X80301223Y-50976965D01*
X80871454Y-50949778D01*
X81272005Y-50783864D01*
X81346139Y-50537745D01*
X80518000Y-49709605D01*
X79689861Y-50537745D01*
X78999663Y-50537745D01*
X79193824Y-50343923D01*
X79241448Y-50229232D01*
X79264136Y-50284005D01*
X79510255Y-50358139D01*
X80338395Y-49530000D01*
X79510255Y-48701861D01*
X79264136Y-48775995D01*
X79243195Y-48834254D01*
X79195243Y-48718200D01*
X78999640Y-48522255D01*
X79689861Y-48522255D01*
X80518000Y-49350395D01*
X81346139Y-48522255D01*
X81272005Y-48276136D01*
X80734777Y-48083035D01*
X80164546Y-48110222D01*
X79763995Y-48276136D01*
X79689861Y-48522255D01*
X78999640Y-48522255D01*
X78791923Y-48314176D01*
X78264691Y-48095250D01*
X77693813Y-48094752D01*
X77166200Y-48312757D01*
X76762176Y-48716077D01*
X76543250Y-49243309D01*
X76542752Y-49814187D01*
X74616045Y-49814187D01*
X68577458Y-43775600D01*
X68614054Y-43751147D01*
X68935961Y-43269378D01*
X69049000Y-42701093D01*
X69049000Y-42642907D01*
X68935961Y-42074622D01*
X68614054Y-41592853D01*
X68328422Y-41402000D01*
X68614054Y-41211147D01*
X68935961Y-40729378D01*
X69049000Y-40161093D01*
X69049000Y-40102907D01*
X68935961Y-39534622D01*
X68614054Y-39052853D01*
X68132285Y-38730946D01*
X67564000Y-38617907D01*
X66995715Y-38730946D01*
X66513946Y-39052853D01*
X66294000Y-39382026D01*
X66074054Y-39052853D01*
X65592285Y-38730946D01*
X65024000Y-38617907D01*
X64455715Y-38730946D01*
X63973946Y-39052853D01*
X63754000Y-39382026D01*
X63534054Y-39052853D01*
X63052285Y-38730946D01*
X62484000Y-38617907D01*
X61915715Y-38730946D01*
X61433946Y-39052853D01*
X61206298Y-39393553D01*
X61139183Y-39250642D01*
X60710924Y-38860355D01*
X60300890Y-38690524D01*
X60071000Y-38811845D01*
X60071000Y-40005000D01*
X60091000Y-40005000D01*
X60091000Y-40259000D01*
X60071000Y-40259000D01*
X60071000Y-42545000D01*
X60091000Y-42545000D01*
X60091000Y-42799000D01*
X60071000Y-42799000D01*
X60071000Y-43998250D01*
X60229750Y-44157000D01*
X60426500Y-44157000D01*
X60426500Y-54961494D01*
X60419308Y-54968673D01*
X60331205Y-55180847D01*
X58096679Y-52946321D01*
X57842007Y-52776155D01*
X57541600Y-52716400D01*
X51458600Y-52716400D01*
X51158193Y-52776155D01*
X50903521Y-52946321D01*
X48282869Y-55566973D01*
X48278700Y-55565242D01*
X47723735Y-55564758D01*
X47210828Y-55776687D01*
X46818066Y-56168764D01*
X46605242Y-56681300D01*
X46604758Y-57236265D01*
X40685000Y-57236265D01*
X40685000Y-53635593D01*
X44074012Y-53635593D01*
X44215478Y-53938782D01*
X44951955Y-54223737D01*
X45741418Y-54205164D01*
X46384522Y-53938782D01*
X46525988Y-53635593D01*
X45300000Y-52409605D01*
X44074012Y-53635593D01*
X40685000Y-53635593D01*
X40685000Y-51881955D01*
X43306263Y-51881955D01*
X43324836Y-52671418D01*
X43591218Y-53314522D01*
X43894407Y-53455988D01*
X45120395Y-52230000D01*
X45479605Y-52230000D01*
X46705593Y-53455988D01*
X47008782Y-53314522D01*
X47293737Y-52578045D01*
X47275164Y-51788582D01*
X47008782Y-51145478D01*
X46705593Y-51004012D01*
X45479605Y-52230000D01*
X45120395Y-52230000D01*
X43894407Y-51004012D01*
X43591218Y-51145478D01*
X43306263Y-51881955D01*
X40685000Y-51881955D01*
X40685000Y-50824407D01*
X44074012Y-50824407D01*
X45300000Y-52050395D01*
X46525988Y-50824407D01*
X46384522Y-50521218D01*
X45648045Y-50236263D01*
X44858582Y-50254836D01*
X44215478Y-50521218D01*
X44074012Y-50824407D01*
X40685000Y-50824407D01*
X40685000Y-42479909D01*
X40813871Y-42791801D01*
X42200897Y-44181250D01*
X44014061Y-44934141D01*
X45977325Y-44935854D01*
X47791801Y-44186129D01*
X49022325Y-42957750D01*
X58459000Y-42957750D01*
X58459000Y-43648309D01*
X58555673Y-43881698D01*
X58734301Y-44060327D01*
X58967690Y-44157000D01*
X59658250Y-44157000D01*
X59817000Y-43998250D01*
X59817000Y-42799000D01*
X58617750Y-42799000D01*
X58459000Y-42957750D01*
X49022325Y-42957750D01*
X49181250Y-42799103D01*
X49639426Y-41695691D01*
X58459000Y-41695691D01*
X58459000Y-42386250D01*
X58617750Y-42545000D01*
X59817000Y-42545000D01*
X59817000Y-40259000D01*
X58623181Y-40259000D01*
X58502514Y-40488892D01*
X58748817Y-41013358D01*
X58948208Y-41195070D01*
X58734301Y-41283673D01*
X58555673Y-41462302D01*
X58459000Y-41695691D01*
X49639426Y-41695691D01*
X49934141Y-40985939D01*
X49935197Y-39775108D01*
X58502514Y-39775108D01*
X58623181Y-40005000D01*
X59817000Y-40005000D01*
X59817000Y-38811845D01*
X59587110Y-38690524D01*
X59177076Y-38860355D01*
X58748817Y-39250642D01*
X58502514Y-39775108D01*
X49935197Y-39775108D01*
X49935854Y-39022675D01*
X49186129Y-37208199D01*
X47799103Y-35818750D01*
X47476997Y-35685000D01*
X129520091Y-35685000D01*
X129208199Y-35813871D01*
X129208199Y-35813871D01*
G37*
X129208199Y-35813871D02*
X127818750Y-37200897D01*
X127065859Y-39014061D01*
X127064146Y-40977325D01*
X127813871Y-42791801D01*
X129200897Y-44181250D01*
X131014061Y-44934141D01*
X132977325Y-44935854D01*
X134791801Y-44186129D01*
X136181250Y-42799103D01*
X136315000Y-42476997D01*
X136315000Y-91520091D01*
X136186129Y-91208199D01*
X134799103Y-89818750D01*
X132985939Y-89065859D01*
X131022675Y-89064146D01*
X129208199Y-89813871D01*
X127818750Y-91200897D01*
X127065859Y-93014061D01*
X127064146Y-94977325D01*
X127813871Y-96791801D01*
X129200897Y-98181250D01*
X129523003Y-98315000D01*
X47479909Y-98315000D01*
X47791801Y-98186129D01*
X49181250Y-96799103D01*
X49934141Y-94985939D01*
X49935854Y-93022675D01*
X49186129Y-91208199D01*
X47799103Y-89818750D01*
X45985939Y-89065859D01*
X44022675Y-89064146D01*
X42208199Y-89813871D01*
X40818750Y-91200897D01*
X40685000Y-91523003D01*
X40685000Y-65635593D01*
X44074012Y-65635593D01*
X44215478Y-65938782D01*
X44951955Y-66223737D01*
X45741418Y-66205164D01*
X46384522Y-65938782D01*
X46525988Y-65635593D01*
X45300000Y-64409605D01*
X44074012Y-65635593D01*
X40685000Y-65635593D01*
X40685000Y-63881955D01*
X43306263Y-63881955D01*
X43324836Y-64671418D01*
X43591218Y-65314522D01*
X43894407Y-65455988D01*
X45120395Y-64230000D01*
X45479605Y-64230000D01*
X46705593Y-65455988D01*
X47008782Y-65314522D01*
X47293737Y-64578045D01*
X47275164Y-63788582D01*
X47008782Y-63145478D01*
X46705593Y-63004012D01*
X45479605Y-64230000D01*
X45120395Y-64230000D01*
X43894407Y-63004012D01*
X43591218Y-63145478D01*
X43306263Y-63881955D01*
X40685000Y-63881955D01*
X40685000Y-62824407D01*
X44074012Y-62824407D01*
X45300000Y-64050395D01*
X46525988Y-62824407D01*
X46384522Y-62521218D01*
X45648045Y-62236263D01*
X44858582Y-62254836D01*
X44215478Y-62521218D01*
X44074012Y-62824407D01*
X40685000Y-62824407D01*
X40685000Y-60478764D01*
X47200841Y-60478764D01*
X47270059Y-60720742D01*
X47792780Y-60907155D01*
X48347049Y-60879341D01*
X48729941Y-60720742D01*
X48799159Y-60478764D01*
X48000000Y-59679605D01*
X47200841Y-60478764D01*
X40685000Y-60478764D01*
X40685000Y-59292780D01*
X46592845Y-59292780D01*
X46620659Y-59847049D01*
X46779258Y-60229941D01*
X47021236Y-60299159D01*
X47820395Y-59500000D01*
X47021236Y-58700841D01*
X46779258Y-58770059D01*
X46592845Y-59292780D01*
X40685000Y-59292780D01*
X40685000Y-57236265D01*
X46604758Y-57236265D01*
X46816687Y-57749172D01*
X47208764Y-58141934D01*
X47404934Y-58223391D01*
X47270059Y-58279258D01*
X47200841Y-58521236D01*
X48000000Y-59320395D01*
X48799159Y-58521236D01*
X48729941Y-58279258D01*
X48585138Y-58227618D01*
X48789172Y-58143313D01*
X49000024Y-57932829D01*
X49208764Y-58141934D01*
X49420738Y-58229954D01*
X49210828Y-58316687D01*
X48818066Y-58708764D01*
X48709581Y-58970024D01*
X48179605Y-59500000D01*
X48709595Y-60029990D01*
X48816687Y-60289172D01*
X49208764Y-60681934D01*
X49721300Y-60894758D01*
X50276265Y-60895242D01*
X50789172Y-60683313D01*
X51181934Y-60291236D01*
X51394758Y-59778700D01*
X51395242Y-59223735D01*
X51392663Y-59217495D01*
X55148258Y-55461900D01*
X56150594Y-55461900D01*
X56157773Y-55469092D01*
X56501301Y-55611738D01*
X56873267Y-55612062D01*
X57217043Y-55470017D01*
X57330507Y-55356751D01*
X57233362Y-55590701D01*
X57233038Y-55962667D01*
X57375083Y-56306443D01*
X57383200Y-56314574D01*
X57383200Y-71184900D01*
X57442955Y-71485307D01*
X57613121Y-71739979D01*
X60368047Y-74494904D01*
X60368038Y-74505067D01*
X60510083Y-74848843D01*
X60772873Y-75112092D01*
X61116401Y-75254738D01*
X61214800Y-75254824D01*
X61214800Y-91904317D01*
X61135257Y-91937183D01*
X60872008Y-92199973D01*
X60729362Y-92543501D01*
X60729038Y-92915467D01*
X60871083Y-93259243D01*
X61133873Y-93522492D01*
X61477401Y-93665138D01*
X61849367Y-93665462D01*
X62193143Y-93523417D01*
X62456392Y-93260627D01*
X62599038Y-92917099D01*
X62599067Y-92883647D01*
X62725045Y-92695107D01*
X62784800Y-92394700D01*
X62784800Y-91756871D01*
X63119167Y-91757162D01*
X63462943Y-91615117D01*
X63726192Y-91352327D01*
X63868838Y-91008799D01*
X63869162Y-90636833D01*
X63727117Y-90293057D01*
X63464327Y-90029808D01*
X63426700Y-90014184D01*
X63426700Y-79936658D01*
X68101047Y-84611005D01*
X68101038Y-84621167D01*
X68243083Y-84964943D01*
X68505873Y-85228192D01*
X68849401Y-85370838D01*
X69221367Y-85371162D01*
X69565143Y-85229117D01*
X69828392Y-84966327D01*
X69971038Y-84622799D01*
X69971362Y-84250833D01*
X69829317Y-83907057D01*
X69566527Y-83643808D01*
X69222999Y-83501162D01*
X69211510Y-83501152D01*
X67354848Y-81644490D01*
X67400792Y-81598627D01*
X67543438Y-81255099D01*
X67543448Y-81243610D01*
X70382214Y-78404844D01*
X70441201Y-78429338D01*
X70813167Y-78429662D01*
X71156943Y-78287617D01*
X71182100Y-78262504D01*
X71182100Y-78735294D01*
X71174908Y-78742473D01*
X71032262Y-79086001D01*
X71031938Y-79457967D01*
X71173983Y-79801743D01*
X71436773Y-80064992D01*
X71780301Y-80207638D01*
X72152267Y-80207962D01*
X72437992Y-80089903D01*
X72743201Y-80216638D01*
X73115167Y-80216962D01*
X73458943Y-80074917D01*
X73722192Y-79812127D01*
X73864838Y-79468599D01*
X73864848Y-79457110D01*
X74017179Y-79304779D01*
X74187345Y-79050107D01*
X74247100Y-78749700D01*
X74247100Y-76880646D01*
X74676000Y-76965959D01*
X75217000Y-76858347D01*
X75217000Y-78361410D01*
X74901957Y-78491583D01*
X74638708Y-78754373D01*
X74496062Y-79097901D01*
X74495738Y-79469867D01*
X74637783Y-79813643D01*
X74900573Y-80076892D01*
X75244101Y-80219538D01*
X75616067Y-80219862D01*
X75959843Y-80077817D01*
X76223092Y-79815027D01*
X76365738Y-79471499D01*
X76365748Y-79460010D01*
X76431000Y-79394758D01*
X76431000Y-80442542D01*
X74928821Y-81944721D01*
X74758655Y-82199393D01*
X74711426Y-82436827D01*
X74698900Y-82499800D01*
X74698900Y-86817237D01*
X74515000Y-86817076D01*
X74515000Y-82444006D01*
X74522192Y-82436827D01*
X74664838Y-82093299D01*
X74665162Y-81721333D01*
X74523117Y-81377557D01*
X74260327Y-81114308D01*
X73916799Y-80971662D01*
X73544833Y-80971338D01*
X73201057Y-81113383D01*
X72937808Y-81376173D01*
X72795162Y-81719701D01*
X72794838Y-82091667D01*
X72936883Y-82435443D01*
X72945000Y-82443574D01*
X72945000Y-87745800D01*
X73004755Y-88046207D01*
X73174921Y-88300879D01*
X81850221Y-96976179D01*
X82104894Y-97146345D01*
X82405300Y-97206100D01*
X112853000Y-97206100D01*
X113153407Y-97146345D01*
X113408079Y-96976179D01*
X132254779Y-78129479D01*
X132424945Y-77874806D01*
X132484700Y-77574400D01*
X132484700Y-76565000D01*
X133064250Y-76565000D01*
X133223000Y-76406250D01*
X133223000Y-75057000D01*
X133477000Y-75057000D01*
X133477000Y-76406250D01*
X133635750Y-76565000D01*
X134776310Y-76565000D01*
X135009699Y-76468327D01*
X135188327Y-76289698D01*
X135285000Y-76056309D01*
X135285000Y-75215750D01*
X135126250Y-75057000D01*
X133477000Y-75057000D01*
X133223000Y-75057000D01*
X133203000Y-75057000D01*
X133203000Y-74803000D01*
X133223000Y-74803000D01*
X133223000Y-74783000D01*
X133477000Y-74783000D01*
X133477000Y-74803000D01*
X135126250Y-74803000D01*
X135285000Y-74644250D01*
X135285000Y-73803691D01*
X135188327Y-73570302D01*
X135009699Y-73391673D01*
X134960769Y-73371406D01*
X135198452Y-73015687D01*
X135322909Y-72390000D01*
X135198452Y-71764313D01*
X134844029Y-71233880D01*
X134673595Y-71120000D01*
X134844029Y-71006120D01*
X135198452Y-70475687D01*
X135322909Y-69850000D01*
X135198452Y-69224313D01*
X134844029Y-68693880D01*
X134653812Y-68566781D01*
X134895922Y-68376317D01*
X135209144Y-67818355D01*
X135240124Y-67690434D01*
X135120777Y-67437000D01*
X133477000Y-67437000D01*
X133477000Y-67457000D01*
X133223000Y-67457000D01*
X133223000Y-67437000D01*
X131579223Y-67437000D01*
X131459876Y-67690434D01*
X131490856Y-67818355D01*
X131804078Y-68376317D01*
X132046188Y-68566781D01*
X131855971Y-68693880D01*
X131501548Y-69224313D01*
X131377091Y-69850000D01*
X131501548Y-70475687D01*
X131855971Y-71006120D01*
X132026405Y-71120000D01*
X131855971Y-71233880D01*
X131593941Y-71626037D01*
X131399294Y-71664755D01*
X131144621Y-71834921D01*
X130974455Y-72089594D01*
X130914700Y-72390000D01*
X130914700Y-77249242D01*
X123698400Y-84465542D01*
X123698400Y-64770000D01*
X131377091Y-64770000D01*
X131501548Y-65395687D01*
X131855971Y-65926120D01*
X132046188Y-66053219D01*
X131804078Y-66243683D01*
X131490856Y-66801645D01*
X131459876Y-66929566D01*
X131579223Y-67183000D01*
X133223000Y-67183000D01*
X133223000Y-67163000D01*
X133477000Y-67163000D01*
X133477000Y-67183000D01*
X135120777Y-67183000D01*
X135240124Y-66929566D01*
X135209144Y-66801645D01*
X134895922Y-66243683D01*
X134653812Y-66053219D01*
X134844029Y-65926120D01*
X135198452Y-65395687D01*
X135322909Y-64770000D01*
X135198452Y-64144313D01*
X134844029Y-63613880D01*
X134313596Y-63259457D01*
X133687909Y-63135000D01*
X133012091Y-63135000D01*
X132386404Y-63259457D01*
X131855971Y-63613880D01*
X131501548Y-64144313D01*
X131377091Y-64770000D01*
X123698400Y-64770000D01*
X123698400Y-63975458D01*
X129984108Y-57689750D01*
X131415000Y-57689750D01*
X131415000Y-58530309D01*
X131511673Y-58763698D01*
X131690301Y-58942327D01*
X131923690Y-59039000D01*
X133064250Y-59039000D01*
X133223000Y-58880250D01*
X133223000Y-57531000D01*
X133477000Y-57531000D01*
X133477000Y-58880250D01*
X133635750Y-59039000D01*
X134776310Y-59039000D01*
X135009699Y-58942327D01*
X135188327Y-58763698D01*
X135285000Y-58530309D01*
X135285000Y-57689750D01*
X135126250Y-57531000D01*
X133477000Y-57531000D01*
X133223000Y-57531000D01*
X131573750Y-57531000D01*
X131415000Y-57689750D01*
X129984108Y-57689750D01*
X131428317Y-56245541D01*
X131415000Y-56277691D01*
X131415000Y-57118250D01*
X131573750Y-57277000D01*
X133223000Y-57277000D01*
X133223000Y-57257000D01*
X133477000Y-57257000D01*
X133477000Y-57277000D01*
X135126250Y-57277000D01*
X135285000Y-57118250D01*
X135285000Y-56277691D01*
X135188327Y-56044302D01*
X135009699Y-55865673D01*
X134960769Y-55845406D01*
X135198452Y-55489687D01*
X135322909Y-54864000D01*
X135198452Y-54238313D01*
X134844029Y-53707880D01*
X134673595Y-53594000D01*
X134844029Y-53480120D01*
X135198452Y-52949687D01*
X135322909Y-52324000D01*
X135198452Y-51698313D01*
X134844029Y-51167880D01*
X134313596Y-50813457D01*
X133687909Y-50689000D01*
X133012091Y-50689000D01*
X132386404Y-50813457D01*
X131855971Y-51167880D01*
X131501548Y-51698313D01*
X131377091Y-52324000D01*
X131501548Y-52949687D01*
X131855971Y-53480120D01*
X132026405Y-53594000D01*
X131855971Y-53707880D01*
X131593941Y-54100036D01*
X131399294Y-54138755D01*
X131144621Y-54308921D01*
X122358321Y-63095221D01*
X122188155Y-63349893D01*
X122188155Y-63349894D01*
X122128400Y-63650300D01*
X122128400Y-85328042D01*
X114323000Y-93133442D01*
X114323000Y-79240816D01*
X114627029Y-79037670D01*
X114807992Y-78766839D01*
X115189510Y-79184821D01*
X115718973Y-79432968D01*
X115951000Y-79312469D01*
X115951000Y-78105000D01*
X116205000Y-78105000D01*
X116205000Y-79312469D01*
X116437027Y-79432968D01*
X116966490Y-79184821D01*
X117360688Y-78752947D01*
X117532958Y-78337026D01*
X117411817Y-78105000D01*
X116205000Y-78105000D01*
X115951000Y-78105000D01*
X115931000Y-78105000D01*
X115931000Y-77851000D01*
X115951000Y-77851000D01*
X115951000Y-75565000D01*
X116205000Y-75565000D01*
X116205000Y-77851000D01*
X117411817Y-77851000D01*
X117532958Y-77618974D01*
X117360688Y-77203053D01*
X116966490Y-76771179D01*
X116831687Y-76708000D01*
X116966490Y-76644821D01*
X117360688Y-76212947D01*
X117532958Y-75797026D01*
X117411817Y-75565000D01*
X116205000Y-75565000D01*
X115951000Y-75565000D01*
X115931000Y-75565000D01*
X115931000Y-75311000D01*
X115951000Y-75311000D01*
X115951000Y-73025000D01*
X116205000Y-73025000D01*
X116205000Y-75311000D01*
X117411817Y-75311000D01*
X117532958Y-75078974D01*
X117360688Y-74663053D01*
X116966490Y-74231179D01*
X116831687Y-74168000D01*
X116966490Y-74104821D01*
X117360688Y-73672947D01*
X117532958Y-73257026D01*
X117411817Y-73025000D01*
X116205000Y-73025000D01*
X115951000Y-73025000D01*
X115931000Y-73025000D01*
X115931000Y-72771000D01*
X115951000Y-72771000D01*
X115951000Y-71563531D01*
X116205000Y-71563531D01*
X116205000Y-72771000D01*
X117411817Y-72771000D01*
X117532958Y-72538974D01*
X117360688Y-72123053D01*
X116966490Y-71691179D01*
X116437027Y-71443032D01*
X116205000Y-71563531D01*
X115951000Y-71563531D01*
X115718973Y-71443032D01*
X115189510Y-71691179D01*
X115019505Y-71877433D01*
X115004762Y-71799083D01*
X114865690Y-71582959D01*
X114653490Y-71437969D01*
X114401600Y-71386960D01*
X112674400Y-71386960D01*
X112439083Y-71431238D01*
X112222959Y-71570310D01*
X112077969Y-71782510D01*
X112026960Y-72034400D01*
X112026960Y-73761600D01*
X112071238Y-73996917D01*
X112210310Y-74213041D01*
X112422510Y-74358031D01*
X112466131Y-74366864D01*
X112448971Y-74378330D01*
X112124115Y-74864511D01*
X112010041Y-75438000D01*
X112124115Y-76011489D01*
X112448971Y-76497670D01*
X112763752Y-76708000D01*
X112448971Y-76918330D01*
X112124115Y-77404511D01*
X112010041Y-77978000D01*
X112124115Y-78551489D01*
X112448971Y-79037670D01*
X112753000Y-79240816D01*
X112753000Y-90582351D01*
X112708090Y-90512559D01*
X112495890Y-90367569D01*
X112244000Y-90316560D01*
X109560272Y-90316560D01*
X100903400Y-81659688D01*
X100903400Y-79607899D01*
X101090267Y-79608062D01*
X101434043Y-79466017D01*
X101697292Y-79203227D01*
X101839938Y-78859699D01*
X101839948Y-78848210D01*
X117034528Y-63653630D01*
X117061309Y-63664750D01*
X117632187Y-63665248D01*
X118159800Y-63447243D01*
X118563824Y-63043923D01*
X118617862Y-62913785D01*
X118670757Y-63041800D01*
X119074077Y-63445824D01*
X119601309Y-63664750D01*
X120172187Y-63665248D01*
X120699800Y-63447243D01*
X121103824Y-63043923D01*
X121322750Y-62516691D01*
X121323248Y-61945813D01*
X121105243Y-61418200D01*
X120701923Y-61014176D01*
X120174691Y-60795250D01*
X119603813Y-60794752D01*
X119076200Y-61012757D01*
X118672176Y-61416077D01*
X118618138Y-61546215D01*
X118565243Y-61418200D01*
X118161923Y-61014176D01*
X117634691Y-60795250D01*
X117063813Y-60794752D01*
X116536200Y-61012757D01*
X116132176Y-61416077D01*
X116078138Y-61546215D01*
X116025243Y-61418200D01*
X115621923Y-61014176D01*
X115094691Y-60795250D01*
X114523813Y-60794752D01*
X113996200Y-61012757D01*
X113592176Y-61416077D01*
X113538138Y-61546215D01*
X113485243Y-61418200D01*
X113081923Y-61014176D01*
X112554691Y-60795250D01*
X111983813Y-60794752D01*
X111456200Y-61012757D01*
X111052176Y-61416077D01*
X110998138Y-61546215D01*
X110945243Y-61418200D01*
X110541923Y-61014176D01*
X110014691Y-60795250D01*
X109733154Y-60795004D01*
X113863158Y-56665000D01*
X115567442Y-56665000D01*
X115750971Y-56939670D01*
X116065752Y-57150000D01*
X115750971Y-57360330D01*
X115426115Y-57846511D01*
X115312041Y-58420000D01*
X115426115Y-58993489D01*
X115750971Y-59479670D01*
X116237152Y-59804526D01*
X116810641Y-59918600D01*
X116869359Y-59918600D01*
X117442848Y-59804526D01*
X117908442Y-59493426D01*
X117913238Y-59518917D01*
X118052310Y-59735041D01*
X118264510Y-59880031D01*
X118516400Y-59931040D01*
X120243600Y-59931040D01*
X120478917Y-59886762D01*
X120695041Y-59747690D01*
X120840031Y-59535490D01*
X120891040Y-59283600D01*
X120891040Y-57556400D01*
X120846762Y-57321083D01*
X120707690Y-57104959D01*
X120495490Y-56959969D01*
X120451869Y-56951136D01*
X120469029Y-56939670D01*
X120793885Y-56453489D01*
X120907959Y-55880000D01*
X120793885Y-55306511D01*
X120469029Y-54820330D01*
X120165000Y-54617184D01*
X120165000Y-54602816D01*
X120469029Y-54399670D01*
X120793885Y-53913489D01*
X120907959Y-53340000D01*
X120793885Y-52766511D01*
X120469029Y-52280330D01*
X120153778Y-52069686D01*
X120105245Y-51825694D01*
X120105245Y-51825693D01*
X119935079Y-51571021D01*
X119155737Y-50791679D01*
X119671223Y-50976965D01*
X120241454Y-50949778D01*
X120642005Y-50783864D01*
X120716139Y-50537745D01*
X119888000Y-49709605D01*
X119873858Y-49723748D01*
X119694252Y-49544142D01*
X119708395Y-49530000D01*
X120067605Y-49530000D01*
X120895745Y-50358139D01*
X121141864Y-50284005D01*
X121334965Y-49746777D01*
X121307778Y-49176546D01*
X121141864Y-48775995D01*
X120895745Y-48701861D01*
X120067605Y-49530000D01*
X119708395Y-49530000D01*
X118880255Y-48701861D01*
X118634136Y-48775995D01*
X118613195Y-48834254D01*
X118565243Y-48718200D01*
X118369640Y-48522255D01*
X119059861Y-48522255D01*
X119888000Y-49350395D01*
X120716139Y-48522255D01*
X120642005Y-48276136D01*
X120104777Y-48083035D01*
X119534546Y-48110222D01*
X119133995Y-48276136D01*
X119059861Y-48522255D01*
X118369640Y-48522255D01*
X118161923Y-48314176D01*
X117634691Y-48095250D01*
X117063813Y-48094752D01*
X116536200Y-48312757D01*
X116132176Y-48716077D01*
X116078138Y-48846215D01*
X116025243Y-48718200D01*
X115621923Y-48314176D01*
X115094691Y-48095250D01*
X114836736Y-48095025D01*
X113557000Y-46815288D01*
X113557000Y-40548854D01*
X113757317Y-40511162D01*
X113973441Y-40372090D01*
X114118431Y-40159890D01*
X114169440Y-39908000D01*
X114169440Y-37308000D01*
X114125162Y-37072683D01*
X113986090Y-36856559D01*
X113773890Y-36711569D01*
X113522000Y-36660560D01*
X111522000Y-36660560D01*
X111286683Y-36704838D01*
X111070559Y-36843910D01*
X110965049Y-36998329D01*
X110607687Y-36759548D01*
X109982000Y-36635091D01*
X109356313Y-36759548D01*
X108825880Y-37113971D01*
X108712000Y-37284405D01*
X108598120Y-37113971D01*
X108067687Y-36759548D01*
X107442000Y-36635091D01*
X106816313Y-36759548D01*
X106285880Y-37113971D01*
X106172000Y-37284405D01*
X106058120Y-37113971D01*
X105527687Y-36759548D01*
X104902000Y-36635091D01*
X104276313Y-36759548D01*
X103745880Y-37113971D01*
X103391457Y-37644404D01*
X103267000Y-38270091D01*
X103267000Y-38945909D01*
X103391457Y-39571596D01*
X103745880Y-40102029D01*
X103867000Y-40182959D01*
X103867000Y-47243995D01*
X103866999Y-47244000D01*
X103945785Y-47640077D01*
X104170144Y-47975856D01*
X104304057Y-48109769D01*
X104294546Y-48110222D01*
X103893995Y-48276136D01*
X103819861Y-48522255D01*
X104648000Y-49350395D01*
X104662142Y-49336252D01*
X104841748Y-49515858D01*
X104827605Y-49530000D01*
X105655745Y-50358139D01*
X105901864Y-50284005D01*
X105922805Y-50225746D01*
X105970757Y-50341800D01*
X106374077Y-50745824D01*
X106901309Y-50964750D01*
X107472187Y-50965248D01*
X107999800Y-50747243D01*
X108403824Y-50343923D01*
X108457862Y-50213785D01*
X108510757Y-50341800D01*
X108914077Y-50745824D01*
X109441309Y-50964750D01*
X110012187Y-50965248D01*
X110539800Y-50747243D01*
X110943824Y-50343923D01*
X110997862Y-50213785D01*
X111050757Y-50341800D01*
X111454077Y-50745824D01*
X111981309Y-50964750D01*
X112552187Y-50965248D01*
X113079800Y-50747243D01*
X113483824Y-50343923D01*
X113537862Y-50213785D01*
X113590757Y-50341800D01*
X113994077Y-50745824D01*
X114521309Y-50964750D01*
X115092187Y-50965248D01*
X115619800Y-50747243D01*
X116023824Y-50343923D01*
X116077862Y-50213785D01*
X116130757Y-50341800D01*
X116534077Y-50745824D01*
X117061309Y-50964750D01*
X117108533Y-50964791D01*
X118370759Y-52227017D01*
X118290971Y-52280330D01*
X118110000Y-52551172D01*
X117929029Y-52280330D01*
X117442848Y-51955474D01*
X116869359Y-51841400D01*
X116810641Y-51841400D01*
X116237152Y-51955474D01*
X115750971Y-52280330D01*
X115426115Y-52766511D01*
X115312041Y-53340000D01*
X115426115Y-53913489D01*
X115750971Y-54399670D01*
X116065752Y-54610000D01*
X115750971Y-54820330D01*
X115567442Y-55095000D01*
X113538000Y-55095000D01*
X113237593Y-55154755D01*
X112982921Y-55324921D01*
X107501472Y-60806370D01*
X107474691Y-60795250D01*
X106903813Y-60794752D01*
X106376200Y-61012757D01*
X105972176Y-61416077D01*
X105918138Y-61546215D01*
X105865243Y-61418200D01*
X105461923Y-61014176D01*
X104934691Y-60795250D01*
X104363813Y-60794752D01*
X103836200Y-61012757D01*
X103432176Y-61416077D01*
X103378138Y-61546215D01*
X103325243Y-61418200D01*
X102921923Y-61014176D01*
X102394691Y-60795250D01*
X101823813Y-60794752D01*
X101296200Y-61012757D01*
X100903400Y-61404873D01*
X100903400Y-52198312D01*
X102136686Y-50965025D01*
X102392187Y-50965248D01*
X102919800Y-50747243D01*
X103129663Y-50537745D01*
X103819861Y-50537745D01*
X103893995Y-50783864D01*
X104431223Y-50976965D01*
X105001454Y-50949778D01*
X105402005Y-50783864D01*
X105476139Y-50537745D01*
X104648000Y-49709605D01*
X103819861Y-50537745D01*
X103129663Y-50537745D01*
X103323824Y-50343923D01*
X103371448Y-50229232D01*
X103394136Y-50284005D01*
X103640255Y-50358139D01*
X104468395Y-49530000D01*
X103640255Y-48701861D01*
X103394136Y-48775995D01*
X103373195Y-48834254D01*
X103325243Y-48718200D01*
X102921923Y-48314176D01*
X102394691Y-48095250D01*
X101823813Y-48094752D01*
X101296200Y-48312757D01*
X100892176Y-48716077D01*
X100673250Y-49243309D01*
X100673025Y-49501264D01*
X99136544Y-51037744D01*
X98912185Y-51373523D01*
X98833399Y-51769600D01*
X98833400Y-51769605D01*
X98833400Y-67863564D01*
X98822029Y-67874915D01*
X98633615Y-68328666D01*
X98633186Y-68819979D01*
X98820808Y-69274057D01*
X98833400Y-69286671D01*
X98833400Y-82088395D01*
X98833399Y-82088400D01*
X98912185Y-82484477D01*
X99136544Y-82820256D01*
X106654598Y-90338310D01*
X106654598Y-90491834D01*
X106322767Y-90378887D01*
X106081904Y-90442916D01*
X105361730Y-90864524D01*
X104857718Y-91529638D01*
X104812789Y-91701456D01*
X104791683Y-91595348D01*
X104328873Y-90902704D01*
X103636229Y-90439894D01*
X102819200Y-90277377D01*
X102002171Y-90439894D01*
X101309527Y-90902704D01*
X100846717Y-91595348D01*
X100838000Y-91639171D01*
X100829283Y-91595348D01*
X100366473Y-90902704D01*
X99673829Y-90439894D01*
X98856800Y-90277377D01*
X98039771Y-90439894D01*
X97347127Y-90902704D01*
X96884317Y-91595348D01*
X96721800Y-92412377D01*
X96721800Y-93515623D01*
X96884317Y-94332652D01*
X97086674Y-94635500D01*
X84866457Y-94635500D01*
X77766953Y-87535995D01*
X77766962Y-87525833D01*
X77646338Y-87233900D01*
X88074600Y-87233900D01*
X88375007Y-87174145D01*
X88629679Y-87003979D01*
X97179605Y-78454053D01*
X97189767Y-78454062D01*
X97533543Y-78312017D01*
X97796792Y-78049227D01*
X97939438Y-77705699D01*
X97939762Y-77333733D01*
X97797717Y-76989957D01*
X97534927Y-76726708D01*
X97191399Y-76584062D01*
X96819433Y-76583738D01*
X96475657Y-76725783D01*
X96212408Y-76988573D01*
X96069762Y-77332101D01*
X96069752Y-77343590D01*
X87749442Y-85663900D01*
X78392358Y-85663900D01*
X81333779Y-82722479D01*
X81503945Y-82467806D01*
X81563700Y-82167400D01*
X81563700Y-75163422D01*
X81856101Y-75284838D01*
X82228067Y-75285162D01*
X82571843Y-75143117D01*
X82579974Y-75135000D01*
X83638000Y-75135000D01*
X83938407Y-75075245D01*
X84193079Y-74905079D01*
X95444528Y-63653630D01*
X95471309Y-63664750D01*
X96042187Y-63665248D01*
X96569800Y-63447243D01*
X96973824Y-63043923D01*
X97192750Y-62516691D01*
X97193248Y-61945813D01*
X96975243Y-61418200D01*
X96571923Y-61014176D01*
X96044691Y-60795250D01*
X95473813Y-60794752D01*
X94946200Y-61012757D01*
X94542176Y-61416077D01*
X94488138Y-61546215D01*
X94435243Y-61418200D01*
X94031923Y-61014176D01*
X93504691Y-60795250D01*
X92933813Y-60794752D01*
X92406200Y-61012757D01*
X92002176Y-61416077D01*
X91948138Y-61546215D01*
X91895243Y-61418200D01*
X91491923Y-61014176D01*
X90964691Y-60795250D01*
X90393813Y-60794752D01*
X89866200Y-61012757D01*
X89462176Y-61416077D01*
X89408138Y-61546215D01*
X89355243Y-61418200D01*
X88951923Y-61014176D01*
X88424691Y-60795250D01*
X88143154Y-60795004D01*
X89733158Y-59205000D01*
X91437442Y-59205000D01*
X91620971Y-59479670D01*
X92107152Y-59804526D01*
X92680641Y-59918600D01*
X92739359Y-59918600D01*
X93312848Y-59804526D01*
X93778442Y-59493426D01*
X93783238Y-59518917D01*
X93922310Y-59735041D01*
X94134510Y-59880031D01*
X94386400Y-59931040D01*
X96113600Y-59931040D01*
X96348917Y-59886762D01*
X96565041Y-59747690D01*
X96710031Y-59535490D01*
X96761040Y-59283600D01*
X96761040Y-57556400D01*
X96716762Y-57321083D01*
X96577690Y-57104959D01*
X96365490Y-56959969D01*
X96321869Y-56951136D01*
X96339029Y-56939670D01*
X96663885Y-56453489D01*
X96777959Y-55880000D01*
X96663885Y-55306511D01*
X96339029Y-54820330D01*
X96035000Y-54617184D01*
X96035000Y-54602816D01*
X96339029Y-54399670D01*
X96663885Y-53913489D01*
X96777959Y-53340000D01*
X96663885Y-52766511D01*
X96339029Y-52280330D01*
X96023778Y-52069686D01*
X95975245Y-51825694D01*
X95975245Y-51825693D01*
X95805079Y-51571021D01*
X95025737Y-50791679D01*
X95541223Y-50976965D01*
X96111454Y-50949778D01*
X96512005Y-50783864D01*
X96586139Y-50537745D01*
X95758000Y-49709605D01*
X95743858Y-49723748D01*
X95564252Y-49544142D01*
X95578395Y-49530000D01*
X95937605Y-49530000D01*
X96765745Y-50358139D01*
X97011864Y-50284005D01*
X97204965Y-49746777D01*
X97177778Y-49176546D01*
X97011864Y-48775995D01*
X96765745Y-48701861D01*
X95937605Y-49530000D01*
X95578395Y-49530000D01*
X94750255Y-48701861D01*
X94504136Y-48775995D01*
X94483195Y-48834254D01*
X94435243Y-48718200D01*
X94239640Y-48522255D01*
X94929861Y-48522255D01*
X95758000Y-49350395D01*
X96586139Y-48522255D01*
X96512005Y-48276136D01*
X95974777Y-48083035D01*
X95404546Y-48110222D01*
X95003995Y-48276136D01*
X94929861Y-48522255D01*
X94239640Y-48522255D01*
X94031923Y-48314176D01*
X93555404Y-48116308D01*
X95727853Y-45943858D01*
X95727856Y-45943856D01*
X95952215Y-45608077D01*
X95979760Y-45469600D01*
X96031001Y-45212000D01*
X96031000Y-45211995D01*
X96031000Y-40548854D01*
X96231317Y-40511162D01*
X96447441Y-40372090D01*
X96592431Y-40159890D01*
X96643440Y-39908000D01*
X96643440Y-37308000D01*
X96599162Y-37072683D01*
X96460090Y-36856559D01*
X96247890Y-36711569D01*
X95996000Y-36660560D01*
X93996000Y-36660560D01*
X93760683Y-36704838D01*
X93544559Y-36843910D01*
X93439049Y-36998329D01*
X93081687Y-36759548D01*
X92456000Y-36635091D01*
X91830313Y-36759548D01*
X91299880Y-37113971D01*
X91186000Y-37284405D01*
X91072120Y-37113971D01*
X90541687Y-36759548D01*
X89916000Y-36635091D01*
X89290313Y-36759548D01*
X88759880Y-37113971D01*
X88646000Y-37284405D01*
X88532120Y-37113971D01*
X88001687Y-36759548D01*
X87376000Y-36635091D01*
X86750313Y-36759548D01*
X86219880Y-37113971D01*
X85865457Y-37644404D01*
X85741000Y-38270091D01*
X85741000Y-38945909D01*
X85865457Y-39571596D01*
X86219880Y-40102029D01*
X86341000Y-40182959D01*
X86341000Y-44783289D01*
X83029313Y-48094975D01*
X82773813Y-48094752D01*
X82246200Y-48312757D01*
X81842176Y-48716077D01*
X81794552Y-48830768D01*
X81771864Y-48775995D01*
X81525745Y-48701861D01*
X80697605Y-49530000D01*
X81525745Y-50358139D01*
X81771864Y-50284005D01*
X81792805Y-50225746D01*
X81840757Y-50341800D01*
X82244077Y-50745824D01*
X82771309Y-50964750D01*
X83342187Y-50965248D01*
X83869800Y-50747243D01*
X84273824Y-50343923D01*
X84327862Y-50213785D01*
X84380757Y-50341800D01*
X84784077Y-50745824D01*
X85311309Y-50964750D01*
X85882187Y-50965248D01*
X86409800Y-50747243D01*
X86813824Y-50343923D01*
X86867862Y-50213785D01*
X86920757Y-50341800D01*
X87324077Y-50745824D01*
X87851309Y-50964750D01*
X88422187Y-50965248D01*
X88949800Y-50747243D01*
X89353824Y-50343923D01*
X89407862Y-50213785D01*
X89460757Y-50341800D01*
X89864077Y-50745824D01*
X90391309Y-50964750D01*
X90962187Y-50965248D01*
X91489800Y-50747243D01*
X91893824Y-50343923D01*
X91947862Y-50213785D01*
X92000757Y-50341800D01*
X92404077Y-50745824D01*
X92931309Y-50964750D01*
X92978533Y-50964791D01*
X94240759Y-52227017D01*
X94160971Y-52280330D01*
X93980000Y-52551172D01*
X93799029Y-52280330D01*
X93312848Y-51955474D01*
X92739359Y-51841400D01*
X92680641Y-51841400D01*
X92107152Y-51955474D01*
X91620971Y-52280330D01*
X91437442Y-52555000D01*
X89408005Y-52555000D01*
X89408000Y-52554999D01*
X89107594Y-52614755D01*
X88852921Y-52784921D01*
X80831472Y-60806370D01*
X80804691Y-60795250D01*
X80233813Y-60794752D01*
X79914400Y-60926731D01*
X79914400Y-55437705D01*
X79914401Y-55437700D01*
X79854645Y-55137294D01*
X79757897Y-54992500D01*
X79684479Y-54882621D01*
X79684476Y-54882619D01*
X74616045Y-49814187D01*
X76542752Y-49814187D01*
X76760757Y-50341800D01*
X77164077Y-50745824D01*
X77691309Y-50964750D01*
X78262187Y-50965248D01*
X78789800Y-50747243D01*
X78999663Y-50537745D01*
X79689861Y-50537745D01*
X79763995Y-50783864D01*
X80301223Y-50976965D01*
X80871454Y-50949778D01*
X81272005Y-50783864D01*
X81346139Y-50537745D01*
X80518000Y-49709605D01*
X79689861Y-50537745D01*
X78999663Y-50537745D01*
X79193824Y-50343923D01*
X79241448Y-50229232D01*
X79264136Y-50284005D01*
X79510255Y-50358139D01*
X80338395Y-49530000D01*
X79510255Y-48701861D01*
X79264136Y-48775995D01*
X79243195Y-48834254D01*
X79195243Y-48718200D01*
X78999640Y-48522255D01*
X79689861Y-48522255D01*
X80518000Y-49350395D01*
X81346139Y-48522255D01*
X81272005Y-48276136D01*
X80734777Y-48083035D01*
X80164546Y-48110222D01*
X79763995Y-48276136D01*
X79689861Y-48522255D01*
X78999640Y-48522255D01*
X78791923Y-48314176D01*
X78264691Y-48095250D01*
X77693813Y-48094752D01*
X77166200Y-48312757D01*
X76762176Y-48716077D01*
X76543250Y-49243309D01*
X76542752Y-49814187D01*
X74616045Y-49814187D01*
X68577458Y-43775600D01*
X68614054Y-43751147D01*
X68935961Y-43269378D01*
X69049000Y-42701093D01*
X69049000Y-42642907D01*
X68935961Y-42074622D01*
X68614054Y-41592853D01*
X68328422Y-41402000D01*
X68614054Y-41211147D01*
X68935961Y-40729378D01*
X69049000Y-40161093D01*
X69049000Y-40102907D01*
X68935961Y-39534622D01*
X68614054Y-39052853D01*
X68132285Y-38730946D01*
X67564000Y-38617907D01*
X66995715Y-38730946D01*
X66513946Y-39052853D01*
X66294000Y-39382026D01*
X66074054Y-39052853D01*
X65592285Y-38730946D01*
X65024000Y-38617907D01*
X64455715Y-38730946D01*
X63973946Y-39052853D01*
X63754000Y-39382026D01*
X63534054Y-39052853D01*
X63052285Y-38730946D01*
X62484000Y-38617907D01*
X61915715Y-38730946D01*
X61433946Y-39052853D01*
X61206298Y-39393553D01*
X61139183Y-39250642D01*
X60710924Y-38860355D01*
X60300890Y-38690524D01*
X60071000Y-38811845D01*
X60071000Y-40005000D01*
X60091000Y-40005000D01*
X60091000Y-40259000D01*
X60071000Y-40259000D01*
X60071000Y-42545000D01*
X60091000Y-42545000D01*
X60091000Y-42799000D01*
X60071000Y-42799000D01*
X60071000Y-43998250D01*
X60229750Y-44157000D01*
X60426500Y-44157000D01*
X60426500Y-54961494D01*
X60419308Y-54968673D01*
X60331205Y-55180847D01*
X58096679Y-52946321D01*
X57842007Y-52776155D01*
X57541600Y-52716400D01*
X51458600Y-52716400D01*
X51158193Y-52776155D01*
X50903521Y-52946321D01*
X48282869Y-55566973D01*
X48278700Y-55565242D01*
X47723735Y-55564758D01*
X47210828Y-55776687D01*
X46818066Y-56168764D01*
X46605242Y-56681300D01*
X46604758Y-57236265D01*
X40685000Y-57236265D01*
X40685000Y-53635593D01*
X44074012Y-53635593D01*
X44215478Y-53938782D01*
X44951955Y-54223737D01*
X45741418Y-54205164D01*
X46384522Y-53938782D01*
X46525988Y-53635593D01*
X45300000Y-52409605D01*
X44074012Y-53635593D01*
X40685000Y-53635593D01*
X40685000Y-51881955D01*
X43306263Y-51881955D01*
X43324836Y-52671418D01*
X43591218Y-53314522D01*
X43894407Y-53455988D01*
X45120395Y-52230000D01*
X45479605Y-52230000D01*
X46705593Y-53455988D01*
X47008782Y-53314522D01*
X47293737Y-52578045D01*
X47275164Y-51788582D01*
X47008782Y-51145478D01*
X46705593Y-51004012D01*
X45479605Y-52230000D01*
X45120395Y-52230000D01*
X43894407Y-51004012D01*
X43591218Y-51145478D01*
X43306263Y-51881955D01*
X40685000Y-51881955D01*
X40685000Y-50824407D01*
X44074012Y-50824407D01*
X45300000Y-52050395D01*
X46525988Y-50824407D01*
X46384522Y-50521218D01*
X45648045Y-50236263D01*
X44858582Y-50254836D01*
X44215478Y-50521218D01*
X44074012Y-50824407D01*
X40685000Y-50824407D01*
X40685000Y-42479909D01*
X40813871Y-42791801D01*
X42200897Y-44181250D01*
X44014061Y-44934141D01*
X45977325Y-44935854D01*
X47791801Y-44186129D01*
X49022325Y-42957750D01*
X58459000Y-42957750D01*
X58459000Y-43648309D01*
X58555673Y-43881698D01*
X58734301Y-44060327D01*
X58967690Y-44157000D01*
X59658250Y-44157000D01*
X59817000Y-43998250D01*
X59817000Y-42799000D01*
X58617750Y-42799000D01*
X58459000Y-42957750D01*
X49022325Y-42957750D01*
X49181250Y-42799103D01*
X49639426Y-41695691D01*
X58459000Y-41695691D01*
X58459000Y-42386250D01*
X58617750Y-42545000D01*
X59817000Y-42545000D01*
X59817000Y-40259000D01*
X58623181Y-40259000D01*
X58502514Y-40488892D01*
X58748817Y-41013358D01*
X58948208Y-41195070D01*
X58734301Y-41283673D01*
X58555673Y-41462302D01*
X58459000Y-41695691D01*
X49639426Y-41695691D01*
X49934141Y-40985939D01*
X49935197Y-39775108D01*
X58502514Y-39775108D01*
X58623181Y-40005000D01*
X59817000Y-40005000D01*
X59817000Y-38811845D01*
X59587110Y-38690524D01*
X59177076Y-38860355D01*
X58748817Y-39250642D01*
X58502514Y-39775108D01*
X49935197Y-39775108D01*
X49935854Y-39022675D01*
X49186129Y-37208199D01*
X47799103Y-35818750D01*
X47476997Y-35685000D01*
X129520091Y-35685000D01*
X129208199Y-35813871D01*
G36*
X106908600Y-92837000D02*
X106928600Y-92837000D01*
X106928600Y-93091000D01*
X106908600Y-93091000D01*
X106908600Y-93111000D01*
X106654600Y-93111000D01*
X106654600Y-93091000D01*
X106634600Y-93091000D01*
X106634600Y-92837000D01*
X106654600Y-92837000D01*
X106654600Y-92817000D01*
X106908600Y-92817000D01*
X106908600Y-92837000D01*
X106908600Y-92837000D01*
G37*
X106908600Y-92837000D02*
X106928600Y-92837000D01*
X106928600Y-93091000D01*
X106908600Y-93091000D01*
X106908600Y-93111000D01*
X106654600Y-93111000D01*
X106654600Y-93091000D01*
X106634600Y-93091000D01*
X106634600Y-92837000D01*
X106654600Y-92837000D01*
X106654600Y-92817000D01*
X106908600Y-92817000D01*
X106908600Y-92837000D01*
G36*
X78344400Y-71937930D02*
X77990947Y-71615312D01*
X77575026Y-71443042D01*
X77343000Y-71564183D01*
X77343000Y-72771000D01*
X77363000Y-72771000D01*
X77363000Y-73025000D01*
X77343000Y-73025000D01*
X77343000Y-73045000D01*
X77089000Y-73045000D01*
X77089000Y-73025000D01*
X77069000Y-73025000D01*
X77069000Y-72771000D01*
X77089000Y-72771000D01*
X77089000Y-71564183D01*
X76856974Y-71443042D01*
X76787000Y-71472024D01*
X76787000Y-68642958D01*
X76932079Y-68497879D01*
X77102245Y-68243207D01*
X77162000Y-67942800D01*
X77162000Y-66690605D01*
X77162001Y-66690600D01*
X77102245Y-66390194D01*
X77096600Y-66381746D01*
X77096600Y-64221558D01*
X77664528Y-63653630D01*
X77691309Y-63664750D01*
X78262187Y-63665248D01*
X78344400Y-63631278D01*
X78344400Y-71937930D01*
X78344400Y-71937930D01*
G37*
X78344400Y-71937930D02*
X77990947Y-71615312D01*
X77575026Y-71443042D01*
X77343000Y-71564183D01*
X77343000Y-72771000D01*
X77363000Y-72771000D01*
X77363000Y-73025000D01*
X77343000Y-73025000D01*
X77343000Y-73045000D01*
X77089000Y-73045000D01*
X77089000Y-73025000D01*
X77069000Y-73025000D01*
X77069000Y-72771000D01*
X77089000Y-72771000D01*
X77089000Y-71564183D01*
X76856974Y-71443042D01*
X76787000Y-71472024D01*
X76787000Y-68642958D01*
X76932079Y-68497879D01*
X77102245Y-68243207D01*
X77162000Y-67942800D01*
X77162000Y-66690605D01*
X77162001Y-66690600D01*
X77102245Y-66390194D01*
X77096600Y-66381746D01*
X77096600Y-64221558D01*
X77664528Y-63653630D01*
X77691309Y-63664750D01*
X78262187Y-63665248D01*
X78344400Y-63631278D01*
X78344400Y-71937930D01*
M02*
