G04 #@! TF.FileFunction,Legend,Top*
%FSLAX46Y46*%
G04 Gerber Fmt 4.6, Leading zero omitted, Abs format (unit mm)*
G04 Created by KiCad (PCBNEW 4.0.6) date Fri Sep  8 15:32:28 2017*
%MOMM*%
%LPD*%
G01*
G04 APERTURE LIST*
%ADD10C,0.100000*%
%ADD11C,0.300000*%
%ADD12C,0.200000*%
%ADD13C,0.125000*%
%ADD14C,0.150000*%
%ADD15C,0.120000*%
G04 APERTURE END LIST*
D10*
D11*
X55455429Y-76374858D02*
X56169714Y-75874858D01*
X55455429Y-75517715D02*
X56955429Y-75517715D01*
X56955429Y-76089143D01*
X56884000Y-76232001D01*
X56812571Y-76303429D01*
X56669714Y-76374858D01*
X56455429Y-76374858D01*
X56312571Y-76303429D01*
X56241143Y-76232001D01*
X56169714Y-76089143D01*
X56169714Y-75517715D01*
X55526857Y-77589143D02*
X55455429Y-77446286D01*
X55455429Y-77160572D01*
X55526857Y-77017715D01*
X55669714Y-76946286D01*
X56241143Y-76946286D01*
X56384000Y-77017715D01*
X56455429Y-77160572D01*
X56455429Y-77446286D01*
X56384000Y-77589143D01*
X56241143Y-77660572D01*
X56098286Y-77660572D01*
X55955429Y-76946286D01*
X55526857Y-78232000D02*
X55455429Y-78374857D01*
X55455429Y-78660572D01*
X55526857Y-78803429D01*
X55669714Y-78874857D01*
X55741143Y-78874857D01*
X55884000Y-78803429D01*
X55955429Y-78660572D01*
X55955429Y-78446286D01*
X56026857Y-78303429D01*
X56169714Y-78232000D01*
X56241143Y-78232000D01*
X56384000Y-78303429D01*
X56455429Y-78446286D01*
X56455429Y-78660572D01*
X56384000Y-78803429D01*
X55526857Y-80089143D02*
X55455429Y-79946286D01*
X55455429Y-79660572D01*
X55526857Y-79517715D01*
X55669714Y-79446286D01*
X56241143Y-79446286D01*
X56384000Y-79517715D01*
X56455429Y-79660572D01*
X56455429Y-79946286D01*
X56384000Y-80089143D01*
X56241143Y-80160572D01*
X56098286Y-80160572D01*
X55955429Y-79446286D01*
X56455429Y-80589143D02*
X56455429Y-81160572D01*
X56955429Y-80803429D02*
X55669714Y-80803429D01*
X55526857Y-80874857D01*
X55455429Y-81017715D01*
X55455429Y-81160572D01*
D12*
X108180333Y-78509762D02*
X108323190Y-78557381D01*
X108561286Y-78557381D01*
X108656524Y-78509762D01*
X108704143Y-78462143D01*
X108751762Y-78366905D01*
X108751762Y-78271667D01*
X108704143Y-78176429D01*
X108656524Y-78128810D01*
X108561286Y-78081190D01*
X108370809Y-78033571D01*
X108275571Y-77985952D01*
X108227952Y-77938333D01*
X108180333Y-77843095D01*
X108180333Y-77747857D01*
X108227952Y-77652619D01*
X108275571Y-77605000D01*
X108370809Y-77557381D01*
X108608905Y-77557381D01*
X108751762Y-77605000D01*
X109037476Y-77557381D02*
X109608905Y-77557381D01*
X109323190Y-78557381D02*
X109323190Y-77557381D01*
X110513667Y-78557381D02*
X110180333Y-78081190D01*
X109942238Y-78557381D02*
X109942238Y-77557381D01*
X110323191Y-77557381D01*
X110418429Y-77605000D01*
X110466048Y-77652619D01*
X110513667Y-77747857D01*
X110513667Y-77890714D01*
X110466048Y-77985952D01*
X110418429Y-78033571D01*
X110323191Y-78081190D01*
X109942238Y-78081190D01*
X108156524Y-75890381D02*
X108156524Y-74890381D01*
X108156524Y-75366571D02*
X108727953Y-75366571D01*
X108727953Y-75890381D02*
X108727953Y-74890381D01*
X109680334Y-75890381D02*
X109204143Y-75890381D01*
X109204143Y-74890381D01*
X110013667Y-75890381D02*
X110013667Y-74890381D01*
X110251762Y-74890381D01*
X110394620Y-74938000D01*
X110489858Y-75033238D01*
X110537477Y-75128476D01*
X110585096Y-75318952D01*
X110585096Y-75461810D01*
X110537477Y-75652286D01*
X110489858Y-75747524D01*
X110394620Y-75842762D01*
X110251762Y-75890381D01*
X110013667Y-75890381D01*
X108799381Y-73350381D02*
X108466047Y-72874190D01*
X108227952Y-73350381D02*
X108227952Y-72350381D01*
X108608905Y-72350381D01*
X108704143Y-72398000D01*
X108751762Y-72445619D01*
X108799381Y-72540857D01*
X108799381Y-72683714D01*
X108751762Y-72778952D01*
X108704143Y-72826571D01*
X108608905Y-72874190D01*
X108227952Y-72874190D01*
X109180333Y-73302762D02*
X109323190Y-73350381D01*
X109561286Y-73350381D01*
X109656524Y-73302762D01*
X109704143Y-73255143D01*
X109751762Y-73159905D01*
X109751762Y-73064667D01*
X109704143Y-72969429D01*
X109656524Y-72921810D01*
X109561286Y-72874190D01*
X109370809Y-72826571D01*
X109275571Y-72778952D01*
X109227952Y-72731333D01*
X109180333Y-72636095D01*
X109180333Y-72540857D01*
X109227952Y-72445619D01*
X109275571Y-72398000D01*
X109370809Y-72350381D01*
X109608905Y-72350381D01*
X109751762Y-72398000D01*
X110037476Y-72350381D02*
X110608905Y-72350381D01*
X110323190Y-73350381D02*
X110323190Y-72350381D01*
X112252286Y-58872381D02*
X112252286Y-57872381D01*
X112585620Y-58586667D01*
X112918953Y-57872381D01*
X112918953Y-58872381D01*
X113347524Y-58824762D02*
X113490381Y-58872381D01*
X113728477Y-58872381D01*
X113823715Y-58824762D01*
X113871334Y-58777143D01*
X113918953Y-58681905D01*
X113918953Y-58586667D01*
X113871334Y-58491429D01*
X113823715Y-58443810D01*
X113728477Y-58396190D01*
X113538000Y-58348571D01*
X113442762Y-58300952D01*
X113395143Y-58253333D01*
X113347524Y-58158095D01*
X113347524Y-58062857D01*
X113395143Y-57967619D01*
X113442762Y-57920000D01*
X113538000Y-57872381D01*
X113776096Y-57872381D01*
X113918953Y-57920000D01*
X114252286Y-57872381D02*
X114871334Y-57872381D01*
X114538000Y-58253333D01*
X114680858Y-58253333D01*
X114776096Y-58300952D01*
X114823715Y-58348571D01*
X114871334Y-58443810D01*
X114871334Y-58681905D01*
X114823715Y-58777143D01*
X114776096Y-58824762D01*
X114680858Y-58872381D01*
X114395143Y-58872381D01*
X114299905Y-58824762D01*
X114252286Y-58777143D01*
X112252286Y-56332381D02*
X112252286Y-55332381D01*
X112585620Y-56046667D01*
X112918953Y-55332381D01*
X112918953Y-56332381D01*
X113347524Y-56284762D02*
X113490381Y-56332381D01*
X113728477Y-56332381D01*
X113823715Y-56284762D01*
X113871334Y-56237143D01*
X113918953Y-56141905D01*
X113918953Y-56046667D01*
X113871334Y-55951429D01*
X113823715Y-55903810D01*
X113728477Y-55856190D01*
X113538000Y-55808571D01*
X113442762Y-55760952D01*
X113395143Y-55713333D01*
X113347524Y-55618095D01*
X113347524Y-55522857D01*
X113395143Y-55427619D01*
X113442762Y-55380000D01*
X113538000Y-55332381D01*
X113776096Y-55332381D01*
X113918953Y-55380000D01*
X114299905Y-55427619D02*
X114347524Y-55380000D01*
X114442762Y-55332381D01*
X114680858Y-55332381D01*
X114776096Y-55380000D01*
X114823715Y-55427619D01*
X114871334Y-55522857D01*
X114871334Y-55618095D01*
X114823715Y-55760952D01*
X114252286Y-56332381D01*
X114871334Y-56332381D01*
X112252286Y-53792381D02*
X112252286Y-52792381D01*
X112585620Y-53506667D01*
X112918953Y-52792381D01*
X112918953Y-53792381D01*
X113347524Y-53744762D02*
X113490381Y-53792381D01*
X113728477Y-53792381D01*
X113823715Y-53744762D01*
X113871334Y-53697143D01*
X113918953Y-53601905D01*
X113918953Y-53506667D01*
X113871334Y-53411429D01*
X113823715Y-53363810D01*
X113728477Y-53316190D01*
X113538000Y-53268571D01*
X113442762Y-53220952D01*
X113395143Y-53173333D01*
X113347524Y-53078095D01*
X113347524Y-52982857D01*
X113395143Y-52887619D01*
X113442762Y-52840000D01*
X113538000Y-52792381D01*
X113776096Y-52792381D01*
X113918953Y-52840000D01*
X114871334Y-53792381D02*
X114299905Y-53792381D01*
X114585619Y-53792381D02*
X114585619Y-52792381D01*
X114490381Y-52935238D01*
X114395143Y-53030476D01*
X114299905Y-53078095D01*
X88122286Y-58872381D02*
X88122286Y-57872381D01*
X88455620Y-58586667D01*
X88788953Y-57872381D01*
X88788953Y-58872381D01*
X89217524Y-58824762D02*
X89360381Y-58872381D01*
X89598477Y-58872381D01*
X89693715Y-58824762D01*
X89741334Y-58777143D01*
X89788953Y-58681905D01*
X89788953Y-58586667D01*
X89741334Y-58491429D01*
X89693715Y-58443810D01*
X89598477Y-58396190D01*
X89408000Y-58348571D01*
X89312762Y-58300952D01*
X89265143Y-58253333D01*
X89217524Y-58158095D01*
X89217524Y-58062857D01*
X89265143Y-57967619D01*
X89312762Y-57920000D01*
X89408000Y-57872381D01*
X89646096Y-57872381D01*
X89788953Y-57920000D01*
X90122286Y-57872381D02*
X90741334Y-57872381D01*
X90408000Y-58253333D01*
X90550858Y-58253333D01*
X90646096Y-58300952D01*
X90693715Y-58348571D01*
X90741334Y-58443810D01*
X90741334Y-58681905D01*
X90693715Y-58777143D01*
X90646096Y-58824762D01*
X90550858Y-58872381D01*
X90265143Y-58872381D01*
X90169905Y-58824762D01*
X90122286Y-58777143D01*
X88122286Y-56332381D02*
X88122286Y-55332381D01*
X88455620Y-56046667D01*
X88788953Y-55332381D01*
X88788953Y-56332381D01*
X89217524Y-56284762D02*
X89360381Y-56332381D01*
X89598477Y-56332381D01*
X89693715Y-56284762D01*
X89741334Y-56237143D01*
X89788953Y-56141905D01*
X89788953Y-56046667D01*
X89741334Y-55951429D01*
X89693715Y-55903810D01*
X89598477Y-55856190D01*
X89408000Y-55808571D01*
X89312762Y-55760952D01*
X89265143Y-55713333D01*
X89217524Y-55618095D01*
X89217524Y-55522857D01*
X89265143Y-55427619D01*
X89312762Y-55380000D01*
X89408000Y-55332381D01*
X89646096Y-55332381D01*
X89788953Y-55380000D01*
X90169905Y-55427619D02*
X90217524Y-55380000D01*
X90312762Y-55332381D01*
X90550858Y-55332381D01*
X90646096Y-55380000D01*
X90693715Y-55427619D01*
X90741334Y-55522857D01*
X90741334Y-55618095D01*
X90693715Y-55760952D01*
X90122286Y-56332381D01*
X90741334Y-56332381D01*
X88122286Y-53792381D02*
X88122286Y-52792381D01*
X88455620Y-53506667D01*
X88788953Y-52792381D01*
X88788953Y-53792381D01*
X89217524Y-53744762D02*
X89360381Y-53792381D01*
X89598477Y-53792381D01*
X89693715Y-53744762D01*
X89741334Y-53697143D01*
X89788953Y-53601905D01*
X89788953Y-53506667D01*
X89741334Y-53411429D01*
X89693715Y-53363810D01*
X89598477Y-53316190D01*
X89408000Y-53268571D01*
X89312762Y-53220952D01*
X89265143Y-53173333D01*
X89217524Y-53078095D01*
X89217524Y-52982857D01*
X89265143Y-52887619D01*
X89312762Y-52840000D01*
X89408000Y-52792381D01*
X89646096Y-52792381D01*
X89788953Y-52840000D01*
X90741334Y-53792381D02*
X90169905Y-53792381D01*
X90455619Y-53792381D02*
X90455619Y-52792381D01*
X90360381Y-52935238D01*
X90265143Y-53030476D01*
X90169905Y-53078095D01*
X76962096Y-69858000D02*
X76866858Y-69810381D01*
X76724001Y-69810381D01*
X76581143Y-69858000D01*
X76485905Y-69953238D01*
X76438286Y-70048476D01*
X76390667Y-70238952D01*
X76390667Y-70381810D01*
X76438286Y-70572286D01*
X76485905Y-70667524D01*
X76581143Y-70762762D01*
X76724001Y-70810381D01*
X76819239Y-70810381D01*
X76962096Y-70762762D01*
X77009715Y-70715143D01*
X77009715Y-70381810D01*
X76819239Y-70381810D01*
X77438286Y-70810381D02*
X77438286Y-69810381D01*
X78009715Y-70810381D01*
X78009715Y-69810381D01*
X78485905Y-70810381D02*
X78485905Y-69810381D01*
X78724000Y-69810381D01*
X78866858Y-69858000D01*
X78962096Y-69953238D01*
X79009715Y-70048476D01*
X79057334Y-70238952D01*
X79057334Y-70381810D01*
X79009715Y-70572286D01*
X78962096Y-70667524D01*
X78866858Y-70762762D01*
X78724000Y-70810381D01*
X78485905Y-70810381D01*
X71691524Y-69810381D02*
X71215333Y-69810381D01*
X71167714Y-70286571D01*
X71215333Y-70238952D01*
X71310571Y-70191333D01*
X71548667Y-70191333D01*
X71643905Y-70238952D01*
X71691524Y-70286571D01*
X71739143Y-70381810D01*
X71739143Y-70619905D01*
X71691524Y-70715143D01*
X71643905Y-70762762D01*
X71548667Y-70810381D01*
X71310571Y-70810381D01*
X71215333Y-70762762D01*
X71167714Y-70715143D01*
X72024857Y-69810381D02*
X72358190Y-70810381D01*
X72691524Y-69810381D01*
D13*
X119761047Y-47248000D02*
X119713428Y-47224190D01*
X119642000Y-47224190D01*
X119570571Y-47248000D01*
X119522952Y-47295619D01*
X119499143Y-47343238D01*
X119475333Y-47438476D01*
X119475333Y-47509905D01*
X119499143Y-47605143D01*
X119522952Y-47652762D01*
X119570571Y-47700381D01*
X119642000Y-47724190D01*
X119689619Y-47724190D01*
X119761047Y-47700381D01*
X119784857Y-47676571D01*
X119784857Y-47509905D01*
X119689619Y-47509905D01*
X119999143Y-47724190D02*
X119999143Y-47224190D01*
X120284857Y-47724190D01*
X120284857Y-47224190D01*
X120522953Y-47724190D02*
X120522953Y-47224190D01*
X120642000Y-47224190D01*
X120713429Y-47248000D01*
X120761048Y-47295619D01*
X120784857Y-47343238D01*
X120808667Y-47438476D01*
X120808667Y-47509905D01*
X120784857Y-47605143D01*
X120761048Y-47652762D01*
X120713429Y-47700381D01*
X120642000Y-47724190D01*
X120522953Y-47724190D01*
X95631047Y-47248000D02*
X95583428Y-47224190D01*
X95512000Y-47224190D01*
X95440571Y-47248000D01*
X95392952Y-47295619D01*
X95369143Y-47343238D01*
X95345333Y-47438476D01*
X95345333Y-47509905D01*
X95369143Y-47605143D01*
X95392952Y-47652762D01*
X95440571Y-47700381D01*
X95512000Y-47724190D01*
X95559619Y-47724190D01*
X95631047Y-47700381D01*
X95654857Y-47676571D01*
X95654857Y-47509905D01*
X95559619Y-47509905D01*
X95869143Y-47724190D02*
X95869143Y-47224190D01*
X96154857Y-47724190D01*
X96154857Y-47224190D01*
X96392953Y-47724190D02*
X96392953Y-47224190D01*
X96512000Y-47224190D01*
X96583429Y-47248000D01*
X96631048Y-47295619D01*
X96654857Y-47343238D01*
X96678667Y-47438476D01*
X96678667Y-47509905D01*
X96654857Y-47605143D01*
X96631048Y-47652762D01*
X96583429Y-47700381D01*
X96512000Y-47724190D01*
X96392953Y-47724190D01*
X100949238Y-47224190D02*
X101115905Y-47724190D01*
X101282571Y-47224190D01*
X101449238Y-47724190D02*
X101449238Y-47224190D01*
X101615904Y-47581333D01*
X101782571Y-47224190D01*
X101782571Y-47724190D01*
X102115905Y-47224190D02*
X102211143Y-47224190D01*
X102258762Y-47248000D01*
X102306381Y-47295619D01*
X102330190Y-47390857D01*
X102330190Y-47557524D01*
X102306381Y-47652762D01*
X102258762Y-47700381D01*
X102211143Y-47724190D01*
X102115905Y-47724190D01*
X102068286Y-47700381D01*
X102020667Y-47652762D01*
X101996857Y-47557524D01*
X101996857Y-47390857D01*
X102020667Y-47295619D01*
X102068286Y-47248000D01*
X102115905Y-47224190D01*
X102473048Y-47224190D02*
X102758762Y-47224190D01*
X102615905Y-47724190D02*
X102615905Y-47224190D01*
X76819238Y-47224190D02*
X76985905Y-47724190D01*
X77152571Y-47224190D01*
X77319238Y-47724190D02*
X77319238Y-47224190D01*
X77485904Y-47581333D01*
X77652571Y-47224190D01*
X77652571Y-47724190D01*
X77985905Y-47224190D02*
X78081143Y-47224190D01*
X78128762Y-47248000D01*
X78176381Y-47295619D01*
X78200190Y-47390857D01*
X78200190Y-47557524D01*
X78176381Y-47652762D01*
X78128762Y-47700381D01*
X78081143Y-47724190D01*
X77985905Y-47724190D01*
X77938286Y-47700381D01*
X77890667Y-47652762D01*
X77866857Y-47557524D01*
X77866857Y-47390857D01*
X77890667Y-47295619D01*
X77938286Y-47248000D01*
X77985905Y-47224190D01*
X78343048Y-47224190D02*
X78628762Y-47224190D01*
X78485905Y-47724190D02*
X78485905Y-47224190D01*
D14*
X65015000Y-83201000D02*
X65015000Y-85201000D01*
X67065000Y-85201000D02*
X67065000Y-83201000D01*
X58817000Y-72018000D02*
X60817000Y-72018000D01*
X60817000Y-69968000D02*
X58817000Y-69968000D01*
X63001000Y-85201000D02*
X63001000Y-83201000D01*
X60951000Y-83201000D02*
X60951000Y-85201000D01*
X60951000Y-76343000D02*
X60951000Y-78343000D01*
X63001000Y-78343000D02*
X63001000Y-76343000D01*
X88891000Y-80534000D02*
X88891000Y-82534000D01*
X90941000Y-82534000D02*
X90941000Y-80534000D01*
X90941000Y-75930000D02*
X90941000Y-73930000D01*
X88891000Y-73930000D02*
X88891000Y-75930000D01*
X67580000Y-55635000D02*
X69580000Y-55635000D01*
X69580000Y-53585000D02*
X67580000Y-53585000D01*
X67580000Y-58429000D02*
X69580000Y-58429000D01*
X69580000Y-56379000D02*
X67580000Y-56379000D01*
X65015000Y-76343000D02*
X65015000Y-78343000D01*
X67065000Y-78343000D02*
X67065000Y-76343000D01*
X108585000Y-56642000D02*
X108585000Y-55118000D01*
X108458000Y-54737000D02*
X108458000Y-57023000D01*
X108331000Y-57277000D02*
X108331000Y-54483000D01*
X108204000Y-54229000D02*
X108204000Y-57531000D01*
X108077000Y-57658000D02*
X108077000Y-54102000D01*
X108966000Y-59182000D02*
X108966000Y-52578000D01*
X108966000Y-52578000D02*
X103124000Y-52578000D01*
X103124000Y-52578000D02*
X102362000Y-53340000D01*
X102362000Y-53340000D02*
X102362000Y-58420000D01*
X102362000Y-58420000D02*
X103124000Y-59182000D01*
X103124000Y-59182000D02*
X108966000Y-59182000D01*
X103505000Y-55880000D02*
X104267000Y-55880000D01*
X103886000Y-56261000D02*
X103886000Y-55499000D01*
X108712000Y-55880000D02*
G75*
G03X108712000Y-55880000I-3048000J0D01*
G01*
X85217000Y-56642000D02*
X85217000Y-55118000D01*
X85090000Y-54737000D02*
X85090000Y-57023000D01*
X84963000Y-57277000D02*
X84963000Y-54483000D01*
X84836000Y-54229000D02*
X84836000Y-57531000D01*
X84709000Y-57658000D02*
X84709000Y-54102000D01*
X85598000Y-59182000D02*
X85598000Y-52578000D01*
X85598000Y-52578000D02*
X79756000Y-52578000D01*
X79756000Y-52578000D02*
X78994000Y-53340000D01*
X78994000Y-53340000D02*
X78994000Y-58420000D01*
X78994000Y-58420000D02*
X79756000Y-59182000D01*
X79756000Y-59182000D02*
X85598000Y-59182000D01*
X80137000Y-55880000D02*
X80899000Y-55880000D01*
X80518000Y-56261000D02*
X80518000Y-55499000D01*
X85344000Y-55880000D02*
G75*
G03X85344000Y-55880000I-3048000J0D01*
G01*
X48378000Y-72864000D02*
X44778000Y-72864000D01*
X48378000Y-74964000D02*
X44778000Y-74964000D01*
X46328000Y-74214000D02*
X46328000Y-73614000D01*
X46328000Y-73614000D02*
X46628000Y-73914000D01*
X46628000Y-73914000D02*
X46428000Y-74114000D01*
X46428000Y-74114000D02*
X46428000Y-73864000D01*
X46428000Y-73864000D02*
X46478000Y-73914000D01*
X46728000Y-74414000D02*
X46728000Y-73414000D01*
X46228000Y-73914000D02*
X45728000Y-73914000D01*
X46728000Y-73914000D02*
X46228000Y-74414000D01*
X46228000Y-74414000D02*
X46228000Y-73414000D01*
X46228000Y-73414000D02*
X46728000Y-73914000D01*
X48378000Y-68800000D02*
X44778000Y-68800000D01*
X48378000Y-70900000D02*
X44778000Y-70900000D01*
X46328000Y-70150000D02*
X46328000Y-69550000D01*
X46328000Y-69550000D02*
X46628000Y-69850000D01*
X46628000Y-69850000D02*
X46428000Y-70050000D01*
X46428000Y-70050000D02*
X46428000Y-69800000D01*
X46428000Y-69800000D02*
X46478000Y-69850000D01*
X46728000Y-70350000D02*
X46728000Y-69350000D01*
X46228000Y-69850000D02*
X45728000Y-69850000D01*
X46728000Y-69850000D02*
X46228000Y-70350000D01*
X46228000Y-70350000D02*
X46228000Y-69350000D01*
X46228000Y-69350000D02*
X46728000Y-69850000D01*
X78555000Y-88461000D02*
X78555000Y-88136000D01*
X71305000Y-88461000D02*
X71305000Y-88136000D01*
X71305000Y-81211000D02*
X71305000Y-81536000D01*
X78555000Y-81211000D02*
X78555000Y-81536000D01*
X78555000Y-88461000D02*
X78230000Y-88461000D01*
X78555000Y-81211000D02*
X78230000Y-81211000D01*
X71305000Y-81211000D02*
X71630000Y-81211000D01*
X71305000Y-88461000D02*
X71630000Y-88461000D01*
X78555000Y-88136000D02*
X79980000Y-88136000D01*
X73406000Y-76708000D02*
X78486000Y-76708000D01*
X70586000Y-76988000D02*
X70586000Y-75438000D01*
X70866000Y-74168000D02*
X73406000Y-74168000D01*
X73406000Y-74168000D02*
X73406000Y-76708000D01*
X78486000Y-76708000D02*
X78486000Y-71628000D01*
X78486000Y-71628000D02*
X73406000Y-71628000D01*
X70586000Y-76988000D02*
X72136000Y-76988000D01*
X70866000Y-71628000D02*
X70866000Y-74168000D01*
X73406000Y-71628000D02*
X70866000Y-71628000D01*
X120650000Y-57150000D02*
X120650000Y-52070000D01*
X120930000Y-59970000D02*
X119380000Y-59970000D01*
X118110000Y-59690000D02*
X118110000Y-57150000D01*
X118110000Y-57150000D02*
X120650000Y-57150000D01*
X120650000Y-52070000D02*
X115570000Y-52070000D01*
X115570000Y-52070000D02*
X115570000Y-57150000D01*
X120930000Y-59970000D02*
X120930000Y-58420000D01*
X115570000Y-59690000D02*
X118110000Y-59690000D01*
X115570000Y-57150000D02*
X115570000Y-59690000D01*
X96520000Y-57150000D02*
X96520000Y-52070000D01*
X96800000Y-59970000D02*
X95250000Y-59970000D01*
X93980000Y-59690000D02*
X93980000Y-57150000D01*
X93980000Y-57150000D02*
X96520000Y-57150000D01*
X96520000Y-52070000D02*
X91440000Y-52070000D01*
X91440000Y-52070000D02*
X91440000Y-57150000D01*
X96800000Y-59970000D02*
X96800000Y-58420000D01*
X91440000Y-59690000D02*
X93980000Y-59690000D01*
X91440000Y-57150000D02*
X91440000Y-59690000D01*
X58733000Y-83328000D02*
X58733000Y-85328000D01*
X56583000Y-85328000D02*
X56583000Y-83328000D01*
X60774000Y-91297000D02*
X60774000Y-89297000D01*
X62924000Y-89297000D02*
X62924000Y-91297000D01*
X56583000Y-91297000D02*
X56583000Y-89297000D01*
X58733000Y-89297000D02*
X58733000Y-91297000D01*
X53070000Y-74989000D02*
X51070000Y-74989000D01*
X51070000Y-72839000D02*
X53070000Y-72839000D01*
X53070000Y-70925000D02*
X51070000Y-70925000D01*
X51070000Y-68775000D02*
X53070000Y-68775000D01*
X69580000Y-65083000D02*
X67580000Y-65083000D01*
X67580000Y-62933000D02*
X69580000Y-62933000D01*
X69580000Y-62035000D02*
X67580000Y-62035000D01*
X67580000Y-59885000D02*
X69580000Y-59885000D01*
X65040000Y-69918000D02*
X67040000Y-69918000D01*
X67040000Y-72068000D02*
X65040000Y-72068000D01*
X112268000Y-74168000D02*
X112268000Y-79248000D01*
X111988000Y-71348000D02*
X113538000Y-71348000D01*
X114808000Y-71628000D02*
X114808000Y-74168000D01*
X114808000Y-74168000D02*
X112268000Y-74168000D01*
X112268000Y-79248000D02*
X117348000Y-79248000D01*
X117348000Y-79248000D02*
X117348000Y-74168000D01*
X111988000Y-71348000D02*
X111988000Y-72898000D01*
X117348000Y-71628000D02*
X114808000Y-71628000D01*
X117348000Y-74168000D02*
X117348000Y-71628000D01*
X61468000Y-62230000D02*
X61468000Y-54610000D01*
X57912000Y-54610000D02*
X57912000Y-62230000D01*
X61468000Y-62230000D02*
X57912000Y-62230000D01*
X57912000Y-54610000D02*
X61468000Y-54610000D01*
X58779210Y-55118000D02*
G75*
G03X58779210Y-55118000I-359210J0D01*
G01*
X60325000Y-54610000D02*
X60325000Y-55372000D01*
X60325000Y-55372000D02*
X59055000Y-55372000D01*
X59055000Y-55372000D02*
X59055000Y-54610000D01*
X82844640Y-72382380D02*
X82844640Y-84081620D01*
X87843360Y-84081620D02*
X87843360Y-72382380D01*
X82844640Y-84081620D02*
X83693000Y-84081620D01*
X87843360Y-84081620D02*
X86995000Y-84081620D01*
X82844640Y-72382380D02*
X83693000Y-72382380D01*
X87843360Y-72382380D02*
X86995000Y-72382380D01*
X50772714Y-80010000D02*
G75*
G03X50772714Y-80010000I-1750714J0D01*
G01*
X52247000Y-76785000D02*
X52247000Y-76910000D01*
X52247000Y-83235000D02*
X52247000Y-83110000D01*
X45797000Y-83235000D02*
X45797000Y-83110000D01*
X45797000Y-76910000D02*
X45797000Y-76785000D01*
X52247000Y-78610000D02*
X52247000Y-81410000D01*
X45797000Y-76785000D02*
X52247000Y-76785000D01*
X45797000Y-78610000D02*
X45797000Y-81410000D01*
X45797000Y-83235000D02*
X52247000Y-83235000D01*
X98552000Y-67310000D02*
X95504000Y-67310000D01*
X95504000Y-67310000D02*
X95504000Y-74422000D01*
X95504000Y-74422000D02*
X98552000Y-74422000D01*
X101600000Y-67310000D02*
X102362000Y-67310000D01*
X102362000Y-67310000D02*
X104648000Y-68834000D01*
X104648000Y-68834000D02*
X104648000Y-72898000D01*
X104648000Y-72898000D02*
X102362000Y-74422000D01*
X102362000Y-74422000D02*
X101600000Y-74422000D01*
D15*
X61940000Y-51546000D02*
X61940000Y-49546000D01*
X61940000Y-49546000D02*
X58040000Y-49546000D01*
X61940000Y-51546000D02*
X58040000Y-51546000D01*
X43650000Y-52130000D02*
X35010000Y-52130000D01*
X52030000Y-52130000D02*
X46950000Y-52130000D01*
X43650000Y-64330000D02*
X35010000Y-64330000D01*
X52030000Y-64330000D02*
X46950000Y-64330000D01*
X35010000Y-64330000D02*
X35010000Y-52130000D01*
X52030000Y-52130000D02*
X52030000Y-64330000D01*
D14*
X121158000Y-60960000D02*
X121158000Y-63500000D01*
X121158000Y-48260000D02*
X121158000Y-50800000D01*
X121158000Y-48260000D02*
X100838000Y-48260000D01*
X100838000Y-48260000D02*
X100838000Y-50800000D01*
X100838000Y-50800000D02*
X121158000Y-50800000D01*
X121158000Y-63500000D02*
X100838000Y-63500000D01*
X100838000Y-63500000D02*
X100838000Y-60960000D01*
X100838000Y-60960000D02*
X121158000Y-60960000D01*
X97028000Y-60960000D02*
X97028000Y-63500000D01*
X97028000Y-48260000D02*
X97028000Y-50800000D01*
X97028000Y-48260000D02*
X76708000Y-48260000D01*
X76708000Y-48260000D02*
X76708000Y-50800000D01*
X76708000Y-50800000D02*
X97028000Y-50800000D01*
X97028000Y-63500000D02*
X76708000Y-63500000D01*
X76708000Y-63500000D02*
X76708000Y-60960000D01*
X76708000Y-60960000D02*
X97028000Y-60960000D01*
X111379000Y-87884000D02*
X111379000Y-89789000D01*
X111379000Y-89789000D02*
X98679000Y-89789000D01*
X98679000Y-89789000D02*
X98679000Y-87884000D01*
X112649000Y-98044000D02*
X96774000Y-98044000D01*
X96774000Y-98044000D02*
X96774000Y-87884000D01*
X96774000Y-87884000D02*
X112649000Y-87884000D01*
X112649000Y-98044000D02*
X112649000Y-87884000D01*
D15*
X130330000Y-76300000D02*
X136330000Y-76300000D01*
X136330000Y-76300000D02*
X136330000Y-63400000D01*
X136330000Y-63400000D02*
X130330000Y-63400000D01*
X130330000Y-63400000D02*
X130330000Y-76300000D01*
X136330000Y-74930000D02*
X135330000Y-74930000D01*
X135330000Y-74930000D02*
X135330000Y-64770000D01*
X135330000Y-64770000D02*
X136330000Y-64770000D01*
X135330000Y-74930000D02*
X134900000Y-74680000D01*
X134900000Y-74680000D02*
X134900000Y-65020000D01*
X134900000Y-65020000D02*
X135330000Y-64770000D01*
X136330000Y-74680000D02*
X135330000Y-74680000D01*
X136330000Y-65020000D02*
X135330000Y-65020000D01*
X130330000Y-75730000D02*
X130950000Y-75730000D01*
X130950000Y-75730000D02*
X130950000Y-74130000D01*
X130950000Y-74130000D02*
X130330000Y-74130000D01*
X130330000Y-73190000D02*
X130950000Y-73190000D01*
X130950000Y-73190000D02*
X130950000Y-71590000D01*
X130950000Y-71590000D02*
X130330000Y-71590000D01*
X130330000Y-70650000D02*
X130950000Y-70650000D01*
X130950000Y-70650000D02*
X130950000Y-69050000D01*
X130950000Y-69050000D02*
X130330000Y-69050000D01*
X130330000Y-68110000D02*
X130950000Y-68110000D01*
X130950000Y-68110000D02*
X130950000Y-66510000D01*
X130950000Y-66510000D02*
X130330000Y-66510000D01*
X130330000Y-65570000D02*
X130950000Y-65570000D01*
X130950000Y-65570000D02*
X130950000Y-63970000D01*
X130950000Y-63970000D02*
X130330000Y-63970000D01*
X130330000Y-58774000D02*
X136330000Y-58774000D01*
X136330000Y-58774000D02*
X136330000Y-50954000D01*
X136330000Y-50954000D02*
X130330000Y-50954000D01*
X130330000Y-50954000D02*
X130330000Y-58774000D01*
X136330000Y-57404000D02*
X135330000Y-57404000D01*
X135330000Y-57404000D02*
X135330000Y-52324000D01*
X135330000Y-52324000D02*
X136330000Y-52324000D01*
X135330000Y-57404000D02*
X134900000Y-57154000D01*
X134900000Y-57154000D02*
X134900000Y-52574000D01*
X134900000Y-52574000D02*
X135330000Y-52324000D01*
X136330000Y-57154000D02*
X135330000Y-57154000D01*
X136330000Y-52574000D02*
X135330000Y-52574000D01*
X130330000Y-58204000D02*
X130950000Y-58204000D01*
X130950000Y-58204000D02*
X130950000Y-56604000D01*
X130950000Y-56604000D02*
X130330000Y-56604000D01*
X130330000Y-55664000D02*
X130950000Y-55664000D01*
X130950000Y-55664000D02*
X130950000Y-54064000D01*
X130950000Y-54064000D02*
X130330000Y-54064000D01*
X130330000Y-53124000D02*
X130950000Y-53124000D01*
X130950000Y-53124000D02*
X130950000Y-51524000D01*
X130950000Y-51524000D02*
X130330000Y-51524000D01*
X113892000Y-41628000D02*
X113892000Y-35628000D01*
X113892000Y-35628000D02*
X103532000Y-35628000D01*
X103532000Y-35628000D02*
X103532000Y-41628000D01*
X103532000Y-41628000D02*
X113892000Y-41628000D01*
X112522000Y-35628000D02*
X112522000Y-36628000D01*
X112522000Y-36628000D02*
X104902000Y-36628000D01*
X104902000Y-36628000D02*
X104902000Y-35628000D01*
X112522000Y-36628000D02*
X112272000Y-37058000D01*
X112272000Y-37058000D02*
X105152000Y-37058000D01*
X105152000Y-37058000D02*
X104902000Y-36628000D01*
X112272000Y-35628000D02*
X112272000Y-36628000D01*
X105152000Y-35628000D02*
X105152000Y-36628000D01*
X113322000Y-41628000D02*
X113322000Y-41008000D01*
X113322000Y-41008000D02*
X111722000Y-41008000D01*
X111722000Y-41008000D02*
X111722000Y-41628000D01*
X110782000Y-41628000D02*
X110782000Y-41008000D01*
X110782000Y-41008000D02*
X109182000Y-41008000D01*
X109182000Y-41008000D02*
X109182000Y-41628000D01*
X108242000Y-41628000D02*
X108242000Y-41008000D01*
X108242000Y-41008000D02*
X106642000Y-41008000D01*
X106642000Y-41008000D02*
X106642000Y-41628000D01*
X105702000Y-41628000D02*
X105702000Y-41008000D01*
X105702000Y-41008000D02*
X104102000Y-41008000D01*
X104102000Y-41008000D02*
X104102000Y-41628000D01*
X96366000Y-41628000D02*
X96366000Y-35628000D01*
X96366000Y-35628000D02*
X86006000Y-35628000D01*
X86006000Y-35628000D02*
X86006000Y-41628000D01*
X86006000Y-41628000D02*
X96366000Y-41628000D01*
X94996000Y-35628000D02*
X94996000Y-36628000D01*
X94996000Y-36628000D02*
X87376000Y-36628000D01*
X87376000Y-36628000D02*
X87376000Y-35628000D01*
X94996000Y-36628000D02*
X94746000Y-37058000D01*
X94746000Y-37058000D02*
X87626000Y-37058000D01*
X87626000Y-37058000D02*
X87376000Y-36628000D01*
X94746000Y-35628000D02*
X94746000Y-36628000D01*
X87626000Y-35628000D02*
X87626000Y-36628000D01*
X95796000Y-41628000D02*
X95796000Y-41008000D01*
X95796000Y-41008000D02*
X94196000Y-41008000D01*
X94196000Y-41008000D02*
X94196000Y-41628000D01*
X93256000Y-41628000D02*
X93256000Y-41008000D01*
X93256000Y-41008000D02*
X91656000Y-41008000D01*
X91656000Y-41008000D02*
X91656000Y-41628000D01*
X90716000Y-41628000D02*
X90716000Y-41008000D01*
X90716000Y-41008000D02*
X89116000Y-41008000D01*
X89116000Y-41008000D02*
X89116000Y-41628000D01*
X88176000Y-41628000D02*
X88176000Y-41008000D01*
X88176000Y-41008000D02*
X86576000Y-41008000D01*
X86576000Y-41008000D02*
X86576000Y-41628000D01*
X68894000Y-44002000D02*
X68894000Y-38802000D01*
X61214000Y-44002000D02*
X68894000Y-44002000D01*
X58614000Y-38802000D02*
X68894000Y-38802000D01*
X61214000Y-44002000D02*
X61214000Y-41402000D01*
X61214000Y-41402000D02*
X58614000Y-41402000D01*
X58614000Y-41402000D02*
X58614000Y-38802000D01*
X59944000Y-44002000D02*
X58614000Y-44002000D01*
X58614000Y-44002000D02*
X58614000Y-42672000D01*
D14*
X63612781Y-85793057D02*
X63612781Y-85697818D01*
X63660400Y-85602580D01*
X63708019Y-85554961D01*
X63803257Y-85507342D01*
X63993733Y-85459723D01*
X64231829Y-85459723D01*
X64422305Y-85507342D01*
X64517543Y-85554961D01*
X64565162Y-85602580D01*
X64612781Y-85697818D01*
X64612781Y-85793057D01*
X64565162Y-85888295D01*
X64517543Y-85935914D01*
X64422305Y-85983533D01*
X64231829Y-86031152D01*
X63993733Y-86031152D01*
X63803257Y-85983533D01*
X63708019Y-85935914D01*
X63660400Y-85888295D01*
X63612781Y-85793057D01*
X64517543Y-85031152D02*
X64565162Y-84983533D01*
X64612781Y-85031152D01*
X64565162Y-85078771D01*
X64517543Y-85031152D01*
X64612781Y-85031152D01*
X64612781Y-84031152D02*
X64612781Y-84602581D01*
X64612781Y-84316867D02*
X63612781Y-84316867D01*
X63755638Y-84412105D01*
X63850876Y-84507343D01*
X63898495Y-84602581D01*
X63946114Y-83174009D02*
X64612781Y-83174009D01*
X63946114Y-83602581D02*
X64469924Y-83602581D01*
X64565162Y-83554962D01*
X64612781Y-83459724D01*
X64612781Y-83316866D01*
X64565162Y-83221628D01*
X64517543Y-83174009D01*
X64088971Y-82364485D02*
X64088971Y-82697819D01*
X64612781Y-82697819D02*
X63612781Y-82697819D01*
X63612781Y-82221628D01*
X58174143Y-72477381D02*
X58269382Y-72477381D01*
X58364620Y-72525000D01*
X58412239Y-72572619D01*
X58459858Y-72667857D01*
X58507477Y-72858333D01*
X58507477Y-73096429D01*
X58459858Y-73286905D01*
X58412239Y-73382143D01*
X58364620Y-73429762D01*
X58269382Y-73477381D01*
X58174143Y-73477381D01*
X58078905Y-73429762D01*
X58031286Y-73382143D01*
X57983667Y-73286905D01*
X57936048Y-73096429D01*
X57936048Y-72858333D01*
X57983667Y-72667857D01*
X58031286Y-72572619D01*
X58078905Y-72525000D01*
X58174143Y-72477381D01*
X58936048Y-73382143D02*
X58983667Y-73429762D01*
X58936048Y-73477381D01*
X58888429Y-73429762D01*
X58936048Y-73382143D01*
X58936048Y-73477381D01*
X59936048Y-73477381D02*
X59364619Y-73477381D01*
X59650333Y-73477381D02*
X59650333Y-72477381D01*
X59555095Y-72620238D01*
X59459857Y-72715476D01*
X59364619Y-72763095D01*
X60793191Y-72810714D02*
X60793191Y-73477381D01*
X60364619Y-72810714D02*
X60364619Y-73334524D01*
X60412238Y-73429762D01*
X60507476Y-73477381D01*
X60650334Y-73477381D01*
X60745572Y-73429762D01*
X60793191Y-73382143D01*
X61602715Y-72953571D02*
X61269381Y-72953571D01*
X61269381Y-73477381D02*
X61269381Y-72477381D01*
X61745572Y-72477381D01*
X59548781Y-86078771D02*
X59548781Y-85459723D01*
X59929733Y-85793057D01*
X59929733Y-85650199D01*
X59977352Y-85554961D01*
X60024971Y-85507342D01*
X60120210Y-85459723D01*
X60358305Y-85459723D01*
X60453543Y-85507342D01*
X60501162Y-85554961D01*
X60548781Y-85650199D01*
X60548781Y-85935914D01*
X60501162Y-86031152D01*
X60453543Y-86078771D01*
X60453543Y-85031152D02*
X60501162Y-84983533D01*
X60548781Y-85031152D01*
X60501162Y-85078771D01*
X60453543Y-85031152D01*
X60548781Y-85031152D01*
X59548781Y-84650200D02*
X59548781Y-84031152D01*
X59929733Y-84364486D01*
X59929733Y-84221628D01*
X59977352Y-84126390D01*
X60024971Y-84078771D01*
X60120210Y-84031152D01*
X60358305Y-84031152D01*
X60453543Y-84078771D01*
X60501162Y-84126390D01*
X60548781Y-84221628D01*
X60548781Y-84507343D01*
X60501162Y-84602581D01*
X60453543Y-84650200D01*
X59882114Y-83602581D02*
X60548781Y-83602581D01*
X59977352Y-83602581D02*
X59929733Y-83554962D01*
X59882114Y-83459724D01*
X59882114Y-83316866D01*
X59929733Y-83221628D01*
X60024971Y-83174009D01*
X60548781Y-83174009D01*
X60024971Y-82364485D02*
X60024971Y-82697819D01*
X60548781Y-82697819D02*
X59548781Y-82697819D01*
X59548781Y-82221628D01*
X63460381Y-78985857D02*
X63460381Y-78890618D01*
X63508000Y-78795380D01*
X63555619Y-78747761D01*
X63650857Y-78700142D01*
X63841333Y-78652523D01*
X64079429Y-78652523D01*
X64269905Y-78700142D01*
X64365143Y-78747761D01*
X64412762Y-78795380D01*
X64460381Y-78890618D01*
X64460381Y-78985857D01*
X64412762Y-79081095D01*
X64365143Y-79128714D01*
X64269905Y-79176333D01*
X64079429Y-79223952D01*
X63841333Y-79223952D01*
X63650857Y-79176333D01*
X63555619Y-79128714D01*
X63508000Y-79081095D01*
X63460381Y-78985857D01*
X64365143Y-78223952D02*
X64412762Y-78176333D01*
X64460381Y-78223952D01*
X64412762Y-78271571D01*
X64365143Y-78223952D01*
X64460381Y-78223952D01*
X64460381Y-77223952D02*
X64460381Y-77795381D01*
X64460381Y-77509667D02*
X63460381Y-77509667D01*
X63603238Y-77604905D01*
X63698476Y-77700143D01*
X63746095Y-77795381D01*
X63793714Y-76366809D02*
X64460381Y-76366809D01*
X63793714Y-76795381D02*
X64317524Y-76795381D01*
X64412762Y-76747762D01*
X64460381Y-76652524D01*
X64460381Y-76509666D01*
X64412762Y-76414428D01*
X64365143Y-76366809D01*
X63936571Y-75557285D02*
X63936571Y-75890619D01*
X64460381Y-75890619D02*
X63460381Y-75890619D01*
X63460381Y-75414428D01*
X91749619Y-83176857D02*
X91702000Y-83129238D01*
X91654381Y-83034000D01*
X91654381Y-82795904D01*
X91702000Y-82700666D01*
X91749619Y-82653047D01*
X91844857Y-82605428D01*
X91940095Y-82605428D01*
X92082952Y-82653047D01*
X92654381Y-83224476D01*
X92654381Y-82605428D01*
X91654381Y-81986381D02*
X91654381Y-81891142D01*
X91702000Y-81795904D01*
X91749619Y-81748285D01*
X91844857Y-81700666D01*
X92035333Y-81653047D01*
X92273429Y-81653047D01*
X92463905Y-81700666D01*
X92559143Y-81748285D01*
X92606762Y-81795904D01*
X92654381Y-81891142D01*
X92654381Y-81986381D01*
X92606762Y-82081619D01*
X92559143Y-82129238D01*
X92463905Y-82176857D01*
X92273429Y-82224476D01*
X92035333Y-82224476D01*
X91844857Y-82176857D01*
X91749619Y-82129238D01*
X91702000Y-82081619D01*
X91654381Y-81986381D01*
X91987714Y-81224476D02*
X92987714Y-81224476D01*
X92035333Y-81224476D02*
X91987714Y-81129238D01*
X91987714Y-80938761D01*
X92035333Y-80843523D01*
X92082952Y-80795904D01*
X92178190Y-80748285D01*
X92463905Y-80748285D01*
X92559143Y-80795904D01*
X92606762Y-80843523D01*
X92654381Y-80938761D01*
X92654381Y-81129238D01*
X92606762Y-81224476D01*
X92130571Y-79986380D02*
X92130571Y-80319714D01*
X92654381Y-80319714D02*
X91654381Y-80319714D01*
X91654381Y-79843523D01*
X91749619Y-76318857D02*
X91702000Y-76271238D01*
X91654381Y-76176000D01*
X91654381Y-75937904D01*
X91702000Y-75842666D01*
X91749619Y-75795047D01*
X91844857Y-75747428D01*
X91940095Y-75747428D01*
X92082952Y-75795047D01*
X92654381Y-76366476D01*
X92654381Y-75747428D01*
X91654381Y-75128381D02*
X91654381Y-75033142D01*
X91702000Y-74937904D01*
X91749619Y-74890285D01*
X91844857Y-74842666D01*
X92035333Y-74795047D01*
X92273429Y-74795047D01*
X92463905Y-74842666D01*
X92559143Y-74890285D01*
X92606762Y-74937904D01*
X92654381Y-75033142D01*
X92654381Y-75128381D01*
X92606762Y-75223619D01*
X92559143Y-75271238D01*
X92463905Y-75318857D01*
X92273429Y-75366476D01*
X92035333Y-75366476D01*
X91844857Y-75318857D01*
X91749619Y-75271238D01*
X91702000Y-75223619D01*
X91654381Y-75128381D01*
X91987714Y-74366476D02*
X92987714Y-74366476D01*
X92035333Y-74366476D02*
X91987714Y-74271238D01*
X91987714Y-74080761D01*
X92035333Y-73985523D01*
X92082952Y-73937904D01*
X92178190Y-73890285D01*
X92463905Y-73890285D01*
X92559143Y-73937904D01*
X92606762Y-73985523D01*
X92654381Y-74080761D01*
X92654381Y-74271238D01*
X92606762Y-74366476D01*
X92130571Y-73128380D02*
X92130571Y-73461714D01*
X92654381Y-73461714D02*
X91654381Y-73461714D01*
X91654381Y-72985523D01*
X67524381Y-78985857D02*
X67524381Y-78890618D01*
X67572000Y-78795380D01*
X67619619Y-78747761D01*
X67714857Y-78700142D01*
X67905333Y-78652523D01*
X68143429Y-78652523D01*
X68333905Y-78700142D01*
X68429143Y-78747761D01*
X68476762Y-78795380D01*
X68524381Y-78890618D01*
X68524381Y-78985857D01*
X68476762Y-79081095D01*
X68429143Y-79128714D01*
X68333905Y-79176333D01*
X68143429Y-79223952D01*
X67905333Y-79223952D01*
X67714857Y-79176333D01*
X67619619Y-79128714D01*
X67572000Y-79081095D01*
X67524381Y-78985857D01*
X68429143Y-78223952D02*
X68476762Y-78176333D01*
X68524381Y-78223952D01*
X68476762Y-78271571D01*
X68429143Y-78223952D01*
X68524381Y-78223952D01*
X68524381Y-77223952D02*
X68524381Y-77795381D01*
X68524381Y-77509667D02*
X67524381Y-77509667D01*
X67667238Y-77604905D01*
X67762476Y-77700143D01*
X67810095Y-77795381D01*
X67857714Y-76366809D02*
X68524381Y-76366809D01*
X67857714Y-76795381D02*
X68381524Y-76795381D01*
X68476762Y-76747762D01*
X68524381Y-76652524D01*
X68524381Y-76509666D01*
X68476762Y-76414428D01*
X68429143Y-76366809D01*
X68000571Y-75557285D02*
X68000571Y-75890619D01*
X68524381Y-75890619D02*
X67524381Y-75890619D01*
X67524381Y-75414428D01*
X106116381Y-57173619D02*
X106116381Y-57745048D01*
X106116381Y-57459334D02*
X105116381Y-57459334D01*
X105259238Y-57554572D01*
X105354476Y-57649810D01*
X105402095Y-57745048D01*
X105116381Y-56554572D02*
X105116381Y-56459333D01*
X105164000Y-56364095D01*
X105211619Y-56316476D01*
X105306857Y-56268857D01*
X105497333Y-56221238D01*
X105735429Y-56221238D01*
X105925905Y-56268857D01*
X106021143Y-56316476D01*
X106068762Y-56364095D01*
X106116381Y-56459333D01*
X106116381Y-56554572D01*
X106068762Y-56649810D01*
X106021143Y-56697429D01*
X105925905Y-56745048D01*
X105735429Y-56792667D01*
X105497333Y-56792667D01*
X105306857Y-56745048D01*
X105211619Y-56697429D01*
X105164000Y-56649810D01*
X105116381Y-56554572D01*
X105116381Y-55602191D02*
X105116381Y-55506952D01*
X105164000Y-55411714D01*
X105211619Y-55364095D01*
X105306857Y-55316476D01*
X105497333Y-55268857D01*
X105735429Y-55268857D01*
X105925905Y-55316476D01*
X106021143Y-55364095D01*
X106068762Y-55411714D01*
X106116381Y-55506952D01*
X106116381Y-55602191D01*
X106068762Y-55697429D01*
X106021143Y-55745048D01*
X105925905Y-55792667D01*
X105735429Y-55840286D01*
X105497333Y-55840286D01*
X105306857Y-55792667D01*
X105211619Y-55745048D01*
X105164000Y-55697429D01*
X105116381Y-55602191D01*
X105449714Y-54411714D02*
X106116381Y-54411714D01*
X105449714Y-54840286D02*
X105973524Y-54840286D01*
X106068762Y-54792667D01*
X106116381Y-54697429D01*
X106116381Y-54554571D01*
X106068762Y-54459333D01*
X106021143Y-54411714D01*
X105592571Y-53602190D02*
X105592571Y-53935524D01*
X106116381Y-53935524D02*
X105116381Y-53935524D01*
X105116381Y-53459333D01*
X82748381Y-57427619D02*
X82748381Y-57999048D01*
X82748381Y-57713334D02*
X81748381Y-57713334D01*
X81891238Y-57808572D01*
X81986476Y-57903810D01*
X82034095Y-57999048D01*
X81748381Y-56808572D02*
X81748381Y-56713333D01*
X81796000Y-56618095D01*
X81843619Y-56570476D01*
X81938857Y-56522857D01*
X82129333Y-56475238D01*
X82367429Y-56475238D01*
X82557905Y-56522857D01*
X82653143Y-56570476D01*
X82700762Y-56618095D01*
X82748381Y-56713333D01*
X82748381Y-56808572D01*
X82700762Y-56903810D01*
X82653143Y-56951429D01*
X82557905Y-56999048D01*
X82367429Y-57046667D01*
X82129333Y-57046667D01*
X81938857Y-56999048D01*
X81843619Y-56951429D01*
X81796000Y-56903810D01*
X81748381Y-56808572D01*
X81748381Y-55856191D02*
X81748381Y-55760952D01*
X81796000Y-55665714D01*
X81843619Y-55618095D01*
X81938857Y-55570476D01*
X82129333Y-55522857D01*
X82367429Y-55522857D01*
X82557905Y-55570476D01*
X82653143Y-55618095D01*
X82700762Y-55665714D01*
X82748381Y-55760952D01*
X82748381Y-55856191D01*
X82700762Y-55951429D01*
X82653143Y-55999048D01*
X82557905Y-56046667D01*
X82367429Y-56094286D01*
X82129333Y-56094286D01*
X81938857Y-56046667D01*
X81843619Y-55999048D01*
X81796000Y-55951429D01*
X81748381Y-55856191D01*
X82081714Y-54665714D02*
X82748381Y-54665714D01*
X82081714Y-55094286D02*
X82605524Y-55094286D01*
X82700762Y-55046667D01*
X82748381Y-54951429D01*
X82748381Y-54808571D01*
X82700762Y-54713333D01*
X82653143Y-54665714D01*
X82224571Y-53856190D02*
X82224571Y-54189524D01*
X82748381Y-54189524D02*
X81748381Y-54189524D01*
X81748381Y-53713333D01*
X45402572Y-72334381D02*
X45069238Y-71858190D01*
X44831143Y-72334381D02*
X44831143Y-71334381D01*
X45212096Y-71334381D01*
X45307334Y-71382000D01*
X45354953Y-71429619D01*
X45402572Y-71524857D01*
X45402572Y-71667714D01*
X45354953Y-71762952D01*
X45307334Y-71810571D01*
X45212096Y-71858190D01*
X44831143Y-71858190D01*
X46212096Y-72286762D02*
X46116858Y-72334381D01*
X45926381Y-72334381D01*
X45831143Y-72286762D01*
X45783524Y-72191524D01*
X45783524Y-71810571D01*
X45831143Y-71715333D01*
X45926381Y-71667714D01*
X46116858Y-71667714D01*
X46212096Y-71715333D01*
X46259715Y-71810571D01*
X46259715Y-71905810D01*
X45783524Y-72001048D01*
X47116858Y-72334381D02*
X47116858Y-71334381D01*
X47116858Y-72286762D02*
X47021620Y-72334381D01*
X46831143Y-72334381D01*
X46735905Y-72286762D01*
X46688286Y-72239143D01*
X46640667Y-72143905D01*
X46640667Y-71858190D01*
X46688286Y-71762952D01*
X46735905Y-71715333D01*
X46831143Y-71667714D01*
X47021620Y-71667714D01*
X47116858Y-71715333D01*
X44870857Y-67318000D02*
X44775619Y-67270381D01*
X44632762Y-67270381D01*
X44489904Y-67318000D01*
X44394666Y-67413238D01*
X44347047Y-67508476D01*
X44299428Y-67698952D01*
X44299428Y-67841810D01*
X44347047Y-68032286D01*
X44394666Y-68127524D01*
X44489904Y-68222762D01*
X44632762Y-68270381D01*
X44728000Y-68270381D01*
X44870857Y-68222762D01*
X44918476Y-68175143D01*
X44918476Y-67841810D01*
X44728000Y-67841810D01*
X45347047Y-68270381D02*
X45347047Y-67603714D01*
X45347047Y-67794190D02*
X45394666Y-67698952D01*
X45442285Y-67651333D01*
X45537523Y-67603714D01*
X45632762Y-67603714D01*
X46347048Y-68222762D02*
X46251810Y-68270381D01*
X46061333Y-68270381D01*
X45966095Y-68222762D01*
X45918476Y-68127524D01*
X45918476Y-67746571D01*
X45966095Y-67651333D01*
X46061333Y-67603714D01*
X46251810Y-67603714D01*
X46347048Y-67651333D01*
X46394667Y-67746571D01*
X46394667Y-67841810D01*
X45918476Y-67937048D01*
X47204191Y-68222762D02*
X47108953Y-68270381D01*
X46918476Y-68270381D01*
X46823238Y-68222762D01*
X46775619Y-68127524D01*
X46775619Y-67746571D01*
X46823238Y-67651333D01*
X46918476Y-67603714D01*
X47108953Y-67603714D01*
X47204191Y-67651333D01*
X47251810Y-67746571D01*
X47251810Y-67841810D01*
X46775619Y-67937048D01*
X47680381Y-67603714D02*
X47680381Y-68270381D01*
X47680381Y-67698952D02*
X47728000Y-67651333D01*
X47823238Y-67603714D01*
X47966096Y-67603714D01*
X48061334Y-67651333D01*
X48108953Y-67746571D01*
X48108953Y-68270381D01*
X73326810Y-78557381D02*
X73326810Y-77557381D01*
X74374429Y-78462143D02*
X74326810Y-78509762D01*
X74183953Y-78557381D01*
X74088715Y-78557381D01*
X73945857Y-78509762D01*
X73850619Y-78414524D01*
X73803000Y-78319286D01*
X73755381Y-78128810D01*
X73755381Y-77985952D01*
X73803000Y-77795476D01*
X73850619Y-77700238D01*
X73945857Y-77605000D01*
X74088715Y-77557381D01*
X74183953Y-77557381D01*
X74326810Y-77605000D01*
X74374429Y-77652619D01*
X74755381Y-78509762D02*
X74898238Y-78557381D01*
X75136334Y-78557381D01*
X75231572Y-78509762D01*
X75279191Y-78462143D01*
X75326810Y-78366905D01*
X75326810Y-78271667D01*
X75279191Y-78176429D01*
X75231572Y-78128810D01*
X75136334Y-78081190D01*
X74945857Y-78033571D01*
X74850619Y-77985952D01*
X74803000Y-77938333D01*
X74755381Y-77843095D01*
X74755381Y-77747857D01*
X74803000Y-77652619D01*
X74850619Y-77605000D01*
X74945857Y-77557381D01*
X75183953Y-77557381D01*
X75326810Y-77605000D01*
X75755381Y-78557381D02*
X75755381Y-77557381D01*
X76136334Y-77557381D01*
X76231572Y-77605000D01*
X76279191Y-77652619D01*
X76326810Y-77747857D01*
X76326810Y-77890714D01*
X76279191Y-77985952D01*
X76231572Y-78033571D01*
X76136334Y-78081190D01*
X75755381Y-78081190D01*
X56179981Y-84389885D02*
X56179981Y-84961314D01*
X56179981Y-84675600D02*
X55179981Y-84675600D01*
X55322838Y-84770838D01*
X55418076Y-84866076D01*
X55465695Y-84961314D01*
X56179981Y-83961314D02*
X55179981Y-83961314D01*
X56179981Y-83389885D02*
X55608552Y-83818457D01*
X55179981Y-83389885D02*
X55751410Y-83961314D01*
X60269381Y-90511285D02*
X60269381Y-91082714D01*
X60269381Y-90797000D02*
X59269381Y-90797000D01*
X59412238Y-90892238D01*
X59507476Y-90987476D01*
X59555095Y-91082714D01*
X60269381Y-90082714D02*
X59269381Y-90082714D01*
X60269381Y-89511285D02*
X59697952Y-89939857D01*
X59269381Y-89511285D02*
X59840810Y-90082714D01*
X56078381Y-90511285D02*
X56078381Y-91082714D01*
X56078381Y-90797000D02*
X55078381Y-90797000D01*
X55221238Y-90892238D01*
X55316476Y-90987476D01*
X55364095Y-91082714D01*
X56078381Y-90082714D02*
X55078381Y-90082714D01*
X56078381Y-89511285D02*
X55506952Y-89939857D01*
X55078381Y-89511285D02*
X55649810Y-90082714D01*
X51308096Y-71334381D02*
X51117619Y-71334381D01*
X51022381Y-71382000D01*
X50974762Y-71429619D01*
X50879524Y-71572476D01*
X50831905Y-71762952D01*
X50831905Y-72143905D01*
X50879524Y-72239143D01*
X50927143Y-72286762D01*
X51022381Y-72334381D01*
X51212858Y-72334381D01*
X51308096Y-72286762D01*
X51355715Y-72239143D01*
X51403334Y-72143905D01*
X51403334Y-71905810D01*
X51355715Y-71810571D01*
X51308096Y-71762952D01*
X51212858Y-71715333D01*
X51022381Y-71715333D01*
X50927143Y-71762952D01*
X50879524Y-71810571D01*
X50831905Y-71905810D01*
X51974762Y-71762952D02*
X51879524Y-71715333D01*
X51831905Y-71667714D01*
X51784286Y-71572476D01*
X51784286Y-71524857D01*
X51831905Y-71429619D01*
X51879524Y-71382000D01*
X51974762Y-71334381D01*
X52165239Y-71334381D01*
X52260477Y-71382000D01*
X52308096Y-71429619D01*
X52355715Y-71524857D01*
X52355715Y-71572476D01*
X52308096Y-71667714D01*
X52260477Y-71715333D01*
X52165239Y-71762952D01*
X51974762Y-71762952D01*
X51879524Y-71810571D01*
X51831905Y-71858190D01*
X51784286Y-71953429D01*
X51784286Y-72143905D01*
X51831905Y-72239143D01*
X51879524Y-72286762D01*
X51974762Y-72334381D01*
X52165239Y-72334381D01*
X52260477Y-72286762D01*
X52308096Y-72239143D01*
X52355715Y-72143905D01*
X52355715Y-71953429D01*
X52308096Y-71858190D01*
X52260477Y-71810571D01*
X52165239Y-71762952D01*
X52974762Y-71334381D02*
X53070001Y-71334381D01*
X53165239Y-71382000D01*
X53212858Y-71429619D01*
X53260477Y-71524857D01*
X53308096Y-71715333D01*
X53308096Y-71953429D01*
X53260477Y-72143905D01*
X53212858Y-72239143D01*
X53165239Y-72286762D01*
X53070001Y-72334381D01*
X52974762Y-72334381D01*
X52879524Y-72286762D01*
X52831905Y-72239143D01*
X52784286Y-72143905D01*
X52736667Y-71953429D01*
X52736667Y-71715333D01*
X52784286Y-71524857D01*
X52831905Y-71429619D01*
X52879524Y-71382000D01*
X52974762Y-71334381D01*
X51308096Y-67270381D02*
X51117619Y-67270381D01*
X51022381Y-67318000D01*
X50974762Y-67365619D01*
X50879524Y-67508476D01*
X50831905Y-67698952D01*
X50831905Y-68079905D01*
X50879524Y-68175143D01*
X50927143Y-68222762D01*
X51022381Y-68270381D01*
X51212858Y-68270381D01*
X51308096Y-68222762D01*
X51355715Y-68175143D01*
X51403334Y-68079905D01*
X51403334Y-67841810D01*
X51355715Y-67746571D01*
X51308096Y-67698952D01*
X51212858Y-67651333D01*
X51022381Y-67651333D01*
X50927143Y-67698952D01*
X50879524Y-67746571D01*
X50831905Y-67841810D01*
X51974762Y-67698952D02*
X51879524Y-67651333D01*
X51831905Y-67603714D01*
X51784286Y-67508476D01*
X51784286Y-67460857D01*
X51831905Y-67365619D01*
X51879524Y-67318000D01*
X51974762Y-67270381D01*
X52165239Y-67270381D01*
X52260477Y-67318000D01*
X52308096Y-67365619D01*
X52355715Y-67460857D01*
X52355715Y-67508476D01*
X52308096Y-67603714D01*
X52260477Y-67651333D01*
X52165239Y-67698952D01*
X51974762Y-67698952D01*
X51879524Y-67746571D01*
X51831905Y-67794190D01*
X51784286Y-67889429D01*
X51784286Y-68079905D01*
X51831905Y-68175143D01*
X51879524Y-68222762D01*
X51974762Y-68270381D01*
X52165239Y-68270381D01*
X52260477Y-68222762D01*
X52308096Y-68175143D01*
X52355715Y-68079905D01*
X52355715Y-67889429D01*
X52308096Y-67794190D01*
X52260477Y-67746571D01*
X52165239Y-67698952D01*
X52974762Y-67270381D02*
X53070001Y-67270381D01*
X53165239Y-67318000D01*
X53212858Y-67365619D01*
X53260477Y-67460857D01*
X53308096Y-67651333D01*
X53308096Y-67889429D01*
X53260477Y-68079905D01*
X53212858Y-68175143D01*
X53165239Y-68222762D01*
X53070001Y-68270381D01*
X52974762Y-68270381D01*
X52879524Y-68222762D01*
X52831905Y-68175143D01*
X52784286Y-68079905D01*
X52736667Y-67889429D01*
X52736667Y-67651333D01*
X52784286Y-67460857D01*
X52831905Y-67365619D01*
X52879524Y-67318000D01*
X52974762Y-67270381D01*
X65349524Y-73604381D02*
X64778095Y-73604381D01*
X65063809Y-73604381D02*
X65063809Y-72604381D01*
X64968571Y-72747238D01*
X64873333Y-72842476D01*
X64778095Y-72890095D01*
X65968571Y-72604381D02*
X66063810Y-72604381D01*
X66159048Y-72652000D01*
X66206667Y-72699619D01*
X66254286Y-72794857D01*
X66301905Y-72985333D01*
X66301905Y-73223429D01*
X66254286Y-73413905D01*
X66206667Y-73509143D01*
X66159048Y-73556762D01*
X66063810Y-73604381D01*
X65968571Y-73604381D01*
X65873333Y-73556762D01*
X65825714Y-73509143D01*
X65778095Y-73413905D01*
X65730476Y-73223429D01*
X65730476Y-72985333D01*
X65778095Y-72794857D01*
X65825714Y-72699619D01*
X65873333Y-72652000D01*
X65968571Y-72604381D01*
X66730476Y-73604381D02*
X66730476Y-72604381D01*
X67301905Y-73604381D02*
X66873333Y-73032952D01*
X67301905Y-72604381D02*
X66730476Y-73175810D01*
X113982572Y-70715143D02*
X113934953Y-70762762D01*
X113792096Y-70810381D01*
X113696858Y-70810381D01*
X113554000Y-70762762D01*
X113458762Y-70667524D01*
X113411143Y-70572286D01*
X113363524Y-70381810D01*
X113363524Y-70238952D01*
X113411143Y-70048476D01*
X113458762Y-69953238D01*
X113554000Y-69858000D01*
X113696858Y-69810381D01*
X113792096Y-69810381D01*
X113934953Y-69858000D01*
X113982572Y-69905619D01*
X114268286Y-69810381D02*
X114839715Y-69810381D01*
X114554000Y-70810381D02*
X114554000Y-69810381D01*
X115744477Y-70810381D02*
X115411143Y-70334190D01*
X115173048Y-70810381D02*
X115173048Y-69810381D01*
X115554001Y-69810381D01*
X115649239Y-69858000D01*
X115696858Y-69905619D01*
X115744477Y-70000857D01*
X115744477Y-70143714D01*
X115696858Y-70238952D01*
X115649239Y-70286571D01*
X115554001Y-70334190D01*
X115173048Y-70334190D01*
X55300571Y-61039047D02*
X55300571Y-61372381D01*
X55824381Y-61372381D02*
X54824381Y-61372381D01*
X54824381Y-60896190D01*
X54824381Y-60658095D02*
X54824381Y-60086666D01*
X55824381Y-60372381D02*
X54824381Y-60372381D01*
X54919619Y-59800952D02*
X54872000Y-59753333D01*
X54824381Y-59658095D01*
X54824381Y-59419999D01*
X54872000Y-59324761D01*
X54919619Y-59277142D01*
X55014857Y-59229523D01*
X55110095Y-59229523D01*
X55252952Y-59277142D01*
X55824381Y-59848571D01*
X55824381Y-59229523D01*
X54824381Y-58896190D02*
X54824381Y-58277142D01*
X55205333Y-58610476D01*
X55205333Y-58467618D01*
X55252952Y-58372380D01*
X55300571Y-58324761D01*
X55395810Y-58277142D01*
X55633905Y-58277142D01*
X55729143Y-58324761D01*
X55776762Y-58372380D01*
X55824381Y-58467618D01*
X55824381Y-58753333D01*
X55776762Y-58848571D01*
X55729143Y-58896190D01*
X55824381Y-57324761D02*
X55824381Y-57896190D01*
X55824381Y-57610476D02*
X54824381Y-57610476D01*
X54967238Y-57705714D01*
X55062476Y-57800952D01*
X55110095Y-57896190D01*
X54824381Y-56991428D02*
X55824381Y-56324761D01*
X54824381Y-56324761D02*
X55824381Y-56991428D01*
X55776762Y-55991428D02*
X55824381Y-55848571D01*
X55824381Y-55610475D01*
X55776762Y-55515237D01*
X55729143Y-55467618D01*
X55633905Y-55419999D01*
X55538667Y-55419999D01*
X55443429Y-55467618D01*
X55395810Y-55515237D01*
X55348190Y-55610475D01*
X55300571Y-55800952D01*
X55252952Y-55896190D01*
X55205333Y-55943809D01*
X55110095Y-55991428D01*
X55014857Y-55991428D01*
X54919619Y-55943809D01*
X54872000Y-55896190D01*
X54824381Y-55800952D01*
X54824381Y-55562856D01*
X54872000Y-55419999D01*
X82240381Y-79851047D02*
X82240381Y-80422476D01*
X82240381Y-80136762D02*
X81240381Y-80136762D01*
X81383238Y-80232000D01*
X81478476Y-80327238D01*
X81526095Y-80422476D01*
X81240381Y-78993904D02*
X81240381Y-79184381D01*
X81288000Y-79279619D01*
X81335619Y-79327238D01*
X81478476Y-79422476D01*
X81668952Y-79470095D01*
X82049905Y-79470095D01*
X82145143Y-79422476D01*
X82192762Y-79374857D01*
X82240381Y-79279619D01*
X82240381Y-79089142D01*
X82192762Y-78993904D01*
X82145143Y-78946285D01*
X82049905Y-78898666D01*
X81811810Y-78898666D01*
X81716571Y-78946285D01*
X81668952Y-78993904D01*
X81621333Y-79089142D01*
X81621333Y-79279619D01*
X81668952Y-79374857D01*
X81716571Y-79422476D01*
X81811810Y-79470095D01*
X82240381Y-78470095D02*
X81240381Y-78470095D01*
X81954667Y-78136761D01*
X81240381Y-77803428D01*
X82240381Y-77803428D01*
X82240381Y-77327238D02*
X81240381Y-77327238D01*
X82240381Y-76898666D02*
X81716571Y-76898666D01*
X81621333Y-76946285D01*
X81573714Y-77041523D01*
X81573714Y-77184381D01*
X81621333Y-77279619D01*
X81668952Y-77327238D01*
X81573714Y-76517714D02*
X81573714Y-75993904D01*
X82240381Y-76517714D01*
X82240381Y-75993904D01*
X99528381Y-74056476D02*
X100337905Y-74056476D01*
X100433143Y-74008857D01*
X100480762Y-73961238D01*
X100528381Y-73866000D01*
X100528381Y-73675523D01*
X100480762Y-73580285D01*
X100433143Y-73532666D01*
X100337905Y-73485047D01*
X99528381Y-73485047D01*
X100242667Y-73056476D02*
X100242667Y-72580285D01*
X100528381Y-73151714D02*
X99528381Y-72818381D01*
X100528381Y-72485047D01*
X99528381Y-72246952D02*
X99528381Y-71580285D01*
X100528381Y-72008857D01*
X99956952Y-71056476D02*
X99909333Y-71151714D01*
X99861714Y-71199333D01*
X99766476Y-71246952D01*
X99718857Y-71246952D01*
X99623619Y-71199333D01*
X99576000Y-71151714D01*
X99528381Y-71056476D01*
X99528381Y-70865999D01*
X99576000Y-70770761D01*
X99623619Y-70723142D01*
X99718857Y-70675523D01*
X99766476Y-70675523D01*
X99861714Y-70723142D01*
X99909333Y-70770761D01*
X99956952Y-70865999D01*
X99956952Y-71056476D01*
X100004571Y-71151714D01*
X100052190Y-71199333D01*
X100147429Y-71246952D01*
X100337905Y-71246952D01*
X100433143Y-71199333D01*
X100480762Y-71151714D01*
X100528381Y-71056476D01*
X100528381Y-70865999D01*
X100480762Y-70770761D01*
X100433143Y-70723142D01*
X100337905Y-70675523D01*
X100147429Y-70675523D01*
X100052190Y-70723142D01*
X100004571Y-70770761D01*
X99956952Y-70865999D01*
X100528381Y-70246952D02*
X99528381Y-70246952D01*
X100242667Y-69913618D01*
X99528381Y-69580285D01*
X100528381Y-69580285D01*
X99528381Y-68913619D02*
X99528381Y-68818380D01*
X99576000Y-68723142D01*
X99623619Y-68675523D01*
X99718857Y-68627904D01*
X99909333Y-68580285D01*
X100147429Y-68580285D01*
X100337905Y-68627904D01*
X100433143Y-68675523D01*
X100480762Y-68723142D01*
X100528381Y-68818380D01*
X100528381Y-68913619D01*
X100480762Y-69008857D01*
X100433143Y-69056476D01*
X100337905Y-69104095D01*
X100147429Y-69151714D01*
X99909333Y-69151714D01*
X99718857Y-69104095D01*
X99623619Y-69056476D01*
X99576000Y-69008857D01*
X99528381Y-68913619D01*
X99528381Y-67675523D02*
X99528381Y-68151714D01*
X100004571Y-68199333D01*
X99956952Y-68151714D01*
X99909333Y-68056476D01*
X99909333Y-67818380D01*
X99956952Y-67723142D01*
X100004571Y-67675523D01*
X100099810Y-67627904D01*
X100337905Y-67627904D01*
X100433143Y-67675523D01*
X100480762Y-67723142D01*
X100528381Y-67818380D01*
X100528381Y-68056476D01*
X100480762Y-68151714D01*
X100433143Y-68199333D01*
X58951905Y-52998381D02*
X58951905Y-51998381D01*
X59190000Y-51998381D01*
X59332858Y-52046000D01*
X59428096Y-52141238D01*
X59475715Y-52236476D01*
X59523334Y-52426952D01*
X59523334Y-52569810D01*
X59475715Y-52760286D01*
X59428096Y-52855524D01*
X59332858Y-52950762D01*
X59190000Y-52998381D01*
X58951905Y-52998381D01*
X60380477Y-52331714D02*
X60380477Y-52998381D01*
X60142381Y-51950762D02*
X59904286Y-52665048D01*
X60523334Y-52665048D01*
X109180381Y-56641905D02*
X109989905Y-56641905D01*
X110085143Y-56594286D01*
X110132762Y-56546667D01*
X110180381Y-56451429D01*
X110180381Y-56260952D01*
X110132762Y-56165714D01*
X110085143Y-56118095D01*
X109989905Y-56070476D01*
X109180381Y-56070476D01*
X109275619Y-55641905D02*
X109228000Y-55594286D01*
X109180381Y-55499048D01*
X109180381Y-55260952D01*
X109228000Y-55165714D01*
X109275619Y-55118095D01*
X109370857Y-55070476D01*
X109466095Y-55070476D01*
X109608952Y-55118095D01*
X110180381Y-55689524D01*
X110180381Y-55070476D01*
X85050381Y-56641905D02*
X85859905Y-56641905D01*
X85955143Y-56594286D01*
X86002762Y-56546667D01*
X86050381Y-56451429D01*
X86050381Y-56260952D01*
X86002762Y-56165714D01*
X85955143Y-56118095D01*
X85859905Y-56070476D01*
X85050381Y-56070476D01*
X85050381Y-55689524D02*
X85050381Y-55070476D01*
X85431333Y-55403810D01*
X85431333Y-55260952D01*
X85478952Y-55165714D01*
X85526571Y-55118095D01*
X85621810Y-55070476D01*
X85859905Y-55070476D01*
X85955143Y-55118095D01*
X86002762Y-55165714D01*
X86050381Y-55260952D01*
X86050381Y-55546667D01*
X86002762Y-55641905D01*
X85955143Y-55689524D01*
X130952381Y-35152381D02*
X130619047Y-34676190D01*
X130380952Y-35152381D02*
X130380952Y-34152381D01*
X130761905Y-34152381D01*
X130857143Y-34200000D01*
X130904762Y-34247619D01*
X130952381Y-34342857D01*
X130952381Y-34485714D01*
X130904762Y-34580952D01*
X130857143Y-34628571D01*
X130761905Y-34676190D01*
X130380952Y-34676190D01*
X131380952Y-34628571D02*
X131714286Y-34628571D01*
X131857143Y-35152381D02*
X131380952Y-35152381D01*
X131380952Y-34152381D01*
X131857143Y-34152381D01*
X132619048Y-34628571D02*
X132285714Y-34628571D01*
X132285714Y-35152381D02*
X132285714Y-34152381D01*
X132761905Y-34152381D01*
X133095238Y-34247619D02*
X133142857Y-34200000D01*
X133238095Y-34152381D01*
X133476191Y-34152381D01*
X133571429Y-34200000D01*
X133619048Y-34247619D01*
X133666667Y-34342857D01*
X133666667Y-34438095D01*
X133619048Y-34580952D01*
X133047619Y-35152381D01*
X133666667Y-35152381D01*
X43952381Y-35152381D02*
X43619047Y-34676190D01*
X43380952Y-35152381D02*
X43380952Y-34152381D01*
X43761905Y-34152381D01*
X43857143Y-34200000D01*
X43904762Y-34247619D01*
X43952381Y-34342857D01*
X43952381Y-34485714D01*
X43904762Y-34580952D01*
X43857143Y-34628571D01*
X43761905Y-34676190D01*
X43380952Y-34676190D01*
X44380952Y-34628571D02*
X44714286Y-34628571D01*
X44857143Y-35152381D02*
X44380952Y-35152381D01*
X44380952Y-34152381D01*
X44857143Y-34152381D01*
X45619048Y-34628571D02*
X45285714Y-34628571D01*
X45285714Y-35152381D02*
X45285714Y-34152381D01*
X45761905Y-34152381D01*
X46666667Y-35152381D02*
X46095238Y-35152381D01*
X46380952Y-35152381D02*
X46380952Y-34152381D01*
X46285714Y-34295238D01*
X46190476Y-34390476D01*
X46095238Y-34438095D01*
X43952381Y-89152381D02*
X43619047Y-88676190D01*
X43380952Y-89152381D02*
X43380952Y-88152381D01*
X43761905Y-88152381D01*
X43857143Y-88200000D01*
X43904762Y-88247619D01*
X43952381Y-88342857D01*
X43952381Y-88485714D01*
X43904762Y-88580952D01*
X43857143Y-88628571D01*
X43761905Y-88676190D01*
X43380952Y-88676190D01*
X44380952Y-88628571D02*
X44714286Y-88628571D01*
X44857143Y-89152381D02*
X44380952Y-89152381D01*
X44380952Y-88152381D01*
X44857143Y-88152381D01*
X45619048Y-88628571D02*
X45285714Y-88628571D01*
X45285714Y-89152381D02*
X45285714Y-88152381D01*
X45761905Y-88152381D01*
X46571429Y-88485714D02*
X46571429Y-89152381D01*
X46333333Y-88104762D02*
X46095238Y-88819048D01*
X46714286Y-88819048D01*
X130952381Y-89152381D02*
X130619047Y-88676190D01*
X130380952Y-89152381D02*
X130380952Y-88152381D01*
X130761905Y-88152381D01*
X130857143Y-88200000D01*
X130904762Y-88247619D01*
X130952381Y-88342857D01*
X130952381Y-88485714D01*
X130904762Y-88580952D01*
X130857143Y-88628571D01*
X130761905Y-88676190D01*
X130380952Y-88676190D01*
X131380952Y-88628571D02*
X131714286Y-88628571D01*
X131857143Y-89152381D02*
X131380952Y-89152381D01*
X131380952Y-88152381D01*
X131857143Y-88152381D01*
X132619048Y-88628571D02*
X132285714Y-88628571D01*
X132285714Y-89152381D02*
X132285714Y-88152381D01*
X132761905Y-88152381D01*
X133047619Y-88152381D02*
X133666667Y-88152381D01*
X133333333Y-88533333D01*
X133476191Y-88533333D01*
X133571429Y-88580952D01*
X133619048Y-88628571D01*
X133666667Y-88723810D01*
X133666667Y-88961905D01*
X133619048Y-89057143D01*
X133571429Y-89104762D01*
X133476191Y-89152381D01*
X133190476Y-89152381D01*
X133095238Y-89104762D01*
X133047619Y-89057143D01*
X102719476Y-87066381D02*
X102719476Y-86066381D01*
X103100429Y-86066381D01*
X103195667Y-86114000D01*
X103243286Y-86161619D01*
X103290905Y-86256857D01*
X103290905Y-86399714D01*
X103243286Y-86494952D01*
X103195667Y-86542571D01*
X103100429Y-86590190D01*
X102719476Y-86590190D01*
X103909952Y-86066381D02*
X104100429Y-86066381D01*
X104195667Y-86114000D01*
X104290905Y-86209238D01*
X104338524Y-86399714D01*
X104338524Y-86733048D01*
X104290905Y-86923524D01*
X104195667Y-87018762D01*
X104100429Y-87066381D01*
X103909952Y-87066381D01*
X103814714Y-87018762D01*
X103719476Y-86923524D01*
X103671857Y-86733048D01*
X103671857Y-86399714D01*
X103719476Y-86209238D01*
X103814714Y-86114000D01*
X103909952Y-86066381D01*
X104671857Y-86066381D02*
X104909952Y-87066381D01*
X105100429Y-86352095D01*
X105290905Y-87066381D01*
X105529000Y-86066381D01*
X105909952Y-86542571D02*
X106243286Y-86542571D01*
X106386143Y-87066381D02*
X105909952Y-87066381D01*
X105909952Y-86066381D01*
X106386143Y-86066381D01*
X107386143Y-87066381D02*
X107052809Y-86590190D01*
X106814714Y-87066381D02*
X106814714Y-86066381D01*
X107195667Y-86066381D01*
X107290905Y-86114000D01*
X107338524Y-86161619D01*
X107386143Y-86256857D01*
X107386143Y-86399714D01*
X107338524Y-86494952D01*
X107290905Y-86542571D01*
X107195667Y-86590190D01*
X106814714Y-86590190D01*
X129230381Y-71373809D02*
X129230381Y-71850000D01*
X128230381Y-71850000D01*
X129230381Y-71040476D02*
X128563714Y-71040476D01*
X128230381Y-71040476D02*
X128278000Y-71088095D01*
X128325619Y-71040476D01*
X128278000Y-70992857D01*
X128230381Y-71040476D01*
X128325619Y-71040476D01*
X129230381Y-70564286D02*
X128563714Y-70564286D01*
X128658952Y-70564286D02*
X128611333Y-70516667D01*
X128563714Y-70421429D01*
X128563714Y-70278571D01*
X128611333Y-70183333D01*
X128706571Y-70135714D01*
X129230381Y-70135714D01*
X128706571Y-70135714D02*
X128611333Y-70088095D01*
X128563714Y-69992857D01*
X128563714Y-69850000D01*
X128611333Y-69754762D01*
X128706571Y-69707143D01*
X129230381Y-69707143D01*
X129230381Y-69230953D02*
X128563714Y-69230953D01*
X128230381Y-69230953D02*
X128278000Y-69278572D01*
X128325619Y-69230953D01*
X128278000Y-69183334D01*
X128230381Y-69230953D01*
X128325619Y-69230953D01*
X128563714Y-68897620D02*
X128563714Y-68516668D01*
X128230381Y-68754763D02*
X129087524Y-68754763D01*
X129182762Y-68707144D01*
X129230381Y-68611906D01*
X129230381Y-68516668D01*
X129182762Y-68230953D02*
X129230381Y-68135715D01*
X129230381Y-67945239D01*
X129182762Y-67850000D01*
X129087524Y-67802381D01*
X129039905Y-67802381D01*
X128944667Y-67850000D01*
X128897048Y-67945239D01*
X128897048Y-68088096D01*
X128849429Y-68183334D01*
X128754190Y-68230953D01*
X128706571Y-68230953D01*
X128611333Y-68183334D01*
X128563714Y-68088096D01*
X128563714Y-67945239D01*
X128611333Y-67850000D01*
X129230381Y-56657714D02*
X129230381Y-57133905D01*
X128230381Y-57133905D01*
X129230381Y-55895809D02*
X128706571Y-55895809D01*
X128611333Y-55943428D01*
X128563714Y-56038666D01*
X128563714Y-56229143D01*
X128611333Y-56324381D01*
X129182762Y-55895809D02*
X129230381Y-55991047D01*
X129230381Y-56229143D01*
X129182762Y-56324381D01*
X129087524Y-56372000D01*
X128992286Y-56372000D01*
X128897048Y-56324381D01*
X128849429Y-56229143D01*
X128849429Y-55991047D01*
X128801810Y-55895809D01*
X129182762Y-55467238D02*
X129230381Y-55372000D01*
X129230381Y-55181524D01*
X129182762Y-55086285D01*
X129087524Y-55038666D01*
X129039905Y-55038666D01*
X128944667Y-55086285D01*
X128897048Y-55181524D01*
X128897048Y-55324381D01*
X128849429Y-55419619D01*
X128754190Y-55467238D01*
X128706571Y-55467238D01*
X128611333Y-55419619D01*
X128563714Y-55324381D01*
X128563714Y-55181524D01*
X128611333Y-55086285D01*
X129182762Y-54229142D02*
X129230381Y-54324380D01*
X129230381Y-54514857D01*
X129182762Y-54610095D01*
X129087524Y-54657714D01*
X128706571Y-54657714D01*
X128611333Y-54610095D01*
X128563714Y-54514857D01*
X128563714Y-54324380D01*
X128611333Y-54229142D01*
X128706571Y-54181523D01*
X128801810Y-54181523D01*
X128897048Y-54657714D01*
X129230381Y-53752952D02*
X128563714Y-53752952D01*
X128754190Y-53752952D02*
X128658952Y-53705333D01*
X128611333Y-53657714D01*
X128563714Y-53562476D01*
X128563714Y-53467237D01*
X106775524Y-42632381D02*
X107442191Y-43632381D01*
X107442191Y-42632381D02*
X106775524Y-43632381D01*
X108585048Y-43632381D02*
X108585048Y-42632381D01*
X108918382Y-43346667D01*
X109251715Y-42632381D01*
X109251715Y-43632381D01*
X109918381Y-42632381D02*
X110108858Y-42632381D01*
X110204096Y-42680000D01*
X110299334Y-42775238D01*
X110346953Y-42965714D01*
X110346953Y-43299048D01*
X110299334Y-43489524D01*
X110204096Y-43584762D01*
X110108858Y-43632381D01*
X109918381Y-43632381D01*
X109823143Y-43584762D01*
X109727905Y-43489524D01*
X109680286Y-43299048D01*
X109680286Y-42965714D01*
X109727905Y-42775238D01*
X109823143Y-42680000D01*
X109918381Y-42632381D01*
X110632667Y-42632381D02*
X111204096Y-42632381D01*
X110918381Y-43632381D02*
X110918381Y-42632381D01*
X89328857Y-43156190D02*
X89328857Y-43632381D01*
X88995524Y-42632381D02*
X89328857Y-43156190D01*
X89662191Y-42632381D01*
X90757429Y-43632381D02*
X90757429Y-42632381D01*
X91090763Y-43346667D01*
X91424096Y-42632381D01*
X91424096Y-43632381D01*
X92090762Y-42632381D02*
X92281239Y-42632381D01*
X92376477Y-42680000D01*
X92471715Y-42775238D01*
X92519334Y-42965714D01*
X92519334Y-43299048D01*
X92471715Y-43489524D01*
X92376477Y-43584762D01*
X92281239Y-43632381D01*
X92090762Y-43632381D01*
X91995524Y-43584762D01*
X91900286Y-43489524D01*
X91852667Y-43299048D01*
X91852667Y-42965714D01*
X91900286Y-42775238D01*
X91995524Y-42680000D01*
X92090762Y-42632381D01*
X92805048Y-42632381D02*
X93376477Y-42632381D01*
X93090762Y-43632381D02*
X93090762Y-42632381D01*
X70762762Y-43965524D02*
X70810381Y-43822667D01*
X70810381Y-43584571D01*
X70762762Y-43489333D01*
X70715143Y-43441714D01*
X70619905Y-43394095D01*
X70524667Y-43394095D01*
X70429429Y-43441714D01*
X70381810Y-43489333D01*
X70334190Y-43584571D01*
X70286571Y-43775048D01*
X70238952Y-43870286D01*
X70191333Y-43917905D01*
X70096095Y-43965524D01*
X70000857Y-43965524D01*
X69905619Y-43917905D01*
X69858000Y-43870286D01*
X69810381Y-43775048D01*
X69810381Y-43536952D01*
X69858000Y-43394095D01*
X70286571Y-42965524D02*
X70286571Y-42632190D01*
X70810381Y-42489333D02*
X70810381Y-42965524D01*
X69810381Y-42965524D01*
X69810381Y-42489333D01*
X70810381Y-41489333D02*
X70334190Y-41822667D01*
X70810381Y-42060762D02*
X69810381Y-42060762D01*
X69810381Y-41679809D01*
X69858000Y-41584571D01*
X69905619Y-41536952D01*
X70000857Y-41489333D01*
X70143714Y-41489333D01*
X70238952Y-41536952D01*
X70286571Y-41584571D01*
X70334190Y-41679809D01*
X70334190Y-42060762D01*
X70810381Y-41060762D02*
X69810381Y-41060762D01*
X70524667Y-40632191D02*
X70524667Y-40156000D01*
X70810381Y-40727429D02*
X69810381Y-40394096D01*
X70810381Y-40060762D01*
X70810381Y-39251238D02*
X70810381Y-39727429D01*
X69810381Y-39727429D01*
M02*
