G04 #@! TF.FileFunction,Copper,L1,Top,Signal*
%FSLAX46Y46*%
G04 Gerber Fmt 4.6, Leading zero omitted, Abs format (unit mm)*
G04 Created by KiCad (PCBNEW 4.0.6) date Fri Sep  8 15:32:27 2017*
%MOMM*%
%LPD*%
G01*
G04 APERTURE LIST*
%ADD10C,0.100000*%
%ADD11R,1.600000X1.000000*%
%ADD12R,1.000000X1.600000*%
%ADD13R,3.599180X1.600200*%
%ADD14R,1.597660X1.800860*%
%ADD15R,1.600000X0.550000*%
%ADD16R,0.550000X1.600000*%
%ADD17R,1.727200X1.727200*%
%ADD18O,1.727200X1.727200*%
%ADD19R,1.700000X0.900000*%
%ADD20R,0.900000X1.700000*%
%ADD21R,1.270000X0.406400*%
%ADD22R,2.100580X5.600700*%
%ADD23R,1.550000X1.300000*%
%ADD24R,2.032000X3.657600*%
%ADD25R,2.032000X1.016000*%
%ADD26R,0.900000X1.200000*%
%ADD27C,1.520000*%
%ADD28C,2.700000*%
%ADD29C,1.600000*%
%ADD30C,8.600000*%
%ADD31C,0.700000*%
%ADD32R,3.000000X4.000000*%
%ADD33O,3.000000X4.000000*%
%ADD34R,2.600000X2.000000*%
%ADD35O,2.600000X2.000000*%
%ADD36R,2.000000X2.600000*%
%ADD37O,2.000000X2.600000*%
%ADD38R,1.700000X1.700000*%
%ADD39O,1.700000X1.700000*%
%ADD40C,0.600000*%
%ADD41C,1.200000*%
%ADD42C,0.300000*%
%ADD43C,0.800000*%
%ADD44C,0.254000*%
G04 APERTURE END LIST*
D10*
D11*
X66040000Y-85701000D03*
X66040000Y-82701000D03*
D12*
X61317000Y-70993000D03*
X58317000Y-70993000D03*
D11*
X61976000Y-82701000D03*
X61976000Y-85701000D03*
X61976000Y-78843000D03*
X61976000Y-75843000D03*
X89916000Y-83034000D03*
X89916000Y-80034000D03*
X89916000Y-73430000D03*
X89916000Y-76430000D03*
D12*
X70080000Y-54610000D03*
X67080000Y-54610000D03*
X70080000Y-57404000D03*
X67080000Y-57404000D03*
D11*
X66040000Y-78843000D03*
X66040000Y-75843000D03*
D13*
X102913180Y-55880000D03*
X108414820Y-55880000D03*
X79545180Y-55880000D03*
X85046820Y-55880000D03*
D14*
X44808140Y-73914000D03*
X47647860Y-73914000D03*
X44808140Y-69850000D03*
X47647860Y-69850000D03*
D15*
X79180000Y-87636000D03*
X79180000Y-86836000D03*
X79180000Y-86036000D03*
X79180000Y-85236000D03*
X79180000Y-84436000D03*
X79180000Y-83636000D03*
X79180000Y-82836000D03*
X79180000Y-82036000D03*
D16*
X77730000Y-80586000D03*
X76930000Y-80586000D03*
X76130000Y-80586000D03*
X75330000Y-80586000D03*
X74530000Y-80586000D03*
X73730000Y-80586000D03*
X72930000Y-80586000D03*
X72130000Y-80586000D03*
D15*
X70680000Y-82036000D03*
X70680000Y-82836000D03*
X70680000Y-83636000D03*
X70680000Y-84436000D03*
X70680000Y-85236000D03*
X70680000Y-86036000D03*
X70680000Y-86836000D03*
X70680000Y-87636000D03*
D16*
X72130000Y-89086000D03*
X72930000Y-89086000D03*
X73730000Y-89086000D03*
X74530000Y-89086000D03*
X75330000Y-89086000D03*
X76130000Y-89086000D03*
X76930000Y-89086000D03*
X77730000Y-89086000D03*
D17*
X72136000Y-75438000D03*
D18*
X72136000Y-72898000D03*
X74676000Y-75438000D03*
X74676000Y-72898000D03*
X77216000Y-75438000D03*
X77216000Y-72898000D03*
D17*
X119380000Y-58420000D03*
D18*
X116840000Y-58420000D03*
X119380000Y-55880000D03*
X116840000Y-55880000D03*
X119380000Y-53340000D03*
X116840000Y-53340000D03*
D17*
X95250000Y-58420000D03*
D18*
X92710000Y-58420000D03*
X95250000Y-55880000D03*
X92710000Y-55880000D03*
X95250000Y-53340000D03*
X92710000Y-53340000D03*
D19*
X57658000Y-85778000D03*
X57658000Y-82878000D03*
X61849000Y-88847000D03*
X61849000Y-91747000D03*
X57658000Y-88847000D03*
X57658000Y-91747000D03*
D20*
X50620000Y-73914000D03*
X53520000Y-73914000D03*
X50620000Y-69850000D03*
X53520000Y-69850000D03*
X67130000Y-64008000D03*
X70030000Y-64008000D03*
X67130000Y-60960000D03*
X70030000Y-60960000D03*
X67490000Y-70993000D03*
X64590000Y-70993000D03*
D17*
X113538000Y-72898000D03*
D18*
X116078000Y-72898000D03*
X113538000Y-75438000D03*
X116078000Y-75438000D03*
X113538000Y-77978000D03*
X116078000Y-77978000D03*
D21*
X57023000Y-55499000D03*
X57023000Y-56134000D03*
X57023000Y-56794400D03*
X57023000Y-57454800D03*
X57023000Y-58089800D03*
X57023000Y-58750200D03*
X57023000Y-59410600D03*
X57023000Y-60045600D03*
X57023000Y-60706000D03*
X57023000Y-61341000D03*
X62357000Y-61341000D03*
X62357000Y-60706000D03*
X62357000Y-60045600D03*
X62357000Y-59410600D03*
X62357000Y-58750200D03*
X62357000Y-58089800D03*
X62357000Y-57454800D03*
X62357000Y-56794400D03*
X62357000Y-56134000D03*
X62357000Y-55499000D03*
D22*
X85344000Y-73383140D03*
X85344000Y-83080860D03*
D23*
X45047000Y-82260000D03*
X45047000Y-77760000D03*
X52997000Y-77760000D03*
X52997000Y-82260000D03*
D24*
X103378000Y-70866000D03*
D25*
X96774000Y-70866000D03*
X96774000Y-73152000D03*
X96774000Y-68580000D03*
D26*
X61340000Y-50546000D03*
X58040000Y-50546000D03*
D27*
X50000000Y-56960000D03*
X50000000Y-59500000D03*
X48000000Y-59500000D03*
X48000000Y-56960000D03*
D28*
X45300000Y-52230000D03*
X45300000Y-64230000D03*
D29*
X119888000Y-49530000D03*
X117348000Y-49530000D03*
X114808000Y-49530000D03*
X112268000Y-49530000D03*
X109728000Y-49530000D03*
X107188000Y-49530000D03*
X104648000Y-49530000D03*
X102108000Y-49530000D03*
X102108000Y-62230000D03*
X104648000Y-62230000D03*
X107188000Y-62230000D03*
X109728000Y-62230000D03*
X112268000Y-62230000D03*
X114808000Y-62230000D03*
X117348000Y-62230000D03*
X119888000Y-62230000D03*
X95758000Y-49530000D03*
X93218000Y-49530000D03*
X90678000Y-49530000D03*
X88138000Y-49530000D03*
X85598000Y-49530000D03*
X83058000Y-49530000D03*
X80518000Y-49530000D03*
X77978000Y-49530000D03*
X77978000Y-62230000D03*
X80518000Y-62230000D03*
X83058000Y-62230000D03*
X85598000Y-62230000D03*
X88138000Y-62230000D03*
X90678000Y-62230000D03*
X93218000Y-62230000D03*
X95758000Y-62230000D03*
D30*
X132000000Y-40000000D03*
D31*
X135225000Y-40000000D03*
X134280419Y-42280419D03*
X132000000Y-43225000D03*
X129719581Y-42280419D03*
X128775000Y-40000000D03*
X129719581Y-37719581D03*
X132000000Y-36775000D03*
X134280419Y-37719581D03*
D30*
X45000000Y-40000000D03*
D31*
X48225000Y-40000000D03*
X47280419Y-42280419D03*
X45000000Y-43225000D03*
X42719581Y-42280419D03*
X41775000Y-40000000D03*
X42719581Y-37719581D03*
X45000000Y-36775000D03*
X47280419Y-37719581D03*
D30*
X45000000Y-94000000D03*
D31*
X48225000Y-94000000D03*
X47280419Y-96280419D03*
X45000000Y-97225000D03*
X42719581Y-96280419D03*
X41775000Y-94000000D03*
X42719581Y-91719581D03*
X45000000Y-90775000D03*
X47280419Y-91719581D03*
D30*
X132000000Y-94000000D03*
D31*
X135225000Y-94000000D03*
X134280419Y-96280419D03*
X132000000Y-97225000D03*
X129719581Y-96280419D03*
X128775000Y-94000000D03*
X129719581Y-91719581D03*
X132000000Y-90775000D03*
X134280419Y-91719581D03*
D32*
X110744000Y-92964000D03*
D33*
X106781600Y-92964000D03*
X102819200Y-92964000D03*
X98856800Y-92964000D03*
D34*
X133350000Y-74930000D03*
D35*
X133350000Y-72390000D03*
X133350000Y-69850000D03*
X133350000Y-67310000D03*
X133350000Y-64770000D03*
D34*
X133350000Y-57404000D03*
D35*
X133350000Y-54864000D03*
X133350000Y-52324000D03*
D36*
X112522000Y-38608000D03*
D37*
X109982000Y-38608000D03*
X107442000Y-38608000D03*
X104902000Y-38608000D03*
D36*
X94996000Y-38608000D03*
D37*
X92456000Y-38608000D03*
X89916000Y-38608000D03*
X87376000Y-38608000D03*
D38*
X59944000Y-42672000D03*
D39*
X59944000Y-40132000D03*
X62484000Y-42672000D03*
X62484000Y-40132000D03*
X65024000Y-42672000D03*
X65024000Y-40132000D03*
X67564000Y-42672000D03*
X67564000Y-40132000D03*
D40*
X69036200Y-84436000D03*
X63331500Y-73824400D03*
D41*
X99868400Y-68575400D03*
D40*
X75483900Y-87617800D03*
X58168200Y-55777500D03*
X61303200Y-74319900D03*
X71967100Y-79272800D03*
X73730000Y-81906500D03*
X70628000Y-77494500D03*
X66608600Y-81068300D03*
X77153300Y-85792800D03*
X82042900Y-74350000D03*
X65557600Y-70993000D03*
X75430900Y-79284700D03*
X100905100Y-78672900D03*
X61081500Y-61341000D03*
X60128200Y-59214500D03*
X61664200Y-92730300D03*
X97004600Y-77518900D03*
X76315700Y-86448900D03*
X76831800Y-87711000D03*
X56688100Y-54676900D03*
X61211500Y-55499000D03*
X72930000Y-79281800D03*
X75706600Y-67493100D03*
X74656000Y-87752200D03*
X62934000Y-90822000D03*
D42*
X66040000Y-85701000D02*
X67190300Y-85701000D01*
X103378000Y-70866000D02*
X103378000Y-71400100D01*
X116078000Y-72898000D02*
X114864100Y-72898000D01*
X61976000Y-85701000D02*
X66040000Y-85701000D01*
X89916000Y-79608800D02*
X89916000Y-79183700D01*
X89916000Y-79608800D02*
X89916000Y-80034000D01*
X89916000Y-80034000D02*
X89916000Y-80884300D01*
X57023000Y-58750200D02*
X58008300Y-58750200D01*
X131191700Y-75438000D02*
X131699700Y-74930000D01*
X116078000Y-75438000D02*
X131191700Y-75438000D01*
X133350000Y-74930000D02*
X131699700Y-74930000D01*
X59944000Y-42672000D02*
X59944000Y-43872300D01*
X55927500Y-58750200D02*
X57023000Y-58750200D01*
X55537300Y-58360000D02*
X55927500Y-58750200D01*
X67080000Y-57404000D02*
X67080000Y-56253700D01*
X62357000Y-58089800D02*
X63342300Y-58089800D01*
X67080000Y-54610000D02*
X66229700Y-54610000D01*
X45300000Y-55834800D02*
X45300000Y-52230000D01*
X48482600Y-59017400D02*
X45300000Y-55834800D01*
X49140000Y-58360000D02*
X48482600Y-59017400D01*
X55537300Y-58360000D02*
X49140000Y-58360000D01*
X48482600Y-59017400D02*
X48000000Y-59500000D01*
X45047000Y-77760000D02*
X45047000Y-76759700D01*
X46478200Y-65408200D02*
X46478200Y-75328500D01*
X45300000Y-64230000D02*
X46478200Y-65408200D01*
X46478200Y-75328500D02*
X45047000Y-76759700D01*
X55537300Y-48279000D02*
X55537300Y-58360000D01*
X59944000Y-43872300D02*
X55537300Y-48279000D01*
X63342300Y-58089800D02*
X63342300Y-54805700D01*
X63342300Y-54805700D02*
X66210800Y-54805700D01*
X66229700Y-54786800D02*
X66210800Y-54805700D01*
X66229700Y-54610000D02*
X66229700Y-54786800D01*
X66904900Y-56253700D02*
X67080000Y-56253700D01*
X66210800Y-55559600D02*
X66904900Y-56253700D01*
X66210800Y-54805700D02*
X66210800Y-55559600D01*
X79180000Y-86036000D02*
X80330300Y-86036000D01*
X90358200Y-80884300D02*
X89916000Y-80884300D01*
X91602700Y-82128800D02*
X90358200Y-80884300D01*
X91602700Y-83866000D02*
X91602700Y-82128800D01*
X88722800Y-86745900D02*
X91602700Y-83866000D01*
X81040200Y-86745900D02*
X88722800Y-86745900D01*
X80330300Y-86036000D02*
X81040200Y-86745900D01*
X52997000Y-77760000D02*
X52997000Y-76759700D01*
X96774000Y-70866000D02*
X98140300Y-70866000D01*
X89916000Y-76430000D02*
X89916000Y-75579700D01*
X114313500Y-71400100D02*
X103378000Y-71400100D01*
X114864100Y-71950700D02*
X114313500Y-71400100D01*
X114864100Y-72898000D02*
X114864100Y-71950700D01*
X103378000Y-71400100D02*
X98140300Y-71400100D01*
X98140300Y-73814500D02*
X98140300Y-71400100D01*
X96375100Y-75579700D02*
X98140300Y-73814500D01*
X89916000Y-75579700D02*
X96375100Y-75579700D01*
X98140300Y-71400100D02*
X98140300Y-70866000D01*
X79180000Y-86036000D02*
X78029700Y-86036000D01*
X70680000Y-85236000D02*
X71830300Y-85236000D01*
X89916000Y-77280300D02*
X89916000Y-79183700D01*
X89916000Y-76430000D02*
X89916000Y-77280300D01*
X67190300Y-85701000D02*
X67655300Y-85236000D01*
X67655300Y-85236000D02*
X70680000Y-85236000D01*
X79180000Y-84436000D02*
X78029700Y-84436000D01*
X51565800Y-75328500D02*
X52997000Y-76759700D01*
X46478200Y-75328500D02*
X51565800Y-75328500D01*
X58317000Y-70993000D02*
X59167300Y-70993000D01*
X59167300Y-70993000D02*
X59167300Y-76693300D01*
X53063400Y-76693300D02*
X59167300Y-76693300D01*
X52997000Y-76759700D02*
X53063400Y-76693300D01*
X66040000Y-75843000D02*
X66040000Y-76693300D01*
X67219100Y-77872400D02*
X66040000Y-76693300D01*
X67219100Y-79698200D02*
X67219100Y-77872400D01*
X64639900Y-79698200D02*
X67219100Y-79698200D01*
X61635000Y-76693300D02*
X64639900Y-79698200D01*
X59167300Y-76693300D02*
X61635000Y-76693300D01*
X67655300Y-80134400D02*
X67655300Y-85236000D01*
X67219100Y-79698200D02*
X67655300Y-80134400D01*
X66920800Y-74111900D02*
X66040000Y-74992700D01*
X75243500Y-74111900D02*
X66920800Y-74111900D01*
X76002100Y-73353300D02*
X75243500Y-74111900D01*
X76002100Y-72898000D02*
X76002100Y-73353300D01*
X77216000Y-72898000D02*
X76002100Y-72898000D01*
X66040000Y-75843000D02*
X66040000Y-74992700D01*
X71929600Y-85136700D02*
X71830300Y-85236000D01*
X77866600Y-85136700D02*
X71929600Y-85136700D01*
X78029700Y-85299800D02*
X77866600Y-85136700D01*
X78029700Y-86036000D02*
X78029700Y-85299800D01*
X77866600Y-84599100D02*
X78029700Y-84436000D01*
X77866600Y-85136700D02*
X77866600Y-84599100D01*
X60975700Y-54805700D02*
X63342300Y-54805700D01*
X58008300Y-57773100D02*
X60975700Y-54805700D01*
X58008300Y-58750200D02*
X58008300Y-57773100D01*
D43*
X104648000Y-50612800D02*
X108414800Y-54379600D01*
X104648000Y-49530000D02*
X104648000Y-50612800D01*
X108414800Y-55880000D02*
X108414800Y-54379600D01*
X111172400Y-51622000D02*
X108414800Y-54379600D01*
X117796000Y-51622000D02*
X111172400Y-51622000D01*
X119888000Y-49530000D02*
X117796000Y-51622000D01*
X85046800Y-55880000D02*
X85046800Y-54379600D01*
X80518000Y-49530000D02*
X85207200Y-54219200D01*
X87804400Y-51622000D02*
X85207200Y-54219200D01*
X93666000Y-51622000D02*
X87804400Y-51622000D01*
X95758000Y-49530000D02*
X93666000Y-51622000D01*
X85207200Y-54219200D02*
X85046800Y-54379600D01*
D42*
X61650400Y-72143300D02*
X61317000Y-72143300D01*
X63331500Y-73824400D02*
X61650400Y-72143300D01*
X61317000Y-70993000D02*
X61317000Y-72143300D01*
X70680000Y-84436000D02*
X69036200Y-84436000D01*
D43*
X77978000Y-52812400D02*
X79545200Y-54379600D01*
X77978000Y-49530000D02*
X77978000Y-52812400D01*
X102913200Y-55880000D02*
X102913200Y-57380400D01*
X79545200Y-55129800D02*
X79545200Y-54379600D01*
X79545200Y-55129800D02*
X79545200Y-55880000D01*
X79545200Y-55880000D02*
X79545200Y-57380400D01*
X100286400Y-60007200D02*
X102913200Y-57380400D01*
X82172000Y-60007200D02*
X100286400Y-60007200D01*
X79545200Y-57380400D02*
X82172000Y-60007200D01*
X96774000Y-68580000D02*
X98490300Y-68580000D01*
X102108000Y-53574400D02*
X102913200Y-54379600D01*
X102108000Y-49530000D02*
X102108000Y-53574400D01*
X102913200Y-55880000D02*
X102913200Y-54379600D01*
X99863800Y-68580000D02*
X99868400Y-68575400D01*
X98490300Y-68580000D02*
X99863800Y-68580000D01*
D42*
X75330000Y-87771700D02*
X75330000Y-89086000D01*
X75483900Y-87617800D02*
X75330000Y-87771700D01*
X61976000Y-75843000D02*
X61976000Y-74992700D01*
X61303200Y-74319900D02*
X61976000Y-74992700D01*
X58008300Y-55617600D02*
X58168200Y-55777500D01*
X58008300Y-55499000D02*
X58008300Y-55617600D01*
X57023000Y-55499000D02*
X58008300Y-55499000D01*
X86791500Y-83034000D02*
X89916000Y-83034000D01*
X86744600Y-83080900D02*
X86791500Y-83034000D01*
X85344000Y-83080900D02*
X86744600Y-83080900D01*
X83698500Y-82836000D02*
X83943400Y-83080900D01*
X79180000Y-82836000D02*
X83698500Y-82836000D01*
X85344000Y-83080900D02*
X83943400Y-83080900D01*
X89916000Y-73430000D02*
X88765700Y-73430000D01*
X79180000Y-82036000D02*
X80330300Y-82036000D01*
X86766200Y-73430000D02*
X88765700Y-73430000D01*
X86744600Y-73408400D02*
X86766200Y-73430000D01*
X86744600Y-73383100D02*
X86744600Y-73408400D01*
X85344000Y-73383100D02*
X86744600Y-73383100D01*
X86766200Y-73648300D02*
X86766200Y-73430000D01*
X80330300Y-80084200D02*
X86766200Y-73648300D01*
X80330300Y-82036000D02*
X80330300Y-80084200D01*
X72130000Y-80586000D02*
X72130000Y-79435700D01*
X71967100Y-79272800D02*
X72130000Y-79435700D01*
X70080000Y-54610000D02*
X69229700Y-54610000D01*
X73730000Y-80586000D02*
X73730000Y-79435700D01*
X69229700Y-54610000D02*
X69229700Y-64008000D01*
X70030000Y-64008000D02*
X69229700Y-64008000D01*
X70030000Y-64008000D02*
X70830300Y-64008000D01*
X73730000Y-81906500D02*
X73730000Y-80586000D01*
X73730000Y-79068600D02*
X73730000Y-79435700D01*
X76002100Y-76796500D02*
X73730000Y-79068600D01*
X76002100Y-74935200D02*
X76002100Y-76796500D01*
X76713200Y-74224100D02*
X76002100Y-74935200D01*
X77729000Y-74224100D02*
X76713200Y-74224100D01*
X78434900Y-73518200D02*
X77729000Y-74224100D01*
X78434900Y-71877700D02*
X78434900Y-73518200D01*
X70830300Y-64273100D02*
X78434900Y-71877700D01*
X70830300Y-64008000D02*
X70830300Y-64273100D01*
X70080000Y-59709700D02*
X70080000Y-57404000D01*
X70030000Y-59759700D02*
X70080000Y-59709700D01*
X74530000Y-80586000D02*
X74530000Y-79435700D01*
X70030000Y-60359800D02*
X70030000Y-59759700D01*
X70030000Y-60359800D02*
X70030000Y-60960000D01*
X70030000Y-60960000D02*
X70030000Y-62160300D01*
X74530000Y-79219900D02*
X74530000Y-79435700D01*
X75489000Y-78260900D02*
X74530000Y-79219900D01*
X76153200Y-78260900D02*
X75489000Y-78260900D01*
X80089800Y-74324300D02*
X76153200Y-78260900D01*
X80089800Y-72825100D02*
X80089800Y-74324300D01*
X75056300Y-67791600D02*
X80089800Y-72825100D01*
X75056300Y-67186600D02*
X75056300Y-67791600D01*
X70030000Y-62160300D02*
X75056300Y-67186600D01*
X86029900Y-66885000D02*
X80089800Y-72825100D01*
X114333700Y-66885000D02*
X86029900Y-66885000D01*
X118737600Y-62481100D02*
X114333700Y-66885000D01*
X118737600Y-61725900D02*
X118737600Y-62481100D01*
X119402500Y-61061000D02*
X118737600Y-61725900D01*
X124561000Y-61061000D02*
X119402500Y-61061000D01*
X133350000Y-69850000D02*
X124561000Y-61061000D01*
X64673600Y-76626300D02*
X66040000Y-77992700D01*
X64673600Y-73652500D02*
X64673600Y-76626300D01*
X63342300Y-72321200D02*
X64673600Y-73652500D01*
X63342300Y-60045600D02*
X63342300Y-72321200D01*
X62357000Y-60045600D02*
X63342300Y-60045600D01*
X66040000Y-78843000D02*
X66040000Y-77992700D01*
X72136000Y-72898000D02*
X70922100Y-72898000D01*
X44808100Y-69850000D02*
X44808100Y-73914000D01*
X44808100Y-73914000D02*
X44808100Y-75164700D01*
X61340000Y-50546000D02*
X61740200Y-50546000D01*
X57023000Y-56794400D02*
X58008300Y-56794400D01*
X67130000Y-60359800D02*
X67130000Y-59759700D01*
X67130000Y-60359800D02*
X67130000Y-60960000D01*
X67130000Y-58750200D02*
X67130000Y-59759700D01*
X67130000Y-58750200D02*
X62357000Y-58750200D01*
X67576200Y-58750200D02*
X67130000Y-58750200D01*
X67939700Y-58386700D02*
X67576200Y-58750200D01*
X67939700Y-53658200D02*
X67939700Y-58386700D01*
X73357400Y-48240500D02*
X67939700Y-53658200D01*
X91928500Y-48240500D02*
X73357400Y-48240500D01*
X93218000Y-49530000D02*
X91928500Y-48240500D01*
X70680000Y-82836000D02*
X69529700Y-82836000D01*
X116033600Y-48215600D02*
X117348000Y-49530000D01*
X101588300Y-48215600D02*
X116033600Y-48215600D01*
X96463900Y-53340000D02*
X101588300Y-48215600D01*
X95250000Y-53340000D02*
X96463900Y-53340000D01*
X67504200Y-53222700D02*
X67939700Y-53658200D01*
X61740200Y-53222700D02*
X67504200Y-53222700D01*
X61740200Y-53222700D02*
X61740200Y-50546000D01*
X80330300Y-83636000D02*
X80330300Y-85236000D01*
X79180000Y-83636000D02*
X80330300Y-83636000D01*
X79180000Y-85236000D02*
X80330300Y-85236000D01*
X81339900Y-86245600D02*
X80330300Y-85236000D01*
X88515600Y-86245600D02*
X81339900Y-86245600D01*
X91102400Y-83658800D02*
X88515600Y-86245600D01*
X91102400Y-82397600D02*
X91102400Y-83658800D01*
X90775400Y-82070600D02*
X91102400Y-82397600D01*
X90150900Y-82070600D02*
X90775400Y-82070600D01*
X88765600Y-80685300D02*
X90150900Y-82070600D01*
X88765600Y-75769500D02*
X88765600Y-80685300D01*
X90254700Y-74280400D02*
X88765600Y-75769500D01*
X94279300Y-74280400D02*
X90254700Y-74280400D01*
X95407700Y-73152000D02*
X94279300Y-74280400D01*
X96774000Y-73152000D02*
X95407700Y-73152000D01*
X77229700Y-82836000D02*
X70680000Y-82836000D01*
X78029700Y-83636000D02*
X77229700Y-82836000D01*
X79180000Y-83636000D02*
X78029700Y-83636000D01*
X69017100Y-70993000D02*
X70922100Y-72898000D01*
X67490000Y-70993000D02*
X69017100Y-70993000D01*
X61976000Y-82701000D02*
X63126300Y-82701000D01*
X66040000Y-82701000D02*
X63126300Y-82701000D01*
X46608900Y-85778000D02*
X57658000Y-85778000D01*
X43921600Y-83090700D02*
X46608900Y-85778000D01*
X43921600Y-79262400D02*
X43921600Y-83090700D01*
X43921500Y-79262400D02*
X43921600Y-79262400D01*
X43421300Y-78762200D02*
X43921500Y-79262400D01*
X43421300Y-76551500D02*
X43421300Y-78762200D01*
X44808100Y-75164700D02*
X43421300Y-76551500D01*
X59749300Y-85778000D02*
X61976000Y-83551300D01*
X57658000Y-85778000D02*
X59749300Y-85778000D01*
X61976000Y-82701000D02*
X61976000Y-83551300D01*
X69529700Y-78592800D02*
X69529700Y-82836000D01*
X70628000Y-77494500D02*
X69529700Y-78592800D01*
X66040000Y-81636900D02*
X66040000Y-82701000D01*
X66608600Y-81068300D02*
X66040000Y-81636900D01*
X67130000Y-60960000D02*
X67130000Y-64008000D01*
X67130000Y-69432700D02*
X67490000Y-69792700D01*
X67130000Y-64008000D02*
X67130000Y-69432700D01*
X67490000Y-70993000D02*
X67490000Y-69792700D01*
X58168500Y-56794400D02*
X61740200Y-53222700D01*
X58008300Y-56794400D02*
X58168500Y-56794400D01*
X50620000Y-73914000D02*
X47647900Y-73914000D01*
X50620000Y-69850000D02*
X47647900Y-69850000D01*
X77153300Y-86759600D02*
X78029700Y-87636000D01*
X77153300Y-85792800D02*
X77153300Y-86759600D01*
X79180000Y-87636000D02*
X78029700Y-87636000D01*
X77886300Y-79435700D02*
X77730000Y-79435700D01*
X83495300Y-73826700D02*
X77886300Y-79435700D01*
X83495300Y-70833700D02*
X83495300Y-73826700D01*
X86943600Y-67385400D02*
X83495300Y-70833700D01*
X114732600Y-67385400D02*
X86943600Y-67385400D01*
X119888000Y-62230000D02*
X114732600Y-67385400D01*
X77730000Y-80586000D02*
X77730000Y-79435700D01*
X76957200Y-79435700D02*
X76930000Y-79435700D01*
X82042900Y-74350000D02*
X76957200Y-79435700D01*
X76930000Y-80586000D02*
X76930000Y-79435700D01*
X79130600Y-63382600D02*
X77978000Y-62230000D01*
X100955400Y-63382600D02*
X79130600Y-63382600D01*
X102108000Y-62230000D02*
X100955400Y-63382600D01*
X64590000Y-70993000D02*
X65390300Y-70993000D01*
X75330000Y-80586000D02*
X75330000Y-79435700D01*
X65390300Y-70993000D02*
X65557600Y-70993000D01*
X75430900Y-79334800D02*
X75330000Y-79435700D01*
X75430900Y-79284700D02*
X75430900Y-79334800D01*
X70544900Y-90236300D02*
X76130000Y-90236300D01*
X69155600Y-88847000D02*
X70544900Y-90236300D01*
X61849000Y-88847000D02*
X69155600Y-88847000D01*
X76130000Y-89086000D02*
X76130000Y-90236300D01*
X76930000Y-89086000D02*
X76930000Y-90236300D01*
X57658000Y-88847000D02*
X57658000Y-89647300D01*
X76429600Y-90736700D02*
X76930000Y-90236300D01*
X70087800Y-90736700D02*
X76429600Y-90736700D01*
X68998400Y-89647300D02*
X70087800Y-90736700D01*
X57658000Y-89647300D02*
X68998400Y-89647300D01*
X90492000Y-89086000D02*
X77730000Y-89086000D01*
X100905100Y-78672900D02*
X90492000Y-89086000D01*
X62357000Y-61341000D02*
X61371700Y-61341000D01*
X61371700Y-61341000D02*
X61081500Y-61341000D01*
X61371700Y-60458000D02*
X61371700Y-60706000D01*
X60128200Y-59214500D02*
X61371700Y-60458000D01*
X62357000Y-60706000D02*
X61371700Y-60706000D01*
X113538000Y-58420000D02*
X116840000Y-58420000D01*
X109728000Y-62230000D02*
X113538000Y-58420000D01*
X116840000Y-53340000D02*
X115626100Y-53340000D01*
X107540300Y-59337700D02*
X104648000Y-62230000D01*
X109628400Y-59337700D02*
X107540300Y-59337700D01*
X115626100Y-53340000D02*
X109628400Y-59337700D01*
X61847200Y-92547300D02*
X61849000Y-92547300D01*
X61664200Y-92730300D02*
X61847200Y-92547300D01*
X61849000Y-91747000D02*
X61849000Y-92547300D01*
X52719700Y-64659000D02*
X52719700Y-73914000D01*
X56037700Y-61341000D02*
X52719700Y-64659000D01*
X57023000Y-61341000D02*
X56037700Y-61341000D01*
X53520000Y-73914000D02*
X52719700Y-73914000D01*
X62357000Y-57454800D02*
X61371700Y-57454800D01*
X53520000Y-69850000D02*
X54320300Y-69850000D01*
X59327800Y-64842500D02*
X54320300Y-69850000D01*
X59327800Y-59095300D02*
X59327800Y-64842500D01*
X60968300Y-57454800D02*
X59327800Y-59095300D01*
X61371700Y-57454800D02*
X60968300Y-57454800D01*
X114808000Y-62230000D02*
X112268000Y-62230000D01*
X90678000Y-62230000D02*
X88138000Y-62230000D01*
X70680000Y-86836000D02*
X71830300Y-86836000D01*
X107703200Y-77518900D02*
X97004600Y-77518900D01*
X112324100Y-72898000D02*
X107703200Y-77518900D01*
X113538000Y-72898000D02*
X112324100Y-72898000D01*
X72217400Y-86448900D02*
X76315700Y-86448900D01*
X71830300Y-86836000D02*
X72217400Y-86448900D01*
X113538000Y-75438000D02*
X112324100Y-75438000D01*
X96514100Y-91248000D02*
X112324100Y-75438000D01*
X69891600Y-91248000D02*
X96514100Y-91248000D01*
X68815300Y-90171700D02*
X69891600Y-91248000D01*
X57184100Y-90171700D02*
X68815300Y-90171700D01*
X56442700Y-89430300D02*
X57184100Y-90171700D01*
X56442700Y-88263900D02*
X56442700Y-89430300D01*
X57070600Y-87636000D02*
X56442700Y-88263900D01*
X70680000Y-87636000D02*
X57070600Y-87636000D01*
X73109300Y-86956400D02*
X72130000Y-87935700D01*
X75896700Y-86956400D02*
X73109300Y-86956400D01*
X76651300Y-87711000D02*
X75896700Y-86956400D01*
X76831800Y-87711000D02*
X76651300Y-87711000D01*
X72130000Y-89086000D02*
X72130000Y-87935700D01*
X70680000Y-79585700D02*
X70680000Y-82036000D01*
X73613800Y-76651900D02*
X70680000Y-79585700D01*
X74676000Y-76651900D02*
X73613800Y-76651900D01*
X74676000Y-75438000D02*
X74676000Y-76651900D01*
X58040000Y-50546000D02*
X58040000Y-51496300D01*
X56688100Y-52848200D02*
X56688100Y-54676900D01*
X58040000Y-51496300D02*
X56688100Y-52848200D01*
X62357000Y-55499000D02*
X61371700Y-55499000D01*
X61371700Y-55499000D02*
X61211500Y-55499000D01*
X45047000Y-82260000D02*
X52997000Y-82260000D01*
X57658000Y-82878000D02*
X57658000Y-82477800D01*
X54340100Y-82477800D02*
X54122300Y-82260000D01*
X57658000Y-82477800D02*
X54340100Y-82477800D01*
X52997000Y-82260000D02*
X54122300Y-82260000D01*
X60825700Y-79310100D02*
X57658000Y-82477800D01*
X60825700Y-78843000D02*
X60825700Y-79310100D01*
X61976000Y-78843000D02*
X60825700Y-78843000D01*
X67564000Y-40132000D02*
X66363700Y-40132000D01*
X45047000Y-82260000D02*
X45047000Y-81259700D01*
X45046900Y-81259700D02*
X45047000Y-81259700D01*
X45046900Y-79606600D02*
X45046900Y-81259700D01*
X44200600Y-78760300D02*
X45046900Y-79606600D01*
X44126900Y-78760300D02*
X44200600Y-78760300D01*
X43921700Y-78555100D02*
X44126900Y-78760300D01*
X43921700Y-76913600D02*
X43921700Y-78555100D01*
X45670600Y-75164700D02*
X43921700Y-76913600D01*
X45752000Y-75164700D02*
X45670600Y-75164700D01*
X45957200Y-74959500D02*
X45752000Y-75164700D01*
X45957200Y-68592300D02*
X45957200Y-74959500D01*
X43593200Y-66228300D02*
X45957200Y-68592300D01*
X43593200Y-51474300D02*
X43593200Y-66228300D01*
X56142400Y-38925100D02*
X43593200Y-51474300D01*
X65531900Y-38925100D02*
X56142400Y-38925100D01*
X66363700Y-39756900D02*
X65531900Y-38925100D01*
X66363700Y-40132000D02*
X66363700Y-39756900D01*
X72930000Y-79281800D02*
X72930000Y-80586000D01*
X76865700Y-66334000D02*
X75706600Y-67493100D01*
X102206900Y-66334000D02*
X76865700Y-66334000D01*
X105918000Y-62622900D02*
X102206900Y-66334000D01*
X105918000Y-61865200D02*
X105918000Y-62622900D01*
X106944500Y-60838700D02*
X105918000Y-61865200D01*
X109492400Y-60838700D02*
X106944500Y-60838700D01*
X113231500Y-57099600D02*
X109492400Y-60838700D01*
X128574400Y-57099600D02*
X113231500Y-57099600D01*
X133350000Y-52324000D02*
X128574400Y-57099600D01*
X73913500Y-87752200D02*
X73730000Y-87935700D01*
X74656000Y-87752200D02*
X73913500Y-87752200D01*
X73730000Y-89086000D02*
X73730000Y-87935700D01*
X57658000Y-91747000D02*
X57658000Y-90946700D01*
X57782700Y-90822000D02*
X57658000Y-90946700D01*
X62934000Y-90822000D02*
X57782700Y-90822000D01*
X56037700Y-50886000D02*
X56037700Y-57454800D01*
X63823700Y-43100000D02*
X56037700Y-50886000D01*
X63823700Y-42157400D02*
X63823700Y-43100000D01*
X64648800Y-41332300D02*
X63823700Y-42157400D01*
X65024000Y-41332300D02*
X64648800Y-41332300D01*
X65024000Y-40132000D02*
X65024000Y-41332300D01*
X57023000Y-57454800D02*
X56037700Y-57454800D01*
D44*
G36*
X129208199Y-35813871D02*
X127818750Y-37200897D01*
X127065859Y-39014061D01*
X127064146Y-40977325D01*
X127813871Y-42791801D01*
X129200897Y-44181250D01*
X131014061Y-44934141D01*
X132977325Y-44935854D01*
X134791801Y-44186129D01*
X136181250Y-42799103D01*
X136315000Y-42476997D01*
X136315000Y-91520091D01*
X136186129Y-91208199D01*
X134799103Y-89818750D01*
X132985939Y-89065859D01*
X131022675Y-89064146D01*
X129208199Y-89813871D01*
X127818750Y-91200897D01*
X127065859Y-93014061D01*
X127064146Y-94977325D01*
X127813871Y-96791801D01*
X129200897Y-98181250D01*
X129523003Y-98315000D01*
X47479909Y-98315000D01*
X47791801Y-98186129D01*
X49181250Y-96799103D01*
X49934141Y-94985939D01*
X49935854Y-93022675D01*
X49186129Y-91208199D01*
X47799103Y-89818750D01*
X45985939Y-89065859D01*
X44022675Y-89064146D01*
X42208199Y-89813871D01*
X40818750Y-91200897D01*
X40685000Y-91523003D01*
X40685000Y-76551500D01*
X42636300Y-76551500D01*
X42636300Y-78762200D01*
X42696055Y-79062607D01*
X42866221Y-79317279D01*
X43136600Y-79587658D01*
X43136600Y-83090700D01*
X43196355Y-83391107D01*
X43366521Y-83645779D01*
X46053821Y-86333079D01*
X46308493Y-86503245D01*
X46608900Y-86563000D01*
X56268982Y-86563000D01*
X56343910Y-86679441D01*
X56556110Y-86824431D01*
X56808000Y-86875440D01*
X56947733Y-86875440D01*
X56770194Y-86910755D01*
X56515521Y-87080921D01*
X55887621Y-87708821D01*
X55717455Y-87963493D01*
X55707924Y-88011407D01*
X55657700Y-88263900D01*
X55657700Y-89430300D01*
X55717455Y-89730707D01*
X55887621Y-89985379D01*
X56592375Y-90690133D01*
X56572683Y-90693838D01*
X56356559Y-90832910D01*
X56211569Y-91045110D01*
X56160560Y-91297000D01*
X56160560Y-92197000D01*
X56204838Y-92432317D01*
X56343910Y-92648441D01*
X56556110Y-92793431D01*
X56808000Y-92844440D01*
X58508000Y-92844440D01*
X58743317Y-92800162D01*
X58959441Y-92661090D01*
X59104431Y-92448890D01*
X59155440Y-92197000D01*
X59155440Y-91607000D01*
X60351560Y-91607000D01*
X60351560Y-92197000D01*
X60395838Y-92432317D01*
X60534910Y-92648441D01*
X60729155Y-92781163D01*
X60729038Y-92915467D01*
X60871083Y-93259243D01*
X61133873Y-93522492D01*
X61477401Y-93665138D01*
X61849367Y-93665462D01*
X62193143Y-93523417D01*
X62456392Y-93260627D01*
X62599038Y-92917099D01*
X62599101Y-92844440D01*
X62699000Y-92844440D01*
X62934317Y-92800162D01*
X63150441Y-92661090D01*
X63295431Y-92448890D01*
X63346440Y-92197000D01*
X63346440Y-91663255D01*
X63462943Y-91615117D01*
X63726192Y-91352327D01*
X63868838Y-91008799D01*
X63868883Y-90956700D01*
X68490142Y-90956700D01*
X69336521Y-91803079D01*
X69591193Y-91973245D01*
X69891600Y-92033000D01*
X96514100Y-92033000D01*
X96808928Y-91974355D01*
X96721800Y-92412377D01*
X96721800Y-93515623D01*
X96884317Y-94332652D01*
X97347127Y-95025296D01*
X98039771Y-95488106D01*
X98856800Y-95650623D01*
X99673829Y-95488106D01*
X100366473Y-95025296D01*
X100829283Y-94332652D01*
X100838000Y-94288829D01*
X100846717Y-94332652D01*
X101309527Y-95025296D01*
X102002171Y-95488106D01*
X102819200Y-95650623D01*
X103636229Y-95488106D01*
X104328873Y-95025296D01*
X104791683Y-94332652D01*
X104812789Y-94226544D01*
X104857718Y-94398362D01*
X105361730Y-95063476D01*
X106081904Y-95485084D01*
X106322767Y-95549113D01*
X106654600Y-95436165D01*
X106654600Y-93091000D01*
X106634600Y-93091000D01*
X106634600Y-92837000D01*
X106654600Y-92837000D01*
X106654600Y-90491835D01*
X106908600Y-90491835D01*
X106908600Y-92837000D01*
X106928600Y-92837000D01*
X106928600Y-93091000D01*
X106908600Y-93091000D01*
X106908600Y-95436165D01*
X107240433Y-95549113D01*
X107481296Y-95485084D01*
X108201470Y-95063476D01*
X108596560Y-94542100D01*
X108596560Y-94964000D01*
X108640838Y-95199317D01*
X108779910Y-95415441D01*
X108992110Y-95560431D01*
X109244000Y-95611440D01*
X112244000Y-95611440D01*
X112479317Y-95567162D01*
X112695441Y-95428090D01*
X112840431Y-95215890D01*
X112891440Y-94964000D01*
X112891440Y-90964000D01*
X112847162Y-90728683D01*
X112708090Y-90512559D01*
X112495890Y-90367569D01*
X112244000Y-90316560D01*
X109244000Y-90316560D01*
X109008683Y-90360838D01*
X108792559Y-90499910D01*
X108647569Y-90712110D01*
X108596560Y-90964000D01*
X108596560Y-91385900D01*
X108201470Y-90864524D01*
X107481296Y-90442916D01*
X107240433Y-90378887D01*
X106908600Y-90491835D01*
X106654600Y-90491835D01*
X106322767Y-90378887D01*
X106081904Y-90442916D01*
X105361730Y-90864524D01*
X104857718Y-91529638D01*
X104812789Y-91701456D01*
X104791683Y-91595348D01*
X104328873Y-90902704D01*
X103636229Y-90439894D01*
X102819200Y-90277377D01*
X102002171Y-90439894D01*
X101309527Y-90902704D01*
X100846717Y-91595348D01*
X100838000Y-91639171D01*
X100829283Y-91595348D01*
X100366473Y-90902704D01*
X99673829Y-90439894D01*
X98856800Y-90277377D01*
X98529846Y-90342412D01*
X112419177Y-76453081D01*
X112448971Y-76497670D01*
X112763752Y-76708000D01*
X112448971Y-76918330D01*
X112124115Y-77404511D01*
X112010041Y-77978000D01*
X112124115Y-78551489D01*
X112448971Y-79037670D01*
X112935152Y-79362526D01*
X113508641Y-79476600D01*
X113567359Y-79476600D01*
X114140848Y-79362526D01*
X114627029Y-79037670D01*
X114807992Y-78766839D01*
X115189510Y-79184821D01*
X115718973Y-79432968D01*
X115951000Y-79312469D01*
X115951000Y-78105000D01*
X116205000Y-78105000D01*
X116205000Y-79312469D01*
X116437027Y-79432968D01*
X116966490Y-79184821D01*
X117360688Y-78752947D01*
X117532958Y-78337026D01*
X117411817Y-78105000D01*
X116205000Y-78105000D01*
X115951000Y-78105000D01*
X115931000Y-78105000D01*
X115931000Y-77851000D01*
X115951000Y-77851000D01*
X115951000Y-75565000D01*
X116205000Y-75565000D01*
X116205000Y-77851000D01*
X117411817Y-77851000D01*
X117532958Y-77618974D01*
X117360688Y-77203053D01*
X116966490Y-76771179D01*
X116831687Y-76708000D01*
X116966490Y-76644821D01*
X117360688Y-76212947D01*
X117532958Y-75797026D01*
X117411817Y-75565000D01*
X116205000Y-75565000D01*
X115951000Y-75565000D01*
X115931000Y-75565000D01*
X115931000Y-75311000D01*
X115951000Y-75311000D01*
X115951000Y-73025000D01*
X116205000Y-73025000D01*
X116205000Y-75311000D01*
X117411817Y-75311000D01*
X117461547Y-75215750D01*
X131415000Y-75215750D01*
X131415000Y-76056309D01*
X131511673Y-76289698D01*
X131690301Y-76468327D01*
X131923690Y-76565000D01*
X133064250Y-76565000D01*
X133223000Y-76406250D01*
X133223000Y-75057000D01*
X133477000Y-75057000D01*
X133477000Y-76406250D01*
X133635750Y-76565000D01*
X134776310Y-76565000D01*
X135009699Y-76468327D01*
X135188327Y-76289698D01*
X135285000Y-76056309D01*
X135285000Y-75215750D01*
X135126250Y-75057000D01*
X133477000Y-75057000D01*
X133223000Y-75057000D01*
X131573750Y-75057000D01*
X131415000Y-75215750D01*
X117461547Y-75215750D01*
X117532958Y-75078974D01*
X117360688Y-74663053D01*
X116966490Y-74231179D01*
X116831687Y-74168000D01*
X116966490Y-74104821D01*
X117360688Y-73672947D01*
X117532958Y-73257026D01*
X117411817Y-73025000D01*
X116205000Y-73025000D01*
X115951000Y-73025000D01*
X115931000Y-73025000D01*
X115931000Y-72771000D01*
X115951000Y-72771000D01*
X115951000Y-71563531D01*
X116205000Y-71563531D01*
X116205000Y-72771000D01*
X117411817Y-72771000D01*
X117532958Y-72538974D01*
X117360688Y-72123053D01*
X116966490Y-71691179D01*
X116437027Y-71443032D01*
X116205000Y-71563531D01*
X115951000Y-71563531D01*
X115718973Y-71443032D01*
X115189510Y-71691179D01*
X115019505Y-71877433D01*
X115004762Y-71799083D01*
X114865690Y-71582959D01*
X114653490Y-71437969D01*
X114401600Y-71386960D01*
X112674400Y-71386960D01*
X112439083Y-71431238D01*
X112222959Y-71570310D01*
X112077969Y-71782510D01*
X112026960Y-72034400D01*
X112026960Y-72172105D01*
X112023694Y-72172755D01*
X112023692Y-72172756D01*
X112023693Y-72172756D01*
X111769021Y-72342921D01*
X107378042Y-76733900D01*
X97542106Y-76733900D01*
X97534927Y-76726708D01*
X97191399Y-76584062D01*
X96819433Y-76583738D01*
X96475657Y-76725783D01*
X96212408Y-76988573D01*
X96069762Y-77332101D01*
X96069438Y-77704067D01*
X96211483Y-78047843D01*
X96474273Y-78311092D01*
X96817801Y-78453738D01*
X97189767Y-78454062D01*
X97533543Y-78312017D01*
X97541674Y-78303900D01*
X100045919Y-78303900D01*
X99970262Y-78486101D01*
X99970252Y-78497590D01*
X90166842Y-88301000D01*
X80482065Y-88301000D01*
X80576431Y-88162890D01*
X80627440Y-87911000D01*
X80627440Y-87361000D01*
X80603056Y-87231411D01*
X80627440Y-87111000D01*
X80627440Y-86643298D01*
X80784821Y-86800679D01*
X81039493Y-86970845D01*
X81339900Y-87030600D01*
X88515600Y-87030600D01*
X88816007Y-86970845D01*
X89070679Y-86800679D01*
X91657479Y-84213879D01*
X91827645Y-83959206D01*
X91887401Y-83658800D01*
X91887400Y-83658795D01*
X91887400Y-82397600D01*
X91827645Y-82097194D01*
X91657479Y-81842521D01*
X91330479Y-81515521D01*
X91075807Y-81345355D01*
X90775400Y-81285600D01*
X90476058Y-81285600D01*
X90359458Y-81169000D01*
X90842310Y-81169000D01*
X91075699Y-81072327D01*
X91254327Y-80893698D01*
X91351000Y-80660309D01*
X91351000Y-80319750D01*
X91192250Y-80161000D01*
X90043000Y-80161000D01*
X90043000Y-80181000D01*
X89789000Y-80181000D01*
X89789000Y-80161000D01*
X89769000Y-80161000D01*
X89769000Y-79907000D01*
X89789000Y-79907000D01*
X89789000Y-79057750D01*
X90043000Y-79057750D01*
X90043000Y-79907000D01*
X91192250Y-79907000D01*
X91351000Y-79748250D01*
X91351000Y-79407691D01*
X91254327Y-79174302D01*
X91075699Y-78995673D01*
X90842310Y-78899000D01*
X90201750Y-78899000D01*
X90043000Y-79057750D01*
X89789000Y-79057750D01*
X89630250Y-78899000D01*
X89550600Y-78899000D01*
X89550600Y-77565000D01*
X89630250Y-77565000D01*
X89789000Y-77406250D01*
X89789000Y-76557000D01*
X90043000Y-76557000D01*
X90043000Y-77406250D01*
X90201750Y-77565000D01*
X90842310Y-77565000D01*
X91075699Y-77468327D01*
X91254327Y-77289698D01*
X91351000Y-77056309D01*
X91351000Y-76715750D01*
X91192250Y-76557000D01*
X90043000Y-76557000D01*
X89789000Y-76557000D01*
X89769000Y-76557000D01*
X89769000Y-76303000D01*
X89789000Y-76303000D01*
X89789000Y-76283000D01*
X90043000Y-76283000D01*
X90043000Y-76303000D01*
X91192250Y-76303000D01*
X91351000Y-76144250D01*
X91351000Y-75803691D01*
X91254327Y-75570302D01*
X91075699Y-75391673D01*
X90842310Y-75295000D01*
X90350258Y-75295000D01*
X90579858Y-75065400D01*
X94279300Y-75065400D01*
X94579707Y-75005645D01*
X94834379Y-74835479D01*
X95451049Y-74218809D01*
X95506110Y-74256431D01*
X95758000Y-74307440D01*
X97790000Y-74307440D01*
X98025317Y-74263162D01*
X98241441Y-74124090D01*
X98386431Y-73911890D01*
X98437440Y-73660000D01*
X98437440Y-72644000D01*
X98393162Y-72408683D01*
X98254090Y-72192559D01*
X98041890Y-72047569D01*
X97851431Y-72009000D01*
X97916310Y-72009000D01*
X98149699Y-71912327D01*
X98328327Y-71733698D01*
X98425000Y-71500309D01*
X98425000Y-71151750D01*
X101727000Y-71151750D01*
X101727000Y-72821109D01*
X101823673Y-73054498D01*
X102002301Y-73233127D01*
X102235690Y-73329800D01*
X103092250Y-73329800D01*
X103251000Y-73171050D01*
X103251000Y-70993000D01*
X103505000Y-70993000D01*
X103505000Y-73171050D01*
X103663750Y-73329800D01*
X104520310Y-73329800D01*
X104753699Y-73233127D01*
X104932327Y-73054498D01*
X105029000Y-72821109D01*
X105029000Y-71151750D01*
X104870250Y-70993000D01*
X103505000Y-70993000D01*
X103251000Y-70993000D01*
X101885750Y-70993000D01*
X101727000Y-71151750D01*
X98425000Y-71151750D01*
X98266250Y-70993000D01*
X96901000Y-70993000D01*
X96901000Y-71013000D01*
X96647000Y-71013000D01*
X96647000Y-70993000D01*
X95281750Y-70993000D01*
X95123000Y-71151750D01*
X95123000Y-71500309D01*
X95219673Y-71733698D01*
X95398301Y-71912327D01*
X95631690Y-72009000D01*
X95691887Y-72009000D01*
X95522683Y-72040838D01*
X95306559Y-72179910D01*
X95161569Y-72392110D01*
X95156537Y-72416960D01*
X95107294Y-72426755D01*
X94852621Y-72596921D01*
X93954142Y-73495400D01*
X91363440Y-73495400D01*
X91363440Y-72930000D01*
X91319162Y-72694683D01*
X91180090Y-72478559D01*
X90967890Y-72333569D01*
X90716000Y-72282560D01*
X89116000Y-72282560D01*
X88880683Y-72326838D01*
X88664559Y-72465910D01*
X88542192Y-72645000D01*
X87041730Y-72645000D01*
X87041730Y-70582790D01*
X86997452Y-70347473D01*
X86858380Y-70131349D01*
X86646180Y-69986359D01*
X86394290Y-69935350D01*
X85503808Y-69935350D01*
X87268758Y-68170400D01*
X95110560Y-68170400D01*
X95110560Y-69088000D01*
X95154838Y-69323317D01*
X95293910Y-69539441D01*
X95506110Y-69684431D01*
X95696569Y-69723000D01*
X95631690Y-69723000D01*
X95398301Y-69819673D01*
X95219673Y-69998302D01*
X95123000Y-70231691D01*
X95123000Y-70580250D01*
X95281750Y-70739000D01*
X96647000Y-70739000D01*
X96647000Y-70719000D01*
X96901000Y-70719000D01*
X96901000Y-70739000D01*
X98266250Y-70739000D01*
X98425000Y-70580250D01*
X98425000Y-70231691D01*
X98328327Y-69998302D01*
X98149699Y-69819673D01*
X97916310Y-69723000D01*
X97856113Y-69723000D01*
X98025317Y-69691162D01*
X98143676Y-69615000D01*
X99161156Y-69615000D01*
X99167915Y-69621771D01*
X99621666Y-69810185D01*
X100112979Y-69810614D01*
X100567057Y-69622992D01*
X100914771Y-69275885D01*
X101066329Y-68910891D01*
X101727000Y-68910891D01*
X101727000Y-70580250D01*
X101885750Y-70739000D01*
X103251000Y-70739000D01*
X103251000Y-68560950D01*
X103505000Y-68560950D01*
X103505000Y-70739000D01*
X104870250Y-70739000D01*
X105029000Y-70580250D01*
X105029000Y-68910891D01*
X104932327Y-68677502D01*
X104753699Y-68498873D01*
X104520310Y-68402200D01*
X103663750Y-68402200D01*
X103505000Y-68560950D01*
X103251000Y-68560950D01*
X103092250Y-68402200D01*
X102235690Y-68402200D01*
X102002301Y-68498873D01*
X101823673Y-68677502D01*
X101727000Y-68910891D01*
X101066329Y-68910891D01*
X101103185Y-68822134D01*
X101103614Y-68330821D01*
X101037329Y-68170400D01*
X114732600Y-68170400D01*
X115033007Y-68110645D01*
X115287679Y-67940479D01*
X119574528Y-63653630D01*
X119601309Y-63664750D01*
X120172187Y-63665248D01*
X120699800Y-63447243D01*
X121103824Y-63043923D01*
X121322750Y-62516691D01*
X121323248Y-61945813D01*
X121282006Y-61846000D01*
X124235842Y-61846000D01*
X131546652Y-69156810D01*
X131501548Y-69224313D01*
X131377091Y-69850000D01*
X131501548Y-70475687D01*
X131855971Y-71006120D01*
X132026405Y-71120000D01*
X131855971Y-71233880D01*
X131501548Y-71764313D01*
X131377091Y-72390000D01*
X131501548Y-73015687D01*
X131739231Y-73371406D01*
X131690301Y-73391673D01*
X131511673Y-73570302D01*
X131415000Y-73803691D01*
X131415000Y-74644250D01*
X131573750Y-74803000D01*
X133223000Y-74803000D01*
X133223000Y-74783000D01*
X133477000Y-74783000D01*
X133477000Y-74803000D01*
X135126250Y-74803000D01*
X135285000Y-74644250D01*
X135285000Y-73803691D01*
X135188327Y-73570302D01*
X135009699Y-73391673D01*
X134960769Y-73371406D01*
X135198452Y-73015687D01*
X135322909Y-72390000D01*
X135198452Y-71764313D01*
X134844029Y-71233880D01*
X134673595Y-71120000D01*
X134844029Y-71006120D01*
X135198452Y-70475687D01*
X135322909Y-69850000D01*
X135198452Y-69224313D01*
X134844029Y-68693880D01*
X134653812Y-68566781D01*
X134895922Y-68376317D01*
X135209144Y-67818355D01*
X135240124Y-67690434D01*
X135120777Y-67437000D01*
X133477000Y-67437000D01*
X133477000Y-67457000D01*
X133223000Y-67457000D01*
X133223000Y-67437000D01*
X133203000Y-67437000D01*
X133203000Y-67183000D01*
X133223000Y-67183000D01*
X133223000Y-67163000D01*
X133477000Y-67163000D01*
X133477000Y-67183000D01*
X135120777Y-67183000D01*
X135240124Y-66929566D01*
X135209144Y-66801645D01*
X134895922Y-66243683D01*
X134653812Y-66053219D01*
X134844029Y-65926120D01*
X135198452Y-65395687D01*
X135322909Y-64770000D01*
X135198452Y-64144313D01*
X134844029Y-63613880D01*
X134313596Y-63259457D01*
X133687909Y-63135000D01*
X133012091Y-63135000D01*
X132386404Y-63259457D01*
X131855971Y-63613880D01*
X131501548Y-64144313D01*
X131377091Y-64770000D01*
X131501548Y-65395687D01*
X131855971Y-65926120D01*
X132046188Y-66053219D01*
X131804078Y-66243683D01*
X131490856Y-66801645D01*
X131475443Y-66865285D01*
X125116079Y-60505921D01*
X124861407Y-60335755D01*
X124561000Y-60276000D01*
X119402505Y-60276000D01*
X119402500Y-60275999D01*
X119102094Y-60335755D01*
X118847421Y-60505921D01*
X118250467Y-61102875D01*
X118161923Y-61014176D01*
X117634691Y-60795250D01*
X117063813Y-60794752D01*
X116536200Y-61012757D01*
X116132176Y-61416077D01*
X116078138Y-61546215D01*
X116025243Y-61418200D01*
X115621923Y-61014176D01*
X115094691Y-60795250D01*
X114523813Y-60794752D01*
X113996200Y-61012757D01*
X113592176Y-61416077D01*
X113580166Y-61445000D01*
X113496317Y-61445000D01*
X113485243Y-61418200D01*
X113081923Y-61014176D01*
X112554691Y-60795250D01*
X112273154Y-60795004D01*
X113863158Y-59205000D01*
X115567442Y-59205000D01*
X115750971Y-59479670D01*
X116237152Y-59804526D01*
X116810641Y-59918600D01*
X116869359Y-59918600D01*
X117442848Y-59804526D01*
X117908442Y-59493426D01*
X117913238Y-59518917D01*
X118052310Y-59735041D01*
X118264510Y-59880031D01*
X118516400Y-59931040D01*
X120243600Y-59931040D01*
X120478917Y-59886762D01*
X120695041Y-59747690D01*
X120840031Y-59535490D01*
X120891040Y-59283600D01*
X120891040Y-57884600D01*
X128574400Y-57884600D01*
X128874807Y-57824845D01*
X129076991Y-57689750D01*
X131415000Y-57689750D01*
X131415000Y-58530309D01*
X131511673Y-58763698D01*
X131690301Y-58942327D01*
X131923690Y-59039000D01*
X133064250Y-59039000D01*
X133223000Y-58880250D01*
X133223000Y-57531000D01*
X133477000Y-57531000D01*
X133477000Y-58880250D01*
X133635750Y-59039000D01*
X134776310Y-59039000D01*
X135009699Y-58942327D01*
X135188327Y-58763698D01*
X135285000Y-58530309D01*
X135285000Y-57689750D01*
X135126250Y-57531000D01*
X133477000Y-57531000D01*
X133223000Y-57531000D01*
X131573750Y-57531000D01*
X131415000Y-57689750D01*
X129076991Y-57689750D01*
X129129479Y-57654679D01*
X131467192Y-55316966D01*
X131501548Y-55489687D01*
X131739231Y-55845406D01*
X131690301Y-55865673D01*
X131511673Y-56044302D01*
X131415000Y-56277691D01*
X131415000Y-57118250D01*
X131573750Y-57277000D01*
X133223000Y-57277000D01*
X133223000Y-57257000D01*
X133477000Y-57257000D01*
X133477000Y-57277000D01*
X135126250Y-57277000D01*
X135285000Y-57118250D01*
X135285000Y-56277691D01*
X135188327Y-56044302D01*
X135009699Y-55865673D01*
X134960769Y-55845406D01*
X135198452Y-55489687D01*
X135322909Y-54864000D01*
X135198452Y-54238313D01*
X134844029Y-53707880D01*
X134673595Y-53594000D01*
X134844029Y-53480120D01*
X135198452Y-52949687D01*
X135322909Y-52324000D01*
X135198452Y-51698313D01*
X134844029Y-51167880D01*
X134313596Y-50813457D01*
X133687909Y-50689000D01*
X133012091Y-50689000D01*
X132386404Y-50813457D01*
X131855971Y-51167880D01*
X131501548Y-51698313D01*
X131377091Y-52324000D01*
X131501548Y-52949687D01*
X131546652Y-53017190D01*
X128249242Y-56314600D01*
X120821512Y-56314600D01*
X120907959Y-55880000D01*
X120793885Y-55306511D01*
X120469029Y-54820330D01*
X120154248Y-54610000D01*
X120469029Y-54399670D01*
X120793885Y-53913489D01*
X120907959Y-53340000D01*
X120793885Y-52766511D01*
X120469029Y-52280330D01*
X119982848Y-51955474D01*
X119409359Y-51841400D01*
X119350641Y-51841400D01*
X118777152Y-51955474D01*
X118290971Y-52280330D01*
X118110000Y-52551172D01*
X117929029Y-52280330D01*
X117442848Y-51955474D01*
X116869359Y-51841400D01*
X116810641Y-51841400D01*
X116237152Y-51955474D01*
X115750971Y-52280330D01*
X115558451Y-52568456D01*
X115325694Y-52614755D01*
X115071021Y-52784921D01*
X109303242Y-58552700D01*
X107540300Y-58552700D01*
X107239894Y-58612455D01*
X106985221Y-58782621D01*
X104961472Y-60806370D01*
X104934691Y-60795250D01*
X104363813Y-60794752D01*
X103836200Y-61012757D01*
X103432176Y-61416077D01*
X103378138Y-61546215D01*
X103325243Y-61418200D01*
X102921923Y-61014176D01*
X102394691Y-60795250D01*
X101823813Y-60794752D01*
X101296200Y-61012757D01*
X100892176Y-61416077D01*
X100673250Y-61943309D01*
X100672752Y-62514187D01*
X100684711Y-62543131D01*
X100630242Y-62597600D01*
X97159154Y-62597600D01*
X97192750Y-62516691D01*
X97193248Y-61945813D01*
X96975243Y-61418200D01*
X96599898Y-61042200D01*
X100286395Y-61042200D01*
X100286400Y-61042201D01*
X100682477Y-60963415D01*
X101018256Y-60739056D01*
X103645053Y-58112258D01*
X103645056Y-58112256D01*
X103787174Y-57899560D01*
X103869415Y-57776478D01*
X103948201Y-57380400D01*
X103948200Y-57380395D01*
X103948200Y-57327540D01*
X104712770Y-57327540D01*
X104948087Y-57283262D01*
X105164211Y-57144190D01*
X105309201Y-56931990D01*
X105360210Y-56680100D01*
X105360210Y-56165750D01*
X105980230Y-56165750D01*
X105980230Y-56806410D01*
X106076903Y-57039799D01*
X106255532Y-57218427D01*
X106488921Y-57315100D01*
X108129070Y-57315100D01*
X108287820Y-57156350D01*
X108287820Y-56007000D01*
X108541820Y-56007000D01*
X108541820Y-57156350D01*
X108700570Y-57315100D01*
X110340719Y-57315100D01*
X110574108Y-57218427D01*
X110752737Y-57039799D01*
X110849410Y-56806410D01*
X110849410Y-56165750D01*
X110690660Y-56007000D01*
X108541820Y-56007000D01*
X108287820Y-56007000D01*
X106138980Y-56007000D01*
X105980230Y-56165750D01*
X105360210Y-56165750D01*
X105360210Y-55079900D01*
X105336444Y-54953590D01*
X105980230Y-54953590D01*
X105980230Y-55594250D01*
X106138980Y-55753000D01*
X108287820Y-55753000D01*
X108287820Y-54603650D01*
X108541820Y-54603650D01*
X108541820Y-55753000D01*
X110690660Y-55753000D01*
X110849410Y-55594250D01*
X110849410Y-54953590D01*
X110752737Y-54720201D01*
X110574108Y-54541573D01*
X110340719Y-54444900D01*
X108700570Y-54444900D01*
X108541820Y-54603650D01*
X108287820Y-54603650D01*
X108129070Y-54444900D01*
X106488921Y-54444900D01*
X106255532Y-54541573D01*
X106076903Y-54720201D01*
X105980230Y-54953590D01*
X105336444Y-54953590D01*
X105315932Y-54844583D01*
X105176860Y-54628459D01*
X104964660Y-54483469D01*
X104712770Y-54432460D01*
X103948200Y-54432460D01*
X103948200Y-54379605D01*
X103948201Y-54379600D01*
X103869415Y-53983523D01*
X103725819Y-53768615D01*
X103645056Y-53647744D01*
X103645053Y-53647742D01*
X103143000Y-53145688D01*
X103143000Y-50537745D01*
X103819861Y-50537745D01*
X103893995Y-50783864D01*
X104431223Y-50976965D01*
X105001454Y-50949778D01*
X105402005Y-50783864D01*
X105476139Y-50537745D01*
X104648000Y-49709605D01*
X103819861Y-50537745D01*
X103143000Y-50537745D01*
X103143000Y-50524432D01*
X103323824Y-50343923D01*
X103371448Y-50229232D01*
X103394136Y-50284005D01*
X103640255Y-50358139D01*
X104468395Y-49530000D01*
X104454252Y-49515858D01*
X104633858Y-49336253D01*
X104648000Y-49350395D01*
X104662143Y-49336253D01*
X104841748Y-49515858D01*
X104827605Y-49530000D01*
X105655745Y-50358139D01*
X105901864Y-50284005D01*
X105922805Y-50225746D01*
X105970757Y-50341800D01*
X106374077Y-50745824D01*
X106901309Y-50964750D01*
X107472187Y-50965248D01*
X107999800Y-50747243D01*
X108403824Y-50343923D01*
X108457862Y-50213785D01*
X108510757Y-50341800D01*
X108914077Y-50745824D01*
X109441309Y-50964750D01*
X110012187Y-50965248D01*
X110539800Y-50747243D01*
X110943824Y-50343923D01*
X110997862Y-50213785D01*
X111050757Y-50341800D01*
X111454077Y-50745824D01*
X111981309Y-50964750D01*
X112552187Y-50965248D01*
X113079800Y-50747243D01*
X113483824Y-50343923D01*
X113537862Y-50213785D01*
X113590757Y-50341800D01*
X113994077Y-50745824D01*
X114521309Y-50964750D01*
X115092187Y-50965248D01*
X115619800Y-50747243D01*
X116023824Y-50343923D01*
X116077862Y-50213785D01*
X116130757Y-50341800D01*
X116534077Y-50745824D01*
X117061309Y-50964750D01*
X117632187Y-50965248D01*
X118159800Y-50747243D01*
X118369663Y-50537745D01*
X119059861Y-50537745D01*
X119133995Y-50783864D01*
X119671223Y-50976965D01*
X120241454Y-50949778D01*
X120642005Y-50783864D01*
X120716139Y-50537745D01*
X119888000Y-49709605D01*
X119059861Y-50537745D01*
X118369663Y-50537745D01*
X118563824Y-50343923D01*
X118611448Y-50229232D01*
X118634136Y-50284005D01*
X118880255Y-50358139D01*
X119708395Y-49530000D01*
X120067605Y-49530000D01*
X120895745Y-50358139D01*
X121141864Y-50284005D01*
X121334965Y-49746777D01*
X121307778Y-49176546D01*
X121141864Y-48775995D01*
X120895745Y-48701861D01*
X120067605Y-49530000D01*
X119708395Y-49530000D01*
X118880255Y-48701861D01*
X118634136Y-48775995D01*
X118613195Y-48834254D01*
X118565243Y-48718200D01*
X118369640Y-48522255D01*
X119059861Y-48522255D01*
X119888000Y-49350395D01*
X120716139Y-48522255D01*
X120642005Y-48276136D01*
X120104777Y-48083035D01*
X119534546Y-48110222D01*
X119133995Y-48276136D01*
X119059861Y-48522255D01*
X118369640Y-48522255D01*
X118161923Y-48314176D01*
X117634691Y-48095250D01*
X117063813Y-48094752D01*
X117034869Y-48106711D01*
X116588679Y-47660521D01*
X116334007Y-47490355D01*
X116033600Y-47430600D01*
X101588300Y-47430600D01*
X101287893Y-47490355D01*
X101033221Y-47660521D01*
X96368823Y-52324919D01*
X96339029Y-52280330D01*
X95852848Y-51955474D01*
X95279359Y-51841400D01*
X95220641Y-51841400D01*
X94647152Y-51955474D01*
X94160971Y-52280330D01*
X93980000Y-52551172D01*
X93799029Y-52280330D01*
X93312848Y-51955474D01*
X92739359Y-51841400D01*
X92680641Y-51841400D01*
X92107152Y-51955474D01*
X91620971Y-52280330D01*
X91296115Y-52766511D01*
X91182041Y-53340000D01*
X91296115Y-53913489D01*
X91620971Y-54399670D01*
X91935752Y-54610000D01*
X91620971Y-54820330D01*
X91296115Y-55306511D01*
X91182041Y-55880000D01*
X91296115Y-56453489D01*
X91620971Y-56939670D01*
X91935752Y-57150000D01*
X91620971Y-57360330D01*
X91296115Y-57846511D01*
X91182041Y-58420000D01*
X91291880Y-58972200D01*
X82600711Y-58972200D01*
X80956052Y-57327540D01*
X81344770Y-57327540D01*
X81580087Y-57283262D01*
X81796211Y-57144190D01*
X81941201Y-56931990D01*
X81992210Y-56680100D01*
X81992210Y-56165750D01*
X82612230Y-56165750D01*
X82612230Y-56806410D01*
X82708903Y-57039799D01*
X82887532Y-57218427D01*
X83120921Y-57315100D01*
X84761070Y-57315100D01*
X84919820Y-57156350D01*
X84919820Y-56007000D01*
X85173820Y-56007000D01*
X85173820Y-57156350D01*
X85332570Y-57315100D01*
X86972719Y-57315100D01*
X87206108Y-57218427D01*
X87384737Y-57039799D01*
X87481410Y-56806410D01*
X87481410Y-56165750D01*
X87322660Y-56007000D01*
X85173820Y-56007000D01*
X84919820Y-56007000D01*
X82770980Y-56007000D01*
X82612230Y-56165750D01*
X81992210Y-56165750D01*
X81992210Y-55079900D01*
X81968444Y-54953590D01*
X82612230Y-54953590D01*
X82612230Y-55594250D01*
X82770980Y-55753000D01*
X84919820Y-55753000D01*
X84919820Y-54603650D01*
X85173820Y-54603650D01*
X85173820Y-55753000D01*
X87322660Y-55753000D01*
X87481410Y-55594250D01*
X87481410Y-54953590D01*
X87384737Y-54720201D01*
X87206108Y-54541573D01*
X86972719Y-54444900D01*
X85332570Y-54444900D01*
X85173820Y-54603650D01*
X84919820Y-54603650D01*
X84761070Y-54444900D01*
X83120921Y-54444900D01*
X82887532Y-54541573D01*
X82708903Y-54720201D01*
X82612230Y-54953590D01*
X81968444Y-54953590D01*
X81947932Y-54844583D01*
X81808860Y-54628459D01*
X81596660Y-54483469D01*
X81344770Y-54432460D01*
X80580200Y-54432460D01*
X80580200Y-54379600D01*
X80501415Y-53983523D01*
X80277056Y-53647744D01*
X80277053Y-53647742D01*
X79013000Y-52383688D01*
X79013000Y-50537745D01*
X79689861Y-50537745D01*
X79763995Y-50783864D01*
X80301223Y-50976965D01*
X80871454Y-50949778D01*
X81272005Y-50783864D01*
X81346139Y-50537745D01*
X80518000Y-49709605D01*
X79689861Y-50537745D01*
X79013000Y-50537745D01*
X79013000Y-50524432D01*
X79193824Y-50343923D01*
X79241448Y-50229232D01*
X79264136Y-50284005D01*
X79510255Y-50358139D01*
X80338395Y-49530000D01*
X80324252Y-49515858D01*
X80503858Y-49336253D01*
X80518000Y-49350395D01*
X80532143Y-49336253D01*
X80711748Y-49515858D01*
X80697605Y-49530000D01*
X81525745Y-50358139D01*
X81771864Y-50284005D01*
X81792805Y-50225746D01*
X81840757Y-50341800D01*
X82244077Y-50745824D01*
X82771309Y-50964750D01*
X83342187Y-50965248D01*
X83869800Y-50747243D01*
X84273824Y-50343923D01*
X84327862Y-50213785D01*
X84380757Y-50341800D01*
X84784077Y-50745824D01*
X85311309Y-50964750D01*
X85882187Y-50965248D01*
X86409800Y-50747243D01*
X86813824Y-50343923D01*
X86867862Y-50213785D01*
X86920757Y-50341800D01*
X87324077Y-50745824D01*
X87851309Y-50964750D01*
X88422187Y-50965248D01*
X88949800Y-50747243D01*
X89353824Y-50343923D01*
X89407862Y-50213785D01*
X89460757Y-50341800D01*
X89864077Y-50745824D01*
X90391309Y-50964750D01*
X90962187Y-50965248D01*
X91489800Y-50747243D01*
X91893824Y-50343923D01*
X91947862Y-50213785D01*
X92000757Y-50341800D01*
X92404077Y-50745824D01*
X92931309Y-50964750D01*
X93502187Y-50965248D01*
X94029800Y-50747243D01*
X94239663Y-50537745D01*
X94929861Y-50537745D01*
X95003995Y-50783864D01*
X95541223Y-50976965D01*
X96111454Y-50949778D01*
X96512005Y-50783864D01*
X96586139Y-50537745D01*
X95758000Y-49709605D01*
X94929861Y-50537745D01*
X94239663Y-50537745D01*
X94433824Y-50343923D01*
X94481448Y-50229232D01*
X94504136Y-50284005D01*
X94750255Y-50358139D01*
X95578395Y-49530000D01*
X95937605Y-49530000D01*
X96765745Y-50358139D01*
X97011864Y-50284005D01*
X97204965Y-49746777D01*
X97177778Y-49176546D01*
X97011864Y-48775995D01*
X96765745Y-48701861D01*
X95937605Y-49530000D01*
X95578395Y-49530000D01*
X94750255Y-48701861D01*
X94504136Y-48775995D01*
X94483195Y-48834254D01*
X94435243Y-48718200D01*
X94239640Y-48522255D01*
X94929861Y-48522255D01*
X95758000Y-49350395D01*
X96586139Y-48522255D01*
X96512005Y-48276136D01*
X95974777Y-48083035D01*
X95404546Y-48110222D01*
X95003995Y-48276136D01*
X94929861Y-48522255D01*
X94239640Y-48522255D01*
X94031923Y-48314176D01*
X93504691Y-48095250D01*
X92933813Y-48094752D01*
X92904869Y-48106711D01*
X92483579Y-47685421D01*
X92228907Y-47515255D01*
X91928500Y-47455500D01*
X73357400Y-47455500D01*
X73056994Y-47515255D01*
X72802321Y-47685421D01*
X67915914Y-52571828D01*
X67804607Y-52497455D01*
X67504200Y-52437700D01*
X62525200Y-52437700D01*
X62525200Y-50546000D01*
X62465445Y-50245594D01*
X62437440Y-50203681D01*
X62437440Y-49946000D01*
X62393162Y-49710683D01*
X62254090Y-49494559D01*
X62041890Y-49349569D01*
X61790000Y-49298560D01*
X60890000Y-49298560D01*
X60654683Y-49342838D01*
X60438559Y-49481910D01*
X60293569Y-49694110D01*
X60242560Y-49946000D01*
X60242560Y-51146000D01*
X60286838Y-51381317D01*
X60425910Y-51597441D01*
X60638110Y-51742431D01*
X60890000Y-51793440D01*
X60955200Y-51793440D01*
X60955200Y-52897542D01*
X58782907Y-55069835D01*
X58698527Y-54985308D01*
X58505137Y-54905005D01*
X58308706Y-54773755D01*
X58008300Y-54714000D01*
X57931303Y-54714000D01*
X57909890Y-54699369D01*
X57658000Y-54648360D01*
X57623126Y-54648360D01*
X57623262Y-54491733D01*
X57481217Y-54147957D01*
X57473100Y-54139826D01*
X57473100Y-53173358D01*
X58595079Y-52051379D01*
X58765245Y-51796707D01*
X58781951Y-51712719D01*
X58941441Y-51610090D01*
X59086431Y-51397890D01*
X59137440Y-51146000D01*
X59137440Y-49946000D01*
X59093162Y-49710683D01*
X58954090Y-49494559D01*
X58741890Y-49349569D01*
X58693989Y-49339869D01*
X64159037Y-43874821D01*
X64455715Y-44073054D01*
X65024000Y-44186093D01*
X65592285Y-44073054D01*
X66074054Y-43751147D01*
X66294000Y-43421974D01*
X66513946Y-43751147D01*
X66995715Y-44073054D01*
X67564000Y-44186093D01*
X68132285Y-44073054D01*
X68614054Y-43751147D01*
X68935961Y-43269378D01*
X69049000Y-42701093D01*
X69049000Y-42642907D01*
X68935961Y-42074622D01*
X68614054Y-41592853D01*
X68328422Y-41402000D01*
X68614054Y-41211147D01*
X68935961Y-40729378D01*
X69049000Y-40161093D01*
X69049000Y-40102907D01*
X68935961Y-39534622D01*
X68614054Y-39052853D01*
X68132285Y-38730946D01*
X67564000Y-38617907D01*
X66995715Y-38730946D01*
X66667326Y-38950368D01*
X66086979Y-38370021D01*
X65937423Y-38270091D01*
X85741000Y-38270091D01*
X85741000Y-38945909D01*
X85865457Y-39571596D01*
X86219880Y-40102029D01*
X86750313Y-40456452D01*
X87376000Y-40580909D01*
X88001687Y-40456452D01*
X88532120Y-40102029D01*
X88646000Y-39931595D01*
X88759880Y-40102029D01*
X89290313Y-40456452D01*
X89916000Y-40580909D01*
X90541687Y-40456452D01*
X91072120Y-40102029D01*
X91186000Y-39931595D01*
X91299880Y-40102029D01*
X91830313Y-40456452D01*
X92456000Y-40580909D01*
X93081687Y-40456452D01*
X93440192Y-40216907D01*
X93531910Y-40359441D01*
X93744110Y-40504431D01*
X93996000Y-40555440D01*
X95996000Y-40555440D01*
X96231317Y-40511162D01*
X96447441Y-40372090D01*
X96592431Y-40159890D01*
X96643440Y-39908000D01*
X96643440Y-38270091D01*
X103267000Y-38270091D01*
X103267000Y-38945909D01*
X103391457Y-39571596D01*
X103745880Y-40102029D01*
X104276313Y-40456452D01*
X104902000Y-40580909D01*
X105527687Y-40456452D01*
X106058120Y-40102029D01*
X106172000Y-39931595D01*
X106285880Y-40102029D01*
X106816313Y-40456452D01*
X107442000Y-40580909D01*
X108067687Y-40456452D01*
X108598120Y-40102029D01*
X108712000Y-39931595D01*
X108825880Y-40102029D01*
X109356313Y-40456452D01*
X109982000Y-40580909D01*
X110607687Y-40456452D01*
X110966192Y-40216907D01*
X111057910Y-40359441D01*
X111270110Y-40504431D01*
X111522000Y-40555440D01*
X113522000Y-40555440D01*
X113757317Y-40511162D01*
X113973441Y-40372090D01*
X114118431Y-40159890D01*
X114169440Y-39908000D01*
X114169440Y-37308000D01*
X114125162Y-37072683D01*
X113986090Y-36856559D01*
X113773890Y-36711569D01*
X113522000Y-36660560D01*
X111522000Y-36660560D01*
X111286683Y-36704838D01*
X111070559Y-36843910D01*
X110965049Y-36998329D01*
X110607687Y-36759548D01*
X109982000Y-36635091D01*
X109356313Y-36759548D01*
X108825880Y-37113971D01*
X108712000Y-37284405D01*
X108598120Y-37113971D01*
X108067687Y-36759548D01*
X107442000Y-36635091D01*
X106816313Y-36759548D01*
X106285880Y-37113971D01*
X106172000Y-37284405D01*
X106058120Y-37113971D01*
X105527687Y-36759548D01*
X104902000Y-36635091D01*
X104276313Y-36759548D01*
X103745880Y-37113971D01*
X103391457Y-37644404D01*
X103267000Y-38270091D01*
X96643440Y-38270091D01*
X96643440Y-37308000D01*
X96599162Y-37072683D01*
X96460090Y-36856559D01*
X96247890Y-36711569D01*
X95996000Y-36660560D01*
X93996000Y-36660560D01*
X93760683Y-36704838D01*
X93544559Y-36843910D01*
X93439049Y-36998329D01*
X93081687Y-36759548D01*
X92456000Y-36635091D01*
X91830313Y-36759548D01*
X91299880Y-37113971D01*
X91186000Y-37284405D01*
X91072120Y-37113971D01*
X90541687Y-36759548D01*
X89916000Y-36635091D01*
X89290313Y-36759548D01*
X88759880Y-37113971D01*
X88646000Y-37284405D01*
X88532120Y-37113971D01*
X88001687Y-36759548D01*
X87376000Y-36635091D01*
X86750313Y-36759548D01*
X86219880Y-37113971D01*
X85865457Y-37644404D01*
X85741000Y-38270091D01*
X65937423Y-38270091D01*
X65832307Y-38199855D01*
X65531900Y-38140100D01*
X56142400Y-38140100D01*
X55841994Y-38199855D01*
X55587321Y-38370021D01*
X43038121Y-50919221D01*
X42867955Y-51173893D01*
X42836704Y-51331000D01*
X42808200Y-51474300D01*
X42808200Y-66228300D01*
X42867955Y-66528707D01*
X43038121Y-66783379D01*
X44556872Y-68302130D01*
X44009310Y-68302130D01*
X43773993Y-68346408D01*
X43557869Y-68485480D01*
X43412879Y-68697680D01*
X43361870Y-68949570D01*
X43361870Y-70750430D01*
X43406148Y-70985747D01*
X43545220Y-71201871D01*
X43757420Y-71346861D01*
X44009310Y-71397870D01*
X44023100Y-71397870D01*
X44023100Y-72366130D01*
X44009310Y-72366130D01*
X43773993Y-72410408D01*
X43557869Y-72549480D01*
X43412879Y-72761680D01*
X43361870Y-73013570D01*
X43361870Y-74814430D01*
X43406148Y-75049747D01*
X43545220Y-75265871D01*
X43575845Y-75286797D01*
X42866221Y-75996421D01*
X42696055Y-76251093D01*
X42659398Y-76435380D01*
X42636300Y-76551500D01*
X40685000Y-76551500D01*
X40685000Y-42479909D01*
X40813871Y-42791801D01*
X42200897Y-44181250D01*
X44014061Y-44934141D01*
X45977325Y-44935854D01*
X47791801Y-44186129D01*
X49181250Y-42799103D01*
X49934141Y-40985939D01*
X49935854Y-39022675D01*
X49186129Y-37208199D01*
X47799103Y-35818750D01*
X47476997Y-35685000D01*
X129520091Y-35685000D01*
X129208199Y-35813871D01*
X129208199Y-35813871D01*
G37*
X129208199Y-35813871D02*
X127818750Y-37200897D01*
X127065859Y-39014061D01*
X127064146Y-40977325D01*
X127813871Y-42791801D01*
X129200897Y-44181250D01*
X131014061Y-44934141D01*
X132977325Y-44935854D01*
X134791801Y-44186129D01*
X136181250Y-42799103D01*
X136315000Y-42476997D01*
X136315000Y-91520091D01*
X136186129Y-91208199D01*
X134799103Y-89818750D01*
X132985939Y-89065859D01*
X131022675Y-89064146D01*
X129208199Y-89813871D01*
X127818750Y-91200897D01*
X127065859Y-93014061D01*
X127064146Y-94977325D01*
X127813871Y-96791801D01*
X129200897Y-98181250D01*
X129523003Y-98315000D01*
X47479909Y-98315000D01*
X47791801Y-98186129D01*
X49181250Y-96799103D01*
X49934141Y-94985939D01*
X49935854Y-93022675D01*
X49186129Y-91208199D01*
X47799103Y-89818750D01*
X45985939Y-89065859D01*
X44022675Y-89064146D01*
X42208199Y-89813871D01*
X40818750Y-91200897D01*
X40685000Y-91523003D01*
X40685000Y-76551500D01*
X42636300Y-76551500D01*
X42636300Y-78762200D01*
X42696055Y-79062607D01*
X42866221Y-79317279D01*
X43136600Y-79587658D01*
X43136600Y-83090700D01*
X43196355Y-83391107D01*
X43366521Y-83645779D01*
X46053821Y-86333079D01*
X46308493Y-86503245D01*
X46608900Y-86563000D01*
X56268982Y-86563000D01*
X56343910Y-86679441D01*
X56556110Y-86824431D01*
X56808000Y-86875440D01*
X56947733Y-86875440D01*
X56770194Y-86910755D01*
X56515521Y-87080921D01*
X55887621Y-87708821D01*
X55717455Y-87963493D01*
X55707924Y-88011407D01*
X55657700Y-88263900D01*
X55657700Y-89430300D01*
X55717455Y-89730707D01*
X55887621Y-89985379D01*
X56592375Y-90690133D01*
X56572683Y-90693838D01*
X56356559Y-90832910D01*
X56211569Y-91045110D01*
X56160560Y-91297000D01*
X56160560Y-92197000D01*
X56204838Y-92432317D01*
X56343910Y-92648441D01*
X56556110Y-92793431D01*
X56808000Y-92844440D01*
X58508000Y-92844440D01*
X58743317Y-92800162D01*
X58959441Y-92661090D01*
X59104431Y-92448890D01*
X59155440Y-92197000D01*
X59155440Y-91607000D01*
X60351560Y-91607000D01*
X60351560Y-92197000D01*
X60395838Y-92432317D01*
X60534910Y-92648441D01*
X60729155Y-92781163D01*
X60729038Y-92915467D01*
X60871083Y-93259243D01*
X61133873Y-93522492D01*
X61477401Y-93665138D01*
X61849367Y-93665462D01*
X62193143Y-93523417D01*
X62456392Y-93260627D01*
X62599038Y-92917099D01*
X62599101Y-92844440D01*
X62699000Y-92844440D01*
X62934317Y-92800162D01*
X63150441Y-92661090D01*
X63295431Y-92448890D01*
X63346440Y-92197000D01*
X63346440Y-91663255D01*
X63462943Y-91615117D01*
X63726192Y-91352327D01*
X63868838Y-91008799D01*
X63868883Y-90956700D01*
X68490142Y-90956700D01*
X69336521Y-91803079D01*
X69591193Y-91973245D01*
X69891600Y-92033000D01*
X96514100Y-92033000D01*
X96808928Y-91974355D01*
X96721800Y-92412377D01*
X96721800Y-93515623D01*
X96884317Y-94332652D01*
X97347127Y-95025296D01*
X98039771Y-95488106D01*
X98856800Y-95650623D01*
X99673829Y-95488106D01*
X100366473Y-95025296D01*
X100829283Y-94332652D01*
X100838000Y-94288829D01*
X100846717Y-94332652D01*
X101309527Y-95025296D01*
X102002171Y-95488106D01*
X102819200Y-95650623D01*
X103636229Y-95488106D01*
X104328873Y-95025296D01*
X104791683Y-94332652D01*
X104812789Y-94226544D01*
X104857718Y-94398362D01*
X105361730Y-95063476D01*
X106081904Y-95485084D01*
X106322767Y-95549113D01*
X106654600Y-95436165D01*
X106654600Y-93091000D01*
X106634600Y-93091000D01*
X106634600Y-92837000D01*
X106654600Y-92837000D01*
X106654600Y-90491835D01*
X106908600Y-90491835D01*
X106908600Y-92837000D01*
X106928600Y-92837000D01*
X106928600Y-93091000D01*
X106908600Y-93091000D01*
X106908600Y-95436165D01*
X107240433Y-95549113D01*
X107481296Y-95485084D01*
X108201470Y-95063476D01*
X108596560Y-94542100D01*
X108596560Y-94964000D01*
X108640838Y-95199317D01*
X108779910Y-95415441D01*
X108992110Y-95560431D01*
X109244000Y-95611440D01*
X112244000Y-95611440D01*
X112479317Y-95567162D01*
X112695441Y-95428090D01*
X112840431Y-95215890D01*
X112891440Y-94964000D01*
X112891440Y-90964000D01*
X112847162Y-90728683D01*
X112708090Y-90512559D01*
X112495890Y-90367569D01*
X112244000Y-90316560D01*
X109244000Y-90316560D01*
X109008683Y-90360838D01*
X108792559Y-90499910D01*
X108647569Y-90712110D01*
X108596560Y-90964000D01*
X108596560Y-91385900D01*
X108201470Y-90864524D01*
X107481296Y-90442916D01*
X107240433Y-90378887D01*
X106908600Y-90491835D01*
X106654600Y-90491835D01*
X106322767Y-90378887D01*
X106081904Y-90442916D01*
X105361730Y-90864524D01*
X104857718Y-91529638D01*
X104812789Y-91701456D01*
X104791683Y-91595348D01*
X104328873Y-90902704D01*
X103636229Y-90439894D01*
X102819200Y-90277377D01*
X102002171Y-90439894D01*
X101309527Y-90902704D01*
X100846717Y-91595348D01*
X100838000Y-91639171D01*
X100829283Y-91595348D01*
X100366473Y-90902704D01*
X99673829Y-90439894D01*
X98856800Y-90277377D01*
X98529846Y-90342412D01*
X112419177Y-76453081D01*
X112448971Y-76497670D01*
X112763752Y-76708000D01*
X112448971Y-76918330D01*
X112124115Y-77404511D01*
X112010041Y-77978000D01*
X112124115Y-78551489D01*
X112448971Y-79037670D01*
X112935152Y-79362526D01*
X113508641Y-79476600D01*
X113567359Y-79476600D01*
X114140848Y-79362526D01*
X114627029Y-79037670D01*
X114807992Y-78766839D01*
X115189510Y-79184821D01*
X115718973Y-79432968D01*
X115951000Y-79312469D01*
X115951000Y-78105000D01*
X116205000Y-78105000D01*
X116205000Y-79312469D01*
X116437027Y-79432968D01*
X116966490Y-79184821D01*
X117360688Y-78752947D01*
X117532958Y-78337026D01*
X117411817Y-78105000D01*
X116205000Y-78105000D01*
X115951000Y-78105000D01*
X115931000Y-78105000D01*
X115931000Y-77851000D01*
X115951000Y-77851000D01*
X115951000Y-75565000D01*
X116205000Y-75565000D01*
X116205000Y-77851000D01*
X117411817Y-77851000D01*
X117532958Y-77618974D01*
X117360688Y-77203053D01*
X116966490Y-76771179D01*
X116831687Y-76708000D01*
X116966490Y-76644821D01*
X117360688Y-76212947D01*
X117532958Y-75797026D01*
X117411817Y-75565000D01*
X116205000Y-75565000D01*
X115951000Y-75565000D01*
X115931000Y-75565000D01*
X115931000Y-75311000D01*
X115951000Y-75311000D01*
X115951000Y-73025000D01*
X116205000Y-73025000D01*
X116205000Y-75311000D01*
X117411817Y-75311000D01*
X117461547Y-75215750D01*
X131415000Y-75215750D01*
X131415000Y-76056309D01*
X131511673Y-76289698D01*
X131690301Y-76468327D01*
X131923690Y-76565000D01*
X133064250Y-76565000D01*
X133223000Y-76406250D01*
X133223000Y-75057000D01*
X133477000Y-75057000D01*
X133477000Y-76406250D01*
X133635750Y-76565000D01*
X134776310Y-76565000D01*
X135009699Y-76468327D01*
X135188327Y-76289698D01*
X135285000Y-76056309D01*
X135285000Y-75215750D01*
X135126250Y-75057000D01*
X133477000Y-75057000D01*
X133223000Y-75057000D01*
X131573750Y-75057000D01*
X131415000Y-75215750D01*
X117461547Y-75215750D01*
X117532958Y-75078974D01*
X117360688Y-74663053D01*
X116966490Y-74231179D01*
X116831687Y-74168000D01*
X116966490Y-74104821D01*
X117360688Y-73672947D01*
X117532958Y-73257026D01*
X117411817Y-73025000D01*
X116205000Y-73025000D01*
X115951000Y-73025000D01*
X115931000Y-73025000D01*
X115931000Y-72771000D01*
X115951000Y-72771000D01*
X115951000Y-71563531D01*
X116205000Y-71563531D01*
X116205000Y-72771000D01*
X117411817Y-72771000D01*
X117532958Y-72538974D01*
X117360688Y-72123053D01*
X116966490Y-71691179D01*
X116437027Y-71443032D01*
X116205000Y-71563531D01*
X115951000Y-71563531D01*
X115718973Y-71443032D01*
X115189510Y-71691179D01*
X115019505Y-71877433D01*
X115004762Y-71799083D01*
X114865690Y-71582959D01*
X114653490Y-71437969D01*
X114401600Y-71386960D01*
X112674400Y-71386960D01*
X112439083Y-71431238D01*
X112222959Y-71570310D01*
X112077969Y-71782510D01*
X112026960Y-72034400D01*
X112026960Y-72172105D01*
X112023694Y-72172755D01*
X112023692Y-72172756D01*
X112023693Y-72172756D01*
X111769021Y-72342921D01*
X107378042Y-76733900D01*
X97542106Y-76733900D01*
X97534927Y-76726708D01*
X97191399Y-76584062D01*
X96819433Y-76583738D01*
X96475657Y-76725783D01*
X96212408Y-76988573D01*
X96069762Y-77332101D01*
X96069438Y-77704067D01*
X96211483Y-78047843D01*
X96474273Y-78311092D01*
X96817801Y-78453738D01*
X97189767Y-78454062D01*
X97533543Y-78312017D01*
X97541674Y-78303900D01*
X100045919Y-78303900D01*
X99970262Y-78486101D01*
X99970252Y-78497590D01*
X90166842Y-88301000D01*
X80482065Y-88301000D01*
X80576431Y-88162890D01*
X80627440Y-87911000D01*
X80627440Y-87361000D01*
X80603056Y-87231411D01*
X80627440Y-87111000D01*
X80627440Y-86643298D01*
X80784821Y-86800679D01*
X81039493Y-86970845D01*
X81339900Y-87030600D01*
X88515600Y-87030600D01*
X88816007Y-86970845D01*
X89070679Y-86800679D01*
X91657479Y-84213879D01*
X91827645Y-83959206D01*
X91887401Y-83658800D01*
X91887400Y-83658795D01*
X91887400Y-82397600D01*
X91827645Y-82097194D01*
X91657479Y-81842521D01*
X91330479Y-81515521D01*
X91075807Y-81345355D01*
X90775400Y-81285600D01*
X90476058Y-81285600D01*
X90359458Y-81169000D01*
X90842310Y-81169000D01*
X91075699Y-81072327D01*
X91254327Y-80893698D01*
X91351000Y-80660309D01*
X91351000Y-80319750D01*
X91192250Y-80161000D01*
X90043000Y-80161000D01*
X90043000Y-80181000D01*
X89789000Y-80181000D01*
X89789000Y-80161000D01*
X89769000Y-80161000D01*
X89769000Y-79907000D01*
X89789000Y-79907000D01*
X89789000Y-79057750D01*
X90043000Y-79057750D01*
X90043000Y-79907000D01*
X91192250Y-79907000D01*
X91351000Y-79748250D01*
X91351000Y-79407691D01*
X91254327Y-79174302D01*
X91075699Y-78995673D01*
X90842310Y-78899000D01*
X90201750Y-78899000D01*
X90043000Y-79057750D01*
X89789000Y-79057750D01*
X89630250Y-78899000D01*
X89550600Y-78899000D01*
X89550600Y-77565000D01*
X89630250Y-77565000D01*
X89789000Y-77406250D01*
X89789000Y-76557000D01*
X90043000Y-76557000D01*
X90043000Y-77406250D01*
X90201750Y-77565000D01*
X90842310Y-77565000D01*
X91075699Y-77468327D01*
X91254327Y-77289698D01*
X91351000Y-77056309D01*
X91351000Y-76715750D01*
X91192250Y-76557000D01*
X90043000Y-76557000D01*
X89789000Y-76557000D01*
X89769000Y-76557000D01*
X89769000Y-76303000D01*
X89789000Y-76303000D01*
X89789000Y-76283000D01*
X90043000Y-76283000D01*
X90043000Y-76303000D01*
X91192250Y-76303000D01*
X91351000Y-76144250D01*
X91351000Y-75803691D01*
X91254327Y-75570302D01*
X91075699Y-75391673D01*
X90842310Y-75295000D01*
X90350258Y-75295000D01*
X90579858Y-75065400D01*
X94279300Y-75065400D01*
X94579707Y-75005645D01*
X94834379Y-74835479D01*
X95451049Y-74218809D01*
X95506110Y-74256431D01*
X95758000Y-74307440D01*
X97790000Y-74307440D01*
X98025317Y-74263162D01*
X98241441Y-74124090D01*
X98386431Y-73911890D01*
X98437440Y-73660000D01*
X98437440Y-72644000D01*
X98393162Y-72408683D01*
X98254090Y-72192559D01*
X98041890Y-72047569D01*
X97851431Y-72009000D01*
X97916310Y-72009000D01*
X98149699Y-71912327D01*
X98328327Y-71733698D01*
X98425000Y-71500309D01*
X98425000Y-71151750D01*
X101727000Y-71151750D01*
X101727000Y-72821109D01*
X101823673Y-73054498D01*
X102002301Y-73233127D01*
X102235690Y-73329800D01*
X103092250Y-73329800D01*
X103251000Y-73171050D01*
X103251000Y-70993000D01*
X103505000Y-70993000D01*
X103505000Y-73171050D01*
X103663750Y-73329800D01*
X104520310Y-73329800D01*
X104753699Y-73233127D01*
X104932327Y-73054498D01*
X105029000Y-72821109D01*
X105029000Y-71151750D01*
X104870250Y-70993000D01*
X103505000Y-70993000D01*
X103251000Y-70993000D01*
X101885750Y-70993000D01*
X101727000Y-71151750D01*
X98425000Y-71151750D01*
X98266250Y-70993000D01*
X96901000Y-70993000D01*
X96901000Y-71013000D01*
X96647000Y-71013000D01*
X96647000Y-70993000D01*
X95281750Y-70993000D01*
X95123000Y-71151750D01*
X95123000Y-71500309D01*
X95219673Y-71733698D01*
X95398301Y-71912327D01*
X95631690Y-72009000D01*
X95691887Y-72009000D01*
X95522683Y-72040838D01*
X95306559Y-72179910D01*
X95161569Y-72392110D01*
X95156537Y-72416960D01*
X95107294Y-72426755D01*
X94852621Y-72596921D01*
X93954142Y-73495400D01*
X91363440Y-73495400D01*
X91363440Y-72930000D01*
X91319162Y-72694683D01*
X91180090Y-72478559D01*
X90967890Y-72333569D01*
X90716000Y-72282560D01*
X89116000Y-72282560D01*
X88880683Y-72326838D01*
X88664559Y-72465910D01*
X88542192Y-72645000D01*
X87041730Y-72645000D01*
X87041730Y-70582790D01*
X86997452Y-70347473D01*
X86858380Y-70131349D01*
X86646180Y-69986359D01*
X86394290Y-69935350D01*
X85503808Y-69935350D01*
X87268758Y-68170400D01*
X95110560Y-68170400D01*
X95110560Y-69088000D01*
X95154838Y-69323317D01*
X95293910Y-69539441D01*
X95506110Y-69684431D01*
X95696569Y-69723000D01*
X95631690Y-69723000D01*
X95398301Y-69819673D01*
X95219673Y-69998302D01*
X95123000Y-70231691D01*
X95123000Y-70580250D01*
X95281750Y-70739000D01*
X96647000Y-70739000D01*
X96647000Y-70719000D01*
X96901000Y-70719000D01*
X96901000Y-70739000D01*
X98266250Y-70739000D01*
X98425000Y-70580250D01*
X98425000Y-70231691D01*
X98328327Y-69998302D01*
X98149699Y-69819673D01*
X97916310Y-69723000D01*
X97856113Y-69723000D01*
X98025317Y-69691162D01*
X98143676Y-69615000D01*
X99161156Y-69615000D01*
X99167915Y-69621771D01*
X99621666Y-69810185D01*
X100112979Y-69810614D01*
X100567057Y-69622992D01*
X100914771Y-69275885D01*
X101066329Y-68910891D01*
X101727000Y-68910891D01*
X101727000Y-70580250D01*
X101885750Y-70739000D01*
X103251000Y-70739000D01*
X103251000Y-68560950D01*
X103505000Y-68560950D01*
X103505000Y-70739000D01*
X104870250Y-70739000D01*
X105029000Y-70580250D01*
X105029000Y-68910891D01*
X104932327Y-68677502D01*
X104753699Y-68498873D01*
X104520310Y-68402200D01*
X103663750Y-68402200D01*
X103505000Y-68560950D01*
X103251000Y-68560950D01*
X103092250Y-68402200D01*
X102235690Y-68402200D01*
X102002301Y-68498873D01*
X101823673Y-68677502D01*
X101727000Y-68910891D01*
X101066329Y-68910891D01*
X101103185Y-68822134D01*
X101103614Y-68330821D01*
X101037329Y-68170400D01*
X114732600Y-68170400D01*
X115033007Y-68110645D01*
X115287679Y-67940479D01*
X119574528Y-63653630D01*
X119601309Y-63664750D01*
X120172187Y-63665248D01*
X120699800Y-63447243D01*
X121103824Y-63043923D01*
X121322750Y-62516691D01*
X121323248Y-61945813D01*
X121282006Y-61846000D01*
X124235842Y-61846000D01*
X131546652Y-69156810D01*
X131501548Y-69224313D01*
X131377091Y-69850000D01*
X131501548Y-70475687D01*
X131855971Y-71006120D01*
X132026405Y-71120000D01*
X131855971Y-71233880D01*
X131501548Y-71764313D01*
X131377091Y-72390000D01*
X131501548Y-73015687D01*
X131739231Y-73371406D01*
X131690301Y-73391673D01*
X131511673Y-73570302D01*
X131415000Y-73803691D01*
X131415000Y-74644250D01*
X131573750Y-74803000D01*
X133223000Y-74803000D01*
X133223000Y-74783000D01*
X133477000Y-74783000D01*
X133477000Y-74803000D01*
X135126250Y-74803000D01*
X135285000Y-74644250D01*
X135285000Y-73803691D01*
X135188327Y-73570302D01*
X135009699Y-73391673D01*
X134960769Y-73371406D01*
X135198452Y-73015687D01*
X135322909Y-72390000D01*
X135198452Y-71764313D01*
X134844029Y-71233880D01*
X134673595Y-71120000D01*
X134844029Y-71006120D01*
X135198452Y-70475687D01*
X135322909Y-69850000D01*
X135198452Y-69224313D01*
X134844029Y-68693880D01*
X134653812Y-68566781D01*
X134895922Y-68376317D01*
X135209144Y-67818355D01*
X135240124Y-67690434D01*
X135120777Y-67437000D01*
X133477000Y-67437000D01*
X133477000Y-67457000D01*
X133223000Y-67457000D01*
X133223000Y-67437000D01*
X133203000Y-67437000D01*
X133203000Y-67183000D01*
X133223000Y-67183000D01*
X133223000Y-67163000D01*
X133477000Y-67163000D01*
X133477000Y-67183000D01*
X135120777Y-67183000D01*
X135240124Y-66929566D01*
X135209144Y-66801645D01*
X134895922Y-66243683D01*
X134653812Y-66053219D01*
X134844029Y-65926120D01*
X135198452Y-65395687D01*
X135322909Y-64770000D01*
X135198452Y-64144313D01*
X134844029Y-63613880D01*
X134313596Y-63259457D01*
X133687909Y-63135000D01*
X133012091Y-63135000D01*
X132386404Y-63259457D01*
X131855971Y-63613880D01*
X131501548Y-64144313D01*
X131377091Y-64770000D01*
X131501548Y-65395687D01*
X131855971Y-65926120D01*
X132046188Y-66053219D01*
X131804078Y-66243683D01*
X131490856Y-66801645D01*
X131475443Y-66865285D01*
X125116079Y-60505921D01*
X124861407Y-60335755D01*
X124561000Y-60276000D01*
X119402505Y-60276000D01*
X119402500Y-60275999D01*
X119102094Y-60335755D01*
X118847421Y-60505921D01*
X118250467Y-61102875D01*
X118161923Y-61014176D01*
X117634691Y-60795250D01*
X117063813Y-60794752D01*
X116536200Y-61012757D01*
X116132176Y-61416077D01*
X116078138Y-61546215D01*
X116025243Y-61418200D01*
X115621923Y-61014176D01*
X115094691Y-60795250D01*
X114523813Y-60794752D01*
X113996200Y-61012757D01*
X113592176Y-61416077D01*
X113580166Y-61445000D01*
X113496317Y-61445000D01*
X113485243Y-61418200D01*
X113081923Y-61014176D01*
X112554691Y-60795250D01*
X112273154Y-60795004D01*
X113863158Y-59205000D01*
X115567442Y-59205000D01*
X115750971Y-59479670D01*
X116237152Y-59804526D01*
X116810641Y-59918600D01*
X116869359Y-59918600D01*
X117442848Y-59804526D01*
X117908442Y-59493426D01*
X117913238Y-59518917D01*
X118052310Y-59735041D01*
X118264510Y-59880031D01*
X118516400Y-59931040D01*
X120243600Y-59931040D01*
X120478917Y-59886762D01*
X120695041Y-59747690D01*
X120840031Y-59535490D01*
X120891040Y-59283600D01*
X120891040Y-57884600D01*
X128574400Y-57884600D01*
X128874807Y-57824845D01*
X129076991Y-57689750D01*
X131415000Y-57689750D01*
X131415000Y-58530309D01*
X131511673Y-58763698D01*
X131690301Y-58942327D01*
X131923690Y-59039000D01*
X133064250Y-59039000D01*
X133223000Y-58880250D01*
X133223000Y-57531000D01*
X133477000Y-57531000D01*
X133477000Y-58880250D01*
X133635750Y-59039000D01*
X134776310Y-59039000D01*
X135009699Y-58942327D01*
X135188327Y-58763698D01*
X135285000Y-58530309D01*
X135285000Y-57689750D01*
X135126250Y-57531000D01*
X133477000Y-57531000D01*
X133223000Y-57531000D01*
X131573750Y-57531000D01*
X131415000Y-57689750D01*
X129076991Y-57689750D01*
X129129479Y-57654679D01*
X131467192Y-55316966D01*
X131501548Y-55489687D01*
X131739231Y-55845406D01*
X131690301Y-55865673D01*
X131511673Y-56044302D01*
X131415000Y-56277691D01*
X131415000Y-57118250D01*
X131573750Y-57277000D01*
X133223000Y-57277000D01*
X133223000Y-57257000D01*
X133477000Y-57257000D01*
X133477000Y-57277000D01*
X135126250Y-57277000D01*
X135285000Y-57118250D01*
X135285000Y-56277691D01*
X135188327Y-56044302D01*
X135009699Y-55865673D01*
X134960769Y-55845406D01*
X135198452Y-55489687D01*
X135322909Y-54864000D01*
X135198452Y-54238313D01*
X134844029Y-53707880D01*
X134673595Y-53594000D01*
X134844029Y-53480120D01*
X135198452Y-52949687D01*
X135322909Y-52324000D01*
X135198452Y-51698313D01*
X134844029Y-51167880D01*
X134313596Y-50813457D01*
X133687909Y-50689000D01*
X133012091Y-50689000D01*
X132386404Y-50813457D01*
X131855971Y-51167880D01*
X131501548Y-51698313D01*
X131377091Y-52324000D01*
X131501548Y-52949687D01*
X131546652Y-53017190D01*
X128249242Y-56314600D01*
X120821512Y-56314600D01*
X120907959Y-55880000D01*
X120793885Y-55306511D01*
X120469029Y-54820330D01*
X120154248Y-54610000D01*
X120469029Y-54399670D01*
X120793885Y-53913489D01*
X120907959Y-53340000D01*
X120793885Y-52766511D01*
X120469029Y-52280330D01*
X119982848Y-51955474D01*
X119409359Y-51841400D01*
X119350641Y-51841400D01*
X118777152Y-51955474D01*
X118290971Y-52280330D01*
X118110000Y-52551172D01*
X117929029Y-52280330D01*
X117442848Y-51955474D01*
X116869359Y-51841400D01*
X116810641Y-51841400D01*
X116237152Y-51955474D01*
X115750971Y-52280330D01*
X115558451Y-52568456D01*
X115325694Y-52614755D01*
X115071021Y-52784921D01*
X109303242Y-58552700D01*
X107540300Y-58552700D01*
X107239894Y-58612455D01*
X106985221Y-58782621D01*
X104961472Y-60806370D01*
X104934691Y-60795250D01*
X104363813Y-60794752D01*
X103836200Y-61012757D01*
X103432176Y-61416077D01*
X103378138Y-61546215D01*
X103325243Y-61418200D01*
X102921923Y-61014176D01*
X102394691Y-60795250D01*
X101823813Y-60794752D01*
X101296200Y-61012757D01*
X100892176Y-61416077D01*
X100673250Y-61943309D01*
X100672752Y-62514187D01*
X100684711Y-62543131D01*
X100630242Y-62597600D01*
X97159154Y-62597600D01*
X97192750Y-62516691D01*
X97193248Y-61945813D01*
X96975243Y-61418200D01*
X96599898Y-61042200D01*
X100286395Y-61042200D01*
X100286400Y-61042201D01*
X100682477Y-60963415D01*
X101018256Y-60739056D01*
X103645053Y-58112258D01*
X103645056Y-58112256D01*
X103787174Y-57899560D01*
X103869415Y-57776478D01*
X103948201Y-57380400D01*
X103948200Y-57380395D01*
X103948200Y-57327540D01*
X104712770Y-57327540D01*
X104948087Y-57283262D01*
X105164211Y-57144190D01*
X105309201Y-56931990D01*
X105360210Y-56680100D01*
X105360210Y-56165750D01*
X105980230Y-56165750D01*
X105980230Y-56806410D01*
X106076903Y-57039799D01*
X106255532Y-57218427D01*
X106488921Y-57315100D01*
X108129070Y-57315100D01*
X108287820Y-57156350D01*
X108287820Y-56007000D01*
X108541820Y-56007000D01*
X108541820Y-57156350D01*
X108700570Y-57315100D01*
X110340719Y-57315100D01*
X110574108Y-57218427D01*
X110752737Y-57039799D01*
X110849410Y-56806410D01*
X110849410Y-56165750D01*
X110690660Y-56007000D01*
X108541820Y-56007000D01*
X108287820Y-56007000D01*
X106138980Y-56007000D01*
X105980230Y-56165750D01*
X105360210Y-56165750D01*
X105360210Y-55079900D01*
X105336444Y-54953590D01*
X105980230Y-54953590D01*
X105980230Y-55594250D01*
X106138980Y-55753000D01*
X108287820Y-55753000D01*
X108287820Y-54603650D01*
X108541820Y-54603650D01*
X108541820Y-55753000D01*
X110690660Y-55753000D01*
X110849410Y-55594250D01*
X110849410Y-54953590D01*
X110752737Y-54720201D01*
X110574108Y-54541573D01*
X110340719Y-54444900D01*
X108700570Y-54444900D01*
X108541820Y-54603650D01*
X108287820Y-54603650D01*
X108129070Y-54444900D01*
X106488921Y-54444900D01*
X106255532Y-54541573D01*
X106076903Y-54720201D01*
X105980230Y-54953590D01*
X105336444Y-54953590D01*
X105315932Y-54844583D01*
X105176860Y-54628459D01*
X104964660Y-54483469D01*
X104712770Y-54432460D01*
X103948200Y-54432460D01*
X103948200Y-54379605D01*
X103948201Y-54379600D01*
X103869415Y-53983523D01*
X103725819Y-53768615D01*
X103645056Y-53647744D01*
X103645053Y-53647742D01*
X103143000Y-53145688D01*
X103143000Y-50537745D01*
X103819861Y-50537745D01*
X103893995Y-50783864D01*
X104431223Y-50976965D01*
X105001454Y-50949778D01*
X105402005Y-50783864D01*
X105476139Y-50537745D01*
X104648000Y-49709605D01*
X103819861Y-50537745D01*
X103143000Y-50537745D01*
X103143000Y-50524432D01*
X103323824Y-50343923D01*
X103371448Y-50229232D01*
X103394136Y-50284005D01*
X103640255Y-50358139D01*
X104468395Y-49530000D01*
X104454252Y-49515858D01*
X104633858Y-49336253D01*
X104648000Y-49350395D01*
X104662143Y-49336253D01*
X104841748Y-49515858D01*
X104827605Y-49530000D01*
X105655745Y-50358139D01*
X105901864Y-50284005D01*
X105922805Y-50225746D01*
X105970757Y-50341800D01*
X106374077Y-50745824D01*
X106901309Y-50964750D01*
X107472187Y-50965248D01*
X107999800Y-50747243D01*
X108403824Y-50343923D01*
X108457862Y-50213785D01*
X108510757Y-50341800D01*
X108914077Y-50745824D01*
X109441309Y-50964750D01*
X110012187Y-50965248D01*
X110539800Y-50747243D01*
X110943824Y-50343923D01*
X110997862Y-50213785D01*
X111050757Y-50341800D01*
X111454077Y-50745824D01*
X111981309Y-50964750D01*
X112552187Y-50965248D01*
X113079800Y-50747243D01*
X113483824Y-50343923D01*
X113537862Y-50213785D01*
X113590757Y-50341800D01*
X113994077Y-50745824D01*
X114521309Y-50964750D01*
X115092187Y-50965248D01*
X115619800Y-50747243D01*
X116023824Y-50343923D01*
X116077862Y-50213785D01*
X116130757Y-50341800D01*
X116534077Y-50745824D01*
X117061309Y-50964750D01*
X117632187Y-50965248D01*
X118159800Y-50747243D01*
X118369663Y-50537745D01*
X119059861Y-50537745D01*
X119133995Y-50783864D01*
X119671223Y-50976965D01*
X120241454Y-50949778D01*
X120642005Y-50783864D01*
X120716139Y-50537745D01*
X119888000Y-49709605D01*
X119059861Y-50537745D01*
X118369663Y-50537745D01*
X118563824Y-50343923D01*
X118611448Y-50229232D01*
X118634136Y-50284005D01*
X118880255Y-50358139D01*
X119708395Y-49530000D01*
X120067605Y-49530000D01*
X120895745Y-50358139D01*
X121141864Y-50284005D01*
X121334965Y-49746777D01*
X121307778Y-49176546D01*
X121141864Y-48775995D01*
X120895745Y-48701861D01*
X120067605Y-49530000D01*
X119708395Y-49530000D01*
X118880255Y-48701861D01*
X118634136Y-48775995D01*
X118613195Y-48834254D01*
X118565243Y-48718200D01*
X118369640Y-48522255D01*
X119059861Y-48522255D01*
X119888000Y-49350395D01*
X120716139Y-48522255D01*
X120642005Y-48276136D01*
X120104777Y-48083035D01*
X119534546Y-48110222D01*
X119133995Y-48276136D01*
X119059861Y-48522255D01*
X118369640Y-48522255D01*
X118161923Y-48314176D01*
X117634691Y-48095250D01*
X117063813Y-48094752D01*
X117034869Y-48106711D01*
X116588679Y-47660521D01*
X116334007Y-47490355D01*
X116033600Y-47430600D01*
X101588300Y-47430600D01*
X101287893Y-47490355D01*
X101033221Y-47660521D01*
X96368823Y-52324919D01*
X96339029Y-52280330D01*
X95852848Y-51955474D01*
X95279359Y-51841400D01*
X95220641Y-51841400D01*
X94647152Y-51955474D01*
X94160971Y-52280330D01*
X93980000Y-52551172D01*
X93799029Y-52280330D01*
X93312848Y-51955474D01*
X92739359Y-51841400D01*
X92680641Y-51841400D01*
X92107152Y-51955474D01*
X91620971Y-52280330D01*
X91296115Y-52766511D01*
X91182041Y-53340000D01*
X91296115Y-53913489D01*
X91620971Y-54399670D01*
X91935752Y-54610000D01*
X91620971Y-54820330D01*
X91296115Y-55306511D01*
X91182041Y-55880000D01*
X91296115Y-56453489D01*
X91620971Y-56939670D01*
X91935752Y-57150000D01*
X91620971Y-57360330D01*
X91296115Y-57846511D01*
X91182041Y-58420000D01*
X91291880Y-58972200D01*
X82600711Y-58972200D01*
X80956052Y-57327540D01*
X81344770Y-57327540D01*
X81580087Y-57283262D01*
X81796211Y-57144190D01*
X81941201Y-56931990D01*
X81992210Y-56680100D01*
X81992210Y-56165750D01*
X82612230Y-56165750D01*
X82612230Y-56806410D01*
X82708903Y-57039799D01*
X82887532Y-57218427D01*
X83120921Y-57315100D01*
X84761070Y-57315100D01*
X84919820Y-57156350D01*
X84919820Y-56007000D01*
X85173820Y-56007000D01*
X85173820Y-57156350D01*
X85332570Y-57315100D01*
X86972719Y-57315100D01*
X87206108Y-57218427D01*
X87384737Y-57039799D01*
X87481410Y-56806410D01*
X87481410Y-56165750D01*
X87322660Y-56007000D01*
X85173820Y-56007000D01*
X84919820Y-56007000D01*
X82770980Y-56007000D01*
X82612230Y-56165750D01*
X81992210Y-56165750D01*
X81992210Y-55079900D01*
X81968444Y-54953590D01*
X82612230Y-54953590D01*
X82612230Y-55594250D01*
X82770980Y-55753000D01*
X84919820Y-55753000D01*
X84919820Y-54603650D01*
X85173820Y-54603650D01*
X85173820Y-55753000D01*
X87322660Y-55753000D01*
X87481410Y-55594250D01*
X87481410Y-54953590D01*
X87384737Y-54720201D01*
X87206108Y-54541573D01*
X86972719Y-54444900D01*
X85332570Y-54444900D01*
X85173820Y-54603650D01*
X84919820Y-54603650D01*
X84761070Y-54444900D01*
X83120921Y-54444900D01*
X82887532Y-54541573D01*
X82708903Y-54720201D01*
X82612230Y-54953590D01*
X81968444Y-54953590D01*
X81947932Y-54844583D01*
X81808860Y-54628459D01*
X81596660Y-54483469D01*
X81344770Y-54432460D01*
X80580200Y-54432460D01*
X80580200Y-54379600D01*
X80501415Y-53983523D01*
X80277056Y-53647744D01*
X80277053Y-53647742D01*
X79013000Y-52383688D01*
X79013000Y-50537745D01*
X79689861Y-50537745D01*
X79763995Y-50783864D01*
X80301223Y-50976965D01*
X80871454Y-50949778D01*
X81272005Y-50783864D01*
X81346139Y-50537745D01*
X80518000Y-49709605D01*
X79689861Y-50537745D01*
X79013000Y-50537745D01*
X79013000Y-50524432D01*
X79193824Y-50343923D01*
X79241448Y-50229232D01*
X79264136Y-50284005D01*
X79510255Y-50358139D01*
X80338395Y-49530000D01*
X80324252Y-49515858D01*
X80503858Y-49336253D01*
X80518000Y-49350395D01*
X80532143Y-49336253D01*
X80711748Y-49515858D01*
X80697605Y-49530000D01*
X81525745Y-50358139D01*
X81771864Y-50284005D01*
X81792805Y-50225746D01*
X81840757Y-50341800D01*
X82244077Y-50745824D01*
X82771309Y-50964750D01*
X83342187Y-50965248D01*
X83869800Y-50747243D01*
X84273824Y-50343923D01*
X84327862Y-50213785D01*
X84380757Y-50341800D01*
X84784077Y-50745824D01*
X85311309Y-50964750D01*
X85882187Y-50965248D01*
X86409800Y-50747243D01*
X86813824Y-50343923D01*
X86867862Y-50213785D01*
X86920757Y-50341800D01*
X87324077Y-50745824D01*
X87851309Y-50964750D01*
X88422187Y-50965248D01*
X88949800Y-50747243D01*
X89353824Y-50343923D01*
X89407862Y-50213785D01*
X89460757Y-50341800D01*
X89864077Y-50745824D01*
X90391309Y-50964750D01*
X90962187Y-50965248D01*
X91489800Y-50747243D01*
X91893824Y-50343923D01*
X91947862Y-50213785D01*
X92000757Y-50341800D01*
X92404077Y-50745824D01*
X92931309Y-50964750D01*
X93502187Y-50965248D01*
X94029800Y-50747243D01*
X94239663Y-50537745D01*
X94929861Y-50537745D01*
X95003995Y-50783864D01*
X95541223Y-50976965D01*
X96111454Y-50949778D01*
X96512005Y-50783864D01*
X96586139Y-50537745D01*
X95758000Y-49709605D01*
X94929861Y-50537745D01*
X94239663Y-50537745D01*
X94433824Y-50343923D01*
X94481448Y-50229232D01*
X94504136Y-50284005D01*
X94750255Y-50358139D01*
X95578395Y-49530000D01*
X95937605Y-49530000D01*
X96765745Y-50358139D01*
X97011864Y-50284005D01*
X97204965Y-49746777D01*
X97177778Y-49176546D01*
X97011864Y-48775995D01*
X96765745Y-48701861D01*
X95937605Y-49530000D01*
X95578395Y-49530000D01*
X94750255Y-48701861D01*
X94504136Y-48775995D01*
X94483195Y-48834254D01*
X94435243Y-48718200D01*
X94239640Y-48522255D01*
X94929861Y-48522255D01*
X95758000Y-49350395D01*
X96586139Y-48522255D01*
X96512005Y-48276136D01*
X95974777Y-48083035D01*
X95404546Y-48110222D01*
X95003995Y-48276136D01*
X94929861Y-48522255D01*
X94239640Y-48522255D01*
X94031923Y-48314176D01*
X93504691Y-48095250D01*
X92933813Y-48094752D01*
X92904869Y-48106711D01*
X92483579Y-47685421D01*
X92228907Y-47515255D01*
X91928500Y-47455500D01*
X73357400Y-47455500D01*
X73056994Y-47515255D01*
X72802321Y-47685421D01*
X67915914Y-52571828D01*
X67804607Y-52497455D01*
X67504200Y-52437700D01*
X62525200Y-52437700D01*
X62525200Y-50546000D01*
X62465445Y-50245594D01*
X62437440Y-50203681D01*
X62437440Y-49946000D01*
X62393162Y-49710683D01*
X62254090Y-49494559D01*
X62041890Y-49349569D01*
X61790000Y-49298560D01*
X60890000Y-49298560D01*
X60654683Y-49342838D01*
X60438559Y-49481910D01*
X60293569Y-49694110D01*
X60242560Y-49946000D01*
X60242560Y-51146000D01*
X60286838Y-51381317D01*
X60425910Y-51597441D01*
X60638110Y-51742431D01*
X60890000Y-51793440D01*
X60955200Y-51793440D01*
X60955200Y-52897542D01*
X58782907Y-55069835D01*
X58698527Y-54985308D01*
X58505137Y-54905005D01*
X58308706Y-54773755D01*
X58008300Y-54714000D01*
X57931303Y-54714000D01*
X57909890Y-54699369D01*
X57658000Y-54648360D01*
X57623126Y-54648360D01*
X57623262Y-54491733D01*
X57481217Y-54147957D01*
X57473100Y-54139826D01*
X57473100Y-53173358D01*
X58595079Y-52051379D01*
X58765245Y-51796707D01*
X58781951Y-51712719D01*
X58941441Y-51610090D01*
X59086431Y-51397890D01*
X59137440Y-51146000D01*
X59137440Y-49946000D01*
X59093162Y-49710683D01*
X58954090Y-49494559D01*
X58741890Y-49349569D01*
X58693989Y-49339869D01*
X64159037Y-43874821D01*
X64455715Y-44073054D01*
X65024000Y-44186093D01*
X65592285Y-44073054D01*
X66074054Y-43751147D01*
X66294000Y-43421974D01*
X66513946Y-43751147D01*
X66995715Y-44073054D01*
X67564000Y-44186093D01*
X68132285Y-44073054D01*
X68614054Y-43751147D01*
X68935961Y-43269378D01*
X69049000Y-42701093D01*
X69049000Y-42642907D01*
X68935961Y-42074622D01*
X68614054Y-41592853D01*
X68328422Y-41402000D01*
X68614054Y-41211147D01*
X68935961Y-40729378D01*
X69049000Y-40161093D01*
X69049000Y-40102907D01*
X68935961Y-39534622D01*
X68614054Y-39052853D01*
X68132285Y-38730946D01*
X67564000Y-38617907D01*
X66995715Y-38730946D01*
X66667326Y-38950368D01*
X66086979Y-38370021D01*
X65937423Y-38270091D01*
X85741000Y-38270091D01*
X85741000Y-38945909D01*
X85865457Y-39571596D01*
X86219880Y-40102029D01*
X86750313Y-40456452D01*
X87376000Y-40580909D01*
X88001687Y-40456452D01*
X88532120Y-40102029D01*
X88646000Y-39931595D01*
X88759880Y-40102029D01*
X89290313Y-40456452D01*
X89916000Y-40580909D01*
X90541687Y-40456452D01*
X91072120Y-40102029D01*
X91186000Y-39931595D01*
X91299880Y-40102029D01*
X91830313Y-40456452D01*
X92456000Y-40580909D01*
X93081687Y-40456452D01*
X93440192Y-40216907D01*
X93531910Y-40359441D01*
X93744110Y-40504431D01*
X93996000Y-40555440D01*
X95996000Y-40555440D01*
X96231317Y-40511162D01*
X96447441Y-40372090D01*
X96592431Y-40159890D01*
X96643440Y-39908000D01*
X96643440Y-38270091D01*
X103267000Y-38270091D01*
X103267000Y-38945909D01*
X103391457Y-39571596D01*
X103745880Y-40102029D01*
X104276313Y-40456452D01*
X104902000Y-40580909D01*
X105527687Y-40456452D01*
X106058120Y-40102029D01*
X106172000Y-39931595D01*
X106285880Y-40102029D01*
X106816313Y-40456452D01*
X107442000Y-40580909D01*
X108067687Y-40456452D01*
X108598120Y-40102029D01*
X108712000Y-39931595D01*
X108825880Y-40102029D01*
X109356313Y-40456452D01*
X109982000Y-40580909D01*
X110607687Y-40456452D01*
X110966192Y-40216907D01*
X111057910Y-40359441D01*
X111270110Y-40504431D01*
X111522000Y-40555440D01*
X113522000Y-40555440D01*
X113757317Y-40511162D01*
X113973441Y-40372090D01*
X114118431Y-40159890D01*
X114169440Y-39908000D01*
X114169440Y-37308000D01*
X114125162Y-37072683D01*
X113986090Y-36856559D01*
X113773890Y-36711569D01*
X113522000Y-36660560D01*
X111522000Y-36660560D01*
X111286683Y-36704838D01*
X111070559Y-36843910D01*
X110965049Y-36998329D01*
X110607687Y-36759548D01*
X109982000Y-36635091D01*
X109356313Y-36759548D01*
X108825880Y-37113971D01*
X108712000Y-37284405D01*
X108598120Y-37113971D01*
X108067687Y-36759548D01*
X107442000Y-36635091D01*
X106816313Y-36759548D01*
X106285880Y-37113971D01*
X106172000Y-37284405D01*
X106058120Y-37113971D01*
X105527687Y-36759548D01*
X104902000Y-36635091D01*
X104276313Y-36759548D01*
X103745880Y-37113971D01*
X103391457Y-37644404D01*
X103267000Y-38270091D01*
X96643440Y-38270091D01*
X96643440Y-37308000D01*
X96599162Y-37072683D01*
X96460090Y-36856559D01*
X96247890Y-36711569D01*
X95996000Y-36660560D01*
X93996000Y-36660560D01*
X93760683Y-36704838D01*
X93544559Y-36843910D01*
X93439049Y-36998329D01*
X93081687Y-36759548D01*
X92456000Y-36635091D01*
X91830313Y-36759548D01*
X91299880Y-37113971D01*
X91186000Y-37284405D01*
X91072120Y-37113971D01*
X90541687Y-36759548D01*
X89916000Y-36635091D01*
X89290313Y-36759548D01*
X88759880Y-37113971D01*
X88646000Y-37284405D01*
X88532120Y-37113971D01*
X88001687Y-36759548D01*
X87376000Y-36635091D01*
X86750313Y-36759548D01*
X86219880Y-37113971D01*
X85865457Y-37644404D01*
X85741000Y-38270091D01*
X65937423Y-38270091D01*
X65832307Y-38199855D01*
X65531900Y-38140100D01*
X56142400Y-38140100D01*
X55841994Y-38199855D01*
X55587321Y-38370021D01*
X43038121Y-50919221D01*
X42867955Y-51173893D01*
X42836704Y-51331000D01*
X42808200Y-51474300D01*
X42808200Y-66228300D01*
X42867955Y-66528707D01*
X43038121Y-66783379D01*
X44556872Y-68302130D01*
X44009310Y-68302130D01*
X43773993Y-68346408D01*
X43557869Y-68485480D01*
X43412879Y-68697680D01*
X43361870Y-68949570D01*
X43361870Y-70750430D01*
X43406148Y-70985747D01*
X43545220Y-71201871D01*
X43757420Y-71346861D01*
X44009310Y-71397870D01*
X44023100Y-71397870D01*
X44023100Y-72366130D01*
X44009310Y-72366130D01*
X43773993Y-72410408D01*
X43557869Y-72549480D01*
X43412879Y-72761680D01*
X43361870Y-73013570D01*
X43361870Y-74814430D01*
X43406148Y-75049747D01*
X43545220Y-75265871D01*
X43575845Y-75286797D01*
X42866221Y-75996421D01*
X42696055Y-76251093D01*
X42659398Y-76435380D01*
X42636300Y-76551500D01*
X40685000Y-76551500D01*
X40685000Y-42479909D01*
X40813871Y-42791801D01*
X42200897Y-44181250D01*
X44014061Y-44934141D01*
X45977325Y-44935854D01*
X47791801Y-44186129D01*
X49181250Y-42799103D01*
X49934141Y-40985939D01*
X49935854Y-39022675D01*
X49186129Y-37208199D01*
X47799103Y-35818750D01*
X47476997Y-35685000D01*
X129520091Y-35685000D01*
X129208199Y-35813871D01*
G36*
X58502514Y-39775108D02*
X58623181Y-40005000D01*
X59817000Y-40005000D01*
X59817000Y-39985000D01*
X60071000Y-39985000D01*
X60071000Y-40005000D01*
X60091000Y-40005000D01*
X60091000Y-40259000D01*
X60071000Y-40259000D01*
X60071000Y-42545000D01*
X60091000Y-42545000D01*
X60091000Y-42799000D01*
X60071000Y-42799000D01*
X60071000Y-43998250D01*
X60229750Y-44157000D01*
X60920310Y-44157000D01*
X61153699Y-44060327D01*
X61332327Y-43881698D01*
X61404597Y-43707223D01*
X61433946Y-43751147D01*
X61810674Y-44002868D01*
X55482621Y-50330921D01*
X55312455Y-50585593D01*
X55312455Y-50585594D01*
X55252700Y-50886000D01*
X55252700Y-57454800D01*
X55312455Y-57755206D01*
X55482621Y-58009879D01*
X55737294Y-58180045D01*
X55740560Y-58180695D01*
X55740560Y-58293000D01*
X55760967Y-58401456D01*
X55753000Y-58420691D01*
X55753000Y-58489850D01*
X55783302Y-58520152D01*
X55784838Y-58528317D01*
X55923910Y-58744441D01*
X55932006Y-58749973D01*
X55791569Y-58955510D01*
X55787387Y-58976163D01*
X55753000Y-59010550D01*
X55753000Y-59079709D01*
X55762012Y-59101466D01*
X55740560Y-59207400D01*
X55740560Y-59613800D01*
X55762857Y-59732296D01*
X55740560Y-59842400D01*
X55740560Y-60248800D01*
X55765334Y-60380462D01*
X55740560Y-60502800D01*
X55740560Y-60615105D01*
X55737294Y-60615755D01*
X55482621Y-60785921D01*
X52164621Y-64103921D01*
X51994455Y-64358593D01*
X51994455Y-64358594D01*
X51934700Y-64659000D01*
X51934700Y-73914000D01*
X51994455Y-74214406D01*
X52164621Y-74469079D01*
X52419294Y-74639245D01*
X52422560Y-74639895D01*
X52422560Y-74764000D01*
X52466838Y-74999317D01*
X52605910Y-75215441D01*
X52818110Y-75360431D01*
X53070000Y-75411440D01*
X53970000Y-75411440D01*
X54205317Y-75367162D01*
X54421441Y-75228090D01*
X54566431Y-75015890D01*
X54617440Y-74764000D01*
X54617440Y-74505067D01*
X60368038Y-74505067D01*
X60510083Y-74848843D01*
X60649605Y-74988609D01*
X60579569Y-75091110D01*
X60528560Y-75343000D01*
X60528560Y-76343000D01*
X60572838Y-76578317D01*
X60711910Y-76794441D01*
X60924110Y-76939431D01*
X61176000Y-76990440D01*
X62776000Y-76990440D01*
X63011317Y-76946162D01*
X63227441Y-76807090D01*
X63372431Y-76594890D01*
X63423440Y-76343000D01*
X63423440Y-75343000D01*
X63379162Y-75107683D01*
X63240090Y-74891559D01*
X63027890Y-74746569D01*
X62776000Y-74695560D01*
X62701895Y-74695560D01*
X62701245Y-74692294D01*
X62531079Y-74437621D01*
X62238353Y-74144895D01*
X62238362Y-74134733D01*
X62096317Y-73790957D01*
X61833527Y-73527708D01*
X61489999Y-73385062D01*
X61118033Y-73384738D01*
X60774257Y-73526783D01*
X60511008Y-73789573D01*
X60368362Y-74133101D01*
X60368038Y-74505067D01*
X54617440Y-74505067D01*
X54617440Y-73064000D01*
X54573162Y-72828683D01*
X54434090Y-72612559D01*
X54221890Y-72467569D01*
X53970000Y-72416560D01*
X53504700Y-72416560D01*
X53504700Y-71347440D01*
X53970000Y-71347440D01*
X54205317Y-71303162D01*
X54243254Y-71278750D01*
X57182000Y-71278750D01*
X57182000Y-71919310D01*
X57278673Y-72152699D01*
X57457302Y-72331327D01*
X57690691Y-72428000D01*
X58031250Y-72428000D01*
X58190000Y-72269250D01*
X58190000Y-71120000D01*
X58444000Y-71120000D01*
X58444000Y-72269250D01*
X58602750Y-72428000D01*
X58943309Y-72428000D01*
X59176698Y-72331327D01*
X59355327Y-72152699D01*
X59452000Y-71919310D01*
X59452000Y-71278750D01*
X59293250Y-71120000D01*
X58444000Y-71120000D01*
X58190000Y-71120000D01*
X57340750Y-71120000D01*
X57182000Y-71278750D01*
X54243254Y-71278750D01*
X54421441Y-71164090D01*
X54566431Y-70951890D01*
X54617440Y-70700000D01*
X54617440Y-70575895D01*
X54620707Y-70575245D01*
X54875379Y-70405079D01*
X55213768Y-70066690D01*
X57182000Y-70066690D01*
X57182000Y-70707250D01*
X57340750Y-70866000D01*
X58190000Y-70866000D01*
X58190000Y-69716750D01*
X58444000Y-69716750D01*
X58444000Y-70866000D01*
X59293250Y-70866000D01*
X59452000Y-70707250D01*
X59452000Y-70066690D01*
X59355327Y-69833301D01*
X59176698Y-69654673D01*
X58943309Y-69558000D01*
X58602750Y-69558000D01*
X58444000Y-69716750D01*
X58190000Y-69716750D01*
X58031250Y-69558000D01*
X57690691Y-69558000D01*
X57457302Y-69654673D01*
X57278673Y-69833301D01*
X57182000Y-70066690D01*
X55213768Y-70066690D01*
X59882879Y-65397579D01*
X59933319Y-65322090D01*
X60053045Y-65142906D01*
X60112800Y-64842500D01*
X60112800Y-60309258D01*
X60451903Y-60648361D01*
X60289308Y-60810673D01*
X60146662Y-61154201D01*
X60146338Y-61526167D01*
X60288383Y-61869943D01*
X60551173Y-62133192D01*
X60894701Y-62275838D01*
X61266667Y-62276162D01*
X61553707Y-62157560D01*
X61722000Y-62191640D01*
X62557300Y-62191640D01*
X62557300Y-71940042D01*
X62455316Y-71838058D01*
X62464440Y-71793000D01*
X62464440Y-70193000D01*
X62420162Y-69957683D01*
X62281090Y-69741559D01*
X62068890Y-69596569D01*
X61817000Y-69545560D01*
X60817000Y-69545560D01*
X60581683Y-69589838D01*
X60365559Y-69728910D01*
X60220569Y-69941110D01*
X60169560Y-70193000D01*
X60169560Y-71793000D01*
X60213838Y-72028317D01*
X60352910Y-72244441D01*
X60565110Y-72389431D01*
X60581624Y-72392775D01*
X60591755Y-72443706D01*
X60761921Y-72698379D01*
X61016594Y-72868545D01*
X61317000Y-72928300D01*
X61325242Y-72928300D01*
X62396347Y-73999405D01*
X62396338Y-74009567D01*
X62538383Y-74353343D01*
X62801173Y-74616592D01*
X63144701Y-74759238D01*
X63516667Y-74759562D01*
X63860443Y-74617517D01*
X63888600Y-74589409D01*
X63888600Y-76626300D01*
X63948355Y-76926707D01*
X64118521Y-77181379D01*
X64805288Y-77868146D01*
X64788559Y-77878910D01*
X64643569Y-78091110D01*
X64592560Y-78343000D01*
X64592560Y-79343000D01*
X64636838Y-79578317D01*
X64775910Y-79794441D01*
X64988110Y-79939431D01*
X65240000Y-79990440D01*
X66840000Y-79990440D01*
X67075317Y-79946162D01*
X67291441Y-79807090D01*
X67436431Y-79594890D01*
X67487440Y-79343000D01*
X67487440Y-78343000D01*
X67443162Y-78107683D01*
X67304090Y-77891559D01*
X67091890Y-77746569D01*
X66840000Y-77695560D01*
X66765895Y-77695560D01*
X66765245Y-77692294D01*
X66595079Y-77437621D01*
X66135458Y-76978000D01*
X66167002Y-76978000D01*
X66167002Y-76819252D01*
X66325750Y-76978000D01*
X66966310Y-76978000D01*
X67199699Y-76881327D01*
X67378327Y-76702698D01*
X67475000Y-76469309D01*
X67475000Y-76128750D01*
X67316250Y-75970000D01*
X66167000Y-75970000D01*
X66167000Y-75990000D01*
X65913000Y-75990000D01*
X65913000Y-75970000D01*
X65893000Y-75970000D01*
X65893000Y-75716000D01*
X65913000Y-75716000D01*
X65913000Y-74866750D01*
X66167000Y-74866750D01*
X66167000Y-75716000D01*
X67316250Y-75716000D01*
X67475000Y-75557250D01*
X67475000Y-75216691D01*
X67378327Y-74983302D01*
X67199699Y-74804673D01*
X66966310Y-74708000D01*
X66325750Y-74708000D01*
X66167000Y-74866750D01*
X65913000Y-74866750D01*
X65754250Y-74708000D01*
X65458600Y-74708000D01*
X65458600Y-73652505D01*
X65458601Y-73652500D01*
X65398845Y-73352094D01*
X65383949Y-73329800D01*
X65228679Y-73097421D01*
X65228676Y-73097419D01*
X64621697Y-72490440D01*
X65040000Y-72490440D01*
X65275317Y-72446162D01*
X65491441Y-72307090D01*
X65636431Y-72094890D01*
X65670207Y-71928099D01*
X65742767Y-71928162D01*
X66086543Y-71786117D01*
X66349792Y-71523327D01*
X66392560Y-71420331D01*
X66392560Y-71843000D01*
X66436838Y-72078317D01*
X66575910Y-72294441D01*
X66788110Y-72439431D01*
X67040000Y-72490440D01*
X67940000Y-72490440D01*
X68175317Y-72446162D01*
X68391441Y-72307090D01*
X68536431Y-72094890D01*
X68587440Y-71843000D01*
X68587440Y-71778000D01*
X68691942Y-71778000D01*
X70367021Y-73453079D01*
X70621694Y-73623245D01*
X70865686Y-73671778D01*
X71062574Y-73966442D01*
X71037083Y-73971238D01*
X70820959Y-74110310D01*
X70675969Y-74322510D01*
X70624960Y-74574400D01*
X70624960Y-76301600D01*
X70669238Y-76536917D01*
X70683801Y-76559548D01*
X70442833Y-76559338D01*
X70099057Y-76701383D01*
X69835808Y-76964173D01*
X69693162Y-77307701D01*
X69693152Y-77319190D01*
X68974621Y-78037721D01*
X68804455Y-78292393D01*
X68767017Y-78480608D01*
X68744700Y-78592800D01*
X68744700Y-82836000D01*
X68804455Y-83136406D01*
X68974621Y-83391079D01*
X69139264Y-83501089D01*
X68851033Y-83500838D01*
X68507257Y-83642883D01*
X68244008Y-83905673D01*
X68101362Y-84249201D01*
X68101038Y-84621167D01*
X68243083Y-84964943D01*
X68505873Y-85228192D01*
X68849401Y-85370838D01*
X69221367Y-85371162D01*
X69245000Y-85361397D01*
X69245000Y-85363002D01*
X69383400Y-85363002D01*
X69339505Y-85427245D01*
X69245000Y-85521750D01*
X69245000Y-85637310D01*
X69253468Y-85657753D01*
X69232560Y-85761000D01*
X69232560Y-86311000D01*
X69256944Y-86440589D01*
X69232560Y-86561000D01*
X69232560Y-86851000D01*
X58637887Y-86851000D01*
X58743317Y-86831162D01*
X58959441Y-86692090D01*
X59047644Y-86563000D01*
X59749300Y-86563000D01*
X60049707Y-86503245D01*
X60304379Y-86333079D01*
X60541000Y-86096458D01*
X60541000Y-86327309D01*
X60637673Y-86560698D01*
X60816301Y-86739327D01*
X61049690Y-86836000D01*
X61690250Y-86836000D01*
X61849000Y-86677250D01*
X61849000Y-85828000D01*
X62103000Y-85828000D01*
X62103000Y-86677250D01*
X62261750Y-86836000D01*
X62902310Y-86836000D01*
X63135699Y-86739327D01*
X63314327Y-86560698D01*
X63411000Y-86327309D01*
X63411000Y-85986750D01*
X64605000Y-85986750D01*
X64605000Y-86327309D01*
X64701673Y-86560698D01*
X64880301Y-86739327D01*
X65113690Y-86836000D01*
X65754250Y-86836000D01*
X65913000Y-86677250D01*
X65913000Y-85828000D01*
X66167000Y-85828000D01*
X66167000Y-86677250D01*
X66325750Y-86836000D01*
X66966310Y-86836000D01*
X67199699Y-86739327D01*
X67378327Y-86560698D01*
X67475000Y-86327309D01*
X67475000Y-85986750D01*
X67316250Y-85828000D01*
X66167000Y-85828000D01*
X65913000Y-85828000D01*
X64763750Y-85828000D01*
X64605000Y-85986750D01*
X63411000Y-85986750D01*
X63252250Y-85828000D01*
X62103000Y-85828000D01*
X61849000Y-85828000D01*
X61829000Y-85828000D01*
X61829000Y-85574000D01*
X61849000Y-85574000D01*
X61849000Y-85554000D01*
X62103000Y-85554000D01*
X62103000Y-85574000D01*
X63252250Y-85574000D01*
X63411000Y-85415250D01*
X63411000Y-85074691D01*
X64605000Y-85074691D01*
X64605000Y-85415250D01*
X64763750Y-85574000D01*
X65913000Y-85574000D01*
X65913000Y-84724750D01*
X66167000Y-84724750D01*
X66167000Y-85574000D01*
X67316250Y-85574000D01*
X67475000Y-85415250D01*
X67475000Y-85074691D01*
X67378327Y-84841302D01*
X67199699Y-84662673D01*
X66966310Y-84566000D01*
X66325750Y-84566000D01*
X66167000Y-84724750D01*
X65913000Y-84724750D01*
X65754250Y-84566000D01*
X65113690Y-84566000D01*
X64880301Y-84662673D01*
X64701673Y-84841302D01*
X64605000Y-85074691D01*
X63411000Y-85074691D01*
X63314327Y-84841302D01*
X63135699Y-84662673D01*
X62902310Y-84566000D01*
X62261750Y-84566000D01*
X62103002Y-84724748D01*
X62103002Y-84566000D01*
X62071458Y-84566000D01*
X62531079Y-84106379D01*
X62701245Y-83851707D01*
X62701895Y-83848440D01*
X62776000Y-83848440D01*
X63011317Y-83804162D01*
X63227441Y-83665090D01*
X63349808Y-83486000D01*
X64668808Y-83486000D01*
X64775910Y-83652441D01*
X64988110Y-83797431D01*
X65240000Y-83848440D01*
X66840000Y-83848440D01*
X67075317Y-83804162D01*
X67291441Y-83665090D01*
X67436431Y-83452890D01*
X67487440Y-83201000D01*
X67487440Y-82201000D01*
X67443162Y-81965683D01*
X67304090Y-81749559D01*
X67271739Y-81727455D01*
X67400792Y-81598627D01*
X67543438Y-81255099D01*
X67543762Y-80883133D01*
X67401717Y-80539357D01*
X67138927Y-80276108D01*
X66795399Y-80133462D01*
X66423433Y-80133138D01*
X66079657Y-80275183D01*
X65816408Y-80537973D01*
X65673762Y-80881501D01*
X65673752Y-80892990D01*
X65484921Y-81081821D01*
X65314755Y-81336493D01*
X65271577Y-81553560D01*
X65240000Y-81553560D01*
X65004683Y-81597838D01*
X64788559Y-81736910D01*
X64666192Y-81916000D01*
X63347192Y-81916000D01*
X63240090Y-81749559D01*
X63027890Y-81604569D01*
X62776000Y-81553560D01*
X61176000Y-81553560D01*
X60940683Y-81597838D01*
X60724559Y-81736910D01*
X60579569Y-81949110D01*
X60528560Y-82201000D01*
X60528560Y-83201000D01*
X60572838Y-83436317D01*
X60711910Y-83652441D01*
X60743272Y-83673870D01*
X59424142Y-84993000D01*
X59047018Y-84993000D01*
X58972090Y-84876559D01*
X58759890Y-84731569D01*
X58508000Y-84680560D01*
X56808000Y-84680560D01*
X56572683Y-84724838D01*
X56356559Y-84863910D01*
X56268356Y-84993000D01*
X46934058Y-84993000D01*
X45498498Y-83557440D01*
X45822000Y-83557440D01*
X46057317Y-83513162D01*
X46273441Y-83374090D01*
X46418431Y-83161890D01*
X46442102Y-83045000D01*
X51599962Y-83045000D01*
X51618838Y-83145317D01*
X51757910Y-83361441D01*
X51970110Y-83506431D01*
X52222000Y-83557440D01*
X53772000Y-83557440D01*
X54007317Y-83513162D01*
X54223441Y-83374090D01*
X54304342Y-83255687D01*
X54340100Y-83262800D01*
X56160560Y-83262800D01*
X56160560Y-83328000D01*
X56204838Y-83563317D01*
X56343910Y-83779441D01*
X56556110Y-83924431D01*
X56808000Y-83975440D01*
X58508000Y-83975440D01*
X58743317Y-83931162D01*
X58959441Y-83792090D01*
X59104431Y-83579890D01*
X59155440Y-83328000D01*
X59155440Y-82428000D01*
X59111162Y-82192683D01*
X59088497Y-82157461D01*
X61255518Y-79990440D01*
X62776000Y-79990440D01*
X63011317Y-79946162D01*
X63227441Y-79807090D01*
X63372431Y-79594890D01*
X63423440Y-79343000D01*
X63423440Y-78343000D01*
X63379162Y-78107683D01*
X63240090Y-77891559D01*
X63027890Y-77746569D01*
X62776000Y-77695560D01*
X61176000Y-77695560D01*
X60940683Y-77739838D01*
X60724559Y-77878910D01*
X60579569Y-78091110D01*
X60576225Y-78107624D01*
X60525294Y-78117755D01*
X60270621Y-78287921D01*
X60100455Y-78542594D01*
X60040700Y-78843000D01*
X60040700Y-78984942D01*
X57332842Y-81692800D01*
X54659239Y-81692800D01*
X54422707Y-81534755D01*
X54404604Y-81531154D01*
X54375162Y-81374683D01*
X54236090Y-81158559D01*
X54023890Y-81013569D01*
X53772000Y-80962560D01*
X52222000Y-80962560D01*
X51986683Y-81006838D01*
X51770559Y-81145910D01*
X51625569Y-81358110D01*
X51601898Y-81475000D01*
X46444038Y-81475000D01*
X46425162Y-81374683D01*
X46286090Y-81158559D01*
X46073890Y-81013569D01*
X45831900Y-80964565D01*
X45831900Y-79606600D01*
X45772145Y-79306194D01*
X45601979Y-79051521D01*
X45595458Y-79045000D01*
X45948309Y-79045000D01*
X46181698Y-78948327D01*
X46360327Y-78769699D01*
X46457000Y-78536310D01*
X46457000Y-78045750D01*
X51587000Y-78045750D01*
X51587000Y-78536310D01*
X51683673Y-78769699D01*
X51862302Y-78948327D01*
X52095691Y-79045000D01*
X52711250Y-79045000D01*
X52870000Y-78886250D01*
X52870000Y-77887000D01*
X53124000Y-77887000D01*
X53124000Y-78886250D01*
X53282750Y-79045000D01*
X53898309Y-79045000D01*
X54131698Y-78948327D01*
X54310327Y-78769699D01*
X54407000Y-78536310D01*
X54407000Y-78045750D01*
X54248250Y-77887000D01*
X53124000Y-77887000D01*
X52870000Y-77887000D01*
X51745750Y-77887000D01*
X51587000Y-78045750D01*
X46457000Y-78045750D01*
X46298250Y-77887000D01*
X45174000Y-77887000D01*
X45174000Y-77907000D01*
X44920000Y-77907000D01*
X44920000Y-77887000D01*
X44900000Y-77887000D01*
X44900000Y-77633000D01*
X44920000Y-77633000D01*
X44920000Y-77613000D01*
X45174000Y-77613000D01*
X45174000Y-77633000D01*
X46298250Y-77633000D01*
X46457000Y-77474250D01*
X46457000Y-76983690D01*
X51587000Y-76983690D01*
X51587000Y-77474250D01*
X51745750Y-77633000D01*
X52870000Y-77633000D01*
X52870000Y-76633750D01*
X53124000Y-76633750D01*
X53124000Y-77633000D01*
X54248250Y-77633000D01*
X54407000Y-77474250D01*
X54407000Y-76983690D01*
X54310327Y-76750301D01*
X54131698Y-76571673D01*
X53898309Y-76475000D01*
X53282750Y-76475000D01*
X53124000Y-76633750D01*
X52870000Y-76633750D01*
X52711250Y-76475000D01*
X52095691Y-76475000D01*
X51862302Y-76571673D01*
X51683673Y-76750301D01*
X51587000Y-76983690D01*
X46457000Y-76983690D01*
X46360327Y-76750301D01*
X46181698Y-76571673D01*
X45948309Y-76475000D01*
X45470458Y-76475000D01*
X46061767Y-75883691D01*
X46307079Y-75719779D01*
X46512279Y-75514579D01*
X46586458Y-75403562D01*
X46597140Y-75410861D01*
X46849030Y-75461870D01*
X48446690Y-75461870D01*
X48682007Y-75417592D01*
X48898131Y-75278520D01*
X49043121Y-75066320D01*
X49094130Y-74814430D01*
X49094130Y-74699000D01*
X49522560Y-74699000D01*
X49522560Y-74764000D01*
X49566838Y-74999317D01*
X49705910Y-75215441D01*
X49918110Y-75360431D01*
X50170000Y-75411440D01*
X51070000Y-75411440D01*
X51305317Y-75367162D01*
X51521441Y-75228090D01*
X51666431Y-75015890D01*
X51717440Y-74764000D01*
X51717440Y-73064000D01*
X51673162Y-72828683D01*
X51534090Y-72612559D01*
X51321890Y-72467569D01*
X51070000Y-72416560D01*
X50170000Y-72416560D01*
X49934683Y-72460838D01*
X49718559Y-72599910D01*
X49573569Y-72812110D01*
X49522560Y-73064000D01*
X49522560Y-73129000D01*
X49094130Y-73129000D01*
X49094130Y-73013570D01*
X49049852Y-72778253D01*
X48910780Y-72562129D01*
X48698580Y-72417139D01*
X48446690Y-72366130D01*
X46849030Y-72366130D01*
X46742200Y-72386231D01*
X46742200Y-71376236D01*
X46849030Y-71397870D01*
X48446690Y-71397870D01*
X48682007Y-71353592D01*
X48898131Y-71214520D01*
X49043121Y-71002320D01*
X49094130Y-70750430D01*
X49094130Y-70635000D01*
X49522560Y-70635000D01*
X49522560Y-70700000D01*
X49566838Y-70935317D01*
X49705910Y-71151441D01*
X49918110Y-71296431D01*
X50170000Y-71347440D01*
X51070000Y-71347440D01*
X51305317Y-71303162D01*
X51521441Y-71164090D01*
X51666431Y-70951890D01*
X51717440Y-70700000D01*
X51717440Y-69000000D01*
X51673162Y-68764683D01*
X51534090Y-68548559D01*
X51321890Y-68403569D01*
X51070000Y-68352560D01*
X50170000Y-68352560D01*
X49934683Y-68396838D01*
X49718559Y-68535910D01*
X49573569Y-68748110D01*
X49522560Y-69000000D01*
X49522560Y-69065000D01*
X49094130Y-69065000D01*
X49094130Y-68949570D01*
X49049852Y-68714253D01*
X48910780Y-68498129D01*
X48698580Y-68353139D01*
X48446690Y-68302130D01*
X46849030Y-68302130D01*
X46690418Y-68331975D01*
X46682445Y-68291894D01*
X46512279Y-68037221D01*
X44539026Y-66063968D01*
X44951955Y-66223737D01*
X45741418Y-66205164D01*
X46384522Y-65938782D01*
X46525988Y-65635593D01*
X45300000Y-64409605D01*
X45285858Y-64423748D01*
X45106253Y-64244143D01*
X45120395Y-64230000D01*
X45479605Y-64230000D01*
X46705593Y-65455988D01*
X47008782Y-65314522D01*
X47293737Y-64578045D01*
X47275164Y-63788582D01*
X47008782Y-63145478D01*
X46705593Y-63004012D01*
X45479605Y-64230000D01*
X45120395Y-64230000D01*
X45106253Y-64215858D01*
X45285858Y-64036253D01*
X45300000Y-64050395D01*
X46525988Y-62824407D01*
X46384522Y-62521218D01*
X45648045Y-62236263D01*
X44858582Y-62254836D01*
X44378200Y-62453816D01*
X44378200Y-60478764D01*
X47200841Y-60478764D01*
X47270059Y-60720742D01*
X47792780Y-60907155D01*
X48347049Y-60879341D01*
X48729941Y-60720742D01*
X48799159Y-60478764D01*
X48000000Y-59679605D01*
X47200841Y-60478764D01*
X44378200Y-60478764D01*
X44378200Y-59292780D01*
X46592845Y-59292780D01*
X46620659Y-59847049D01*
X46779258Y-60229941D01*
X47021236Y-60299159D01*
X47820395Y-59500000D01*
X47021236Y-58700841D01*
X46779258Y-58770059D01*
X46592845Y-59292780D01*
X44378200Y-59292780D01*
X44378200Y-57236265D01*
X46604758Y-57236265D01*
X46816687Y-57749172D01*
X47208764Y-58141934D01*
X47404934Y-58223391D01*
X47270059Y-58279258D01*
X47200841Y-58521236D01*
X48000000Y-59320395D01*
X48799159Y-58521236D01*
X48729941Y-58279258D01*
X48585138Y-58227618D01*
X48789172Y-58143313D01*
X49000024Y-57932829D01*
X49208764Y-58141934D01*
X49420738Y-58229954D01*
X49210828Y-58316687D01*
X48818066Y-58708764D01*
X48709581Y-58970024D01*
X48179605Y-59500000D01*
X48709595Y-60029990D01*
X48816687Y-60289172D01*
X49208764Y-60681934D01*
X49721300Y-60894758D01*
X50276265Y-60895242D01*
X50789172Y-60683313D01*
X51181934Y-60291236D01*
X51394758Y-59778700D01*
X51395242Y-59223735D01*
X51183313Y-58710828D01*
X50791236Y-58318066D01*
X50579262Y-58230046D01*
X50789172Y-58143313D01*
X51181934Y-57751236D01*
X51394758Y-57238700D01*
X51395242Y-56683735D01*
X51183313Y-56170828D01*
X50791236Y-55778066D01*
X50278700Y-55565242D01*
X49723735Y-55564758D01*
X49210828Y-55776687D01*
X48999976Y-55987171D01*
X48791236Y-55778066D01*
X48278700Y-55565242D01*
X47723735Y-55564758D01*
X47210828Y-55776687D01*
X46818066Y-56168764D01*
X46605242Y-56681300D01*
X46604758Y-57236265D01*
X44378200Y-57236265D01*
X44378200Y-54001742D01*
X44951955Y-54223737D01*
X45741418Y-54205164D01*
X46384522Y-53938782D01*
X46525988Y-53635593D01*
X45300000Y-52409605D01*
X45285858Y-52423748D01*
X45106253Y-52244143D01*
X45120395Y-52230000D01*
X45479605Y-52230000D01*
X46705593Y-53455988D01*
X47008782Y-53314522D01*
X47293737Y-52578045D01*
X47275164Y-51788582D01*
X47008782Y-51145478D01*
X46705593Y-51004012D01*
X45479605Y-52230000D01*
X45120395Y-52230000D01*
X45106253Y-52215858D01*
X45285858Y-52036253D01*
X45300000Y-52050395D01*
X46525988Y-50824407D01*
X46384522Y-50521218D01*
X45859557Y-50318101D01*
X53219908Y-42957750D01*
X58459000Y-42957750D01*
X58459000Y-43648309D01*
X58555673Y-43881698D01*
X58734301Y-44060327D01*
X58967690Y-44157000D01*
X59658250Y-44157000D01*
X59817000Y-43998250D01*
X59817000Y-42799000D01*
X58617750Y-42799000D01*
X58459000Y-42957750D01*
X53219908Y-42957750D01*
X54481967Y-41695691D01*
X58459000Y-41695691D01*
X58459000Y-42386250D01*
X58617750Y-42545000D01*
X59817000Y-42545000D01*
X59817000Y-40259000D01*
X58623181Y-40259000D01*
X58502514Y-40488892D01*
X58748817Y-41013358D01*
X58948208Y-41195070D01*
X58734301Y-41283673D01*
X58555673Y-41462302D01*
X58459000Y-41695691D01*
X54481967Y-41695691D01*
X56467558Y-39710100D01*
X58533043Y-39710100D01*
X58502514Y-39775108D01*
X58502514Y-39775108D01*
G37*
X58502514Y-39775108D02*
X58623181Y-40005000D01*
X59817000Y-40005000D01*
X59817000Y-39985000D01*
X60071000Y-39985000D01*
X60071000Y-40005000D01*
X60091000Y-40005000D01*
X60091000Y-40259000D01*
X60071000Y-40259000D01*
X60071000Y-42545000D01*
X60091000Y-42545000D01*
X60091000Y-42799000D01*
X60071000Y-42799000D01*
X60071000Y-43998250D01*
X60229750Y-44157000D01*
X60920310Y-44157000D01*
X61153699Y-44060327D01*
X61332327Y-43881698D01*
X61404597Y-43707223D01*
X61433946Y-43751147D01*
X61810674Y-44002868D01*
X55482621Y-50330921D01*
X55312455Y-50585593D01*
X55312455Y-50585594D01*
X55252700Y-50886000D01*
X55252700Y-57454800D01*
X55312455Y-57755206D01*
X55482621Y-58009879D01*
X55737294Y-58180045D01*
X55740560Y-58180695D01*
X55740560Y-58293000D01*
X55760967Y-58401456D01*
X55753000Y-58420691D01*
X55753000Y-58489850D01*
X55783302Y-58520152D01*
X55784838Y-58528317D01*
X55923910Y-58744441D01*
X55932006Y-58749973D01*
X55791569Y-58955510D01*
X55787387Y-58976163D01*
X55753000Y-59010550D01*
X55753000Y-59079709D01*
X55762012Y-59101466D01*
X55740560Y-59207400D01*
X55740560Y-59613800D01*
X55762857Y-59732296D01*
X55740560Y-59842400D01*
X55740560Y-60248800D01*
X55765334Y-60380462D01*
X55740560Y-60502800D01*
X55740560Y-60615105D01*
X55737294Y-60615755D01*
X55482621Y-60785921D01*
X52164621Y-64103921D01*
X51994455Y-64358593D01*
X51994455Y-64358594D01*
X51934700Y-64659000D01*
X51934700Y-73914000D01*
X51994455Y-74214406D01*
X52164621Y-74469079D01*
X52419294Y-74639245D01*
X52422560Y-74639895D01*
X52422560Y-74764000D01*
X52466838Y-74999317D01*
X52605910Y-75215441D01*
X52818110Y-75360431D01*
X53070000Y-75411440D01*
X53970000Y-75411440D01*
X54205317Y-75367162D01*
X54421441Y-75228090D01*
X54566431Y-75015890D01*
X54617440Y-74764000D01*
X54617440Y-74505067D01*
X60368038Y-74505067D01*
X60510083Y-74848843D01*
X60649605Y-74988609D01*
X60579569Y-75091110D01*
X60528560Y-75343000D01*
X60528560Y-76343000D01*
X60572838Y-76578317D01*
X60711910Y-76794441D01*
X60924110Y-76939431D01*
X61176000Y-76990440D01*
X62776000Y-76990440D01*
X63011317Y-76946162D01*
X63227441Y-76807090D01*
X63372431Y-76594890D01*
X63423440Y-76343000D01*
X63423440Y-75343000D01*
X63379162Y-75107683D01*
X63240090Y-74891559D01*
X63027890Y-74746569D01*
X62776000Y-74695560D01*
X62701895Y-74695560D01*
X62701245Y-74692294D01*
X62531079Y-74437621D01*
X62238353Y-74144895D01*
X62238362Y-74134733D01*
X62096317Y-73790957D01*
X61833527Y-73527708D01*
X61489999Y-73385062D01*
X61118033Y-73384738D01*
X60774257Y-73526783D01*
X60511008Y-73789573D01*
X60368362Y-74133101D01*
X60368038Y-74505067D01*
X54617440Y-74505067D01*
X54617440Y-73064000D01*
X54573162Y-72828683D01*
X54434090Y-72612559D01*
X54221890Y-72467569D01*
X53970000Y-72416560D01*
X53504700Y-72416560D01*
X53504700Y-71347440D01*
X53970000Y-71347440D01*
X54205317Y-71303162D01*
X54243254Y-71278750D01*
X57182000Y-71278750D01*
X57182000Y-71919310D01*
X57278673Y-72152699D01*
X57457302Y-72331327D01*
X57690691Y-72428000D01*
X58031250Y-72428000D01*
X58190000Y-72269250D01*
X58190000Y-71120000D01*
X58444000Y-71120000D01*
X58444000Y-72269250D01*
X58602750Y-72428000D01*
X58943309Y-72428000D01*
X59176698Y-72331327D01*
X59355327Y-72152699D01*
X59452000Y-71919310D01*
X59452000Y-71278750D01*
X59293250Y-71120000D01*
X58444000Y-71120000D01*
X58190000Y-71120000D01*
X57340750Y-71120000D01*
X57182000Y-71278750D01*
X54243254Y-71278750D01*
X54421441Y-71164090D01*
X54566431Y-70951890D01*
X54617440Y-70700000D01*
X54617440Y-70575895D01*
X54620707Y-70575245D01*
X54875379Y-70405079D01*
X55213768Y-70066690D01*
X57182000Y-70066690D01*
X57182000Y-70707250D01*
X57340750Y-70866000D01*
X58190000Y-70866000D01*
X58190000Y-69716750D01*
X58444000Y-69716750D01*
X58444000Y-70866000D01*
X59293250Y-70866000D01*
X59452000Y-70707250D01*
X59452000Y-70066690D01*
X59355327Y-69833301D01*
X59176698Y-69654673D01*
X58943309Y-69558000D01*
X58602750Y-69558000D01*
X58444000Y-69716750D01*
X58190000Y-69716750D01*
X58031250Y-69558000D01*
X57690691Y-69558000D01*
X57457302Y-69654673D01*
X57278673Y-69833301D01*
X57182000Y-70066690D01*
X55213768Y-70066690D01*
X59882879Y-65397579D01*
X59933319Y-65322090D01*
X60053045Y-65142906D01*
X60112800Y-64842500D01*
X60112800Y-60309258D01*
X60451903Y-60648361D01*
X60289308Y-60810673D01*
X60146662Y-61154201D01*
X60146338Y-61526167D01*
X60288383Y-61869943D01*
X60551173Y-62133192D01*
X60894701Y-62275838D01*
X61266667Y-62276162D01*
X61553707Y-62157560D01*
X61722000Y-62191640D01*
X62557300Y-62191640D01*
X62557300Y-71940042D01*
X62455316Y-71838058D01*
X62464440Y-71793000D01*
X62464440Y-70193000D01*
X62420162Y-69957683D01*
X62281090Y-69741559D01*
X62068890Y-69596569D01*
X61817000Y-69545560D01*
X60817000Y-69545560D01*
X60581683Y-69589838D01*
X60365559Y-69728910D01*
X60220569Y-69941110D01*
X60169560Y-70193000D01*
X60169560Y-71793000D01*
X60213838Y-72028317D01*
X60352910Y-72244441D01*
X60565110Y-72389431D01*
X60581624Y-72392775D01*
X60591755Y-72443706D01*
X60761921Y-72698379D01*
X61016594Y-72868545D01*
X61317000Y-72928300D01*
X61325242Y-72928300D01*
X62396347Y-73999405D01*
X62396338Y-74009567D01*
X62538383Y-74353343D01*
X62801173Y-74616592D01*
X63144701Y-74759238D01*
X63516667Y-74759562D01*
X63860443Y-74617517D01*
X63888600Y-74589409D01*
X63888600Y-76626300D01*
X63948355Y-76926707D01*
X64118521Y-77181379D01*
X64805288Y-77868146D01*
X64788559Y-77878910D01*
X64643569Y-78091110D01*
X64592560Y-78343000D01*
X64592560Y-79343000D01*
X64636838Y-79578317D01*
X64775910Y-79794441D01*
X64988110Y-79939431D01*
X65240000Y-79990440D01*
X66840000Y-79990440D01*
X67075317Y-79946162D01*
X67291441Y-79807090D01*
X67436431Y-79594890D01*
X67487440Y-79343000D01*
X67487440Y-78343000D01*
X67443162Y-78107683D01*
X67304090Y-77891559D01*
X67091890Y-77746569D01*
X66840000Y-77695560D01*
X66765895Y-77695560D01*
X66765245Y-77692294D01*
X66595079Y-77437621D01*
X66135458Y-76978000D01*
X66167002Y-76978000D01*
X66167002Y-76819252D01*
X66325750Y-76978000D01*
X66966310Y-76978000D01*
X67199699Y-76881327D01*
X67378327Y-76702698D01*
X67475000Y-76469309D01*
X67475000Y-76128750D01*
X67316250Y-75970000D01*
X66167000Y-75970000D01*
X66167000Y-75990000D01*
X65913000Y-75990000D01*
X65913000Y-75970000D01*
X65893000Y-75970000D01*
X65893000Y-75716000D01*
X65913000Y-75716000D01*
X65913000Y-74866750D01*
X66167000Y-74866750D01*
X66167000Y-75716000D01*
X67316250Y-75716000D01*
X67475000Y-75557250D01*
X67475000Y-75216691D01*
X67378327Y-74983302D01*
X67199699Y-74804673D01*
X66966310Y-74708000D01*
X66325750Y-74708000D01*
X66167000Y-74866750D01*
X65913000Y-74866750D01*
X65754250Y-74708000D01*
X65458600Y-74708000D01*
X65458600Y-73652505D01*
X65458601Y-73652500D01*
X65398845Y-73352094D01*
X65383949Y-73329800D01*
X65228679Y-73097421D01*
X65228676Y-73097419D01*
X64621697Y-72490440D01*
X65040000Y-72490440D01*
X65275317Y-72446162D01*
X65491441Y-72307090D01*
X65636431Y-72094890D01*
X65670207Y-71928099D01*
X65742767Y-71928162D01*
X66086543Y-71786117D01*
X66349792Y-71523327D01*
X66392560Y-71420331D01*
X66392560Y-71843000D01*
X66436838Y-72078317D01*
X66575910Y-72294441D01*
X66788110Y-72439431D01*
X67040000Y-72490440D01*
X67940000Y-72490440D01*
X68175317Y-72446162D01*
X68391441Y-72307090D01*
X68536431Y-72094890D01*
X68587440Y-71843000D01*
X68587440Y-71778000D01*
X68691942Y-71778000D01*
X70367021Y-73453079D01*
X70621694Y-73623245D01*
X70865686Y-73671778D01*
X71062574Y-73966442D01*
X71037083Y-73971238D01*
X70820959Y-74110310D01*
X70675969Y-74322510D01*
X70624960Y-74574400D01*
X70624960Y-76301600D01*
X70669238Y-76536917D01*
X70683801Y-76559548D01*
X70442833Y-76559338D01*
X70099057Y-76701383D01*
X69835808Y-76964173D01*
X69693162Y-77307701D01*
X69693152Y-77319190D01*
X68974621Y-78037721D01*
X68804455Y-78292393D01*
X68767017Y-78480608D01*
X68744700Y-78592800D01*
X68744700Y-82836000D01*
X68804455Y-83136406D01*
X68974621Y-83391079D01*
X69139264Y-83501089D01*
X68851033Y-83500838D01*
X68507257Y-83642883D01*
X68244008Y-83905673D01*
X68101362Y-84249201D01*
X68101038Y-84621167D01*
X68243083Y-84964943D01*
X68505873Y-85228192D01*
X68849401Y-85370838D01*
X69221367Y-85371162D01*
X69245000Y-85361397D01*
X69245000Y-85363002D01*
X69383400Y-85363002D01*
X69339505Y-85427245D01*
X69245000Y-85521750D01*
X69245000Y-85637310D01*
X69253468Y-85657753D01*
X69232560Y-85761000D01*
X69232560Y-86311000D01*
X69256944Y-86440589D01*
X69232560Y-86561000D01*
X69232560Y-86851000D01*
X58637887Y-86851000D01*
X58743317Y-86831162D01*
X58959441Y-86692090D01*
X59047644Y-86563000D01*
X59749300Y-86563000D01*
X60049707Y-86503245D01*
X60304379Y-86333079D01*
X60541000Y-86096458D01*
X60541000Y-86327309D01*
X60637673Y-86560698D01*
X60816301Y-86739327D01*
X61049690Y-86836000D01*
X61690250Y-86836000D01*
X61849000Y-86677250D01*
X61849000Y-85828000D01*
X62103000Y-85828000D01*
X62103000Y-86677250D01*
X62261750Y-86836000D01*
X62902310Y-86836000D01*
X63135699Y-86739327D01*
X63314327Y-86560698D01*
X63411000Y-86327309D01*
X63411000Y-85986750D01*
X64605000Y-85986750D01*
X64605000Y-86327309D01*
X64701673Y-86560698D01*
X64880301Y-86739327D01*
X65113690Y-86836000D01*
X65754250Y-86836000D01*
X65913000Y-86677250D01*
X65913000Y-85828000D01*
X66167000Y-85828000D01*
X66167000Y-86677250D01*
X66325750Y-86836000D01*
X66966310Y-86836000D01*
X67199699Y-86739327D01*
X67378327Y-86560698D01*
X67475000Y-86327309D01*
X67475000Y-85986750D01*
X67316250Y-85828000D01*
X66167000Y-85828000D01*
X65913000Y-85828000D01*
X64763750Y-85828000D01*
X64605000Y-85986750D01*
X63411000Y-85986750D01*
X63252250Y-85828000D01*
X62103000Y-85828000D01*
X61849000Y-85828000D01*
X61829000Y-85828000D01*
X61829000Y-85574000D01*
X61849000Y-85574000D01*
X61849000Y-85554000D01*
X62103000Y-85554000D01*
X62103000Y-85574000D01*
X63252250Y-85574000D01*
X63411000Y-85415250D01*
X63411000Y-85074691D01*
X64605000Y-85074691D01*
X64605000Y-85415250D01*
X64763750Y-85574000D01*
X65913000Y-85574000D01*
X65913000Y-84724750D01*
X66167000Y-84724750D01*
X66167000Y-85574000D01*
X67316250Y-85574000D01*
X67475000Y-85415250D01*
X67475000Y-85074691D01*
X67378327Y-84841302D01*
X67199699Y-84662673D01*
X66966310Y-84566000D01*
X66325750Y-84566000D01*
X66167000Y-84724750D01*
X65913000Y-84724750D01*
X65754250Y-84566000D01*
X65113690Y-84566000D01*
X64880301Y-84662673D01*
X64701673Y-84841302D01*
X64605000Y-85074691D01*
X63411000Y-85074691D01*
X63314327Y-84841302D01*
X63135699Y-84662673D01*
X62902310Y-84566000D01*
X62261750Y-84566000D01*
X62103002Y-84724748D01*
X62103002Y-84566000D01*
X62071458Y-84566000D01*
X62531079Y-84106379D01*
X62701245Y-83851707D01*
X62701895Y-83848440D01*
X62776000Y-83848440D01*
X63011317Y-83804162D01*
X63227441Y-83665090D01*
X63349808Y-83486000D01*
X64668808Y-83486000D01*
X64775910Y-83652441D01*
X64988110Y-83797431D01*
X65240000Y-83848440D01*
X66840000Y-83848440D01*
X67075317Y-83804162D01*
X67291441Y-83665090D01*
X67436431Y-83452890D01*
X67487440Y-83201000D01*
X67487440Y-82201000D01*
X67443162Y-81965683D01*
X67304090Y-81749559D01*
X67271739Y-81727455D01*
X67400792Y-81598627D01*
X67543438Y-81255099D01*
X67543762Y-80883133D01*
X67401717Y-80539357D01*
X67138927Y-80276108D01*
X66795399Y-80133462D01*
X66423433Y-80133138D01*
X66079657Y-80275183D01*
X65816408Y-80537973D01*
X65673762Y-80881501D01*
X65673752Y-80892990D01*
X65484921Y-81081821D01*
X65314755Y-81336493D01*
X65271577Y-81553560D01*
X65240000Y-81553560D01*
X65004683Y-81597838D01*
X64788559Y-81736910D01*
X64666192Y-81916000D01*
X63347192Y-81916000D01*
X63240090Y-81749559D01*
X63027890Y-81604569D01*
X62776000Y-81553560D01*
X61176000Y-81553560D01*
X60940683Y-81597838D01*
X60724559Y-81736910D01*
X60579569Y-81949110D01*
X60528560Y-82201000D01*
X60528560Y-83201000D01*
X60572838Y-83436317D01*
X60711910Y-83652441D01*
X60743272Y-83673870D01*
X59424142Y-84993000D01*
X59047018Y-84993000D01*
X58972090Y-84876559D01*
X58759890Y-84731569D01*
X58508000Y-84680560D01*
X56808000Y-84680560D01*
X56572683Y-84724838D01*
X56356559Y-84863910D01*
X56268356Y-84993000D01*
X46934058Y-84993000D01*
X45498498Y-83557440D01*
X45822000Y-83557440D01*
X46057317Y-83513162D01*
X46273441Y-83374090D01*
X46418431Y-83161890D01*
X46442102Y-83045000D01*
X51599962Y-83045000D01*
X51618838Y-83145317D01*
X51757910Y-83361441D01*
X51970110Y-83506431D01*
X52222000Y-83557440D01*
X53772000Y-83557440D01*
X54007317Y-83513162D01*
X54223441Y-83374090D01*
X54304342Y-83255687D01*
X54340100Y-83262800D01*
X56160560Y-83262800D01*
X56160560Y-83328000D01*
X56204838Y-83563317D01*
X56343910Y-83779441D01*
X56556110Y-83924431D01*
X56808000Y-83975440D01*
X58508000Y-83975440D01*
X58743317Y-83931162D01*
X58959441Y-83792090D01*
X59104431Y-83579890D01*
X59155440Y-83328000D01*
X59155440Y-82428000D01*
X59111162Y-82192683D01*
X59088497Y-82157461D01*
X61255518Y-79990440D01*
X62776000Y-79990440D01*
X63011317Y-79946162D01*
X63227441Y-79807090D01*
X63372431Y-79594890D01*
X63423440Y-79343000D01*
X63423440Y-78343000D01*
X63379162Y-78107683D01*
X63240090Y-77891559D01*
X63027890Y-77746569D01*
X62776000Y-77695560D01*
X61176000Y-77695560D01*
X60940683Y-77739838D01*
X60724559Y-77878910D01*
X60579569Y-78091110D01*
X60576225Y-78107624D01*
X60525294Y-78117755D01*
X60270621Y-78287921D01*
X60100455Y-78542594D01*
X60040700Y-78843000D01*
X60040700Y-78984942D01*
X57332842Y-81692800D01*
X54659239Y-81692800D01*
X54422707Y-81534755D01*
X54404604Y-81531154D01*
X54375162Y-81374683D01*
X54236090Y-81158559D01*
X54023890Y-81013569D01*
X53772000Y-80962560D01*
X52222000Y-80962560D01*
X51986683Y-81006838D01*
X51770559Y-81145910D01*
X51625569Y-81358110D01*
X51601898Y-81475000D01*
X46444038Y-81475000D01*
X46425162Y-81374683D01*
X46286090Y-81158559D01*
X46073890Y-81013569D01*
X45831900Y-80964565D01*
X45831900Y-79606600D01*
X45772145Y-79306194D01*
X45601979Y-79051521D01*
X45595458Y-79045000D01*
X45948309Y-79045000D01*
X46181698Y-78948327D01*
X46360327Y-78769699D01*
X46457000Y-78536310D01*
X46457000Y-78045750D01*
X51587000Y-78045750D01*
X51587000Y-78536310D01*
X51683673Y-78769699D01*
X51862302Y-78948327D01*
X52095691Y-79045000D01*
X52711250Y-79045000D01*
X52870000Y-78886250D01*
X52870000Y-77887000D01*
X53124000Y-77887000D01*
X53124000Y-78886250D01*
X53282750Y-79045000D01*
X53898309Y-79045000D01*
X54131698Y-78948327D01*
X54310327Y-78769699D01*
X54407000Y-78536310D01*
X54407000Y-78045750D01*
X54248250Y-77887000D01*
X53124000Y-77887000D01*
X52870000Y-77887000D01*
X51745750Y-77887000D01*
X51587000Y-78045750D01*
X46457000Y-78045750D01*
X46298250Y-77887000D01*
X45174000Y-77887000D01*
X45174000Y-77907000D01*
X44920000Y-77907000D01*
X44920000Y-77887000D01*
X44900000Y-77887000D01*
X44900000Y-77633000D01*
X44920000Y-77633000D01*
X44920000Y-77613000D01*
X45174000Y-77613000D01*
X45174000Y-77633000D01*
X46298250Y-77633000D01*
X46457000Y-77474250D01*
X46457000Y-76983690D01*
X51587000Y-76983690D01*
X51587000Y-77474250D01*
X51745750Y-77633000D01*
X52870000Y-77633000D01*
X52870000Y-76633750D01*
X53124000Y-76633750D01*
X53124000Y-77633000D01*
X54248250Y-77633000D01*
X54407000Y-77474250D01*
X54407000Y-76983690D01*
X54310327Y-76750301D01*
X54131698Y-76571673D01*
X53898309Y-76475000D01*
X53282750Y-76475000D01*
X53124000Y-76633750D01*
X52870000Y-76633750D01*
X52711250Y-76475000D01*
X52095691Y-76475000D01*
X51862302Y-76571673D01*
X51683673Y-76750301D01*
X51587000Y-76983690D01*
X46457000Y-76983690D01*
X46360327Y-76750301D01*
X46181698Y-76571673D01*
X45948309Y-76475000D01*
X45470458Y-76475000D01*
X46061767Y-75883691D01*
X46307079Y-75719779D01*
X46512279Y-75514579D01*
X46586458Y-75403562D01*
X46597140Y-75410861D01*
X46849030Y-75461870D01*
X48446690Y-75461870D01*
X48682007Y-75417592D01*
X48898131Y-75278520D01*
X49043121Y-75066320D01*
X49094130Y-74814430D01*
X49094130Y-74699000D01*
X49522560Y-74699000D01*
X49522560Y-74764000D01*
X49566838Y-74999317D01*
X49705910Y-75215441D01*
X49918110Y-75360431D01*
X50170000Y-75411440D01*
X51070000Y-75411440D01*
X51305317Y-75367162D01*
X51521441Y-75228090D01*
X51666431Y-75015890D01*
X51717440Y-74764000D01*
X51717440Y-73064000D01*
X51673162Y-72828683D01*
X51534090Y-72612559D01*
X51321890Y-72467569D01*
X51070000Y-72416560D01*
X50170000Y-72416560D01*
X49934683Y-72460838D01*
X49718559Y-72599910D01*
X49573569Y-72812110D01*
X49522560Y-73064000D01*
X49522560Y-73129000D01*
X49094130Y-73129000D01*
X49094130Y-73013570D01*
X49049852Y-72778253D01*
X48910780Y-72562129D01*
X48698580Y-72417139D01*
X48446690Y-72366130D01*
X46849030Y-72366130D01*
X46742200Y-72386231D01*
X46742200Y-71376236D01*
X46849030Y-71397870D01*
X48446690Y-71397870D01*
X48682007Y-71353592D01*
X48898131Y-71214520D01*
X49043121Y-71002320D01*
X49094130Y-70750430D01*
X49094130Y-70635000D01*
X49522560Y-70635000D01*
X49522560Y-70700000D01*
X49566838Y-70935317D01*
X49705910Y-71151441D01*
X49918110Y-71296431D01*
X50170000Y-71347440D01*
X51070000Y-71347440D01*
X51305317Y-71303162D01*
X51521441Y-71164090D01*
X51666431Y-70951890D01*
X51717440Y-70700000D01*
X51717440Y-69000000D01*
X51673162Y-68764683D01*
X51534090Y-68548559D01*
X51321890Y-68403569D01*
X51070000Y-68352560D01*
X50170000Y-68352560D01*
X49934683Y-68396838D01*
X49718559Y-68535910D01*
X49573569Y-68748110D01*
X49522560Y-69000000D01*
X49522560Y-69065000D01*
X49094130Y-69065000D01*
X49094130Y-68949570D01*
X49049852Y-68714253D01*
X48910780Y-68498129D01*
X48698580Y-68353139D01*
X48446690Y-68302130D01*
X46849030Y-68302130D01*
X46690418Y-68331975D01*
X46682445Y-68291894D01*
X46512279Y-68037221D01*
X44539026Y-66063968D01*
X44951955Y-66223737D01*
X45741418Y-66205164D01*
X46384522Y-65938782D01*
X46525988Y-65635593D01*
X45300000Y-64409605D01*
X45285858Y-64423748D01*
X45106253Y-64244143D01*
X45120395Y-64230000D01*
X45479605Y-64230000D01*
X46705593Y-65455988D01*
X47008782Y-65314522D01*
X47293737Y-64578045D01*
X47275164Y-63788582D01*
X47008782Y-63145478D01*
X46705593Y-63004012D01*
X45479605Y-64230000D01*
X45120395Y-64230000D01*
X45106253Y-64215858D01*
X45285858Y-64036253D01*
X45300000Y-64050395D01*
X46525988Y-62824407D01*
X46384522Y-62521218D01*
X45648045Y-62236263D01*
X44858582Y-62254836D01*
X44378200Y-62453816D01*
X44378200Y-60478764D01*
X47200841Y-60478764D01*
X47270059Y-60720742D01*
X47792780Y-60907155D01*
X48347049Y-60879341D01*
X48729941Y-60720742D01*
X48799159Y-60478764D01*
X48000000Y-59679605D01*
X47200841Y-60478764D01*
X44378200Y-60478764D01*
X44378200Y-59292780D01*
X46592845Y-59292780D01*
X46620659Y-59847049D01*
X46779258Y-60229941D01*
X47021236Y-60299159D01*
X47820395Y-59500000D01*
X47021236Y-58700841D01*
X46779258Y-58770059D01*
X46592845Y-59292780D01*
X44378200Y-59292780D01*
X44378200Y-57236265D01*
X46604758Y-57236265D01*
X46816687Y-57749172D01*
X47208764Y-58141934D01*
X47404934Y-58223391D01*
X47270059Y-58279258D01*
X47200841Y-58521236D01*
X48000000Y-59320395D01*
X48799159Y-58521236D01*
X48729941Y-58279258D01*
X48585138Y-58227618D01*
X48789172Y-58143313D01*
X49000024Y-57932829D01*
X49208764Y-58141934D01*
X49420738Y-58229954D01*
X49210828Y-58316687D01*
X48818066Y-58708764D01*
X48709581Y-58970024D01*
X48179605Y-59500000D01*
X48709595Y-60029990D01*
X48816687Y-60289172D01*
X49208764Y-60681934D01*
X49721300Y-60894758D01*
X50276265Y-60895242D01*
X50789172Y-60683313D01*
X51181934Y-60291236D01*
X51394758Y-59778700D01*
X51395242Y-59223735D01*
X51183313Y-58710828D01*
X50791236Y-58318066D01*
X50579262Y-58230046D01*
X50789172Y-58143313D01*
X51181934Y-57751236D01*
X51394758Y-57238700D01*
X51395242Y-56683735D01*
X51183313Y-56170828D01*
X50791236Y-55778066D01*
X50278700Y-55565242D01*
X49723735Y-55564758D01*
X49210828Y-55776687D01*
X48999976Y-55987171D01*
X48791236Y-55778066D01*
X48278700Y-55565242D01*
X47723735Y-55564758D01*
X47210828Y-55776687D01*
X46818066Y-56168764D01*
X46605242Y-56681300D01*
X46604758Y-57236265D01*
X44378200Y-57236265D01*
X44378200Y-54001742D01*
X44951955Y-54223737D01*
X45741418Y-54205164D01*
X46384522Y-53938782D01*
X46525988Y-53635593D01*
X45300000Y-52409605D01*
X45285858Y-52423748D01*
X45106253Y-52244143D01*
X45120395Y-52230000D01*
X45479605Y-52230000D01*
X46705593Y-53455988D01*
X47008782Y-53314522D01*
X47293737Y-52578045D01*
X47275164Y-51788582D01*
X47008782Y-51145478D01*
X46705593Y-51004012D01*
X45479605Y-52230000D01*
X45120395Y-52230000D01*
X45106253Y-52215858D01*
X45285858Y-52036253D01*
X45300000Y-52050395D01*
X46525988Y-50824407D01*
X46384522Y-50521218D01*
X45859557Y-50318101D01*
X53219908Y-42957750D01*
X58459000Y-42957750D01*
X58459000Y-43648309D01*
X58555673Y-43881698D01*
X58734301Y-44060327D01*
X58967690Y-44157000D01*
X59658250Y-44157000D01*
X59817000Y-43998250D01*
X59817000Y-42799000D01*
X58617750Y-42799000D01*
X58459000Y-42957750D01*
X53219908Y-42957750D01*
X54481967Y-41695691D01*
X58459000Y-41695691D01*
X58459000Y-42386250D01*
X58617750Y-42545000D01*
X59817000Y-42545000D01*
X59817000Y-40259000D01*
X58623181Y-40259000D01*
X58502514Y-40488892D01*
X58748817Y-41013358D01*
X58948208Y-41195070D01*
X58734301Y-41283673D01*
X58555673Y-41462302D01*
X58459000Y-41695691D01*
X54481967Y-41695691D01*
X56467558Y-39710100D01*
X58533043Y-39710100D01*
X58502514Y-39775108D01*
G36*
X77343000Y-72771000D02*
X77363000Y-72771000D01*
X77363000Y-73025000D01*
X77343000Y-73025000D01*
X77343000Y-73045000D01*
X77089000Y-73045000D01*
X77089000Y-73025000D01*
X77069000Y-73025000D01*
X77069000Y-72771000D01*
X77089000Y-72771000D01*
X77089000Y-72751000D01*
X77343000Y-72751000D01*
X77343000Y-72771000D01*
X77343000Y-72771000D01*
G37*
X77343000Y-72771000D02*
X77363000Y-72771000D01*
X77363000Y-73025000D01*
X77343000Y-73025000D01*
X77343000Y-73045000D01*
X77089000Y-73045000D01*
X77089000Y-73025000D01*
X77069000Y-73025000D01*
X77069000Y-72771000D01*
X77089000Y-72771000D01*
X77089000Y-72751000D01*
X77343000Y-72751000D01*
X77343000Y-72771000D01*
G36*
X65945000Y-54324250D02*
X66103750Y-54483000D01*
X66953000Y-54483000D01*
X66953000Y-54463000D01*
X67154700Y-54463000D01*
X67154700Y-57551000D01*
X66953000Y-57551000D01*
X66953000Y-57531000D01*
X66103750Y-57531000D01*
X65945000Y-57689750D01*
X65945000Y-57965200D01*
X63627000Y-57965200D01*
X63627000Y-57962798D01*
X63552280Y-57962798D01*
X63588431Y-57909890D01*
X63599063Y-57857387D01*
X63627000Y-57829450D01*
X63627000Y-57760291D01*
X63621443Y-57746874D01*
X63639440Y-57658000D01*
X63639440Y-57251600D01*
X63614666Y-57119938D01*
X63639440Y-56997600D01*
X63639440Y-56591200D01*
X63614666Y-56459538D01*
X63639440Y-56337200D01*
X63639440Y-55930800D01*
X63617143Y-55812304D01*
X63639440Y-55702200D01*
X63639440Y-55295800D01*
X63595162Y-55060483D01*
X63489160Y-54895750D01*
X65945000Y-54895750D01*
X65945000Y-55536310D01*
X66041673Y-55769699D01*
X66220302Y-55948327D01*
X66361951Y-56007000D01*
X66220302Y-56065673D01*
X66041673Y-56244301D01*
X65945000Y-56477690D01*
X65945000Y-57118250D01*
X66103750Y-57277000D01*
X66953000Y-57277000D01*
X66953000Y-56127750D01*
X66832250Y-56007000D01*
X66953000Y-55886250D01*
X66953000Y-54737000D01*
X66103750Y-54737000D01*
X65945000Y-54895750D01*
X63489160Y-54895750D01*
X63456090Y-54844359D01*
X63243890Y-54699369D01*
X62992000Y-54648360D01*
X61722000Y-54648360D01*
X61638780Y-54664019D01*
X61476446Y-54596612D01*
X62065358Y-54007700D01*
X65945000Y-54007700D01*
X65945000Y-54324250D01*
X65945000Y-54324250D01*
G37*
X65945000Y-54324250D02*
X66103750Y-54483000D01*
X66953000Y-54483000D01*
X66953000Y-54463000D01*
X67154700Y-54463000D01*
X67154700Y-57551000D01*
X66953000Y-57551000D01*
X66953000Y-57531000D01*
X66103750Y-57531000D01*
X65945000Y-57689750D01*
X65945000Y-57965200D01*
X63627000Y-57965200D01*
X63627000Y-57962798D01*
X63552280Y-57962798D01*
X63588431Y-57909890D01*
X63599063Y-57857387D01*
X63627000Y-57829450D01*
X63627000Y-57760291D01*
X63621443Y-57746874D01*
X63639440Y-57658000D01*
X63639440Y-57251600D01*
X63614666Y-57119938D01*
X63639440Y-56997600D01*
X63639440Y-56591200D01*
X63614666Y-56459538D01*
X63639440Y-56337200D01*
X63639440Y-55930800D01*
X63617143Y-55812304D01*
X63639440Y-55702200D01*
X63639440Y-55295800D01*
X63595162Y-55060483D01*
X63489160Y-54895750D01*
X65945000Y-54895750D01*
X65945000Y-55536310D01*
X66041673Y-55769699D01*
X66220302Y-55948327D01*
X66361951Y-56007000D01*
X66220302Y-56065673D01*
X66041673Y-56244301D01*
X65945000Y-56477690D01*
X65945000Y-57118250D01*
X66103750Y-57277000D01*
X66953000Y-57277000D01*
X66953000Y-56127750D01*
X66832250Y-56007000D01*
X66953000Y-55886250D01*
X66953000Y-54737000D01*
X66103750Y-54737000D01*
X65945000Y-54895750D01*
X63489160Y-54895750D01*
X63456090Y-54844359D01*
X63243890Y-54699369D01*
X62992000Y-54648360D01*
X61722000Y-54648360D01*
X61638780Y-54664019D01*
X61476446Y-54596612D01*
X62065358Y-54007700D01*
X65945000Y-54007700D01*
X65945000Y-54324250D01*
M02*
